<svg xmlns="http://www.w3.org/2000/svg" width="118" height="229" viewBox="0 0 118 229">
    <g fill="none" fill-rule="evenodd">
        <path fill="#1B4E24" d="M48.752 91.373c-.34-1.02-.67-1.996-.998-2.93-3.125-8.916-8.96-10.142-16.486-14.597-2.843-1.684-9.864-5.137-10.62-3.496-1.067 2.313 4.887 8.666 9.204 13.372 2.014 2.197 3.502 5.05 4.315 8.237a89.577 89.577 0 0 0 1.784 6.078c4.411 13.284 10.853 22.56 14.388 20.72 3.534-1.84 2.824-14.1-1.587-27.384"/>
        <path fill="#1C391D" d="M68.456 87.064c6.1 12.47-8.811 9.278-12.963 14.338-4.53 5.519-15.75 8.833-15.719-5.107.022-9.238-.81-19.142 7.682-21.273 6.408-1.607 16.843 3.545 21 12.042"/>
        <path fill="#1C391D" d="M59.962 190.192V58.282c0-.304-.215-.55-.481-.55s-.481.246-.481.55v131.91h.962z"/>
        <path fill="#1F672D" d="M57.717 190.192V58.282c0-.304-.215-.55-.48-.55-.266 0-.482.246-.482.55v131.91h.962z"/>
        <path fill="#167C34" d="M58.217 190.192h1.104l-9.808-92.52a.55.55 0 0 0-.604-.488.55.55 0 0 0-.487.605l9.795 92.403zM60.603 190.192l-5.93-71.657a.56.56 0 0 0-.607-.505.555.555 0 0 0-.515.594l5.923 71.568h1.13z"/>
        <path fill="#1F672D" d="M58.503 190.192l15.239-89.8a.55.55 0 0 0-.445-.637.544.544 0 0 0-.63.45l-15.27 89.987h1.106z"/>
        <path fill="#1C391D" d="M60.483 190.192l20.615-63.747a.55.55 0 0 0-.357-.693.555.555 0 0 0-.696.355L59.32 190.192h1.162z"/>
        <path fill="#1B4E24" d="M56.876 190.192h1.162l-17.525-51.904a.55.55 0 1 0-1.044.353l17.407 51.55z"/>
        <path fill="#1C391D" d="M50.342 190.192l-19.117-76.237a.55.55 0 1 0-1.067.268l19.05 75.969h1.134zM59.32 190.192l-6.28-89.293a.549.549 0 1 0-1.093.078l6.275 89.215h1.099z"/>
        <path fill="#1F672D" d="M57.228 190.192h1.13l-14.294-69.478a.552.552 0 0 0-.654-.43.55.55 0 0 0-.431.65l14.25 69.258zM59.816 190.192l16.804-68.918a.552.552 0 1 0-1.073-.26L58.68 190.193h1.137z"/>
        <path fill="#1B4E24" d="M51.946 190.513l-2.41-66.18a.557.557 0 0 0-.579-.532.555.555 0 0 0-.538.572l2.408 66.14h1.119z"/>
        <path fill="#1C391D" d="M58.173 190.192L68.295 101a.549.549 0 0 0-.48-.61.547.547 0 0 0-.603.484l-10.136 89.317h1.097z"/>
        <path fill="#1C5427" d="M58.167 190.192l6.924-84.718a.549.549 0 0 0-.497-.594.545.545 0 0 0-.587.503l-6.93 84.809h1.09z"/>
        <path fill="#A47644" d="M102.77 51.96c-.274-.016-.396.07-.418.248-.09.71-.299 1.399-.764 1.942-3.501 4.09-9.595 10.257-11.536 20.177-.197 1.005-.62 2.742-1.231 4.893.614-1.875 1.046-3.396 1.253-4.29 3.77-16.28 16.836-22.725 12.695-22.97"/>
        <path fill="#1B4E24" d="M69.997 137.028c-4.457 3.44-8.614 2.867-12.98 2.602-12.21-.744-5.825-8.593-.435-10.173 7.134-2.09 11.09-2.89 19.156-1.254 4.288.87-1.285 5.387-5.741 8.825M24.087 139.617c4.422 3.38 11.8 4.879 13.486 4.696 12.067-1.307 3.199-10.411-2.15-11.964-7.079-2.055-17.886-4.932-22.918-2.466 0 0 7.159 6.353 11.582 9.734"/>
        <path fill="#1C391D" d="M67.978 41.695c0 9.21-3.445 16.678-7.696 16.678-4.25 0-7.695-7.467-7.695-16.678 0-9.211 7.695-16.678 7.695-16.678s7.696 7.467 7.696 16.678M115.755 115.247c-4.26-1.405-7.149-.77-8.982-.555-.343.04-.9.127-1.238.199l-6.328 1.342a.453.453 0 0 0-.028.007l-6.4 1.993a20.21 20.21 0 0 0-4.997 2.345 21.667 21.667 0 0 0-6.006 5.83l-.787 1.134a.33.33 0 0 1-.017.023l-1.84 2.213c-.222.267-.649.039-.553-.298l.507-1.79a.327.327 0 0 0-.035-.258l-.764-1.252a.326.326 0 0 1 .03-.382l4.189-4.869a11.564 11.564 0 0 1 4.323-3.137l8.151-3.39c.288-.119.588-.205.894-.257l6.048-1.026a.298.298 0 0 1 .04-.008l7.144-1.177-1.752.928c-1.216.785.483.579.786.569l2.19-.071c.77-.025 1.536.1 2.258.369l3.167 1.518zM117.895 36.242a52.87 52.87 0 0 0-5.464.279l-.8 2.861.08-2.78c-7.302.867-12.974 3.211-17.356 5.895l2.022 5.086-3.14-4.377c-5.292 3.478-8.548 7.343-10.473 9.248-3.973 3.93-18.772 25.797-12.702 28.748 6.07 2.95 19.947-19.768 22.716-23.796 2.768-4.027 27.01-21.164 25.117-21.164"/>
        <path fill="#1F672D" d="M103.171 85.32c-2.115-.039-4.2.102-6.22.433l-.518 2.184-.025-2.09c-3.782.689-7.32 2.067-10.369 4.242l.316 4.313-1.2-3.648a22.299 22.299 0 0 0-4.272 4.471c-.57.79-2.344 3.538-2.945 4.41-7.407 10.743-6.804 23.345-3.22 25.809 3.586 2.464 8.188-2.664 14.352-14.788.522-1.027.97-2.298 1.381-3.655 1.657-5.473 4.16-11.103 9.305-13.613 5.426-2.646 10.869-5.417 10.869-6.264 0-1.175-3.764-1.736-7.454-1.804"/>
        <path fill="#1D540D" d="M46.15 67.595c-1.318-3.762-3.12-6.152-5.328-7.996l-2.163 2.406 1.542-2.904c-2.45-1.88-5.361-3.217-8.638-5.022l-1.567 2.945.838-3.351c-.385-.218-.774-.441-1.169-.675-2.844-1.684-9.864-5.137-10.62-3.495-1.068 2.313 4.887 8.666 9.203 13.372 2.015 2.196 3.503 5.05 4.315 8.236a89.57 89.57 0 0 0 1.785 6.078C38.759 90.473 45.2 99.75 48.735 97.91c3.535-1.84 2.825-14.1-1.587-27.384-.338-1.02-.67-1.996-.997-2.93"/>
        <path fill="#167C34" d="M90.106 36.407l7.852-6.956c1.67-2.399 2.386-4.712 1.119-6.708l-.02-.022-1.767 3.326.898-3.595c-.714-.015-1.797.173-3.125.514l-1.133 2.133.49-1.961c-2.616.724-6.01 1.953-9.363 3.359l.445 2.412-.99-2.182c-3.504 1.49-6.91 3.156-9.279 4.618l.65 3.53-1.386-3.06c-.46.306-.87.6-1.213.879-5.085 4.117-15.628 17.14-8.9 25.153 6.729 8.014 16.31-8.798 19.738-14.132 1.516-2.358 5.39-5.507 8.898-8.827l-2.914 1.519z"/>
        <path fill="#1C5427" d="M57.081 25.368a199.588 199.588 0 0 0-1.5-3.536A36.201 36.201 0 0 0 43.128 6.615L38.52 13.64l2.863-8.168A34.85 34.85 0 0 0 29.805.962C24.977.026 20.719-.74 19.58 1.24c-1.603 2.791 2.595 9.217 9.085 14.896a21.926 21.926 0 0 1 4.511 5.484l9.206 2.505-8.02-.163c.298.689.561 1.394.79 2.113a92.504 92.504 0 0 0 2.683 7.334c6.632 16.03 16.317 27.224 21.631 25.004 5.315-2.22 4.247-17.015-2.386-33.045"/>
        <path fill="#1C391D" d="M25.207 93.726a39.402 39.402 0 0 0-2.243-1.691l-1.38 3.185.619-3.703c-3.43-2.268-6.579-3.473-9.36-3.98l-.074 4.523-1.086-4.698C4.191 86.472-.33 90.63.02 91.766c.525 1.713 5 .327 9.927 3.38l5.606.307-4.126.745c1.73 1.394 3.473 3.412 5.081 6.374 2.43 4.474 6.489 14.329 14.056 11.857 7.162-2.34-1.278-17.395-5.356-20.703"/>
        <path fill="#CEB987" d="M56.114 166.779c0 .708-.861 1.283-1.924 1.283-1.062 0-1.924-.575-1.924-1.283 0-.709.862-1.283 1.924-1.283 1.063 0 1.924.574 1.924 1.283"/>
        <path fill="#70663F" d="M43.288 166.458c0 .532-.646.962-1.443.962s-1.443-.43-1.443-.962.646-.962 1.443-.962 1.443.43 1.443.962M55.473 167.741c0 .886-1.436 1.604-3.207 1.604-1.77 0-3.206-.718-3.206-1.604 0-.886 1.435-1.604 3.206-1.604s3.207.718 3.207 1.604"/>
        <path fill="#C0B08A" d="M53.87 165.496c0 .708-.862 1.283-1.924 1.283-1.063 0-1.924-.575-1.924-1.283 0-.709.861-1.283 1.924-1.283 1.062 0 1.924.574 1.924 1.283"/>
        <path fill="#AA9973" d="M37.837 168.382c0 .886-1.005 1.604-2.244 1.604-1.24 0-2.245-.718-2.245-1.604 0-.885 1.005-1.603 2.245-1.603 1.239 0 2.244.718 2.244 1.603"/>
        <path fill="#9F957E" d="M40.402 166.94c0 .62-.718 1.122-1.603 1.122s-1.603-.503-1.603-1.123.718-1.122 1.603-1.122 1.603.502 1.603 1.122M57.397 168.222c0 .62-.718 1.123-1.604 1.123-.885 0-1.603-.503-1.603-1.123s.718-1.123 1.603-1.123c.886 0 1.604.503 1.604 1.123"/>
        <path fill="#C0B08A" d="M47.136 166.779c0 .885-1.005 1.603-2.245 1.603-1.24 0-2.244-.718-2.244-1.603 0-.886 1.005-1.604 2.244-1.604 1.24 0 2.245.718 2.245 1.604"/>
        <path fill="#C0B08A" d="M43.288 167.741c0 .886-1.005 1.604-2.245 1.604-1.24 0-2.244-.718-2.244-1.604 0-.886 1.005-1.604 2.244-1.604 1.24 0 2.245.718 2.245 1.604"/>
        <path fill="#CEB987" d="M49.06 166.298c0 .62-.718 1.122-1.604 1.122-.885 0-1.603-.503-1.603-1.122 0-.62.718-1.123 1.603-1.123.886 0 1.604.503 1.604 1.123M39.76 167.901c0 .62-.717 1.123-1.603 1.123-.885 0-1.603-.503-1.603-1.123s.718-1.122 1.603-1.122c.886 0 1.604.502 1.604 1.122M45.21 165.535c.037.616-.65 1.17-1.534 1.237-.885.067-1.632-.378-1.67-.995-.036-.616.651-1.17 1.536-1.237.884-.067 1.631.379 1.669.995"/>
        <path fill="#CEB987" d="M44.57 167.901c0 .62-.717 1.123-1.602 1.123-.886 0-1.604-.503-1.604-1.123s.718-1.122 1.604-1.122c.885 0 1.603.502 1.603 1.122"/>
        <path fill="#70663F" d="M46.495 167.74c0 .532-.646.963-1.443.963s-1.443-.43-1.443-.962.646-.962 1.443-.962 1.443.43 1.443.962M51.304 166.137c0 .532-.646.962-1.443.962-.796 0-1.443-.43-1.443-.962 0-.531.647-.962 1.443-.962.797 0 1.443.43 1.443.962"/>
        <path fill="#AA9973" d="M50.984 167.741c0 .886-1.077 1.604-2.405 1.604-1.328 0-2.405-.718-2.405-1.604 0-.886 1.077-1.604 2.405-1.604 1.328 0 2.405.718 2.405 1.604"/>
        <path fill="#CEB987" d="M84.01 166.779c0 .708-.86 1.283-1.923 1.283-1.062 0-1.924-.575-1.924-1.283 0-.709.862-1.283 1.924-1.283 1.063 0 1.924.574 1.924 1.283"/>
        <path fill="#70663F" d="M70.864 166.137c0 .532-.646.962-1.443.962s-1.443-.43-1.443-.962c0-.531.646-.962 1.443-.962s1.443.431 1.443.962M83.37 167.74c0 .887-1.436 1.605-3.207 1.605s-3.206-.718-3.206-1.604c0-.886 1.435-1.604 3.206-1.604s3.207.718 3.207 1.604"/>
        <path fill="#C0B08A" d="M81.766 165.496c0 .709-.861 1.283-1.924 1.283-1.062 0-1.924-.574-1.924-1.283s.862-1.283 1.924-1.283c1.063 0 1.924.574 1.924 1.283"/>
        <path fill="#AA9973" d="M65.734 168.061c0 .886-1.005 1.604-2.245 1.604-1.24 0-2.244-.718-2.244-1.604 0-.885 1.004-1.603 2.244-1.603 1.24 0 2.245.718 2.245 1.603"/>
        <path fill="#9F957E" d="M68.299 166.618c0 .62-.718 1.123-1.603 1.123-.886 0-1.604-.503-1.604-1.123s.718-1.122 1.604-1.122c.885 0 1.603.502 1.603 1.122M85.293 168.222c0 .62-.717 1.123-1.603 1.123-.885 0-1.603-.503-1.603-1.123s.718-1.123 1.603-1.123c.886 0 1.603.503 1.603 1.123"/>
        <path fill="#C0B08A" d="M75.033 166.779c0 .885-1.005 1.603-2.245 1.603-1.24 0-2.245-.718-2.245-1.603 0-.886 1.005-1.604 2.245-1.604 1.24 0 2.245.718 2.245 1.604"/>
        <path fill="#C0B08A" d="M71.185 167.74c0 .887-1.005 1.605-2.245 1.605-1.24 0-2.244-.718-2.244-1.604 0-.886 1.005-1.604 2.244-1.604 1.24 0 2.245.718 2.245 1.604"/>
        <path fill="#CEB987" d="M76.957 166.298c0 .62-.718 1.122-1.604 1.122-.885 0-1.603-.503-1.603-1.122 0-.62.718-1.123 1.603-1.123.886 0 1.604.503 1.604 1.123M67.658 167.901c0 .62-.718 1.123-1.603 1.123-.886 0-1.604-.503-1.604-1.123s.718-1.122 1.604-1.122c.885 0 1.603.502 1.603 1.122M73.107 165.214c.037.616-.65 1.17-1.535 1.237-.884.067-1.631-.378-1.668-.994-.037-.616.65-1.17 1.534-1.237.885-.068 1.632.378 1.67.994"/>
        <path fill="#CEB987" d="M72.467 167.58c0 .62-.717 1.123-1.603 1.123-.885 0-1.603-.503-1.603-1.122 0-.62.718-1.123 1.603-1.123.886 0 1.603.503 1.603 1.123"/>
        <path fill="#70663F" d="M74.391 167.74c0 .532-.646.963-1.443.963s-1.443-.43-1.443-.962.646-.962 1.443-.962 1.443.43 1.443.962M78.88 165.817c0 .531-.645.962-1.443.962-.797 0-1.442-.43-1.442-.962s.645-.963 1.442-.963c.798 0 1.443.431 1.443.963"/>
        <path fill="#AA9973" d="M78.56 167.74c0 .887-1.077 1.605-2.405 1.605-1.328 0-2.405-.718-2.405-1.604 0-.886 1.077-1.604 2.405-1.604 1.328 0 2.405.718 2.405 1.604"/>
        <path fill="#CEB987" d="M48.098 166.137c0 .709-.861 1.283-1.924 1.283s-1.924-.574-1.924-1.283c0-.708.861-1.283 1.924-1.283s1.924.575 1.924 1.283"/>
        <path fill="#70663F" d="M34.951 165.817c0 .531-.646.962-1.443.962s-1.443-.43-1.443-.962.646-.963 1.443-.963 1.443.431 1.443.963M47.457 167.42c0 .886-1.436 1.604-3.207 1.604s-3.207-.718-3.207-1.604c0-.886 1.436-1.603 3.207-1.603 1.77 0 3.207.717 3.207 1.603"/>
        <path fill="#C0B08A" d="M45.853 165.175c0 .709-.861 1.283-1.924 1.283-1.062 0-1.924-.574-1.924-1.283s.862-1.283 1.924-1.283c1.063 0 1.924.574 1.924 1.283"/>
        <path fill="#AA9973" d="M29.82 167.741c0 .886-1.004 1.604-2.244 1.604-1.24 0-2.244-.718-2.244-1.604 0-.886 1.005-1.604 2.244-1.604 1.24 0 2.245.718 2.245 1.604"/>
        <path fill="#9F957E" d="M32.386 166.298c0 .62-.718 1.122-1.603 1.122-.886 0-1.604-.502-1.604-1.122 0-.62.718-1.123 1.604-1.123.885 0 1.603.503 1.603 1.123M49.38 167.58c0 .62-.717 1.123-1.603 1.123-.885 0-1.603-.502-1.603-1.122 0-.62.718-1.123 1.603-1.123.886 0 1.603.502 1.603 1.123"/>
        <path fill="#C0B08A" d="M39.12 166.458c0 .886-1.005 1.604-2.245 1.604-1.24 0-2.245-.718-2.245-1.604 0-.886 1.005-1.604 2.245-1.604 1.24 0 2.245.718 2.245 1.604"/>
        <path fill="#C0B08A" d="M34.951 167.42c0 .886-1.005 1.604-2.244 1.604-1.24 0-2.245-.718-2.245-1.604 0-.886 1.005-1.603 2.245-1.603 1.24 0 2.244.717 2.244 1.603"/>
        <path fill="#CEB987" d="M41.043 165.656c0 .62-.717 1.123-1.603 1.123-.885 0-1.603-.503-1.603-1.123s.718-1.122 1.603-1.122c.886 0 1.603.502 1.603 1.122M31.745 167.26c0 .62-.718 1.122-1.604 1.122-.885 0-1.603-.502-1.603-1.122 0-.62.718-1.123 1.603-1.123.886 0 1.604.503 1.604 1.123M36.874 164.893c.037.617-.65 1.171-1.535 1.238-.885.067-1.632-.379-1.67-.995-.036-.616.65-1.17 1.536-1.237.884-.067 1.632.378 1.669.994"/>
        <path fill="#CEB987" d="M36.554 167.26c0 .62-.718 1.122-1.603 1.122s-1.603-.502-1.603-1.122c0-.62.718-1.123 1.603-1.123s1.603.503 1.603 1.123"/>
        <path fill="#70663F" d="M38.158 167.42c0 .532-.646.962-1.443.962s-1.443-.43-1.443-.962c0-.531.646-.962 1.443-.962s1.443.43 1.443.962M42.967 165.496c0 .531-.645.962-1.443.962-.796 0-1.442-.43-1.442-.962s.646-.962 1.442-.962c.798 0 1.443.43 1.443.962"/>
        <path fill="#AA9973" d="M42.647 167.42c0 .886-1.077 1.604-2.405 1.604-1.328 0-2.405-.718-2.405-1.604 0-.886 1.077-1.603 2.405-1.603 1.328 0 2.405.717 2.405 1.603"/>
        <path fill="#CEB987" d="M68.299 163.571c0 .709-.861 1.283-1.924 1.283-1.062 0-1.924-.574-1.924-1.283 0-.708.862-1.282 1.924-1.282 1.063 0 1.924.574 1.924 1.282"/>
        <path fill="#70663F" d="M55.152 163.25c0 .532-.646.963-1.443.963s-1.443-.431-1.443-.962c0-.532.646-.962 1.443-.962s1.443.43 1.443.962M67.658 164.854c0 .886-1.436 1.604-3.207 1.604-1.77 0-3.206-.718-3.206-1.604 0-.885 1.435-1.603 3.206-1.603 1.77 0 3.207.718 3.207 1.603"/>
        <path fill="#C0B08A" d="M66.054 162.289c0 .708-.86 1.282-1.923 1.282-1.063 0-1.924-.574-1.924-1.282 0-.71.861-1.283 1.924-1.283 1.062 0 1.923.574 1.923 1.283"/>
        <path fill="#AA9973" d="M50.022 165.175c0 .886-1.005 1.604-2.245 1.604-1.24 0-2.244-.718-2.244-1.604 0-.886 1.005-1.604 2.244-1.604 1.24 0 2.245.718 2.245 1.604"/>
        <path fill="#9F957E" d="M52.587 163.732c0 .62-.718 1.122-1.603 1.122-.886 0-1.604-.502-1.604-1.122 0-.62.718-1.123 1.604-1.123.885 0 1.603.503 1.603 1.123M69.582 165.015c0 .62-.718 1.122-1.604 1.122-.885 0-1.603-.502-1.603-1.122 0-.62.718-1.123 1.603-1.123.886 0 1.604.503 1.604 1.123"/>
        <path fill="#C0B08A" d="M59.32 163.571c0 .886-1.004 1.604-2.244 1.604-1.24 0-2.244-.718-2.244-1.604 0-.885 1.004-1.603 2.244-1.603 1.24 0 2.245.718 2.245 1.603"/>
        <path fill="#C0B08A" d="M55.473 164.854c0 .886-1.005 1.604-2.245 1.604-1.24 0-2.244-.718-2.244-1.604 0-.885 1.005-1.603 2.244-1.603 1.24 0 2.245.718 2.245 1.603"/>
        <path fill="#CEB987" d="M61.245 163.09c0 .62-.718 1.123-1.604 1.123-.885 0-1.603-.503-1.603-1.123s.718-1.122 1.603-1.122c.886 0 1.604.502 1.604 1.122M51.946 164.694c0 .62-.718 1.123-1.603 1.123-.886 0-1.604-.503-1.604-1.123s.718-1.123 1.604-1.123c.885 0 1.603.503 1.603 1.123M57.395 162.328c.038.616-.65 1.17-1.534 1.237-.885.067-1.632-.378-1.67-.995-.037-.616.65-1.17 1.535-1.237.885-.067 1.632.379 1.67.995"/>
        <path fill="#CEB987" d="M56.755 164.694c0 .62-.717 1.123-1.603 1.123-.885 0-1.603-.503-1.603-1.123s.718-1.123 1.603-1.123c.886 0 1.603.503 1.603 1.123"/>
        <path fill="#70663F" d="M58.68 164.854c0 .532-.647.963-1.444.963-.796 0-1.443-.431-1.443-.963 0-.531.647-.962 1.443-.962.797 0 1.443.43 1.443.962M63.168 162.93c0 .532-.645.962-1.442.962-.797 0-1.443-.43-1.443-.962 0-.531.646-.962 1.443-.962s1.442.43 1.442.962"/>
        <path fill="#AA9973" d="M62.848 164.854c0 .886-1.077 1.604-2.405 1.604-1.328 0-2.405-.718-2.405-1.604 0-.885 1.077-1.603 2.405-1.603 1.328 0 2.405.718 2.405 1.603"/>
        <path fill="#CEB987" d="M69.26 166.458c0 .709-.86 1.283-1.923 1.283-1.062 0-1.924-.574-1.924-1.283s.862-1.283 1.924-1.283c1.063 0 1.924.574 1.924 1.283"/>
        <path fill="#70663F" d="M56.114 166.137c0 .532-.646.962-1.443.962s-1.443-.43-1.443-.962c0-.531.646-.962 1.443-.962s1.443.43 1.443.962M68.62 167.42c0 .886-1.436 1.604-3.207 1.604s-3.206-.718-3.206-1.604c0-.885 1.435-1.603 3.206-1.603 1.77 0 3.207.718 3.207 1.603"/>
        <path fill="#C0B08A" d="M67.016 165.175c0 .709-.861 1.283-1.924 1.283-1.062 0-1.924-.574-1.924-1.283s.862-1.283 1.924-1.283c1.063 0 1.924.574 1.924 1.283"/>
        <path fill="#AA9973" d="M50.984 167.74c0 .887-1.005 1.605-2.245 1.605-1.24 0-2.244-.718-2.244-1.604 0-.886 1.004-1.604 2.244-1.604 1.24 0 2.245.718 2.245 1.604"/>
        <path fill="#9F957E" d="M53.549 166.298c0 .62-.718 1.122-1.603 1.122-.886 0-1.604-.502-1.604-1.122 0-.62.718-1.123 1.604-1.123.885 0 1.603.503 1.603 1.123M70.543 167.901c0 .62-.717 1.123-1.603 1.123-.885 0-1.603-.503-1.603-1.123s.718-1.122 1.603-1.122c.886 0 1.603.502 1.603 1.122"/>
        <path fill="#C0B08A" d="M60.283 166.458c0 .886-1.005 1.604-2.245 1.604-1.24 0-2.245-.718-2.245-1.604 0-.886 1.005-1.604 2.245-1.604 1.24 0 2.245.718 2.245 1.604"/>
        <path fill="#C0B08A" d="M56.114 167.42c0 .886-1.005 1.604-2.245 1.604-1.24 0-2.244-.718-2.244-1.604 0-.885 1.005-1.603 2.244-1.603 1.24 0 2.245.718 2.245 1.603"/>
        <path fill="#CEB987" d="M62.207 165.977c0 .62-.718 1.122-1.604 1.122-.885 0-1.603-.502-1.603-1.122 0-.62.718-1.123 1.603-1.123.886 0 1.604.503 1.604 1.123M52.908 167.58c0 .62-.718 1.123-1.604 1.123-.885 0-1.603-.503-1.603-1.122 0-.62.718-1.123 1.603-1.123.886 0 1.604.503 1.604 1.123M58.037 165.214c.037.616-.65 1.17-1.535 1.237-.885.067-1.632-.378-1.67-.994-.036-.616.651-1.17 1.536-1.237.884-.068 1.631.378 1.669.994"/>
        <path fill="#CEB987" d="M57.717 167.58c0 .62-.717 1.123-1.603 1.123s-1.603-.503-1.603-1.122c0-.62.717-1.123 1.603-1.123s1.603.503 1.603 1.123"/>
        <path fill="#70663F" d="M59.32 167.42c0 .532-.645.962-1.442.962-.797 0-1.443-.43-1.443-.962 0-.531.646-.962 1.443-.962s1.443.43 1.443.962M64.13 165.817c0 .531-.645.962-1.442.962-.797 0-1.443-.43-1.443-.962s.646-.963 1.443-.963 1.442.431 1.442.963"/>
        <path fill="#AA9973" d="M63.81 167.42c0 .886-1.077 1.604-2.405 1.604-1.328 0-2.405-.718-2.405-1.604 0-.885 1.077-1.603 2.405-1.603 1.328 0 2.405.718 2.405 1.603"/>
        <path fill="#2E2D2D" d="M84.995 167.42H25.63s-5.28 24.368 9.19 61.26h40.985c14.47-36.892 9.19-61.26 9.19-61.26"/>
        <path fill="#444" d="M84.985 167.42h-6.016c.81 4.94 3.531 28.098-9.387 61.26h6.11c14.631-36.892 9.293-61.26 9.293-61.26"/>
        <path fill="#1F672D" d="M103.084 51.978c-3.45-.202-6.385 1.142-8.956 3.24l1.219 3.05-1.828-2.535c-5.245 4.615-8.951 12.233-12.458 15.652-.576.562-1.224 1.316-1.916 2.217l5.063 1.368-5.982-.12c-5.66 7.957-13.31 23.7-10.15 26.022 1.605 1.18 4.147-.165 5.437-.411 1.595-.305 1.454 1.393 3.143.41 6.79-3.945 12.663-21.742 13.637-25.915 3.798-16.285 16.963-22.733 12.79-22.978"/>
        <path fill="#167C34" d="M103.082 51.976a11.551 11.551 0 0 0-1.08-.01c-2.842 3.122-9.793 9.673-12.387 20.809-.975 4.187-6.86 22.047-13.665 26.006-1.045.609-1.391.192-1.88-.144v1.974c.978.167 1.094 1.264 2.53.429 6.804-3.96 12.69-21.819 13.665-26.007 3.806-16.341 16.998-22.812 12.817-23.057M74.938 125.405l-.547-.069c.026-.199 2.693-20.01 18.58-32.325l.339.433c-15.71 12.178-18.348 31.764-18.372 31.96"/>
        <path fill="#1F672D" d="M56.986 58.373a.412.412 0 0 1-.408-.372c-1.94-19.043-9.139-31.318-14.835-38.262C35.57 12.214 29.78 9.15 29.722 9.12a.415.415 0 0 1-.176-.557.408.408 0 0 1 .552-.178c.24.125 5.97 3.15 12.248 10.79 5.78 7.036 13.084 19.469 15.049 38.742a.413.413 0 0 1-.41.456M40.655 142.403a.409.409 0 0 1-.299-.107c-9.981-9.173-24.456-10.923-24.601-10.94a.411.411 0 0 1 .093-.817c.147.016 14.886 1.8 25.062 11.15a.413.413 0 0 1-.255.714"/>
        <path fill="#1B4E24" d="M30.05 114.82a.411.411 0 0 1-.388-.28C23.03 94.87 9.419 90.974 9.282 90.937a.414.414 0 0 1 .214-.798c.145.04 3.603 1.003 7.938 4.47 3.983 3.187 9.472 9.185 13.006 19.666a.414.414 0 0 1-.39.546"/>
        <path fill="#1F672D" d="M48.965 98.143a.415.415 0 0 1-.405-.326c-4.165-19.42-11.452-30.181-23.44-43.245a.41.41 0 0 1 .026-.582.417.417 0 0 1 .586.027c12.087 13.17 19.435 24.024 23.64 43.628a.412.412 0 0 1-.407.498M65.507 57.731a.413.413 0 0 1-.315-.681L87.45 31.254a.416.416 0 0 1 .585-.044.411.411 0 0 1 .044.582L65.821 57.587a.415.415 0 0 1-.314.144M35.45 117.401c8.041 5.486 13.746 8.182 16.22 6.587 4.36-2.81 4.113-10.776-.137-14.422-4.759-4.082-13.197-3.05-21.514-.697-4.406 1.247-8.522 4.095-13.024 3.297 0 0 1.307 2.052 3.385 1.63 5.79-1.179 10.241.311 15.07 3.605"/>
        <path fill="#1C5427" d="M71.29 61.324c-.316-2.148-.746-6.197-3.215-6.159-1.077.017-2.101.764-3.039 1.887l1.376 3.432-1.946-2.69c-.837 1.176-1.593 2.616-2.241 4.037l1.512 3.772-1.972-2.726A67.665 67.665 0 0 0 60.43 66.3c-.58 1.601-1.664 7.27-2.358 9.457-.43 1.357-1.157 5.104-1.228 5.841-.464 4.747.732 24.039 7.64 23.921 6.906-.117 5.977-16.724 6.473-21.342.038-.355.24-1.965.313-2.514.703-5.233.771-15.23.02-20.339"/>
        <path fill="#1F672D" d="M64.557 105.199h-.025a.418.418 0 0 1-.4-.436l2.034-35.097c.013-.227.218-.394.448-.389a.418.418 0 0 1 .402.436l-2.035 35.096a.42.42 0 0 1-.424.39"/>
    </g>
</svg>
