<svg xmlns="http://www.w3.org/2000/svg" xmlns:xlink="http://www.w3.org/1999/xlink" width="103" height="249" viewBox="0 0 103 249">
    <defs>
        <path id="a" d="M5.988.352s-6.544 32.41-5.6 50.155c0 0 8.126 15.647 15.526 17.983 7.4 2.335 19.465-14.844 19.465-14.844l-5.527-13.26s-9.503 6.165-20.048 5.37c0 0 11.487-5.387 18.956-7.073 0 0-2.97-11.865-6.898-16.82 0 0-8.425 4.793-16.174 3.56 0 0 7.032-4.437 15.594-5.737 0 0-3.96-14.752-15.294-19.334z"/>
        <linearGradient id="b" x1="54.897%" x2="47.096%" y1="4.279%" y2="99.302%">
            <stop offset="0%" stop-color="#264131"/>
            <stop offset="100%" stop-color="#002D17"/>
        </linearGradient>
        <path id="d" d="M32.53.352c-11.18.998-20.575 15.824-20.575 15.824 6.968 2.498 11.345 8.867 11.345 8.867-7.298-1.162-14.621-6.518-14.621-6.518L.924 35.487c6.948-.978 18.79 7.621 18.79 7.621C9.243 43.294.6 37.518.6 37.518L.272 49.333S3.214 60.68 10.625 61.86c7.41 1.18 16.306-11.353 16.306-11.353L32.53.352z"/>
        <linearGradient id="e" x1="53.947%" x2="45.324%" y1="-2.971%" y2="99.945%">
            <stop offset="0%" stop-color="#264131"/>
            <stop offset="100%" stop-color="#002D17"/>
        </linearGradient>
    </defs>
    <g fill="none" fill-rule="evenodd">
        <path fill="#D38D00" d="M69.061 248.253c4.386-21.962 8.226-40.42 4.782-68.632l-46.352.874c-2.635 27.075 1.337 44.371 5.385 67.296l36.185.462z"/>
        <path fill="#E09105" d="M64.81 181.245l-33.242.78c-2.088 25.528.527 40.684 5.34 63.3h5.04c-4.487-23.258-6.116-38.57-3.205-61.74l26.067-2.34z"/>
        <path fill="#C17C02" d="M69.438 183.463c2.315 23.283.416 38.557-4.628 61.862l-3.018-.513c2.74-22.727 1.657-39.207-.85-59.815l8.496-1.534z"/>
        <path fill="#005126" d="M56.27 179.952l15.234-137.41h-1.73l-14.749 137.41zM43.187 180.199l1.848-119.956-3.22-1.012-1.522 121.023zM65.176 179.785l4.262-49.619h2.066l-3.733 49.57z"/>
        <path fill="#006014" d="M43.563 67.815S40.68 78.317 33.027 80.983c-8.061 2.81-14.671-.845-14.671-.845L18.22 64.92s7.76-.543 16.576-2.938c0 0-8.776-2.751-15.905.172 0 0 .096-10.144 1.759-15.139 0 0 7.933 2.693 14.306.382 0 0-6.694-2.616-14.17-2.322 0 0 .942-13.162 9.807-18.898 0 0 10.863 26.43 12.97 41.638"/>
        <path fill="#006014" d="M43.563 67.815s9.601 9.181 15.695 6.972c6.094-2.21 11.159-9.953 11.159-9.953l-6.643-12.333s-6.386 6.308-15.3 7.86c0 0 8.637-9.227 14.692-9.532l-9.359-13.125s-5.335 5.738-11.336 7.915c0 0 2.67-6.117 8.172-9.373 0 0-10.4-11.046-20.05-10.07l12.97 41.639z"/>
        <path fill="#005126" d="M33.545 180.38l-8.316-68.76-2.727 2.148 8.515 66.66z"/>
        <path fill="#003319" d="M25.098 100.32s10.333-11.204 17.034-11.475c6.7-.271 12.849 16.783 12.849 16.783l-8.41 8.43s-5.733-5.92-14.705-7.645c0 0 7.038 6.736 12.88 9.832 0 0-4.565 9.066-8.263 12.818 0 0-5.934-5.904-12.675-6.631 0 0 4.854 5.291 11.696 8.313 0 0-6.658 11.402-17.149 12.656 0 0 1.919-28.502 6.743-43.081"/>
        <path fill="#003319" d="M25.098 100.32s-4.565-12.462-11.011-13.157c-6.447-.694-11.481 8.1-11.481 8.1L.19 105.185s8.52-2.856 17.207-.33c0 0-11.828 4.486-17.398 2.098l2.606 15.896s7.323-2.807 13.671-2.122c0 0-5.097 4.318-11.474 4.822 0 0 4.458 14.487 13.552 17.852l6.743-43.081z"/>
        <path fill="#006014" d="M70.733 92.991S60.399 81.787 53.699 81.516c-6.7-.271-12.85 16.783-12.85 16.783l8.411 8.43s5.733-5.92 14.705-7.644c0 0-7.038 6.735-12.88 9.831 0 0 4.564 9.066 8.263 12.818 0 0 5.933-5.904 12.674-6.63 0 0-4.854 5.291-11.695 8.313 0 0 6.658 11.401 17.148 12.655 0 0-1.918-28.502-6.742-43.08"/>
        <path fill="#006014" d="M70.733 92.991s4.564-12.462 11.01-13.157c6.447-.694 11.482 8.1 11.482 8.1l2.414 9.923S87.12 95 78.432 97.526c0 0 11.829 4.486 17.398 2.098l-2.605 15.897s-7.324-2.807-13.672-2.123c0 0 5.098 4.318 11.475 4.822 0 0-4.458 14.487-13.553 17.852l-6.742-43.08z"/>
        <path fill="#003319" d="M66.762 123.31s-10.495-14.173-18.171-15.316c-7.677-1.143-16.877 17.718-16.877 17.718l8.628 10.744s7.334-6.101 17.873-6.973c0 0-8.938 6.878-16.047 9.716 0 0 4.123 10.998 7.912 15.775 0 0 7.563-6.059 15.41-6.059 0 0-6.244 5.487-14.494 8.116 0 0 6.241 13.946 18.157 16.69 0 0 1.344-33.036-2.391-50.41"/>
        <path fill="#003319" d="M66.762 123.31s6.805-13.773 14.31-13.773c7.504 0 12.202 10.745 12.202 10.745l1.542 11.716s-9.448-4.344-19.76-2.515c0 0 13.053 6.63 19.76 4.573l-4.98 17.969s-8.077-4.138-15.467-4.138c0 0 5.328 5.6 12.603 6.972 0 0-6.935 16.118-17.82 18.861l-2.39-50.41z"/>
        <g transform="translate(66.95 .043)">
            <mask id="c" fill="#fff">
                <use xlink:href="#a"/>
            </mask>
            <path fill="url(#b)" d="M5.988.352s-6.544 32.41-5.6 50.155c0 0 8.126 15.647 15.526 17.983 7.4 2.335 19.465-14.844 19.465-14.844l-5.527-13.26s-9.503 6.165-20.048 5.37c0 0 11.487-5.387 18.956-7.073 0 0-2.97-11.865-6.898-16.82 0 0-8.425 4.793-16.174 3.56 0 0 7.032-4.437 15.594-5.737 0 0-3.96-14.752-15.294-19.334z" mask="url(#c)"/>
        </g>
        <g transform="translate(40.408 .043)">
            <mask id="f" fill="#fff">
                <use xlink:href="#d"/>
            </mask>
            <path fill="url(#e)" d="M32.53.352c-11.18.998-20.575 15.824-20.575 15.824 6.968 2.498 11.345 8.867 11.345 8.867-7.298-1.162-14.621-6.518-14.621-6.518L.924 35.487c6.948-.978 18.79 7.621 18.79 7.621C9.243 43.294.6 37.518.6 37.518L.272 49.333S3.214 60.68 10.625 61.86c7.41 1.18 16.306-11.353 16.306-11.353L32.53.352z" mask="url(#f)"/>
        </g>
        <g>
            <path fill="#012D15" d="M24.258 103.277a80.849 80.849 0 0 0-5.757 26.609 80.364 80.364 0 0 0 .04 7.674c.031.606 1.19.434 1.163-.084a80.224 80.224 0 0 1 3.13-26.812 80.25 80.25 0 0 1 2.523-7.25c.247-.613-.906-.618-1.099-.137M66.918 125.083a556.662 556.662 0 0 0 2.13 42.88c.031.352 1.185.112 1.148-.307a556.839 556.839 0 0 1-2.13-42.88c-.004-.332-1.152-.121-1.148.307M67.86 45.801a116.613 116.613 0 0 1 3.95-32.942 115.13 115.13 0 0 1 2.864-9.113c.227-.63-.922-.644-1.101-.146a117.041 117.041 0 0 0-6.719 32.8c-.183 3.156-.234 6.32-.16 9.48.014.615 1.178.453 1.165-.079"/>
            <path fill="#02510F" d="M43.209 66.166c-.63-9.862-2.4-19.643-5.274-29.1a128.666 128.666 0 0 0-2.702-7.942c-.184-.488-1.325-.163-1.148.307a128.357 128.357 0 0 1 7.17 28.693c.36 2.774.628 5.558.806 8.349.03.48 1.182.217 1.148-.307M70.683 95.951a50.72 50.72 0 0 1 1.87 16.438c-.029.557 1.133.37 1.158-.105a51.367 51.367 0 0 0-1.88-16.64c-.138-.487-1.286-.179-1.148.307"/>
        </g>
    </g>
</svg>
