<svg xmlns="http://www.w3.org/2000/svg" xmlns:xlink="http://www.w3.org/1999/xlink" width="347" height="483" viewBox="0 0 347 483">
    <defs>
        <radialGradient id="a" cx="48.145%" r="43.241%" fx="48.145%" fy="50%" gradientTransform="matrix(0 1 -.64762 0 .805 .019)">
            <stop offset="0%"/>
            <stop offset="21.045%" stop-opacity=".862"/>
            <stop offset="100%" stop-opacity="0"/>
        </radialGradient>
        <path id="b" d="M.012.05h91.197v87.926H.012z"/>
        <path id="d" d="M.012.05h91.197v87.926H.012z"/>
        <path id="f" d="M.329.05h441.388v20.504H.33z"/>
        <path id="h" d="M.012.05h83.014v18.68H.012z"/>
        <linearGradient id="j" x1="53.573%" x2="50%" y1="23.527%" y2="69.835%">
            <stop offset="0%" stop-color="#F5F5F5" stop-opacity="0"/>
            <stop offset="27.096%" stop-color="#FFF" stop-opacity="0"/>
            <stop offset="100%" stop-color="#FFE99A" stop-opacity=".887"/>
        </linearGradient>
        <linearGradient id="k" x1="53.573%" x2="50%" y1="4.824%" y2="83.847%">
            <stop offset="0%" stop-color="#F5F5F5" stop-opacity="0"/>
            <stop offset="27.096%" stop-color="#FFF" stop-opacity="0"/>
            <stop offset="100%" stop-color="#FFE99A" stop-opacity=".887"/>
        </linearGradient>
        <radialGradient id="l" cy="0%" r="100%" fx="50%" fy="0%" gradientTransform="matrix(0 1 -.69389 0 .5 -.5)">
            <stop offset="0%"/>
            <stop offset="100%" stop-opacity="0"/>
        </radialGradient>
        <path id="m" d="M.222.3h29.149v3.816H.222z"/>
        <radialGradient id="q" r="100%" fx="50%" fy="50%">
            <stop offset="0%" stop-color="#FFF" stop-opacity=".292"/>
            <stop offset="100%" stop-color="#FFF"/>
        </radialGradient>
        <circle id="p" cx="88" cy="88" r="87.107"/>
        <filter id="o" width="117.2%" height="117.2%" x="-8.6%" y="-8.6%" filterUnits="objectBoundingBox">
            <feOffset in="SourceAlpha" result="shadowOffsetOuter1"/>
            <feGaussianBlur in="shadowOffsetOuter1" result="shadowBlurOuter1" stdDeviation="5"/>
            <feColorMatrix in="shadowBlurOuter1" values="0 0 0 0 0.988235294 0 0 0 0 0.729411765 0 0 0 0 0.0901960784 0 0 0 1 0"/>
        </filter>
    </defs>
    <g fill="none" fill-rule="evenodd">
        <g transform="matrix(-1 0 0 1 480.192 374)">
            <ellipse cx="509.496" cy="104.573" fill="url(#a)" opacity=".141" rx="509.496" ry="5.622"/>
            <path fill="#854645" d="M744.208 102.55l-21.64-94.017 18.428-1.337 14.14 95.353zM328.328 102.55l21.64-94.017-18.428-1.337-14.14 95.353z"/>
            <path fill="#000" d="M676.2 2.699h85.56V0H676.2z"/>
            <path fill="#8E5F35" d="M676.2 7.646h85.56V2.7H676.2z"/>
            <path fill="#000" d="M685.032 2.699h76.728V0h-76.728z"/>
            <path fill="#9B7757" d="M685.032 7.646h76.728V2.7h-76.728z"/>
            <path fill="#D8B290" d="M243.432 2.699H761.76V0H243.432z"/>
            <path fill="#CE9F74" d="M243.432 7.646H761.76V2.7H243.432z"/>
            <path fill="#854645" d="M659.64 5.434l22.439 97.565h11.785L679.006 4.048zM243.432 102.55h11.786l22.438-97.566-19.363-1.386z"/>
            <path fill="#FCD5B1" d="M231.288 87.976c22.96 0 22.96-7.505 45.92-7.505 22.962 0 22.962 7.505 45.92 7.505 22.958 0 22.958-7.505 45.916-7.505 22.957 0 22.957 7.505 45.915 7.505 22.957 0 22.957-7.505 45.914-7.505s22.957 7.505 45.912 7.505c22.96 0 22.96-7.505 45.916-7.505 22.958 0 22.958 7.505 45.913 7.505 22.959 0 22.959-7.505 45.916-7.505 22.957 0 22.957 7.505 45.916 7.505L680.076.05H241.658l-10.37 87.926z"/>
            <path fill="#E7BE98" d="M293.055 16.567c-.717 12.575-.197 25.069-2.239 37.626-1.452 8.944-2.828 17.894-3.611 26.867 8.803 1.14 13.296 3.69 20.493 5.356.006-8.195-.492-16.39-1.138-24.481-1.222-15.351-4.26-31.117-13.505-45.368M373.96 80.603c12.566.683 17.239 3.947 25.93 5.896-.126-9.364-.757-18.727-3.004-27.892-3.61-14.704-11.576-28.705-20.967-42.21-2.133 11.656.227 23.35-.058 35.05-.235 9.73-1.283 19.437-1.901 29.156M483.534 59.524c-3.232-13.898-6.778-27.447-19.569-38.97 1.722 20.013 2.393 40.05 2.61 60.092 10.363.669 15.243 3.129 21.874 5.018-1.237-8.74-2.895-17.456-4.915-26.14M585.771 61.692c-3.895-7.578-8.942-14.873-14.406-22.016-3.926-5.133-7.475-12.357-14.493-16.169-1.77 19.008-.53 38.03-.06 57.052 17.687.782 20.05 6.573 37.797 7.335-1.926-8.873-4.451-17.668-8.838-26.202M676.557 86.75c-1.45-9.584-4.649-18.878-8.41-28.354-2.63-6.62-5.578-12.995-9.54-19.326-2.542-4.066-4.383-8.936-9.376-12.046 1.41 4.064 3.746 7.963 4.955 12.06 1.366 4.628 1.555 9.518 1.557 14.224.001 9.213-1.695 18.37-3.332 27.512 10.908 1.042 15.422 4.174 24.146 5.93"/>
            <g transform="translate(680.064)">
                <mask id="c" fill="#fff">
                    <use xlink:href="#b"/>
                </mask>
                <path fill="#D3D2D2" d="M.012.05h81.616l9.581 87.926c-10.101 0-10.101-2.502-20.205-2.502-10.103 0-10.103 2.502-20.206 2.502-10.105 0-10.105-2.502-20.208-2.502-10.105 0-10.105 2.502-20.208 2.502L.012.05z" mask="url(#c)"/>
            </g>
            <g transform="translate(680.064)">
                <mask id="e" fill="#fff">
                    <use xlink:href="#d"/>
                </mask>
                <path fill="#E7BE98" d="M.012.05h81.616l9.581 87.926c-10.101 0-10.101-2.502-20.205-2.502-10.103 0-10.103 2.502-20.206 2.502-10.105 0-10.105-2.502-20.208-2.502-10.105 0-10.105 2.502-20.208 2.502L.012.05z" mask="url(#e)"/>
            </g>
            <path fill="#D9AF87" d="M722.603 69.007c-4.556-8.873-6.546-18.222-11.643-26.975-1.458 4.165.021 8.704.95 12.85 1.214 5.426 2.317 10.844 3.733 16.253 1.291 4.938 2.01 10.036 3.017 15.097 3.441.736 5.786 1.744 12.201 1.744 1.232 0 2.314-.037 3.283-.103-4.747-6.014-8.28-12.519-11.541-18.866M746.12 35.095c-.571 10.028 5.866 43.809 10.329 50.685 3.924.504 5.873 1.498 9.984 1.954-2.28-2.434-18.36-47.951-20.313-52.639"/>
            <g transform="translate(240.12)">
                <mask id="g" fill="#fff">
                    <use xlink:href="#f"/>
                </mask>
                <path fill="#642323" d="M1.538.05h438.417l1.762 14.94-245.63 5.564L.328 10.302z" mask="url(#g)"/>
            </g>
            <path fill="#FFDE17" d="M437.832 20.616c-.086 0-.165-.036-.193-.09l-2.668-5.12v5.038c0 .065-.073.121-.172.132-.103.01-.196-.028-.227-.091l-2.448-4.97v4.78c0 .066-.076.123-.179.131-.104.012-.197-.032-.223-.097l-1.94-4.62v4.463c0 .066-.074.122-.175.132-.096.01-.195-.03-.225-.093l-2.191-4.714v4.54c0 .066-.078.124-.18.131-.097.011-.198-.034-.222-.1l-1.645-4.454v4.314c0 .068-.076.125-.179.133-.096.009-.198-.033-.223-.098l-1.838-4.56v4.409c0 .063-.07.118-.164.131-.095.013-.19-.022-.23-.08l-3.178-5.006v4.767c0 .064-.068.119-.164.132-.096.013-.192-.021-.229-.08l-3.188-5.008v4.769c0 .065-.07.12-.17.132-.103.01-.194-.026-.225-.088l-2.617-4.858v4.657c0 .066-.076.123-.179.132-.104.01-.197-.035-.223-.099l-1.862-4.568v4.415c0 .067-.07.123-.172.133-.098.01-.195-.03-.225-.092l-2.295-4.751v4.57c0 .067-.075.124-.176.132-.104.01-.197-.033-.225-.097l-1.903-4.591v4.435c0 .065-.07.12-.169.131-.097.01-.192-.023-.227-.084l-2.805-4.913v4.698c0 .069-.08.126-.182.134-.101.007-.199-.037-.222-.104l-1.517-4.375v4.244c0 .067-.074.123-.174.133-.1.008-.197-.03-.227-.095l-2.152-4.698v4.527c0 .064-.07.118-.164.131-.098.012-.194-.021-.23-.08l-3.16-5.002v4.765c0 .065-.07.119-.167.13-.1.013-.194-.022-.229-.083l-2.905-4.939v4.72c0 .065-.074.122-.175.132-.106.007-.197-.032-.225-.096l-2.055-4.66v4.494c0 .063-.068.119-.166.132-.094.014-.19-.022-.227-.08l-3.173-5.006v4.768c0 .066-.076.122-.179.132-.106.012-.197-.032-.223-.097l-1.94-4.607v4.45c0 .066-.074.122-.175.132-.098.008-.195-.032-.225-.095l-2.113-4.683v4.513c0 .065-.07.12-.166.132-.096.011-.194-.023-.228-.084l-2.893-4.936v4.716c0 .065-.07.12-.168.131-.096.012-.193-.023-.228-.083l-2.893-4.935v4.715c0 .065-.07.12-.166.132-.1.012-.194-.024-.228-.085l-2.862-4.928v4.71c0 .064-.071.12-.17.132-.096.014-.193-.024-.227-.086l-2.701-4.883v4.675c0 .066-.071.121-.17.133-.102.009-.196-.028-.228-.089l-2.522-4.83v4.633c0 .067-.076.125-.18.133-.1.009-.197-.034-.222-.1l-1.789-4.532v4.384c0 .067-.076.125-.178.132-.106.009-.2-.033-.226-.098l-1.763-4.521v4.374c0 .064-.072.12-.17.132-.097.01-.193-.024-.226-.085l-2.837-4.92v4.704c0 .065-.073.122-.174.133-.097.01-.195-.03-.225-.093l-2.298-4.754V16.2c0 .065-.072.122-.171.133-.103.01-.194-.028-.225-.088l-2.623-4.86v4.657c0 .066-.072.121-.17.131-.1.011-.195-.025-.228-.087l-2.61-4.855v4.654c0 .065-.073.121-.172.132-.1.012-.194-.028-.227-.09l-2.442-4.804v4.612c0 .065-.07.12-.166.133-.096.011-.194-.023-.228-.084l-2.902-4.938v4.717c0 .066-.073.122-.172.132-.103.011-.195-.028-.227-.09l-2.365-4.778v4.592c0 .064-.068.118-.164.131-.094.013-.192-.02-.228-.08l-3.138-4.997v4.76c0 .067-.073.122-.17.133-.105.01-.195-.026-.228-.088l-2.608-4.856v4.654c0 .066-.074.123-.174.133-.097.011-.197-.03-.225-.094l-2.23-4.728v4.552c0 .066-.077.123-.178.132-.107.01-.197-.033-.225-.098l-1.914-4.595v4.438c0 .066-.073.123-.17.133-.099.012-.195-.026-.23-.087l-2.659-4.871v4.666c0 .067-.078.124-.179.133-.11.01-.2-.036-.223-.1l-1.688-4.48v4.337c0 .066-.073.122-.169.133-.1.01-.195-.028-.228-.09l-2.55-4.837v4.64c0 .067-.075.123-.176.133-.106.008-.199-.032-.225-.097l-1.974-4.623v4.463c0 .068-.078.126-.18.133-.107.006-.201-.038-.224-.104l-1.502-4.364v4.235c0 .064-.07.12-.168.131-.096.013-.192-.024-.226-.083l-2.882-4.933v4.714c0 .063-.068.118-.164.131-.096.012-.19-.022-.228-.081l-3.148-5v4.764c0 .063-.07.119-.166.132-.096.012-.192-.023-.229-.082l-3.043-4.975v4.746c0 .065-.075.122-.176.132-.096.01-.197-.032-.227-.095l-2.15-4.698v4.526c0 .066-.075.124-.176.133-.101.01-.197-.032-.227-.094l-2.143-4.695v4.523c0 .065-.071.121-.17.132-.102.01-.194-.027-.23-.088l-2.602-4.854v4.653c0 .069-.08.125-.183.133-.104.008-.198-.038-.221-.105L294.97 8.93v4.181c0 .069-.078.125-.182.133-.103.007-.199-.036-.222-.102l-1.517-4.376v4.244c0 .068-.076.125-.177.133-.1.012-.197-.033-.225-.097l-1.926-4.6v4.443c0 .064-.07.118-.166.131-.093.013-.19-.02-.227-.08l-3.148-4.998v4.76c0 .067-.071.122-.169.133-.096.014-.192-.025-.227-.087l-2.699-4.882v4.675c0 .065-.073.122-.172.132-.103.01-.196-.028-.227-.09l-2.348-4.772v4.586c0 .068-.08.126-.182.133-.11.009-.2-.037-.222-.104l-1.477-4.346v4.218c0 .07-.08.126-.183.134-.106.006-.198-.037-.221-.103l-1.484-4.353V12.2c0 .068-.078.127-.182.132-.1.008-.2-.037-.222-.103l-1.436-4.32v4.194c0 .066-.071.122-.169.134-.103.01-.195-.028-.229-.088l-2.586-4.85v4.648c0 .066-.075.123-.176.132-.1.01-.197-.03-.225-.095l-2.062-4.66v4.494c0 .066-.076.124-.177.132-.1.012-.197-.031-.225-.096l-1.93-4.602v4.445c0 .065-.072.12-.17.132-.1.009-.195-.028-.227-.089l-2.527-4.83v4.633c0 .068-.076.126-.18.133-.101.009-.199-.037-.224-.104l-1.518-4.376v4.246c0 .065-.07.12-.164.131-.098.012-.194-.021-.229-.08l-3.093-4.987v4.754c0 .067-.075.124-.178.132-.104.011-.197-.032-.223-.097l-1.901-4.59v4.435c0 .065-.075.121-.172.132-.103.012-.197-.03-.227-.092l-2.31-4.758v4.576c0 .064-.07.118-.164.13-.101.015-.192-.02-.23-.08l-3.112-4.99v4.755c0 .068-.073.123-.172.133-.103.012-.197-.03-.227-.094l-2.183-4.71v4.537c0 .067-.076.124-.179.132-.099.011-.197-.033-.225-.098l-1.843-4.562v4.41c0 .068-.08.126-.182.133-.101.009-.2-.038-.222-.105l-1.401-4.293v4.17c0 .067-.075.124-.176.133-.102.01-.197-.032-.225-.096l-2.126-4.891-1.009 4.688c-.015.073-.116.124-.23.113-.11-.01-.19-.076-.177-.15l1.146-5.314c.015-.063.093-.111.189-.116.1-.008.184.037.21.097l1.989 4.577v-4.48c0-.068.08-.125.184-.132.106-.007.2.038.222.106l1.399 4.293V5.123c0-.067.076-.125.179-.133.104-.009.199.033.223.098l1.845 4.562V5.24c0-.066.075-.122.174-.132.101-.01.197.03.227.093l2.183 4.71V5.377c0-.064.067-.12.165-.132.096-.013.19.022.227.082l3.112 4.989V5.559c0-.065.072-.122.173-.133.097-.008.196.03.227.093l2.309 4.757V5.7c0-.066.076-.124.177-.133.103-.008.199.033.224.098l1.902 4.588V5.822c0-.065.068-.12.164-.132.096-.014.192.023.229.081l3.092 4.986V6.004c0-.068.079-.126.183-.133.101-.008.2.037.22.103l1.52 4.376V6.105c0-.065.072-.121.171-.132.096-.013.194.027.227.089l2.526 4.83V6.257c0-.067.076-.123.177-.132.106-.013.199.032.225.097l1.93 4.602V6.38c0-.066.074-.123.176-.133.098-.008.196.031.224.096l2.062 4.661V6.508c0-.064.071-.12.17-.13.1-.012.194.026.227.087l2.587 4.85v-4.65c0-.069.08-.125.184-.133.107-.008.2.038.22.105l1.437 4.318V6.762c0-.068.077-.125.18-.133.102-.008.2.036.223.104l1.484 4.351V6.86c0-.068.077-.125.182-.132.107-.006.2.037.222.103l1.477 4.348v-4.22c0-.066.073-.122.172-.132.098-.011.197.028.225.09l2.35 4.773V7.102c0-.064.071-.12.17-.131.097-.012.194.026.226.086l2.7 4.883V7.266c0-.065.069-.12.165-.131.094-.014.19.02.228.08l3.147 4.998V7.45c0-.067.076-.124.177-.133.106-.011.199.033.225.096l1.926 4.601V7.573c0-.07.078-.126.182-.134.1-.005.199.037.22.103l1.519 4.376V7.673c0-.069.078-.126.184-.133.096-.006.198.038.222.104l1.416 4.306V7.768c0-.065.07-.12.17-.133.098-.01.194.028.227.088l2.603 4.856V7.926c0-.067.075-.123.176-.133.1-.007.197.03.227.094l2.144 4.695V8.06c0-.066.075-.122.174-.133.103-.009.197.031.225.094l2.155 4.699V8.193c0-.064.07-.12.164-.132.099-.013.192.022.23.082l3.044 4.974V8.373c0-.063.07-.119.163-.132.097-.014.194.022.23.08l3.147 5V8.559c0-.065.071-.12.169-.131.096-.012.192.022.229.083l2.878 4.933V8.729c0-.067.08-.125.182-.132.114-.008.199.037.222.103l1.502 4.365V8.83c0-.068.076-.124.177-.133.103-.008.197.032.225.096l1.972 4.623V8.953c0-.065.073-.12.171-.132.103-.01.195.028.227.09l2.55 4.838v-4.64c0-.069.078-.125.18-.134.107-.01.2.035.222.101l1.688 4.478V9.217c0-.064.071-.12.169-.131.1-.012.195.026.228.086l2.662 4.873V9.378c0-.068.074-.123.175-.133.103-.008.197.033.225.098l1.916 4.595v-4.44c0-.064.075-.122.174-.132.1-.01.197.03.225.094l2.231 4.728V9.636c0-.064.073-.12.169-.13.101-.014.195.024.229.086l2.608 4.857V9.795c0-.065.07-.12.165-.132.096-.013.19.021.229.08l3.136 4.997V9.98c0-.066.075-.123.174-.133.101-.01.196.029.225.09l2.365 4.778v-4.59c0-.065.071-.12.17-.133.093-.012.191.024.226.083l2.9 4.939v-4.718c0-.065.072-.121.172-.132.1-.01.195.028.227.09l2.442 4.804v-4.613c0-.065.072-.12.17-.132.097-.012.195.027.226.087l2.612 4.857v-4.654c0-.065.072-.121.17-.132.1-.012.194.026.227.088l2.621 4.859V10.76c0-.065.075-.121.174-.132.098-.007.196.03.226.092l2.298 4.754v-4.572c0-.064.071-.12.167-.132.1-.01.194.024.229.085l2.837 4.92v-4.704c0-.067.076-.124.178-.133.106-.01.198.036.224.1l1.764 4.522v-4.375c0-.068.077-.123.18-.133.103-.009.197.035.224.1l1.788 4.532V11.3c0-.064.073-.12.17-.131.1-.012.195.027.228.088l2.522 4.83v-4.633c0-.066.07-.12.17-.132.096-.014.194.025.227.086l2.701 4.883v-4.676c0-.064.07-.119.167-.13.1-.012.192.024.229.083l2.86 4.928v-4.71c0-.064.071-.12.169-.132.094-.01.192.024.228.085l2.892 4.935v-4.715c0-.065.07-.121.167-.131.094-.012.192.023.228.083l2.893 4.935V12.13c0-.067.075-.123.174-.133.1-.008.199.031.226.095l2.114 4.682v-4.512c0-.068.073-.124.176-.133.11-.014.197.032.225.097l1.94 4.607v-4.449c0-.063.069-.118.163-.131.098-.014.192.022.229.079l3.173 5.006V12.57c0-.066.076-.122.175-.132.104-.008.199.032.225.096l2.055 4.658V12.7c0-.064.07-.119.168-.132.1-.012.192.025.228.084l2.905 4.939v-4.718c0-.063.07-.118.164-.131.1-.013.19.021.228.08l3.162 5.002v-4.765c0-.066.074-.122.175-.132.103-.009.197.031.224.094l2.154 4.699V13.19c0-.067.078-.124.18-.133.103-.006.201.038.224.104l1.517 4.375v-4.245c0-.064.071-.119.169-.13.098-.012.192.024.227.084l2.807 4.912V13.46c0-.067.074-.123.175-.133.1-.01.197.034.226.099l1.902 4.59v-4.434c0-.068.073-.124.174-.133.101-.01.196.029.227.093l2.292 4.75v-4.57c0-.068.076-.124.179-.133.097-.008.197.034.223.098l1.86 4.57V13.84c0-.066.073-.122.169-.132.098-.013.194.024.228.087l2.617 4.858V14c0-.064.068-.12.164-.132.093-.013.192.021.228.08l3.187 5.009v-4.77c0-.063.07-.119.165-.132.095-.013.19.022.229.08l3.178 5.007v-4.768c0-.067.076-.125.178-.133.101-.012.197.033.222.098l1.84 4.56V14.49c0-.068.078-.126.179-.133.11-.009.199.036.224.1l1.644 4.455v-4.316c0-.066.074-.122.175-.132.1-.01.196.03.226.093l2.19 4.714v-4.554c0-.068.077-.125.178-.133.104-.013.197.033.225.096l1.94 4.621v-4.639c0-.066.072-.121.171-.13.101-.01.194.026.227.09l2.448 4.97v-4.995c0-.064.073-.12.17-.13.101-.014.196.026.229.088l2.666 5.12v-5.147c0-.066.075-.122.172-.132.106-.01.197.028.227.092l2.48 5.07v-5.096c0-.065.07-.12.17-.132.1-.013.195.028.227.089l2.667 5.12v-5.146c0-.067.072-.122.17-.133.095-.012.195.026.228.09l2.73 5.134v-5.163c0-.067.077-.125.181-.133.1-.007.199.037.222.104l1.676 4.76v-4.779c0-.066.074-.122.175-.132.105-.005.198.031.226.094l2.283 5.016v-5.038c0-.067.073-.123.174-.133.101-.01.197.03.227.094l2.386 5.046V14.15c0-.066.077-.124.178-.133.104-.008.2.034.225.1l1.985 4.907v-4.929c0-.067.078-.124.182-.133.108-.006.2.038.224.104l1.67 4.76v-4.778c0-.064.072-.12.17-.131.1-.012.194.026.228.086l2.837 5.16v-5.188c0-.068.078-.126.184-.133.1-.01.199.038.22.106l1.474 4.641v-4.657c0-.066.075-.122.176-.132.104-.01.195.029.225.092l2.43 5.06v-5.085c0-.065.074-.122.175-.132.102-.008.195.031.225.094l2.348 5.037v-5.061c0-.07.08-.126.184-.133.103-.007.2.038.222.104l1.547 4.69V13.76c0-.067.074-.122.173-.133.103-.007.197.028.226.092l2.484 5.076v-5.102c0-.067.077-.124.182-.133.097-.007.198.037.222.104l1.679 4.765v-4.783c0-.064.07-.12.167-.131.096-.012.19.022.227.082l3.128 5.221v-5.252c0-.066.075-.122.176-.133.1-.01.195.03.223.093l2.382 5.048v-5.071c0-.068.077-.125.178-.134.105-.01.197.035.224.1l1.95 4.896v-4.915c0-.07.08-.127.183-.134.108-.006.2.038.222.104l1.558 4.697v-4.712c0-.068.076-.126.179-.133.094-.011.197.033.222.097l2.004 4.92v-4.94c0-.065.072-.12.172-.131.1-.011.195.027.228.088l2.64 5.12V13.28c0-.065.075-.122.177-.132.103-.006.196.032.225.094l2.294 5.024v-5.045c0-.066.073-.123.17-.132.097-.013.194.024.23.086l2.818 5.16v-5.189c0-.065.072-.121.172-.132.1-.009.195.03.227.092l2.469 5.076V13.08c0-.065.071-.12.169-.131.094-.012.193.024.227.085l2.916 5.182v-5.21c0-.07.08-.128.184-.135.102-.009.2.039.22.106l1.475 4.646v-4.661c0-.068.08-.127.184-.134.098-.01.2.04.22.108l1.4 4.591v-4.606c0-.068.078-.125.179-.134.1-.007.197.036.223.1l1.933 4.892v-4.91c0-.065.07-.122.167-.134.098-.008.194.025.229.086l3 5.2v-5.23c0-.068.078-.125.179-.134.101-.007.197.034.224.1l1.94 4.895v-4.916c0-.065.072-.121.171-.132.096-.01.194.027.227.089l2.71 5.14v-5.167c0-.065.072-.12.17-.131.102-.012.193.025.228.088l2.74 5.146v-5.174c0-.069.077-.126.181-.133.101-.006.2.036.22.1l1.734 4.8v-4.815c0-.069.077-.126.18-.134.102-.008.198.034.221.098l1.987 4.916v-4.936c0-.065.072-.12.168-.13.097-.013.192.023.228.085l2.875 5.177v-5.205c0-.065.07-.12.167-.134.096-.01.194.025.227.086l3.014 5.204V12.34c0-.069.081-.126.184-.134.1-.006.2.04.222.109l1.394 4.591v-4.607c0-.067.076-.124.177-.133.103-.006.199.034.226.099l1.98 4.915v-4.936c0-.066.076-.122.179-.132.098-.009.197.034.223.097l2.082 4.955v-4.975c0-.065.071-.122.169-.132.101-.011.192.024.227.084l2.987 5.2v-5.23c0-.066.075-.124.177-.132.105-.01.198.032.224.096l2.138 4.976v-4.998c0-.065.07-.12.167-.13.101-.014.192.022.229.083l3.053 5.214v-5.246c0-.065.073-.121.173-.132.102-.01.195.03.226.091l2.577 5.11v-5.136c0-.067.076-.123.177-.132.098-.01.197.032.224.096l2.098 4.962V11.85c0-.068.078-.125.182-.133.113-.007.2.037.222.104l1.578 4.716v-4.732c0-.067.078-.124.18-.133.115-.009.2.036.224.1l1.807 4.841v-4.859c0-.066.075-.122.176-.132.106-.009.195.03.225.093l2.37 5.054v-5.078c0-.065.072-.121.172-.13.094-.014.194.025.225.088l2.666 5.133v-5.16c0-.065.07-.12.167-.132.105-.011.194.025.229.084l2.99 5.205v-5.234c0-.068.077-.125.178-.133.103-.009.197.033.225.1l1.954 4.906v-4.927c0-.066.076-.124.177-.132.098-.012.197.031.226.096l2.096 4.964v-4.986c0-.065.073-.121.172-.132.098-.01.194.028.226.09l2.628 5.126v-5.152c0-.067.074-.122.175-.132.1-.007.197.031.227.095l2.181 4.996v-5.018c0-.063.07-.119.167-.132.093-.012.192.023.227.083l3.185 5.241v-5.274c0-.068.076-.123.18-.132.098-.01.197.035.222.1l1.853 4.865v-4.884c0-.066.076-.123.177-.132.1-.009.197.03.225.095l2.21 5.005v-5.028c0-.068.077-.125.182-.133.102-.006.198.04.222.105l1.57 4.715v-4.732c0-.065.072-.121.17-.132.108-.009.197.03.229.091l2.51 5.098v-5.123c0-.068.078-.124.179-.132.114-.01.199.034.225.1l1.812 4.847v-4.865c0-.068.08-.126.182-.133.104-.009.2.038.222.105l1.555 4.705v-4.721c0-.07.078-.126.182-.134.103-.005.199.036.22.103l1.704 4.791V10.86c0-.066.072-.12.17-.131.094-.014.195.025.228.087l2.764 5.162v-5.19c0-.069.08-.126.182-.133.104-.01.2.038.223.105l1.504 4.675v-4.69c0-.068.078-.127.184-.133.098-.009.199.038.218.104l1.579 4.72V10.7c0-.067.072-.123.172-.133.107-.01.194.03.227.091l2.504 5.099v-5.124c0-.066.074-.123.177-.132.1-.012.197.033.223.097l2.09 4.966v-4.988c0-.065.075-.121.174-.132.096-.01.195.029.227.09l2.545 5.11V10.51c0-.065.071-.12.166-.131.096-.013.194.021.23.082l3.107 5.232V10.43c0-.067.074-.124.172-.134.11-.008.199.03.227.093l2.373 5.061v-5.084c0-.067.073-.123.172-.132.103-.01.197.029.227.092l2.421 5.076V10.3c0-.065.074-.122.172-.132.101-.008.197.029.227.092l2.476 5.092v-5.117c0-.067.074-.123.177-.133.103-.01.197.033.224.097l2.162 4.993v-5.016c0-.066.076-.123.18-.132.103-.014.196.031.221.096l2.148 4.988v-5.01c0-.068.078-.125.182-.133.113-.008.197.036.222.101l1.805 4.847V10.07c0-.067.074-.124.174-.133.104-.01.195.029.225.09l2.512 5.104v-5.128c0-.068.08-.126.182-.134.115-.004.2.038.222.104l1.66 4.772V9.956c0-.067.076-.123.177-.133.102-.012.198.032.225.097l2.083 4.967V9.899c0-.064.07-.12.167-.132.102-.013.193.024.227.083l3.094 5.234V9.82c0-.066.073-.122.174-.133.099-.01.195.028.227.091l2.484 5.098V9.754c0-.065.07-.12.167-.132.096-.012.192.023.228.084l3.105 5.236V9.673c0-.065.075-.121.173-.132.099-.009.197.03.226.092l2.47 5.093V9.61c0-.068.074-.124.177-.132.1-.013.197.031.225.096l2.077 4.967V9.552c0-.067.074-.123.177-.132.104-.01.197.031.225.096l2.136 4.988v-5.01c0-.066.076-.122.176-.132.102-.006.197.032.225.094l2.257 5.03V9.435c0-.069.08-.127.184-.133.1-.005.2.04.22.107l1.403 4.61V9.395c0-.069.076-.125.177-.135.11-.009.199.035.225.099l2.044 4.954V9.337c0-.068.078-.124.18-.132.1-.01.199.034.224.099l1.873 4.883V9.285c0-.066.07-.12.17-.132.106-.012.196.026.229.089l2.732 5.162v-5.19c0-.067.076-.124.177-.134.103-.007.197.033.224.097l2.194 5.01V9.155c0-.07.08-.126.184-.133.103-.007.199.038.222.104l1.566 4.722V9.11c0-.067.075-.123.173-.133.107-.007.198.03.227.094l2.346 5.06V9.047c0-.064.071-.12.17-.131.093-.013.194.026.226.086l2.792 5.177v-.984c0-.074.093-.134.204-.134.112 0 .205.06.205.134v1.765c0 .065-.073.122-.17.132-.098.01-.196-.025-.228-.087l-2.79-5.176v5.204c0 .065-.074.123-.174.132-.104.011-.195-.031-.227-.094l-2.346-5.06v5.083c0 .07-.078.125-.182.133-.106.007-.2-.038-.22-.104l-1.567-4.723v4.74c0 .066-.076.123-.177.131-.1.01-.197-.031-.226-.095l-2.194-5.01v5.032c0 .066-.071.121-.17.132-.1.012-.196-.026-.227-.088l-2.733-5.162v5.188c0 .069-.077.126-.18.134-.103.01-.197-.035-.224-.1l-1.873-4.882v4.9c0 .069-.076.125-.177.132-.11.011-.199-.032-.225-.097L663.46 10.4v4.976c0 .069-.08.126-.184.133-.106.003-.2-.04-.22-.107l-1.405-4.61v4.625c0 .067-.074.122-.173.132-.098.01-.196-.03-.227-.094l-2.256-5.03v5.052c0 .067-.074.124-.177.133-.106.008-.197-.032-.224-.097l-2.136-4.988v5.01c0 .067-.076.123-.179.132-.1.01-.197-.032-.225-.096l-2.078-4.967v4.986c0 .067-.071.124-.172.132-.095.012-.196-.028-.226-.09l-2.469-5.094v5.118c0 .063-.07.12-.167.131-.096.012-.192-.023-.227-.083l-3.106-5.235v5.266c0 .067-.073.122-.174.133-.096.01-.196-.03-.226-.093l-2.484-5.096V15.8c0 .064-.07.12-.168.133-.101.01-.193-.024-.229-.084l-3.093-5.234v5.265c0 .066-.077.123-.176.132-.1.013-.197-.033-.225-.097l-2.083-4.966v4.987c0 .068-.078.126-.18.133-.11.008-.201-.037-.224-.104l-1.66-4.771v4.789c0 .066-.073.122-.17.132-.106.01-.197-.03-.229-.091l-2.512-5.103v5.128c0 .067-.078.123-.179.132-.112.01-.197-.035-.223-.102l-1.807-4.846v4.865c0 .068-.075.123-.176.133-.109.008-.197-.032-.225-.097l-2.148-4.988v5.011c0 .065-.074.122-.175.132-.101.01-.197-.031-.225-.096l-2.163-4.994v5.014c0 .068-.075.124-.174.134-.098.01-.195-.03-.225-.091l-2.476-5.094v5.117c0 .067-.073.122-.174.133-.098.01-.195-.03-.225-.092l-2.421-5.076v5.1c0 .066-.075.122-.176.132-.104.01-.195-.03-.225-.094l-2.371-5.06v5.084c0 .064-.072.12-.17.131-.099.012-.191-.022-.226-.083l-3.107-5.232v5.262c0 .068-.073.123-.174.134-.094.008-.195-.029-.223-.09l-2.549-5.11v5.135c0 .066-.074.122-.175.132-.101.01-.197-.033-.226-.098l-2.09-4.965v4.987c0 .065-.074.121-.173.132-.105.01-.196-.029-.227-.09l-2.502-5.098v5.121c0 .07-.08.126-.184.133-.101.006-.199-.038-.22-.104l-1.579-4.72v4.735c0 .07-.077.127-.182.134-.102.004-.2-.04-.22-.105l-1.505-4.675v4.69c0 .066-.072.121-.17.132-.1.01-.195-.026-.228-.088l-2.765-5.16v5.188c0 .068-.078.125-.182.133-.1.008-.2-.036-.22-.103l-1.703-4.79v4.808c0 .068-.078.126-.182.133-.105.007-.2-.037-.222-.105l-1.555-4.706v4.723c0 .067-.078.124-.18.132-.11.012-.198-.035-.223-.101l-1.813-4.847v4.865c0 .067-.073.123-.172.133-.106.01-.195-.03-.227-.091l-2.51-5.098v5.123c0 .068-.08.124-.184.132-.103.006-.197-.038-.22-.104l-1.57-4.715v4.731c0 .067-.077.122-.178.132-.099.008-.197-.03-.225-.095l-2.209-5.006v5.029c0 .067-.074.123-.179.132-.097.01-.198-.035-.223-.101l-1.853-4.864v4.884c0 .064-.07.119-.166.13-.096.014-.194-.022-.228-.08l-3.185-5.243v5.274c0 .066-.076.122-.176.132-.099.01-.198-.031-.225-.096l-2.182-4.995v5.017c0 .065-.072.122-.173.133-.097.01-.193-.029-.226-.09l-2.627-5.127v5.153c0 .067-.076.122-.177.132-.101.007-.197-.033-.225-.098l-2.097-4.964v4.986c0 .067-.076.124-.179.132-.097.012-.197-.032-.223-.098l-1.954-4.908v4.928c0 .064-.071.12-.17.131-.102.011-.193-.025-.228-.084l-2.989-5.205v5.234c0 .066-.073.12-.172.132-.096.011-.195-.027-.225-.089l-2.666-5.133v5.16c0 .066-.075.122-.174.132-.106.01-.196-.03-.227-.092l-2.37-5.056v5.078c0 .069-.078.125-.179.133-.11.01-.198-.035-.223-.101l-1.809-4.84v4.858c0 .067-.077.126-.182.134-.114.006-.198-.038-.222-.106l-1.578-4.716v4.733c0 .067-.076.123-.177.133-.101.01-.197-.033-.225-.098l-2.097-4.962v4.984c0 .065-.073.121-.172.132-.104.011-.195-.028-.227-.09l-2.577-5.11v5.135c0 .065-.07.12-.165.131-.105.012-.194-.022-.23-.083l-3.056-5.215v5.245c0 .068-.073.124-.175.134-.106.005-.197-.034-.225-.097l-2.137-4.976v4.997c0 .065-.07.12-.167.13-.103.012-.194-.022-.228-.084l-2.988-5.201v5.23c0 .068-.076.125-.177.134-.098.012-.197-.033-.224-.097l-2.083-4.955v4.975c0 .068-.076.125-.177.133-.1.01-.199-.033-.224-.098l-1.982-4.916v4.935c0 .07-.081.127-.185.134-.105.005-.2-.04-.22-.108l-1.395-4.591v4.606c0 .065-.07.12-.167.132-.096.01-.194-.023-.227-.084l-3.016-5.206v5.235c0 .065-.07.122-.167.133-.1.01-.194-.025-.228-.087l-2.874-5.177v5.206c0 .066-.076.124-.18.132-.098.01-.197-.032-.222-.098l-1.986-4.915v4.935c0 .068-.077.125-.18.134-.104.005-.199-.038-.222-.103l-1.734-4.8v4.818c0 .065-.073.12-.169.131-.107.01-.195-.027-.228-.088l-2.74-5.146v5.174c0 .065-.072.12-.171.13-.1.012-.196-.025-.227-.087l-2.71-5.139v5.165c0 .068-.077.126-.18.133-.096.011-.197-.033-.222-.098l-1.94-4.896v4.914c0 .065-.07.121-.168.132-.096.012-.194-.024-.229-.084l-3-5.2v5.23c0 .067-.076.124-.18.133-.112.007-.198-.035-.223-.1l-1.932-4.89v4.91c0 .068-.08.127-.186.132-.104.001-.2-.039-.218-.106l-1.4-4.592v4.606c0 .069-.08.127-.183.134-.113.008-.2-.04-.222-.107l-1.474-4.644v4.66c0 .065-.071.12-.167.132-.1.01-.196-.025-.229-.086l-2.916-5.182v5.211c0 .065-.073.122-.172.133-.1.012-.197-.029-.227-.092l-2.47-5.076v5.1c0 .065-.07.12-.17.13-.096.015-.194-.023-.228-.085l-2.819-5.16v5.188c0 .066-.074.123-.174.132-.103.01-.195-.03-.225-.094l-2.297-5.023v5.046c0 .066-.073.122-.17.132-.103.01-.194-.027-.227-.09l-2.643-5.12v5.147c0 .066-.075.124-.178.132-.097.009-.197-.033-.225-.098l-2.004-4.919v4.94c0 .068-.077.125-.18.133-.11.007-.2-.038-.222-.105l-1.558-4.697v4.713c0 .067-.076.124-.18.133-.108.009-.198-.034-.221-.1l-1.952-4.896v4.917c0 .065-.073.121-.174.132-.098.01-.196-.03-.225-.093l-2.382-5.049v5.072c0 .065-.07.119-.165.13-.098.014-.194-.02-.229-.081l-3.128-5.22v5.251c0 .068-.08.126-.182.132-.105.006-.199-.036-.222-.102l-1.68-4.766v4.783c0 .066-.074.122-.172.132-.099.01-.195-.028-.226-.091l-2.484-5.076v5.1c0 .068-.078.125-.183.133-.102.01-.198-.038-.222-.105l-1.548-4.688v4.704c0 .066-.073.123-.172.132-.103.012-.197-.029-.227-.093l-2.35-5.037v5.06c0 .067-.074.123-.172.133-.104.01-.195-.03-.227-.092l-2.43-5.06v5.084c0 .07-.08.126-.183.133-.101.01-.199-.039-.222-.106l-1.474-4.641v4.656c0 .066-.071.12-.17.132-.101.014-.194-.025-.229-.086l-2.837-5.162v5.19c0 .067-.076.126-.18.133-.105.006-.199-.038-.222-.103l-1.671-4.76v4.776c0 .068-.076.125-.179.134-.096.008-.197-.034-.225-.099l-1.986-4.909v4.929c0 .066-.074.122-.172.132-.1.01-.197-.03-.227-.093l-2.388-5.047v5.072c0 .065-.073.122-.175.132-.1.008-.196-.03-.225-.094l-2.284-5.016v5.038c0 .067-.078.125-.182.134-.105.004-.199-.038-.222-.104l-1.674-4.76v4.777c0 .065-.073.121-.173.132-.099.01-.193-.027-.226-.088l-2.73-5.136v5.163c0 .065-.072.12-.172.132-.1.011-.195-.026-.225-.09l-2.67-5.12v5.147c0 .066-.072.122-.17.132-.101.01-.195-.028-.227-.091l-2.479-5.072v5.097c0 .065-.071.12-.169.131-.011.002-.023.002-.035.002"/>
            <g transform="translate(680.064)">
                <mask id="i" fill="#fff">
                    <use xlink:href="#h"/>
                </mask>
                <path fill="#451414" d="M81.628.05H.012l1.76 14.94 50.2 3.74 31.054-5.865z" mask="url(#i)"/>
            </g>
            <path fill="#BFA711" d="M731.701 18.804c-.088 0-.165-.035-.194-.09l-2.828-5.396v5.114c0 .065-.071.122-.17.131-.105.012-.194-.025-.226-.086l-2.979-5.44v5.146c0 .065-.071.121-.172.132-.103.012-.196-.028-.227-.09l-2.71-5.359v5.087c0 .064-.07.12-.17.131-.102.013-.194-.025-.227-.085l-3.007-5.45v5.152c0 .069-.08.126-.182.133-.108.006-.2-.04-.222-.105l-1.573-4.821v4.647c0 .065-.075.122-.174.133-.098.01-.195-.03-.225-.093l-2.55-5.303v5.044c0 .065-.073.122-.171.133-.106.008-.194-.027-.229-.088l-2.878-5.41v5.124c0 .067-.078.124-.179.132-.102.01-.2-.035-.223-.102l-1.804-4.966v4.772c0 .067-.077.125-.178.133-.098.009-.2-.034-.224-.098l-2.017-5.08v4.866c0 .067-.074.124-.174.132-.1.01-.199-.03-.227-.094l-2.318-5.213v4.975c0 .066-.073.122-.176.132-.097.01-.197-.032-.225-.095l-2.288-5.202v4.965c0 .065-.072.122-.168.131-.097.011-.193-.023-.228-.084l-3.084-5.468v5.164c0 .066-.078.124-.18.133-.096.01-.197-.033-.222-.1l-2.015-5.077v4.866c0 .066-.077.122-.18.132-.109.007-.195-.033-.221-.097l-2.218-5.17v4.94c0 .068-.074.124-.175.133-.104.013-.196-.03-.225-.093l-2.478-5.275v5.023c0 .067-.076.125-.179.133-.109.01-.197-.034-.225-.1l-1.994-5.068v4.858c0 .069-.08.126-.183.133-.105.008-.2-.04-.22-.107l-1.46-4.735v4.572c0 .064-.07.12-.169.13-.107.01-.193-.025-.228-.087l-2.886-5.41v1.095c0 .075-.092.135-.204.135-.114 0-.204-.06-.204-.135V9.04c0-.065.071-.121.17-.132.1-.013.194.027.226.088l2.886 5.41V9.283c0-.07.081-.127.186-.133.1-.01.2.039.22.106l1.457 4.737V9.42c0-.069.078-.125.18-.134.112-.01.198.035.223.1l1.995 5.066V9.597c0-.066.073-.122.174-.132.106-.008.197.03.227.093l2.477 5.275V9.81c0-.066.075-.124.176-.132.106-.012.197.031.225.096l2.217 5.17v-4.941c0-.067.077-.124.178-.132.104-.007.198.033.225.1l2.015 5.076v-4.865c0-.065.071-.12.168-.132.096-.011.195.024.228.086l3.084 5.467V10.44c0-.067.074-.123.177-.133.097-.008.197.032.225.096l2.287 5.201v-4.965c0-.067.076-.124.177-.132.101-.008.197.03.225.094l2.317 5.214v-4.977c0-.066.078-.123.179-.132.104-.006.197.035.223.1l2.017 5.079v-4.868c0-.067.078-.124.18-.133.105-.004.198.038.223.103l1.803 4.966V11.18c0-.066.073-.121.17-.131.102-.014.195.025.228.088l2.878 5.408v-5.123c0-.067.074-.123.174-.133.099-.008.195.03.227.093l2.55 5.302V11.64c0-.07.08-.127.182-.134.1-.008.199.038.222.104l1.573 4.823v-4.648c0-.065.071-.12.17-.132.102-.012.194.026.227.086l3.008 5.449v-5.152c0-.066.073-.121.17-.132.105-.012.196.028.227.09l2.713 5.358v-5.086c0-.066.07-.121.167-.132.103-.015.194.026.229.087l2.977 5.44v-5.146c0-.065.073-.121.17-.132.098-.013.194.027.227.089l2.829 5.396v-5.204c0-.066.073-.122.172-.132.1-.01.197.028.227.09l2.381 4.77V12.25c0-.064.068-.12.163-.132.1-.014.193.022.23.08l2.976 4.725v-5.18c0-.067.077-.124.18-.132.12-.007.199.037.222.103l1.542 4.349v-4.61c0-.066.071-.121.169-.132.104-.013.193.025.228.086l2.48 4.514v-4.9c0-.064.069-.12.168-.132.103-.013.194.026.227.087l2.421 4.411v-4.788c0-.064.068-.12.166-.131.1-.013.19.021.227.08l2.755 4.342v-4.764c0-.065.073-.12.17-.13.107-.013.194.026.23.088l2.13 4.176V9.747c0-.067.075-.124.174-.133.111-.009.197.03.227.093l1.898 4.048V9.402c0-.066.073-.122.17-.132.1-.01.196.028.227.091l1.976 3.991V9.046c0-.066.076-.124.179-.133.101-.01.197.033.224.098l1.59 3.813V8.748c0-.064.069-.118.163-.132.093-.014.189.018.229.075l2.767 3.925V8.274c0-.067.074-.124.177-.133.103-.008.199.033.225.098l1.46 3.606v-.915c0-.074.09-.135.205-.135.11 0 .203.06.203.135v1.943c0 .067-.076.125-.179.132-.099.011-.197-.032-.223-.097l-1.46-3.606v3.923c0 .063-.065.117-.16.131-.092.013-.19-.018-.23-.076l-2.767-3.924v4.465c0 .068-.076.125-.176.133-.1.013-.197-.033-.225-.097l-1.593-3.814v4.156c0 .066-.073.12-.172.132-.096.012-.196-.028-.227-.091l-1.976-3.991v4.398c0 .067-.074.123-.173.133-.103.011-.196-.03-.227-.094l-1.896-4.047v4.442c0 .066-.073.122-.173.132-.104.013-.195-.027-.225-.09l-2.133-4.175v4.612c0 .064-.07.118-.165.131-.1.014-.19-.022-.229-.08l-2.754-4.341v4.885c0 .065-.071.12-.169.132-.107.011-.195-.026-.228-.087l-2.421-4.412v4.9c0 .064-.072.12-.168.131-.102.016-.195-.025-.228-.086l-2.48-4.514v5.012c0 .067-.077.125-.181.134-.11.01-.2-.037-.22-.104l-1.544-4.349v4.687c0 .063-.068.118-.164.13-.101.015-.192-.02-.228-.08l-2.976-4.725v5.312c0 .065-.073.121-.173.132-.099.01-.195-.029-.225-.09l-2.381-4.772v5.165c0 .066-.071.12-.169.132l-.035.001"/>
        </g>
        <path fill="url(#j)" d="M80.283 123L16 9h181l-73.971 114z" transform="translate(21 120)"/>
        <path fill="url(#k)" d="M77.593 147.985L2.675 0H183.65l-80.867 148.902z" transform="translate(32.58 120)"/>
        <g transform="translate(32.58 221.73)">
            <ellipse cx="92.332" cy="150.292" fill="url(#l)" opacity=".453" rx="67.283" ry="5.527"/>
            <path fill="#E8C067" d="M162.022 142.017c.93-6.511-.028-12.524-7.953-16.701 9.74-65.592-13.35-79.587-38.154-88.538-4.667-1.684-9.655-2.524-14.681-2.524H76.808c-5.026 0-10.015.84-14.682 2.524-24.803 8.951-47.894 22.946-38.154 88.538-7.925 4.177-8.884 10.19-7.953 16.7-22.842 8.35-16.451 9.935-9.942 11.492 19.661-2.345 44.596-2.05 82.944-2.05 38.347 0 63.282-.295 82.943 2.05 6.51-1.557 12.9-3.143-9.942-11.491"/>
            <path fill="#D3AC5F" d="M162.288 137.275c-.19-3.639-1.471-6.99-4.882-9.78-2.044-1.673-3.039-4.154-2.716-6.628 7.297-55.97-10.56-72.364-32-81.455 22.738 60.27-.902 115.343-106.722 95.939-.369 2.12-.278 4.361.05 6.666-22.841 8.348-16.45 9.934-9.94 11.491h163.477c2 0 3.989-.3 5.866-.924 3.942-1.306 4.957-3.292-8.025-8.514-2.995-1.205-4.954-3.838-5.108-6.795"/>
            <path fill="#DDAF52" d="M71.438 34.945h36.71s-21.515 2.46-36.71 0"/>
            <path fill="#D3AC5F" d="M85.006 35.491s-18.639 15.017-26.923 26.08c0 0 6.755-20.546 19.157-26.626l7.766.546zM88.61 34.945s-3.825 8.084 1.031 21.017c4.857 12.933 2.786-20.88 2.786-20.88l-3.818-.137z"/>
            <path fill="#DDAF52" d="M99.179 34.945s17.409 10.11 25.348 24.6c0 0-3.937-13.363-16.38-24.6H99.18z"/>
            <path fill="#470417" d="M96.666 97.197c2.226.156 4.055 1.083 4.797 2.44.468.854.488 2.58.03 3.368-.812 1.404-3.343 2.377-6.22 2.395l-.894.01v-4.111c0-2.267.03-4.148.071-4.185.041-.036.376-.036.743-.018.365.027 1.026.073 1.473.101zm-9.91-13.626V87.7h-.578c-.53-.01-.854-.055-1.616-.211-.305-.064-1.606-.542-1.667-.606a1.843 1.843 0 0 0-.356-.192c-.549-.257-1.535-1.175-1.89-1.762-.325-.542-.346-.634-.346-1.45 0-.633.061-1.019.203-1.413.57-1.533 2.734-2.579 5.367-2.615l.884-.01v4.13zm0-14.544c0 2.174-.03 2.798-.121 2.798-.071 0-.64.046-1.27.092-1.423.11-3.04.45-4.046.835-.112.036-.498.184-.863.321-3.09 1.138-6.454 3.863-8.019 6.479-.336.578-.813 1.55-.895 1.853-.356 1.312-.416 2.368-.233 3.864.376 2.963 1.83 5.422 4.268 7.202.782.57.844.606 1.18.798.284.165 2.48 1.157 2.835 1.285.274.092 1.047.33 1.168.35.194.045 1.017.246 1.22.32.6.183 2.582.505 4.248.688l.529.065v9.46l-.833-.055c-.773-.046-2.013-.275-2.267-.413a.584.584 0 0 0-.153-.073c-.72-.129-2.733-1.496-2.896-1.973-.04-.101-.102-.175-.142-.175-.122 0-.763-1.22-.966-1.835l-.173-.504-4.167.027-4.166.019.06.577c.173 1.515.661 3.148 1.342 4.47.264.495 1.006 1.697 1.169 1.88.04.046.274.321.518.597.732.853 2.053 1.973 3.324 2.808.61.404 2.48 1.413 2.612 1.413.05 0 .254.082.447.174.345.165 1.697.578 2.683.826.63.156 1.91.285 2.805.285h.803v5.964h7.622l.02-3.047.031-3.055.864-.055c1.23-.083 3.466-.532 4.37-.881.082-.028.183-.064.224-.064a.43.43 0 0 0 .142-.074c.04-.046.132-.073.203-.073.163 0 1.647-.642 2.53-1.092.397-.202.783-.404.865-.44.081-.037.203-.11.274-.157.072-.055.366-.247.65-.422.712-.431 2.247-1.66 2.714-2.174.203-.22.478-.523.61-.652.366-.385 1.342-1.835 1.647-2.45 1.057-2.129 1.351-4.552.803-6.607-.113-.403-.214-.816-.244-.917-.071-.257-1.118-2.157-1.342-2.423-1.961-2.33-4.086-3.762-7.195-4.808-1.403-.468-3.537-.872-5.031-.936a45.902 45.902 0 0 1-1.606-.1l-.529-.047.02-4.606.031-4.606.59.017c1.565.047 3.73.863 4.624 1.726.67.652 1.047 1.358 1.118 2.11l.05.597h8.771l-.04-.349c-.04-.43-.295-1.385-.529-2.037-1.433-3.946-4.481-7.258-8.13-8.827-1.352-.578-1.718-.716-2.388-.863-.052-.018-.448-.11-.874-.21-.428-.102-1.25-.23-1.83-.285-.58-.055-1.138-.12-1.23-.147-.173-.046-.183-.257-.183-2.66v-2.607h-7.622v2.799z"/>
            <path fill="#E8C067" d="M70.765 5.609s10.881-2.342 15.463-4.436c4.581-2.094 11.29-1.74 22.254 4.01L90.646 16.682 70.765 5.609z"/>
            <path fill="#CE9F4D" d="M70.765 7.313s12.763-3.62 17.508-5.821c4.745-2.2 14.973 1.278 20.209 5.82l-8.018 10.364-27.027 3.478-2.672-13.841z"/>
            <path fill="#E8C067" d="M122.269 5.537c-.152.776-.31 1.44-.483 2.025-.912 3.114-2.12 4.007-3.48 8.28a40.909 40.909 0 0 0-.731 2.578s-3.977 11.925-14.463 17.57H82.755s-1.153-.66-2.968-1.888c-2.845-1.934-7.311-5.277-11.501-9.709a51.653 51.653 0 0 1-4.197-5.011l-.007-.006c-.145-.095-5.771-3.874-5.295-7.026.456-3.008 2.63-2.8 6.006-5.548.076-.059.152-.122.228-.186.131-.107.262-.218.393-.335a12.895 12.895 0 0 1 1.74-1.297c.055-.042.117-.08.18-.117.71-.43 1.49-.808 2.36-1.126a16.008 16.008 0 0 1 3.583-.845c.822-.101 1.698-.16 2.644-.165 2.271-.01 4.894.292 7.96 1l.2.047c.372.09.745.18 1.131.281.573.15 1.16.309 1.761.49.159.042.317.09.483.138 7.704 2.317 12.302.361 15.94-1.153h.007c.89-.367 1.712-.707 2.512-.957.85-.266 1.67-.42 2.492-.393.207.005.408.02.615.053 2.409.356 5.778-.16 8.525-.181.85-.016 1.63.026 2.306.149 1.76.319 2.823 1.2 2.416 3.332"/>
            <path fill="#D3AC5F" d="M122.27 5.538c-.154.775-.312 1.44-.484 2.024-.913 3.113-2.119 4.006-3.481 8.28 0 0 0 .004-.004.007a44.23 44.23 0 0 0-.725 2.57s-1.84 5.52-6.323 10.828c-2.102 2.491-4.787 4.937-8.14 6.744h-5.598c-.724-14.164 2.313-24.917 5.88-32.459h.007c.89-.364 1.713-.705 2.512-.957.849-.263 1.671-.419 2.493-.393.207.006.406.023.616.055.916.139 1.98.142 3.098.101 1.794-.063 3.728-.272 5.425-.283.105 0 .214-.006.32-.006.724 0 1.392.05 1.986.156 1.76.319 2.823 1.2 2.418 3.333M91.563 35.99h-8.808s-1.153-.66-2.968-1.887c-2.437-7.946-6.752-20.058-12.633-29.119a1.74 1.74 0 0 1 .18-.116c.71-.431 1.49-.808 2.36-1.127a16.031 16.031 0 0 1 3.583-.845c.822-.101 1.698-.16 2.644-.165 2.271-.01 4.894.292 7.96 1 2.802 6.955 6.502 17.952 7.469 29.441.082.957.151 1.898.213 2.817"/>
            <path fill="#470417" d="M111.253 35.99H74.241c-1 0-1.817-.74-1.817-1.642v-.174c0-.903.817-1.641 1.817-1.641h37.012c1 0 1.818.738 1.818 1.64v.175c0 .903-.818 1.641-1.818 1.641M111.102 32.533H74.09c-1 0-1.818-.739-1.818-1.641v-.174c0-.903.818-1.642 1.818-1.642h37.012c1 0 1.817.739 1.817 1.641v.175c0 .902-.818 1.64-1.817 1.64"/>
            <path fill="#28030F" d="M74.24 32.533s17.247 2.87 36.71 0H74.24z"/>
            <path fill="#E8C067" d="M117.865 2.05c-6.427 8.18-11.611 19.107-11.611 19.107-1.036-6.452 5.411-17.273 5.411-17.273.139-.542.29-1.057.456-1.546 1.795-.064 3.728-.272 5.426-.282.103 0 .214-.005.318-.005"/>
            <path fill="#D3AC5F" d="M122.27 5.538c-.15.777-.311 1.441-.482 2.025 0 0-.241-2.398-1.747-3.835-1.506-1.438-6.385 1.064-8.372.157-1.988-.907-6.628-1.009-8.553.907-1.925 1.917-14.877 3.887-18.37 1.172-3.494-2.716-14.938-2.716-16.384-.32-1.445 2.396-5.12 3.514-7.288 5.963-2.139 2.417 2.88 7.636 3.01 7.77-.147-.097-5.773-3.873-5.298-7.025.482-3.194 2.89-2.768 6.625-6.069 3.735-3.3 9.999-5.217 22.045-1.597 12.046 3.62 16.503-3.194 21.563-2.449 5.059.746 14.335-2.342 13.25 3.3"/>
            <path fill="#470417" d="M106.897 34.853c-.196.092-.392.183-.583.278-.57.28-1.117.568-1.632.86a29.37 29.37 0 0 0-2.772 1.751c-8.165 5.89-7.846 12.867-7.846 14.33 0 1.717 1.76 3.879 0 4.51a3.006 3.006 0 0 1-.283.092h-.004c-1.619.48-2.89-.091-2.89-.091-4.86-8.403 2.548-16.25 6.751-19.782.365-.301.707-.579 1.007-.81.949-.734 1.56-1.138 1.56-1.138h6.692z"/>
            <path fill="#470417" d="M126.957 69.944c-.192.221-.484.428-.821.59-.839.396-1.974.53-2.672-.021-.551-.435-.305-1.362-.337-1.941a29.647 29.647 0 0 0-.278-2.524 32.3 32.3 0 0 0-1.167-4.983c-1.035-3.272-2.54-6.438-4.368-9.488-2.79-4.636-7.043-9.402-11.137-13.782-.219-.24-.442-.474-.666-.71-.319-.343-.643-.684-.962-1.02-.022-.029-.05-.053-.068-.074-.36-.39-.72-.766-1.071-1.138-.165-.175-.333-.35-.493-.523.616-.133 1.783.046 2.745.113.456.031.861.038 1.149-.022.136-.031.278-.059.419-.073h.005a1.27 1.27 0 0 1 .515.024.333.333 0 0 1 .082.032h.004c.228.095.374.28.557.428l.027.021c.137.113.273.225.406.34.31.26.615.524.911.798.187.168.374.34.557.516 3.036 2.853 5.671 6.244 7.923 9.353 4.764 6.588 8.27 13.4 9.328 20.9.15 1.089.2 2.268-.588 3.184"/>
            <path fill="#28030F" d="M110.292 36.505c-1.284.723-2.693 1.121-4.115 1.291-.545-.584-1.09-1.164-1.628-1.732a29.283 29.283 0 0 0-2.637 1.68 25.9 25.9 0 0 1-4.273-.942c.365-.303.703-.58 1.007-.813h11.094c.186.17.372.34.552.516"/>
            <path fill="#F29C1D" d="M170.656 154.605h-27.463c-.464 0-.844-.343-.844-.761v-2.294c0-.419.38-.761.844-.761h27.463c.464 0 .843.342.843.76v2.295c0 .418-.379.761-.843.761"/>
            <path fill="#E98822" d="M180.565 154.58H49.655l20.41-12.756 25.833-16.144 12.92-6.198z"/>
            <path fill="#FFD524" d="M133.066 140.444c0 7.267-6.524 13.158-14.573 13.158s-14.573-5.891-14.573-13.158c0-7.267 6.524-13.158 14.573-13.158s14.573 5.891 14.573 13.158"/>
            <path fill="#E5970C" d="M130.426 140.444c0 .093-.003.185-.005.278-.168-5.82-5.443-10.488-11.927-10.488-6.487 0-11.763 4.669-11.93 10.488-.003-.093-.005-.185-.005-.278 0-5.95 5.342-10.774 11.935-10.774 6.59 0 11.932 4.824 11.932 10.774"/>
            <path fill="#FCB527" d="M130.42 140.722v.01c-.167 5.819-5.442 10.487-11.927 10.487-6.487 0-11.762-4.668-11.929-10.488v-.009c.167-5.82 5.442-10.487 11.93-10.487 6.484 0 11.76 4.667 11.927 10.487"/>
            <path fill="#FCF232" d="M130.426 141.01c0 5.95-5.343 10.773-11.932 10.773-6.593 0-11.935-4.824-11.935-10.773 0-.093.002-.186.005-.279.167 5.82 5.443 10.488 11.93 10.488 6.484 0 11.76-4.668 11.927-10.488.002.093.005.186.005.279"/>
            <path fill="#F29C1D" d="M154.982 137.482l-4.427 2.33c-8.674-.667-22.16-15.34-22.16-15.34l2.542-3.218c-.762.948 4.069 5.31 10.793 9.744 6.151 4.06 11.755 6.772 13.252 6.484"/>
            <path fill="#FFD524" d="M106.278 140.94c0 7.267-6.525 13.158-14.574 13.158s-14.573-5.891-14.573-13.158c0-7.267 6.524-13.158 14.573-13.158 8.05 0 14.574 5.891 14.574 13.158"/>
            <path fill="#E5970C" d="M103.637 140.94c0 .092-.003.185-.005.278-.167-5.82-5.443-10.488-11.927-10.488-6.487 0-11.763 4.668-11.93 10.488-.002-.093-.005-.186-.005-.279 0-5.95 5.343-10.773 11.935-10.773 6.59 0 11.932 4.824 11.932 10.773"/>
            <path fill="#FCB527" d="M103.632 141.218v.009c-.167 5.82-5.443 10.488-11.927 10.488-6.487 0-11.763-4.669-11.93-10.488v-.01c.167-5.819 5.443-10.487 11.93-10.487 6.484 0 11.76 4.668 11.927 10.488"/>
            <path fill="#FCF232" d="M103.637 141.506c0 5.949-5.343 10.773-11.932 10.773-6.592 0-11.935-4.824-11.935-10.773 0-.093.003-.186.005-.28.167 5.82 5.443 10.489 11.93 10.489 6.484 0 11.76-4.669 11.927-10.488.002.093.005.186.005.279"/>
            <path fill="#444566" d="M71.07 145.615a3.873 3.873 0 0 0-.242-.972c-.01-.033-.028-.063-.044-.093l-.524-1.969a4.126 4.126 0 0 0-.196-.757L49.656 154.58H62.7c5.327-2.2 8.734-5.82 8.369-8.965" opacity=".281"/>
            <path fill="#FFD524" d="M57.528 150.668c-6.656 1.985-13.158 1.096-15.4-1.932-.022-.023-.04-.051-.06-.077a4.059 4.059 0 0 1-.488-.895c-1.477-3.785 3.27-8.627 10.601-10.813 7.331-2.182 14.472-.885 15.948 2.904.102.267.174.538.217.815.012.052.016.105.024.159a3.98 3.98 0 0 1-.001.928c-.365 3.382-4.694 7.084-10.841 8.911"/>
            <path fill="#FCF232" d="M65.405 140.358c-1.475-2.872-7.154-3.805-12.978-2.071-5.808 1.731-9.644 5.485-8.84 8.545-.053-.1-.1-.205-.14-.311-1.217-3.116 2.689-7.101 8.723-8.898 6.034-1.797 11.912-.73 13.125 2.388.044.114.082.23.11.347"/>
            <path fill="#FCB527" d="M65.493 141.576c-.3 2.783-3.864 5.831-8.921 7.335-5.48 1.634-10.83.901-12.676-1.59-.018-.018-.033-.044-.049-.065a3.09 3.09 0 0 1-.26-.424c-.804-3.06 3.032-6.814 8.84-8.545 5.824-1.734 11.503-.801 12.978 2.07.031.107.052.216.07.325.01.042.013.086.018.13a3.29 3.29 0 0 1 0 .764"/>
            <path fill="#F29C1D" d="M69.156 143.705a3.998 3.998 0 0 0-.241-.973c-.012-.032-.03-.061-.044-.092l-.524-1.97c.011.052.015.105.023.159a4.124 4.124 0 0 1-.04 1.207l-.012.063a4.871 4.871 0 0 1-.142.571 5.036 5.036 0 0 1-.247.654c-.018.044-.039.086-.06.129-.031.067-.063.135-.098.203-.024.048-.051.095-.077.143-.034.063-.067.125-.104.187-.035.062-.074.123-.112.184a7.873 7.873 0 0 1-.316.476l-.068.092c-.06.081-.121.162-.185.244a9.933 9.933 0 0 1-.275.333c-.03.036-.063.072-.095.108-.066.074-.133.15-.202.224l-.1.105c-.071.075-.145.15-.22.225l-.1.099c-.08.076-.16.153-.242.229l-.1.09c-.086.08-.176.159-.267.237l-.092.079c-.099.083-.2.166-.302.249l-.077.061c-.114.09-.232.181-.352.27l-.045.035c-.558.415-1.167.813-1.821 1.189l-.009.005c-.157.09-.315.178-.477.265l-.07.037c-.142.076-.286.151-.432.225l-.103.052c-.137.068-.275.136-.416.202-.04.02-.082.039-.123.058a22.536 22.536 0 0 1-.96.423l-.148.061c-.138.056-.277.11-.417.165l-.154.059c-.142.054-.287.107-.432.159l-.15.054c-.155.054-.31.106-.467.157-.043.014-.085.03-.127.043a26.536 26.536 0 0 1-1.86.53c-.029.006-.056.01-.083.017-.39.095-.777.181-1.163.256-.047.009-.095.015-.143.024a25.53 25.53 0 0 1-1.085.183c-.06.009-.117.013-.177.021-.345.047-.689.09-1.028.121-.074.007-.146.009-.22.015-.321.027-.641.05-.955.063-.091.004-.179.002-.269.004-.293.009-.585.016-.871.012-.109-.002-.213-.01-.32-.013-.262-.007-.524-.015-.778-.032-.127-.01-.248-.026-.372-.037-.228-.02-.458-.04-.68-.069-.143-.019-.28-.045-.42-.068-.193-.03-.39-.059-.577-.096-.158-.03-.307-.07-.46-.107-.16-.037-.323-.072-.478-.114-.168-.047-.327-.101-.488-.153-.129-.042-.262-.08-.386-.124-.173-.063-.335-.135-.499-.204-.1-.044-.207-.083-.305-.129-.17-.08-.329-.169-.488-.257-.08-.044-.164-.084-.24-.13a6.774 6.774 0 0 1-.459-.309c-.062-.044-.13-.085-.189-.13a5.6 5.6 0 0 1-.41-.358c-.049-.046-.103-.089-.15-.135a4.837 4.837 0 0 1-.343-.398c-.055-.069-.12-.133-.17-.204a4.08 4.08 0 0 1-.488-.895l.59 2.16c.044.242.105.482.196.717.125.318.288.618.488.894 2.186 3.087 8.744 4.012 15.46 2.01 6.715-1.998 11.261-6.23 10.842-9.84"/>
            <path fill="#444566" d="M88.855 135.175c.007-.089.01-.178.013-.266a6.592 6.592 0 0 1-.013.266zm-.037.397zm-.145.815c.018-.078.033-.156.048-.234-.016.078-.03.156-.048.234zm-.077.303c.006-.025.012-.05.02-.074l-.002.003-.018.071zm-.2.653c.014-.04.03-.08.042-.12v.001c-.013.04-.028.08-.042.119zm-.15.408l.037-.092-.037.092zm-.204.489c.02-.047.043-.095.063-.143-.02.048-.042.096-.063.143zm-.434.881v.001l.072-.136v.001l-.072.134zm-.249.442l.073-.126a17.9 17.9 0 0 1-.073.126zm-.269.44l.07-.112v.002l-.07.11zm-.29.44v.001l.06-.088-.06.088zm-3.188 3.585l.107-.097-.107.097zm-.48.417zm-1.005.805l.076-.06-.076.06zm-.483.356l.096-.07-.002.001-.094.07zm-.552.387l.09-.062-.004.003-.086.059zm7.743-11.94zm.022.27c-.004-.065-.008-.133-.014-.198.006.065.01.133.014.199zm.014.466zm1.3.875a4.949 4.949 0 0 0-.535-1.004c-.022-.032-.05-.059-.072-.09l-1.122-2.02a4.955 4.955 0 0 0-.463-.835c-2.628-3.763-10.236-3.292-16.99 1.045-6.756 4.34-10.102 10.908-7.474 14.667l1.245 2.21c.117.254.25.502.413.735.222.316.476.6.76.851 3.137 2.806 10.042 2.08 16.23-1.896 6.189-3.972 9.514-9.817 8.008-13.663z" opacity=".281"/>
            <g transform="translate(63.825 150.49)">
                <mask id="n" fill="#fff">
                    <use xlink:href="#m"/>
                </mask>
                <path fill="#F29C1D" d="M29.37 1.075v2.266c0 .025 0 .05-.005.074-.033.344-.308.622-.666.687-.005.002-.01.002-.015.002-.046.005-.093.007-.141.012H1.05c-.43 0-.784-.308-.822-.7-.006-.024-.006-.05-.006-.075V1.075C.222.648.595.3 1.05.3h27.493c.455 0 .828.348.828.775" mask="url(#n)"/>
            </g>
            <path fill="#444566" d="M180.566 154.58h-19V148.1z" opacity=".281"/>
            <path fill="#FFD524" d="M188.419 149.128c-.233.645-.91 1.123-1.924 1.432-2.775.852-8.08.438-13.796-1.268-5.717-1.7-10.256-4.22-11.927-6.396-.606-.792-.836-1.537-.599-2.182.883-2.417 7.92-2.492 15.72-.165 7.804 2.323 13.408 6.165 12.526 8.579"/>
            <path fill="#F29C1D" d="M186.479 150.564a8.482 8.482 0 0 1-1.179.26 13.442 13.442 0 0 1-1.4.14c-.205.01-.414.018-.63.021l-.071.002c-.233.003-.471 0-.714-.004-.059 0-.118-.003-.177-.005a23.152 23.152 0 0 1-.617-.025c-.054-.003-.107-.004-.162-.008a26.888 26.888 0 0 1-1.595-.139l-.222-.025a32.119 32.119 0 0 1-.803-.105l-.218-.033c-.22-.033-.44-.068-.664-.105-.083-.014-.167-.027-.25-.042a39.84 39.84 0 0 1-.853-.157l-.188-.039c-.241-.048-.485-.1-.73-.153l-.26-.057a42.825 42.825 0 0 1-.901-.212l-.122-.031a46.658 46.658 0 0 1-1.078-.284 46.678 46.678 0 0 1-2.923-.909c-.046-.015-.092-.03-.136-.046a43.87 43.87 0 0 1-.855-.31l-.259-.098a40.792 40.792 0 0 1-1.644-.668l-.236-.104c-.202-.09-.402-.18-.598-.27-.066-.03-.133-.06-.198-.091-.243-.115-.482-.23-.715-.347l-.194-.1a26.89 26.89 0 0 1-.545-.284c-.062-.033-.124-.065-.185-.099-.22-.12-.434-.24-.642-.36l-.145-.087c-.17-.1-.335-.2-.496-.301l-.16-.101a19.13 19.13 0 0 1-.562-.371l-.093-.066c-.153-.106-.3-.213-.442-.32a14.059 14.059 0 0 1-.603-.475c-.017-.013-.032-.028-.049-.042a10.61 10.61 0 0 1-.822-.781l-.038-.04a6.549 6.549 0 0 1-.288-.343c-.638-.812-.884-1.577-.644-2.236l-1.32 3.614c-.883 2.417 4.725 6.26 12.525 8.582 7.8 2.323 14.837 2.25 15.72-.165l1.321-3.617c-.237.648-.92 1.126-1.94 1.436"/>
            <path fill="#FFD524" d="M155.289 137.32a.51.51 0 0 1-.307.162c-1.497.288-7.1-2.424-13.253-6.484-6.723-4.435-11.553-8.796-10.792-9.744.766-.944 6.836 1.888 13.56 6.323 6.726 4.435 11.557 8.796 10.792 9.744"/>
            <path fill="#444566" d="M138.26 134.747c.027-.022.057-.043.08-.068-.023.025-.053.046-.08.068m-.764.318c.055-.011.114-.02.164-.034-.05.014-.109.023-.164.034m-2.214-.003c.095.013.19.024.28.032l-.097-.01-.183-.022m-.266-.033a3.796 3.796 0 0 0 .095.012l-.095-.012m-.63-.097l-.107-.02c-.161-.028-.326-.059-.493-.092l-.2-.042a22.02 22.02 0 0 1-.009-.003c.502.107.976.19 1.414.25l-.067-.009a18.655 18.655 0 0 1-.538-.084m-2.097-.454l-.152-.04a39.677 39.677 0 0 1-.562-.15l-.19-.053a50.252 50.252 0 0 1-.596-.173 33.71 33.71 0 0 0 2.298.608 35.21 35.21 0 0 1-.799-.192m-1.627-.453c-.062-.019-.125-.04-.187-.058.1.03.2.062.3.09l-.09-.025-.023-.007m-.936-.293c-.004 0-.007-.003-.01-.003l.253.08-.073-.022-.17-.055m-.81-.268l-.267-.094c.142.05.286.1.427.147l.097.033-.097-.033-.16-.053m-.865-.303l-.148-.055.366.132-.17-.06-.048-.017m-.93-.344l.29.108-.131-.048-.158-.06m-1.066-.415l.24.096a2.008 2.008 0 0 1-.056-.022l-.184-.074m-.847-.344l-.088-.038c.119.05.237.1.355.147l-.092-.037-.175-.072m-.922-.39l-.022-.011.338.145-.09-.038-.226-.097m-1.687-.756l-.177-.083a71.919 71.919 0 0 1 .178.083m-1.051-.5l-.206-.1.656.316-.246-.117-.204-.099m-.848-.419a62.655 62.655 0 0 1-.698-.358l-.192-.1a61.749 61.749 0 0 1-.61-.324l-.133-.072a61.33 61.33 0 0 0 1.633.853c.018.012.036.019.054.028l.127.064-.117-.058a3.314 3.314 0 0 1-.064-.033m-4.514-2.545l.03.019-.03-.02m-.66-.43c.13.087.264.173.397.26-.1-.066-.203-.132-.3-.197a7.4 7.4 0 0 1-.096-.064m-.584-.399l-.095-.068.25.175-.137-.094a.231.231 0 0 1-.018-.013m-.581-.42l.126.093-.066-.048-.06-.045m-2.862-2.955c-.006-.014-.01-.028-.015-.043l.015.043m26.956 11.281c.859-1.557-4.481-5.531-11.93-8.874-6.559-2.946-12.562-4.42-14.485-3.666a1.147 1.147 0 0 0-.455.298 1.194 1.194 0 0 0-.046.058c-.018.023-.034.051-.05.077l-.053.117-1.183 2.788c-.858 1.557 4.486 5.53 11.932 8.874 7.446 3.345 14.178 4.792 15.038 3.237l1.233-2.909c-.008.015-.022.028-.031.042.009-.014.022-.027.03-.042" opacity=".281"/>
            <path fill="#F29C1D" d="M138.104 135.573l1.233-2.908c-.268.485-1.107.678-2.36.613a12.183 12.183 0 0 1-.988-.095 20.204 20.204 0 0 1-.725-.109l-.107-.02a23.386 23.386 0 0 1-1.175-.238l-.156-.035a35.217 35.217 0 0 1-1.372-.351l-.19-.053a37.923 37.923 0 0 1-1.49-.448l-.17-.054-.65-.215-.16-.054a51.02 51.02 0 0 1-.816-.285c-.016-.007-.033-.012-.05-.018a62.496 62.496 0 0 1-.77-.284l-.193-.073a56.924 56.924 0 0 1-.74-.286l-.107-.041a74.734 74.734 0 0 1-1.728-.713l-.225-.097a68.523 68.523 0 0 1-1.687-.756l-.23-.108a61.908 61.908 0 0 1-.616-.292l-.205-.1a64.095 64.095 0 0 1-1.738-.877 48.142 48.142 0 0 1-.609-.324l-.133-.071a61.506 61.506 0 0 1-.722-.4l-.078-.045c-.207-.117-.41-.233-.61-.35l-.153-.09a47.823 47.823 0 0 1-1.288-.788l-.094-.06c-.17-.11-.337-.219-.5-.327l-.131-.087a32.513 32.513 0 0 1-.53-.363l-.018-.012a29.934 29.934 0 0 1-1.01-.746l-.104-.082c-.302-.238-.578-.47-.827-.695l-.082-.074a12.638 12.638 0 0 1-.29-.274c-.926-.91-1.37-1.68-1.193-2.214l-1.183 2.788c-.858 1.557 4.485 5.53 11.932 8.875 7.446 3.344 14.177 4.791 15.038 3.236"/>
            <path fill="#FFD524" d="M139.336 132.665a.807.807 0 0 1-.257.276 1.107 1.107 0 0 1-.185.11c-.1.048-.219.09-.347.122h-.003c-.396.104-.916.14-1.54.107a10.385 10.385 0 0 1-.353-.024c-.061-.004-.125-.011-.19-.018a5.617 5.617 0 0 1-.367-.042 19.989 19.989 0 0 1-1.638-.279c-.154-.03-.314-.065-.476-.102a34.041 34.041 0 0 1-1.715-.438 45.662 45.662 0 0 1-1.781-.541l-.53-.176a63.576 63.576 0 0 1-5.654-2.231 64.682 64.682 0 0 1-2.666-1.268c-.018-.01-.036-.016-.054-.028a43.86 43.86 0 0 1-.89-.457 50.043 50.043 0 0 1-2.894-1.632c-.021-.011-.041-.025-.065-.04-.218-.132-.43-.264-.635-.396-.03-.018-.061-.04-.095-.06a21.09 21.09 0 0 1-.63-.414l-.27-.183a23.754 23.754 0 0 1-1.828-1.372 13.419 13.419 0 0 1-.426-.373c-.019-.015-.034-.03-.047-.045a5.81 5.81 0 0 1-.29-.274c-.016-.014-.031-.027-.044-.041a7.758 7.758 0 0 1-.483-.523l-.062-.072v-.002a3.439 3.439 0 0 1-.522-.81 1.611 1.611 0 0 1-.075-.211.928.928 0 0 1-.007-.553l.054-.118c.015-.026.03-.054.049-.077.015-.02.03-.04.046-.058.108-.123.26-.22.455-.297 1.923-.754 7.926.72 14.485 3.665 7.448 3.343 12.789 7.317 11.93 8.875"/>
            <path fill="#FCF232" d="M137.505 131.26c-1.443-1.707-5.222-4.193-9.96-6.406-5.332-2.492-10.224-3.869-12.217-3.553 1.27-.88 6.495.334 12.226 2.911 5.737 2.573 9.965 5.6 9.951 7.047"/>
            <path fill="#FCB527" d="M135.5 132.066c-2.286-.114-6.261-1.277-10.515-3.188-4.08-1.83-7.4-3.891-8.967-5.449-.746-.738-1.098-1.362-.951-1.796l.042-.1a.71.71 0 0 1 .219-.232c1.993-.316 6.885 1.06 12.217 3.553 4.738 2.213 8.516 4.699 9.96 6.405a.605.605 0 0 1-.075.298c-.219.4-.905.561-1.93.509"/>
            <path fill="#444566" d="M112.92 119.39c0 .296-.156.645-.454 1.032.108-.123.26-.22.455-.297v7.75s-21.38 4.77-27.068 2.659l.211-.086 26.857-11.063v.004z" opacity=".281"/>
            <path fill="#444566" d="M105.766 127.911c-8.146 0-14.748 5.962-14.748 13.316 0 7.354 6.602 13.315 14.748 13.315 8.145 0 14.748-5.96 14.748-13.315 0-7.354-6.603-13.316-14.748-13.316" opacity=".281"/>
            <path fill="#F29C1D" d="M133.642 151.564v2.267c0 .024 0 .05-.005.074-.039.393-.394.7-.823.7h-27.492c-.43 0-.784-.307-.823-.7-.005-.024-.005-.05-.005-.074v-2.267c0-.426.373-.775.828-.775h27.492c.455 0 .828.349.828.775M112.92 119.385v.004c0 .297-.156.646-.454 1.033a1.01 1.01 0 0 0-.047.058c-1.485 1.862-6.134 4.59-12.004 6.883-6.365 2.489-12.16 3.684-14.35 3.085-.438-.119-.731-.309-.858-.574l-1.596-2.613c.093.13.234.239.417.327.059.028.123.054.191.079h.005c.478.168 1.169.232 2.03.197.136-.004.275-.012.42-.023l.115-.007a18.373 18.373 0 0 0 1.257-.144c.164-.023.332-.048.501-.076l.129-.021c.422-.07.864-.156 1.324-.254l.157-.035.293-.062c.003 0 .003 0 .005-.002.255-.056.515-.116.777-.181l.005-.002a29.664 29.664 0 0 0 .452-.114c.221-.056.448-.116.676-.179.173-.044.345-.093.52-.144.116-.033.229-.068.347-.1l.067-.016.419-.126c.136-.039.27-.08.406-.123a.382.382 0 0 1 .041-.011l.106-.035c.218-.067.442-.14.666-.211l.162-.053c.264-.086.53-.174.8-.265l.069-.024a76.616 76.616 0 0 0 1.049-.368c.213-.08.429-.158.642-.237a83.921 83.921 0 0 0 1.087-.413c.299-.117.592-.235.883-.354l.226-.092.7-.292c.056-.024.115-.05.172-.072.143-.06.285-.123.426-.186.178-.075.352-.153.525-.23a78.39 78.39 0 0 0 .89-.406l.36-.167c.434-.207.853-.411 1.26-.616.03-.018.063-.034.094-.05l.306-.156a38.607 38.607 0 0 0 3.283-1.887 23.2 23.2 0 0 0 .947-.648l.087-.063c.144-.106.283-.21.416-.315.05-.04.095-.077.144-.114.276-.218.52-.432.736-.638.08-.077.154-.152.223-.226l.113-.12c.109-.119.204-.232.289-.344a2.45 2.45 0 0 0 .151-.22l.06-.098c.223-.385.277-.724.146-.998l1.669 2.725a.72.72 0 0 1 .069.314"/>
            <path fill="#FFD524" d="M110.2 118.352c-1.897 1.818-6.183 4.225-11.453 6.285-5.048 1.975-9.743 3.136-12.556 3.231-1.337.046-2.25-.147-2.58-.607l-.067-.112c-.765-1.597 4.8-5.309 12.432-8.291 7.633-2.986 14.442-4.11 15.207-2.513.237.495-.132 1.193-.983 2.007"/>
            <path fill="#FCF232" d="M108.812 116.704c-2.375-.105-6.915.9-11.844 2.743-5.548 2.073-9.868 4.561-10.886 6.14.074-1.444 4.47-4.266 10.348-6.56 5.878-2.3 11.167-3.266 12.382-2.323"/>
            <path fill="#FCB527" d="M108.203 118.607c-1.571 1.504-5.119 3.498-9.48 5.202-4.18 1.634-8.065 2.598-10.394 2.674-1.106.04-1.861-.12-2.134-.501l-.056-.093a.62.62 0 0 1-.057-.302c1.018-1.579 5.338-4.067 10.885-6.14 4.93-1.843 9.47-2.848 11.846-2.743.09.07.16.15.202.243.198.409-.108.986-.812 1.66"/>
            <path fill="#444566" d="M165.355 150.298c.028-.031.06-.06.087-.092-.028.032-.058.06-.087.092zm.231-.282c.03-.04.061-.078.088-.118-.027.04-.058.078-.088.118zm-.492.537c.021-.02.045-.038.066-.057-.021.02-.045.038-.066.057zm-.375.292l.045-.032-.045.032zm-.291.183l.054-.033a1.142 1.142 0 0 1-.054.033zm-1.543.617l.086-.023-.086.023zm-2.4.362c.037-.002.075-.003.112-.006-.037.003-.075.004-.112.006zm-.59.022zm-1.523-.035c.035.003.07.004.106.006l-.106-.006zm-1.512-.144l.286.036a24.8 24.8 0 0 1-.286-.036zm-.448-.061l.153.022-.153-.022zm-.607-.096c.056.01.112.02.167.028l-.167-.028zm-.756-.138l.323.061-.323-.061zm-.615-.129c.11.025.218.047.327.07-.11-.023-.218-.045-.327-.07zm-1.527-.378a26.485 26.485 0 0 0 .002 0h-.002zm-.636-.181zm-1.281-.408zm-2.024-.763l.096.04-.096-.04zm-.68-.291l.154.068-.154-.068zm-1.836-.878l.223.115-.001-.001-.222-.114zm-1.49-.83a26.08 26.08 0 0 1 0 0zm-.993-.622l.256.167-.255-.166zm-1.96-1.454h-.001l.19.158-.19-.158zm-1.12-1.028l.15.149-.15-.15zm-.261-.273l.059.063-.06-.063zm-.723-.852l.051.067-.05-.067zm-.269-.373l.039.056-.039-.055zm-.425-.692l.071.128-.071-.128zm-.312-.67l.02.046-.02-.046zm-.213-.738l.018.093a2.103 2.103 0 0 1-.018-.093zm-.052-.36l.006.05-.006-.05zm.113-1.148c-.009.027-.013.053-.02.08.007-.027.011-.053.02-.08zm16.297-.763c-7.45-2.881-14.686-2.695-16.163.417l-1.209 2.548c-1.476 3.112 3.37 7.968 10.816 10.848 7.45 2.881 14.686 2.695 16.163-.413l1.209-2.551c1.476-3.113-3.366-7.968-10.816-10.85z" opacity=".281"/>
            <path fill="#F29C1D" d="M164.215 149.543a3.473 3.473 0 0 1-.3.199l-.092.055c-.088.05-.178.099-.272.146l-.043.021a5.991 5.991 0 0 1-.355.16l-.005.001a6.563 6.563 0 0 1-.361.135l-.09.03a7.587 7.587 0 0 1-.841.228 8.265 8.265 0 0 1-.44.088c-.124.021-.25.041-.379.06l-.076.01c-.158.022-.32.04-.484.057l-.035.002c-.148.015-.298.026-.45.035-.053.004-.108.006-.161.009-.113.006-.226.01-.342.014l-.199.005a16.443 16.443 0 0 1-1.083-.012c-.11-.004-.222-.01-.334-.017l-.22-.012c-.155-.01-.31-.023-.467-.037l-.302-.03a17.087 17.087 0 0 1-.628-.071 19.662 19.662 0 0 1-.296-.039l-.304-.045-.289-.045c-.104-.017-.209-.034-.314-.053a27.036 27.036 0 0 1-.609-.113l-.288-.06c-.11-.022-.218-.044-.327-.068l-.31-.072a28.349 28.349 0 0 1-.897-.22l-.318-.087-.32-.088-.317-.093-.329-.1a29.953 29.953 0 0 1-.31-.096l-.349-.114a34.542 34.542 0 0 1-.69-.236l-.248-.088a35.854 35.854 0 0 1-1.284-.496l-.268-.114a38.187 38.187 0 0 1-.661-.286l-.301-.135-.32-.15c-.091-.042-.18-.085-.27-.128l-.328-.16c-.081-.04-.162-.082-.242-.123l-.336-.173-.18-.096a28.864 28.864 0 0 1-.758-.418l-.109-.062c-.111-.064-.22-.13-.33-.194l-.196-.119a18.854 18.854 0 0 1-.51-.318 28.853 28.853 0 0 1-.285-.185l-.206-.138-.27-.185c-.07-.048-.137-.096-.204-.145-.086-.06-.172-.121-.256-.182l-.21-.158c-.125-.094-.248-.189-.37-.284l-.256-.205-.19-.158c-.072-.061-.145-.122-.216-.184a15.94 15.94 0 0 1-.553-.501l-.2-.194-.15-.15c-.069-.07-.136-.14-.202-.21-.042-.044-.085-.088-.125-.133-.083-.089-.161-.178-.238-.268l-.067-.075c-.097-.114-.19-.229-.28-.343l-.071-.095a8.711 8.711 0 0 1-.184-.249c-.03-.041-.057-.082-.085-.123a9.084 9.084 0 0 1-.228-.35 8.238 8.238 0 0 1-.127-.215c-.024-.043-.048-.085-.07-.128a7.117 7.117 0 0 1-.113-.22c-.02-.04-.04-.078-.057-.117a5.578 5.578 0 0 1-.111-.258c-.01-.025-.022-.05-.031-.075a4.545 4.545 0 0 1-.112-.325c-.01-.032-.017-.064-.026-.097a4.307 4.307 0 0 1-.058-.223c-.01-.043-.016-.085-.024-.129a3.001 3.001 0 0 1-.046-.324 2.832 2.832 0 0 1 .248-1.494l-1.209 2.548c-1.477 3.112 3.369 7.968 10.815 10.849 7.45 2.88 14.686 2.694 16.163-.414l1.21-2.551c-.223.467-.577.867-1.04 1.2"/>
            <path fill="#FFD524" d="M165.253 148.342c-.21.438-.532.817-.952 1.14-2.565 1.961-8.806 1.751-15.207-.722-6.401-2.478-10.878-6.411-11.076-9.443a2.8 2.8 0 0 1 .256-1.407c1.477-3.112 8.714-3.298 16.163-.417 7.45 2.88 12.293 7.736 10.816 10.849"/>
            <path fill="#FCF232" d="M163.429 144.868c-1.203-1.983-4.137-4.132-7.96-5.611-5.756-2.226-11.346-2.082-12.488.323-.16.339-.223.7-.197 1.086.017.29.09.59.205.898-.352-.58-.555-1.144-.591-1.673a2.18 2.18 0 0 1 .198-1.089c1.141-2.402 6.73-2.547 12.487-.323 4.328 1.674 7.516 4.211 8.346 6.389"/>
            <path fill="#FCB527" d="M163.44 146.864a2.454 2.454 0 0 1-.736.88c-1.982 1.515-6.803 1.353-11.75-.56-3.825-1.48-6.762-3.635-7.965-5.62a3.113 3.113 0 0 1-.205-.898 2.17 2.17 0 0 1 .197-1.086c1.142-2.405 6.732-2.55 12.488-.323 3.823 1.479 6.757 3.628 7.96 5.61.275.72.293 1.4.01 1.997"/>
            <path fill="#444566" d="M120.812 136.545a7.48 7.48 0 0 1 0 0M120.961 137.788c.016.078.03.155.049.234-.018-.079-.033-.156-.049-.234m.108.465v-.002l.019.074-.019-.072m.179.605l.042.12v-.001c-.013-.04-.029-.08-.042-.119m.157.436l.037.09-.037-.09m.18.438c.02.047.043.095.065.143l-.065-.143m.43.889v-.001l.074.136a9.738 9.738 0 0 1-.073-.135m.25.45l.075.126-.075-.126m.276.455l.07.112v-.001l-.07-.11m.304.463l.06.087a6.058 6.058 0 0 1-.06-.087m3.179 3.574l.11.097h-.001l-.11-.097m.473.41l.123.104a14.012 14.012 0 0 1-.123-.104m1.062.849l.078.059-.078-.06m.471.347h-.002c.033.022.065.046.098.07l-.096-.07m.568.396c-.002 0-.003 0-.004-.002l.09.062-.086-.06M120.838 135.76c-.006.066-.01.133-.014.2.004-.067.008-.134.014-.2m-.025.388a6.158 6.158 0 0 1 0 0m6.787 14.81c6.264 3.974 13.255 4.7 16.43 1.896.289-.25.546-.536.77-.85.165-.235.3-.482.418-.736l1.26-2.21c2.66-3.758-.727-10.324-7.565-14.662-6.839-4.336-14.54-4.807-17.2-1.046a4.975 4.975 0 0 0-.47.837l-1.135 2.019c-.023.03-.05.057-.073.09-.22.315-.401.65-.541 1.002-1.525 3.845 1.841 9.69 8.106 13.66" opacity=".281"/>
            <path fill="#FFD524" d="M119.678 137.63c0 7.267-6.525 13.159-14.574 13.159-8.048 0-14.573-5.892-14.573-13.158 0-7.267 6.525-13.158 14.573-13.158 8.05 0 14.574 5.89 14.574 13.158"/>
            <path fill="#E5970C" d="M117.037 137.63c0 .093-.002.185-.005.279-.167-5.82-5.443-10.488-11.927-10.488-6.487 0-11.763 4.668-11.93 10.488-.002-.094-.005-.186-.005-.28 0-5.949 5.343-10.772 11.935-10.772 6.59 0 11.932 4.823 11.932 10.773"/>
            <path fill="#FCB527" d="M117.032 137.908v.01c-.167 5.82-5.443 10.487-11.927 10.487-6.487 0-11.762-4.668-11.93-10.488v-.009c.168-5.82 5.443-10.487 11.93-10.487 6.484 0 11.76 4.668 11.927 10.487"/>
            <path fill="#FCF232" d="M117.037 138.196c0 5.95-5.343 10.773-11.932 10.773-6.592 0-11.935-4.823-11.935-10.773 0-.093.003-.185.006-.278.166 5.82 5.442 10.487 11.929 10.487 6.484 0 11.76-4.668 11.927-10.487.003.093.005.185.005.278"/>
            <path fill="#F29C1D" d="M90.178 134.865a4.477 4.477 0 0 0-.524-.927c-.022-.029-.049-.054-.071-.083l-1.1-1.864c.028.05.047.102.07.155a4.51 4.51 0 0 1 .315 1.232l.008.066c.009.088.015.177.02.266l.005.092c.002.085.003.17.002.255l-.002.112a6.393 6.393 0 0 1-.012.245l-.012.128a6.166 6.166 0 0 1-.026.238c-.006.048-.014.096-.022.144a5.84 5.84 0 0 1-.037.23c-.01.054-.023.109-.035.164-.015.07-.03.142-.047.214-.018.071-.038.143-.058.214l-.046.172c-.04.128-.081.257-.127.387-.012.037-.028.073-.04.11a9.204 9.204 0 0 1-.112.292l-.053.126c-.04.093-.079.185-.121.279l-.063.131a8.562 8.562 0 0 1-.135.277c-.021.044-.044.087-.067.13a11.379 11.379 0 0 1-.466.814c-.064.102-.129.203-.196.305l-.068.102c-.073.109-.15.218-.227.326l-.057.081c-.087.12-.177.24-.27.36l-.034.046a17.85 17.85 0 0 1-1.455 1.65l-.008.006c-.129.13-.26.258-.394.385l-.059.055c-.118.112-.239.223-.362.334l-.087.077a21.78 21.78 0 0 1-.352.307l-.105.089a26.007 26.007 0 0 1-.827.662l-.13.1c-.119.09-.24.179-.364.268l-.135.097c-.125.09-.253.178-.38.266-.046.03-.09.062-.134.092a26.4 26.4 0 0 1-.416.274c-.038.025-.075.05-.114.074a25.209 25.209 0 0 1-1.688.991l-.076.04c-.358.19-.717.372-1.077.542l-.135.06c-.34.158-.68.31-1.02.45-.058.024-.114.042-.17.066-.328.131-.657.258-.983.373-.072.025-.143.045-.215.07-.31.105-.62.208-.927.297-.089.026-.176.046-.265.07-.288.08-.576.159-.86.225-.108.025-.214.043-.321.066-.261.056-.524.113-.78.157-.129.022-.253.035-.38.054-.232.035-.465.072-.692.096-.149.017-.291.023-.437.035-.201.016-.404.035-.6.044-.166.007-.325.003-.487.005-.17 0-.342.006-.508 0-.18-.005-.354-.022-.53-.035-.139-.01-.281-.016-.417-.031-.19-.021-.372-.054-.555-.085-.113-.019-.23-.033-.34-.054-.193-.04-.376-.09-.56-.141-.09-.025-.187-.045-.275-.073-.19-.059-.368-.13-.546-.2-.074-.03-.153-.055-.225-.087a6.278 6.278 0 0 1-.512-.262c-.061-.034-.128-.063-.188-.1a5.385 5.385 0 0 1-.457-.318c-.076-.056-.158-.105-.23-.165a4.562 4.562 0 0 1-.745-.786l1.219 2.041c.115.235.246.463.405.678.218.292.467.555.747.786 3.074 2.59 9.843 1.92 15.91-1.75 6.066-3.667 9.327-9.064 7.85-12.614"/>
            <path fill="#FFD524" d="M80.703 144.76c-6.012 3.638-12.715 4.33-15.828 1.813-.028-.017-.055-.042-.082-.063a4.548 4.548 0 0 1-.746-.786c-2.577-3.47.703-9.533 7.326-13.54 6.621-4.003 14.08-4.439 16.656-.965.178.245.33.501.455.772.027.05.046.102.07.154.124.302.217.614.272.94.633 3.513-2.57 8.32-8.123 11.675"/>
            <path fill="#FCF232" d="M85.452 132.254c-2.11-2.82-8.181-2.461-13.57.798-5.078 3.071-7.746 7.63-6.294 10.513-2.098-2.827.576-7.77 5.972-11.035 5.397-3.264 11.478-3.619 13.578-.787.121.165.224.334.314.51"/>
            <path fill="#FCB527" d="M79.166 142.783c-4.9 2.964-10.366 3.528-12.904 1.479l-.067-.054a3.695 3.695 0 0 1-.607-.64c-.003-.003 0-.003 0-.003-1.452-2.883 1.216-7.442 6.294-10.513 5.389-3.259 11.46-3.619 13.57-.798.018.04.039.079.057.118.023.042.038.084.056.128.103.246.177.499.224.766.514 2.862-2.095 6.78-6.623 9.517"/>
            <path fill="#F29C1D" d="M120.03 135.844c.137-.326.312-.635.526-.926.021-.029.048-.054.07-.083l1.1-1.864c-.028.049-.047.102-.07.154a4.536 4.536 0 0 0-.315 1.232l-.008.067c-.01.088-.016.177-.02.266l-.004.092c-.003.084-.004.17-.003.255l.002.111c.003.082.007.163.013.246.002.042.007.085.011.128.007.08.015.158.026.238l.021.144c.012.076.024.152.039.229.01.054.023.11.034.164.015.071.03.143.047.215l.058.214c.016.057.03.114.047.171.038.129.08.258.126.388.012.036.027.073.04.11.037.097.073.194.112.292l.053.125.121.28.062.131c.044.092.088.184.135.277l.068.13c.05.094.1.188.152.282l.07.124c.056.098.114.195.173.292.023.039.048.077.072.116.063.102.128.203.195.304l.068.103c.074.109.15.218.227.326l.057.08c.087.12.177.241.27.361l.034.046c.431.556.918 1.108 1.456 1.649l.007.007c.128.129.26.257.394.385l.059.055c.118.111.239.223.362.333l.087.078c.115.103.233.205.352.306l.105.09c.116.097.233.193.352.29l.119.094c.117.093.236.186.355.278l.13.099c.12.09.242.18.365.268l.135.098c.125.09.253.178.38.266l.135.092c.137.092.276.183.416.274l.113.074a24.872 24.872 0 0 0 1.688.991l.076.039c.358.19.717.373 1.077.542.045.022.09.04.135.06.34.158.68.311 1.02.45.057.024.114.043.17.066.329.132.657.259.983.374.072.025.143.045.215.069.31.106.62.208.927.298.089.026.176.045.265.07.288.08.576.159.86.225.108.025.213.043.321.065.262.057.523.113.78.157.129.023.253.036.38.055.232.035.465.072.693.096.148.016.29.023.437.034.2.017.403.036.6.045.165.006.324.003.486.004.17.001.342.006.508.001.18-.005.354-.022.53-.035.139-.01.281-.016.418-.032.19-.02.37-.053.554-.084.113-.019.23-.033.34-.055.193-.04.376-.09.56-.14.09-.026.186-.046.275-.073.19-.06.368-.13.546-.2.074-.03.153-.056.225-.087a6.15 6.15 0 0 0 .512-.262c.062-.034.128-.064.188-.1a5.32 5.32 0 0 0 .458-.318c.075-.056.157-.106.228-.165.28-.232.529-.495.746-.786l-1.22 2.041a4.335 4.335 0 0 1-.404.678 4.547 4.547 0 0 1-.746.786c-3.075 2.59-9.844 1.92-15.911-1.75-6.066-3.667-9.327-9.064-7.85-12.615"/>
            <path fill="#FFD524" d="M129.506 145.74c6.012 3.638 12.716 4.329 15.828 1.813.028-.018.055-.042.082-.063.28-.232.529-.495.746-.786 2.577-3.47-.703-9.533-7.325-13.54-6.623-4.004-14.08-4.44-16.657-.965-.179.245-.33.501-.455.771-.027.05-.046.103-.07.155a4.315 4.315 0 0 0-.272.94c-.633 3.513 2.569 8.32 8.123 11.674"/>
            <path fill="#FCF232" d="M124.757 133.234c2.11-2.821 8.181-2.461 13.57.798 5.078 3.07 7.746 7.63 6.294 10.513 2.098-2.827-.576-7.77-5.973-11.035-5.396-3.264-11.477-3.62-13.577-.787-.121.164-.224.334-.314.51"/>
            <path fill="#FCB527" d="M131.043 143.763c4.9 2.964 10.367 3.528 12.904 1.479l.067-.054c.227-.188.43-.402.607-.64.002-.003 0-.003 0-.003 1.453-2.883-1.216-7.442-6.294-10.513-5.39-3.26-11.46-3.62-13.57-.798-.018.04-.038.078-.057.118-.022.042-.038.083-.056.128a3.53 3.53 0 0 0-.224.765c-.514 2.863 2.096 6.781 6.623 9.518"/>
            <path fill="#FCF232" d="M153.15 135.845c-1.303-1.646-4.698-4.436-8.958-7.262-4.88-3.235-9.366-5.503-11.15-5.716a.305.305 0 0 1 .061-.182c.63-.777 5.62 1.551 11.146 5.195 5.43 3.58 9.356 7.099 8.9 7.965"/>
            <path fill="#FCB527" d="M153.15 135.845a.306.306 0 0 1-.028.046.43.43 0 0 1-.252.133c-1.232.236-5.837-1.994-10.894-5.33-5.178-3.417-8.988-6.776-8.934-7.827 1.784.213 6.27 2.48 11.15 5.716 4.26 2.826 7.655 5.616 8.958 7.262"/>
            <path fill="#FCF232" d="M184.47 145.894c-1.545-1.507-4.692-3.144-8.546-4.29-5.918-1.767-11.258-1.71-11.927.125-.18.49-.005 1.054.453 1.655.028.037.058.075.09.112a5.162 5.162 0 0 1-.507-.562c-.458-.601-.632-1.165-.452-1.655.668-1.834 6.008-1.89 11.926-.126 4.243 1.264 7.629 3.118 8.963 4.74"/>
            <path fill="#FCB527" d="M185.013 147.662c-.177.49-.692.852-1.46 1.087-2.106.648-6.13.334-10.47-.961-3.854-1.147-7-2.783-8.544-4.292a3.21 3.21 0 0 1-.09-.112c-.457-.6-.632-1.165-.452-1.655.669-1.836 6.009-1.892 11.927-.125 3.854 1.146 7 2.783 8.546 4.29.527.643.733 1.248.543 1.768"/>
            <path fill="#FFF" d="M86.94 134.65s.264 3.29-3.696 3.433c0 0 3.703.525 3.7 3.48 0 0 .419-3.194 3.85-3.456 0 0-3.8-.167-3.854-3.456M138.827 125.92s.298 3.722-4.182 3.884c0 0 4.19.593 4.186 3.937 0 0 .474-3.614 4.357-3.91 0 0-4.301-.189-4.361-3.91M177.597 148.24s.173 2.157-2.424 2.25c0 0 2.429.345 2.426 2.283 0 0 .275-2.095 2.525-2.267 0 0-2.492-.11-2.527-2.266M46.49 146.261s.173 2.157-2.424 2.251c0 0 2.429.344 2.426 2.282 0 0 .275-2.094 2.525-2.266 0 0-2.493-.11-2.527-2.267"/>
        </g>
        <g font-family="NotoSerifCJKtc-Bold, Noto Serif CJK TC" font-weight="bold">
            <text fill="#F05050" font-size="50" transform="translate(66.782 149.766)">
                <tspan x="0" y="58">1%</tspan>
            </text>
            <text fill="#430000" font-size="18" transform="translate(66.782 149.766)">
                <tspan x="15" y="62"></tspan>
            </text>
        </g>
        <g>
            <g transform="translate(162 9)">
                <use fill="#000" filter="url(#o)" xlink:href="#p"/>
                <use fill="url(#q)" xlink:href="#p"/>
            </g>
            <path stroke="#FFD798" stroke-width="4" d="M163.2 82.6c-7.953 47.94 24.462 93.249 72.4 101.2 47.939 7.954 93.248-24.462 101.2-72.4 7.953-47.94-24.463-93.249-72.401-101.2-47.94-7.954-93.247 24.462-101.2 72.4z"/>
            <text fill="#430000" font-family="NotoSerifCJKtc-Bold, Noto Serif CJK TC" font-size="18" font-weight="bold" transform="translate(162 9)">
                <tspan x="34.447" y="47.112"></tspan>
            </text>
            <text fill="#430000" font-family="NotoSerifCJKtc-Bold, Noto Serif CJK TC" font-size="18" font-weight="bold" transform="translate(162 9)">
                <tspan x="73.44" y="116.995">()</tspan>
            </text>
            <text fill="#F05050" font-family="NotoSerifCJKtc-Bold, Noto Serif CJK TC" font-size="50" font-weight="bold" transform="translate(162 9)">
                <tspan x="38.604" y="146.635">5</tspan>
            </text>
        </g>
    </g>
</svg>
