<svg xmlns="http://www.w3.org/2000/svg" xmlns:xlink="http://www.w3.org/1999/xlink" width="349" height="507" viewBox="0 0 349 507">
    <defs>
        <radialGradient id="c" r="100%" fx="50%" fy="50%">
            <stop offset="0%" stop-color="#FFF" stop-opacity=".292"/>
            <stop offset="100%" stop-color="#FFF"/>
        </radialGradient>
        <circle id="b" cx="88" cy="88" r="87.107"/>
        <filter id="a" width="117.2%" height="117.2%" x="-8.6%" y="-8.6%" filterUnits="objectBoundingBox">
            <feOffset in="SourceAlpha" result="shadowOffsetOuter1"/>
            <feGaussianBlur in="shadowOffsetOuter1" result="shadowBlurOuter1" stdDeviation="5"/>
            <feColorMatrix in="shadowBlurOuter1" values="0 0 0 0 0.988235294 0 0 0 0 0.729411765 0 0 0 0 0.0901960784 0 0 0 1 0"/>
        </filter>
        <linearGradient id="d" x1="53.573%" x2="50%" y1="11.767%" y2="78.645%">
            <stop offset="0%" stop-color="#F5F5F5" stop-opacity="0"/>
            <stop offset="27.096%" stop-color="#FFF" stop-opacity="0"/>
            <stop offset="100%" stop-color="#FFE99A" stop-opacity=".887"/>
        </linearGradient>
        <linearGradient id="e" x1="53.573%" x2="50%" y1="4.824%" y2="83.847%">
            <stop offset="0%" stop-color="#F5F5F5" stop-opacity="0"/>
            <stop offset="27.096%" stop-color="#FFF" stop-opacity="0"/>
            <stop offset="100%" stop-color="#FFE99A" stop-opacity=".887"/>
        </linearGradient>
        <radialGradient id="f" cy="0%" r="100%" fx="50%" fy="0%" gradientTransform="matrix(0 1 -1.35838 0 .5 -.5)">
            <stop offset="0%"/>
            <stop offset="100%" stop-opacity="0"/>
        </radialGradient>
        <path id="g" d="M0 .19h87.041v86.747H0z"/>
        <path id="i" d="M.022.237h7.641v7.001H.023z"/>
        <radialGradient id="k" cx="48.145%" r="43.241%" fx="48.145%" fy="50%" gradientTransform="matrix(0 1 -.64762 0 .805 .019)">
            <stop offset="0%"/>
            <stop offset="21.045%" stop-opacity=".862"/>
            <stop offset="100%" stop-opacity="0"/>
        </radialGradient>
        <path id="l" d="M.012.05h91.197v87.926H.012z"/>
        <path id="n" d="M.012.05h91.197v87.926H.012z"/>
        <path id="p" d="M.329.05h441.388v20.504H.33z"/>
        <path id="r" d="M.012.05h83.014v18.68H.012z"/>
    </defs>
    <g fill="none" fill-rule="evenodd">
        <g transform="translate(164 9)">
            <use fill="#000" filter="url(#a)" xlink:href="#b"/>
            <use fill="url(#c)" xlink:href="#b"/>
        </g>
        <path stroke="#FFD798" stroke-width="4" d="M165.2 82.6c-7.953 47.94 24.462 93.249 72.4 101.2 47.939 7.954 93.248-24.462 101.2-72.4 7.953-47.94-24.463-93.249-72.401-101.2-47.94-7.954-93.247 24.462-101.2 72.4z"/>
        <g font-family="NotoSerifCJKtc-Bold, Noto Serif CJK TC" font-weight="bold">
            <text fill="#430000" font-size="18" transform="translate(173.827 58.137)">
                <tspan x="24.5" y="-5.63">新申辦項目達</tspan>
            </text>
            <text fill="#430000" font-size="18" transform="translate(173.827 58.137)">
                <tspan x="120.27" y="68.609">項</tspan>
            </text>
            <text fill="#F05050" font-size="50" transform="translate(173.827 58.137)">
                <tspan x="37.77" y="97.37">1-2</tspan>
            </text>
        </g>
        <g>
            <path fill="url(#d)" d="M82.283 146L18 9h181l-73.971 137z" transform="translate(20 150)"/>
            <path fill="url(#e)" d="M77.593 147.985L2.675 0H183.65l-80.867 148.902z" transform="translate(31.58 150)"/>
            <g transform="translate(31.58 251.73)">
                <ellipse cx="92.623" cy="149.239" fill="url(#f)" opacity=".453" rx="34.37" ry="5.527"/>
                <g transform="translate(48.933 65.59)">
                    <mask id="h" fill="#fff">
                        <use xlink:href="#g"/>
                    </mask>
                    <path fill="#E8C067" d="M69.72 85.21c-3.195.492-6.384.865-9.54 1.13-10.343.881-20.29.676-28.544.103C18.308 85.91 6.017 86.909.53 64.345c-2.949-12.131 7.22-34.725 10.385-40.52C16.789 13.07 29.096.19 29.096.19h29.291s13.264 10.378 18.555 22.884c7.235 17.102 12.345 30.756 9.106 43.593-3.24 12.836-11.572 17.862-16.328 18.543" mask="url(#h)"/>
                </g>
                <path fill="#D3AC5F" d="M118.655 150.66c-3.114.801-6.385.934-9.542 1.223 10.082-4.213 25.644-12.979 26.77-27.26 0 0-1.012 21.87-17.228 26.038M66.698 150.66c3.09.62 5.974.76 9.131 1.05-10.082-4.212-25.233-12.806-26.36-27.087 0 0-.867 22.411 17.23 26.038"/>
                <path fill="#DDAF52" d="M78.175 65.836h29.24s-17.137 1.69-29.24 0"/>
                <path fill="#D3AC5F" d="M88.982 66.212s-14.846 10.312-21.444 17.91c0 0 5.38-14.11 15.258-18.286l6.186.376zM91.852 65.836s-3.046 5.552.822 14.434c3.869 8.882 2.22-14.34 2.22-14.34l-3.042-.094z"/>
                <path fill="#DDAF52" d="M100.271 65.836s13.867 6.943 20.191 16.895c0 0-3.135-9.178-13.046-16.895h-7.145z"/>
                <path fill="#E8C067" d="M75.285 41.367s8.668-1.887 12.318-3.573c3.649-1.687 8.993-1.401 17.726 3.23L91.12 50.285l-15.836-8.918z"/>
                <path fill="#CE9F4D" d="M75.285 42.739s10.167-2.916 13.947-4.688c3.78-1.772 11.925 1.029 16.097 4.688l-6.387 8.347-21.528 2.801-2.129-11.148z"/>
                <path fill="#E8C067" d="M116.31 41.309c-.12.625-.247 1.16-.385 1.63-.726 2.51-1.687 3.228-2.77 6.67-.193.599-.386 1.284-.584 2.076 0 0-3.167 9.606-11.52 14.151H84.837s-.918-.53-2.364-1.52c-2.266-1.557-5.823-4.25-9.16-7.82a41.357 41.357 0 0 1-3.344-4.036l-.006-.005c-.115-.077-4.597-3.12-4.217-5.658.363-2.423 2.095-2.256 4.784-4.47.06-.046.12-.098.181-.15.105-.085.21-.175.314-.269.423-.377.88-.728 1.385-1.044.044-.035.094-.064.143-.095.567-.346 1.188-.65 1.88-.907a12.65 12.65 0 0 1 2.855-.68 17.781 17.781 0 0 1 2.105-.133c1.81-.009 3.9.235 6.34.805.05.013.105.025.16.038.297.073.594.146.902.227.456.12.924.248 1.402.394.126.034.253.073.385.111 6.136 1.866 9.798.291 12.696-.929h.006c.71-.295 1.363-.569 2.001-.77.676-.214 1.33-.339 1.985-.317.165.004.325.017.49.043 1.919.286 4.602-.129 6.79-.146.677-.013 1.298.021 1.837.12 1.402.257 2.249.967 1.924 2.684"/>
                <path fill="#D3AC5F" d="M116.31 41.31c-.122.624-.247 1.16-.385 1.63-.727 2.507-1.687 3.227-2.772 6.67 0 0 0 .002-.003.005-.189.598-.38 1.28-.577 2.07 0 0-1.466 4.446-5.037 8.72-1.674 2.008-3.813 3.977-6.484 5.432h-4.459c-.577-11.408 1.843-20.069 4.684-26.143h.006c.708-.293 1.363-.568 2-.77.676-.212 1.331-.338 1.986-.317.165.005.323.019.49.044.73.112 1.577.114 2.468.082 1.43-.052 2.97-.22 4.321-.228.084 0 .171-.005.255-.005.577 0 1.11.04 1.582.126 1.403.256 2.249.966 1.926 2.684M91.852 65.836h-7.016s-.918-.53-2.364-1.52c-1.941-6.399-5.378-16.154-10.063-23.452.044-.034.094-.064.143-.094.567-.347 1.188-.651 1.88-.908a12.63 12.63 0 0 1 2.855-.68 17.754 17.754 0 0 1 2.105-.133c1.81-.009 3.9.235 6.34.805 2.233 5.603 5.18 14.46 5.95 23.714.066.77.121 1.528.17 2.268"/>
                <path fill="#470417" d="M107.528 65.836H78.062c-.8 0-1.456-.592-1.456-1.315v-.154c0-.723.656-1.315 1.456-1.315h29.466c.8 0 1.456.592 1.456 1.315v.154c0 .723-.655 1.315-1.456 1.315M107.408 63.052H77.942c-.801 0-1.456-.591-1.456-1.315v-.153c0-.724.655-1.316 1.456-1.316h29.466c.8 0 1.455.592 1.455 1.316v.153c0 .724-.655 1.315-1.455 1.315"/>
                <path fill="#28030F" d="M78.054 63.052s13.737 2.312 29.241 0H78.054z"/>
                <path fill="#E8C067" d="M112.802 38.501c-5.119 6.588-9.249 15.388-9.249 15.388-.825-5.196 4.311-13.911 4.311-13.911.11-.437.232-.852.363-1.246 1.43-.051 2.97-.218 4.322-.227.083 0 .17-.004.253-.004"/>
                <path fill="#D3AC5F" d="M116.31 41.31a17.81 17.81 0 0 1-.383 1.63s-.192-1.93-1.391-3.088c-1.2-1.158-5.086.857-6.67.127-1.582-.731-5.278-.813-6.812.73-1.533 1.544-11.85 3.13-14.632.944-2.783-2.187-11.898-2.187-13.05-.258-1.152 1.93-4.078 2.83-5.805 4.803-1.704 1.946 2.293 6.15 2.397 6.258-.117-.079-4.598-3.12-4.22-5.658.384-2.572 2.303-2.23 5.277-4.888 2.975-2.658 7.964-4.202 17.56-1.286 9.595 2.915 13.145-2.573 17.175-1.973 4.03.6 11.418-1.886 10.555 2.659"/>
                <path fill="#470417" d="M104.066 64.921c-.156.074-.312.147-.465.223-.453.227-.89.459-1.3.693a23.388 23.388 0 0 0-2.208 1.41c-6.503 4.745-6.249 10.365-6.249 11.543 0 1.383 1.402 3.124 0 3.633-.076.028-.149.054-.225.073h-.004c-1.289.388-2.302-.073-2.302-.073-3.871-6.768 2.03-13.089 5.378-15.933.29-.243.563-.466.802-.653.756-.59 1.242-.916 1.242-.916h5.331z"/>
                <path fill="#470417" d="M120.044 93.185a2.045 2.045 0 0 1-.653.475c-.669.32-1.573.426-2.128-.017-.44-.35-.244-1.097-.269-1.564a24.237 24.237 0 0 0-.222-2.032c-.2-1.354-.515-2.691-.93-4.014-.823-2.635-2.022-5.185-3.478-7.642-2.222-3.734-5.61-7.573-8.871-11.1a43.588 43.588 0 0 0-.53-.572c-.255-.277-.512-.55-.767-.822-.018-.023-.04-.043-.054-.06-.287-.313-.574-.616-.854-.915-.13-.142-.265-.283-.392-.422.49-.107 1.42.037 2.186.09.363.026.686.032.915-.017.11-.025.222-.047.335-.059h.003a1 1 0 0 1 .41.02.267.267 0 0 1 .066.025h.003c.182.077.298.227.443.346l.022.017c.11.09.218.18.323.274.247.209.49.42.727.641.148.136.298.274.443.416 2.418 2.298 4.517 5.029 6.31 7.533 3.796 5.307 6.588 10.793 7.43 16.835.12.876.16 1.826-.468 2.564"/>
                <path fill="#28030F" d="M106.77 66.251c-1.023.583-2.144.904-3.277 1.04-.434-.47-.869-.937-1.298-1.395-.77.441-1.468.895-2.1 1.353a20.403 20.403 0 0 1-3.404-.758c.292-.244.561-.466.803-.655h8.836c.149.137.297.274.44.415"/>
                <path fill="#470417" d="M100.29 112.542c1.778.124 3.24.863 3.833 1.945.373.68.39 2.055.024 2.684-.65 1.12-2.672 1.895-4.97 1.91l-.714.007v-3.277c0-1.806.024-3.306.057-3.335.032-.03.3-.03.592-.015.293.022.82.059 1.178.08zm-7.917-10.862v3.291h-.463c-.423-.007-.682-.043-1.291-.168-.244-.051-1.283-.432-1.332-.483a1.51 1.51 0 0 0-.284-.153c-.439-.205-1.226-.937-1.51-1.405-.26-.431-.277-.504-.277-1.155 0-.505.049-.812.163-1.127.454-1.221 2.184-2.055 4.287-2.084l.707-.008v3.292zm0-11.593c0 1.733-.025 2.23-.098 2.23-.057 0-.512.037-1.015.073-1.137.088-2.428.359-3.232.666-.09.03-.398.147-.69.256-2.468.907-5.156 3.08-6.407 5.164-.268.461-.65 1.236-.715 1.478-.284 1.046-.332 1.887-.186 3.079.3 2.362 1.461 4.323 3.41 5.742.625.453.674.482.942.636.227.132 1.982.922 2.266 1.024.22.073.836.263.934.278.154.037.812.197.974.256.479.146 2.063.402 3.394.549l.423.05v7.542l-.666-.044c-.617-.037-1.608-.22-1.811-.33a.462.462 0 0 0-.122-.058c-.576-.102-2.185-1.192-2.314-1.572-.032-.08-.081-.14-.114-.14-.097 0-.609-.972-.772-1.462l-.137-.402-3.33.022-3.329.014.049.461a10.732 10.732 0 0 0 1.072 3.562c.21.395.803 1.353.933 1.5.033.036.22.256.414.475.585.68 1.64 1.573 2.656 2.238.487.322 1.981 1.126 2.087 1.126.04 0 .203.066.357.14.276.131 1.356.46 2.144.658.503.124 1.526.226 2.241.226h.642v4.755h6.09l.016-2.428.025-2.436.69-.044c.982-.066 2.769-.424 3.492-.702.064-.022.146-.052.178-.052a.346.346 0 0 0 .114-.058c.032-.037.105-.059.162-.059.13 0 1.316-.512 2.022-.87.317-.16.625-.322.69-.35.065-.03.163-.089.22-.125.056-.044.292-.198.52-.337.568-.344 1.794-1.323 2.167-1.733.163-.176.382-.417.488-.52.292-.307 1.071-1.462 1.315-1.952.845-1.697 1.08-3.628.642-5.267-.09-.322-.17-.65-.195-.731-.057-.205-.893-1.72-1.072-1.931-1.567-1.858-3.265-3-5.75-3.833-1.12-.373-2.825-.695-4.019-.746a35.636 35.636 0 0 1-1.283-.08l-.422-.037.016-3.672.025-3.672.47.015c1.251.037 2.98.687 3.695 1.375.536.52.837 1.083.893 1.682l.041.476h7.008l-.033-.278c-.032-.344-.235-1.105-.422-1.624-1.145-3.145-3.581-5.786-6.496-7.037-1.08-.46-1.373-.57-1.909-.687-.04-.015-.357-.088-.698-.168-.34-.08-.999-.183-1.462-.227-.462-.044-.909-.095-.982-.117-.138-.037-.146-.205-.146-2.12v-2.078h-6.09v2.23z"/>
                <path fill="#FFD524" d="M123.439 142.618c0 6.505-5.836 11.779-13.035 11.779-7.2 0-13.036-5.274-13.036-11.78 0-6.505 5.836-11.779 13.036-11.779 7.199 0 13.035 5.274 13.035 11.78"/>
                <path fill="#E5970C" d="M121.077 142.617c0 .083-.003.166-.005.25-.15-5.21-4.868-9.39-10.668-9.39-5.802 0-10.52 4.18-10.67 9.39-.002-.084-.005-.167-.005-.25 0-5.326 4.779-9.645 10.675-9.645 5.894 0 10.673 4.319 10.673 9.645"/>
                <path fill="#FCB527" d="M121.072 142.866v.008c-.15 5.21-4.868 9.39-10.668 9.39-5.802 0-10.52-4.18-10.67-9.39v-.008c.15-5.21 4.868-9.389 10.67-9.389 5.8 0 10.519 4.18 10.668 9.39"/>
                <path fill="#FCF232" d="M121.077 143.124c0 5.326-4.779 9.644-10.673 9.644-5.896 0-10.675-4.318-10.675-9.644 0-.083.003-.166.005-.25.15 5.21 4.868 9.39 10.67 9.39 5.8 0 10.519-4.18 10.668-9.39.002.084.005.167.005.25"/>
                <path fill="#FFD524" d="M111.464 140.099c0 6.505-5.837 11.78-13.035 11.78-7.2 0-13.036-5.275-13.036-11.78 0-6.506 5.836-11.78 13.036-11.78 7.198 0 13.035 5.274 13.035 11.78"/>
                <path fill="#E5970C" d="M109.102 140.098c0 .083-.003.166-.005.25-.15-5.21-4.868-9.39-10.668-9.39-5.802 0-10.521 4.18-10.67 9.39-.003-.084-.005-.167-.005-.25 0-5.326 4.778-9.645 10.675-9.645 5.894 0 10.673 4.319 10.673 9.645"/>
                <path fill="#FCB527" d="M109.097 140.347v.008c-.15 5.21-4.868 9.39-10.668 9.39-5.802 0-10.52-4.18-10.67-9.39v-.008c.15-5.21 4.868-9.389 10.67-9.389 5.8 0 10.518 4.18 10.668 9.39"/>
                <path fill="#FCF232" d="M109.102 140.605c0 5.326-4.78 9.644-10.673 9.644-5.897 0-10.675-4.318-10.675-9.644 0-.083.002-.166.005-.25.149 5.21 4.868 9.39 10.67 9.39 5.8 0 10.518-4.18 10.668-9.39.002.084.005.167.005.25"/>
                <path fill="#F29C1D" d="M111.78 138.5c.12-.293.277-.57.469-.83.019-.026.042-.048.062-.074l.984-1.669c-.024.044-.042.091-.063.138a4.039 4.039 0 0 0-.28 1.103l-.008.06a4.565 4.565 0 0 0-.018.238l-.004.083c-.003.075-.003.15-.003.227 0 .034.002.067.003.1.002.073.005.146.01.22l.011.115c.007.07.014.141.023.213l.02.128c.01.069.02.137.033.206l.031.147c.014.064.027.128.043.192.015.064.034.128.051.192l.042.153c.034.115.072.231.113.347.011.033.025.065.036.098.033.087.065.174.1.262l.048.113c.035.083.07.166.108.249l.056.118c.038.082.078.165.12.248l.06.116a11.754 11.754 0 0 0 .354.625c.02.035.043.07.064.104.057.09.115.182.175.273l.06.091c.066.098.134.195.203.292l.051.072c.078.108.16.216.241.323l.032.041c.385.498.82.992 1.301 1.476l.007.007c.115.116.233.23.353.345l.052.048c.106.1.214.2.324.299l.078.07c.103.092.208.183.315.274.03.027.062.053.094.08a20.934 20.934 0 0 0 .739.593l.116.088c.107.08.216.161.326.24a19.796 19.796 0 0 0 .462.325l.12.084c.122.082.246.164.37.245l.103.066a22.003 22.003 0 0 0 1.51.888l.068.034c.32.17.64.334.963.486.04.02.08.035.12.053.305.142.61.279.913.403.051.021.102.038.152.06.294.117.587.23.88.334.064.022.127.04.191.062.278.094.555.186.83.266.08.024.157.04.237.063.257.072.515.142.769.201.097.023.19.038.287.06.234.05.468.1.698.14.115.02.226.032.34.049.207.03.416.064.62.085.131.015.26.02.39.031.18.015.36.032.536.04.149.006.29.003.436.004.152 0 .306.005.454.001.162-.005.316-.02.473-.032.125-.01.253-.014.375-.028.17-.019.332-.048.495-.076.101-.017.206-.029.305-.049.172-.035.336-.08.5-.126.082-.022.167-.04.247-.065.169-.053.328-.116.488-.18.066-.026.137-.048.201-.076.16-.071.31-.153.458-.235.055-.03.114-.057.168-.09.145-.087.278-.185.41-.284.067-.05.14-.095.204-.148.25-.207.473-.443.667-.704l-1.09 1.828c-.103.21-.22.414-.363.607-.194.26-.417.496-.667.703-2.75 2.319-8.805 1.719-14.231-1.567-5.426-3.283-8.342-8.114-7.022-11.293"/>
                <path fill="#FFD524" d="M120.254 147.358c5.377 3.257 11.374 3.876 14.158 1.623.024-.015.048-.037.073-.056.25-.207.472-.443.667-.704 2.305-3.106-.629-8.534-6.552-12.122-5.923-3.584-12.594-3.973-14.899-.863-.16.22-.295.449-.406.69-.025.045-.042.092-.063.139-.11.27-.194.55-.243.842-.567 3.144 2.297 7.448 7.265 10.45"/>
                <path fill="#FCF232" d="M116.007 136.162c1.888-2.525 7.317-2.203 12.137.715 4.542 2.749 6.929 6.83 5.63 9.412 1.876-2.532-.515-6.956-5.343-9.88-4.826-2.922-10.265-3.24-12.144-.704-.108.147-.2.299-.28.457"/>
                <path fill="#FCB527" d="M121.63 145.588c4.382 2.654 9.271 3.159 11.541 1.324l.06-.048c.202-.168.384-.36.543-.574.002-.001 0-.001 0-.001 1.3-2.581-1.088-6.663-5.63-9.412-4.82-2.918-10.25-3.24-12.138-.715-.015.036-.034.07-.05.106a3.142 3.142 0 0 0-.25.8c-.46 2.562 1.874 6.07 5.923 8.52"/>
                <g transform="translate(131.303 144.816)">
                    <mask id="j" fill="#fff">
                        <use xlink:href="#i"/>
                    </mask>
                    <path fill="#FFF" d="M3.763.237S4.03 3.568.023 3.714c0 0 3.747.53 3.743 3.524 0 0 .424-3.235 3.897-3.5 0 0-3.847-.17-3.9-3.501" mask="url(#j)"/>
                </g>
            </g>
            <g font-family="NotoSerifCJKtc-Bold, Noto Serif CJK TC" font-weight="bold">
                <text fill="#F05050" font-size="50" transform="translate(65.782 179.766)">
                    <tspan x="0" y="58">0.3%</tspan>
                </text>
                <text fill="#430000" font-size="18" transform="translate(65.782 179.766)">
                    <tspan x="15" y="62">刷卡金回饋</tspan>
                </text>
            </g>
        </g>
        <g>
            <g transform="matrix(-1 0 0 1 480.192 398)">
                <ellipse cx="509.496" cy="104.573" fill="url(#k)" opacity=".141" rx="509.496" ry="5.622"/>
                <path fill="#854645" d="M744.208 102.55l-21.64-94.017 18.428-1.337 14.14 95.353zM328.328 102.55l21.64-94.017-18.428-1.337-14.14 95.353z"/>
                <path fill="#000" d="M676.2 2.699h85.56V0H676.2z"/>
                <path fill="#8E5F35" d="M676.2 7.646h85.56V2.7H676.2z"/>
                <path fill="#000" d="M685.032 2.699h76.728V0h-76.728z"/>
                <path fill="#9B7757" d="M685.032 7.646h76.728V2.7h-76.728z"/>
                <path fill="#D8B290" d="M243.432 2.699H761.76V0H243.432z"/>
                <path fill="#CE9F74" d="M243.432 7.646H761.76V2.7H243.432z"/>
                <path fill="#854645" d="M659.64 5.434l22.439 97.565h11.785L679.006 4.048zM243.432 102.55h11.786l22.438-97.566-19.363-1.386z"/>
                <path fill="#FCD5B1" d="M231.288 87.976c22.96 0 22.96-7.505 45.92-7.505 22.962 0 22.962 7.505 45.92 7.505 22.958 0 22.958-7.505 45.916-7.505 22.957 0 22.957 7.505 45.915 7.505 22.957 0 22.957-7.505 45.914-7.505s22.957 7.505 45.912 7.505c22.96 0 22.96-7.505 45.916-7.505 22.958 0 22.958 7.505 45.913 7.505 22.959 0 22.959-7.505 45.916-7.505 22.957 0 22.957 7.505 45.916 7.505L680.076.05H241.658l-10.37 87.926z"/>
                <path fill="#E7BE98" d="M293.055 16.567c-.717 12.575-.197 25.069-2.239 37.626-1.452 8.944-2.828 17.894-3.611 26.867 8.803 1.14 13.296 3.69 20.493 5.356.006-8.195-.492-16.39-1.138-24.481-1.222-15.351-4.26-31.117-13.505-45.368M373.96 80.603c12.566.683 17.239 3.947 25.93 5.896-.126-9.364-.757-18.727-3.004-27.892-3.61-14.704-11.576-28.705-20.967-42.21-2.133 11.656.227 23.35-.058 35.05-.235 9.73-1.283 19.437-1.901 29.156M483.534 59.524c-3.232-13.898-6.778-27.447-19.569-38.97 1.722 20.013 2.393 40.05 2.61 60.092 10.363.669 15.243 3.129 21.874 5.018-1.237-8.74-2.895-17.456-4.915-26.14M585.771 61.692c-3.895-7.578-8.942-14.873-14.406-22.016-3.926-5.133-7.475-12.357-14.493-16.169-1.77 19.008-.53 38.03-.06 57.052 17.687.782 20.05 6.573 37.797 7.335-1.926-8.873-4.451-17.668-8.838-26.202M676.557 86.75c-1.45-9.584-4.649-18.878-8.41-28.354-2.63-6.62-5.578-12.995-9.54-19.326-2.542-4.066-4.383-8.936-9.376-12.046 1.41 4.064 3.746 7.963 4.955 12.06 1.366 4.628 1.555 9.518 1.557 14.224.001 9.213-1.695 18.37-3.332 27.512 10.908 1.042 15.422 4.174 24.146 5.93"/>
                <g transform="translate(680.064)">
                    <mask id="m" fill="#fff">
                        <use xlink:href="#l"/>
                    </mask>
                    <path fill="#D3D2D2" d="M.012.05h81.616l9.581 87.926c-10.101 0-10.101-2.502-20.205-2.502-10.103 0-10.103 2.502-20.206 2.502-10.105 0-10.105-2.502-20.208-2.502-10.105 0-10.105 2.502-20.208 2.502L.012.05z" mask="url(#m)"/>
                </g>
                <g transform="translate(680.064)">
                    <mask id="o" fill="#fff">
                        <use xlink:href="#n"/>
                    </mask>
                    <path fill="#E7BE98" d="M.012.05h81.616l9.581 87.926c-10.101 0-10.101-2.502-20.205-2.502-10.103 0-10.103 2.502-20.206 2.502-10.105 0-10.105-2.502-20.208-2.502-10.105 0-10.105 2.502-20.208 2.502L.012.05z" mask="url(#o)"/>
                </g>
                <path fill="#D9AF87" d="M722.603 69.007c-4.556-8.873-6.546-18.222-11.643-26.975-1.458 4.165.021 8.704.95 12.85 1.214 5.426 2.317 10.844 3.733 16.253 1.291 4.938 2.01 10.036 3.017 15.097 3.441.736 5.786 1.744 12.201 1.744 1.232 0 2.314-.037 3.283-.103-4.747-6.014-8.28-12.519-11.541-18.866M746.12 35.095c-.571 10.028 5.866 43.809 10.329 50.685 3.924.504 5.873 1.498 9.984 1.954-2.28-2.434-18.36-47.951-20.313-52.639"/>
                <g transform="translate(240.12)">
                    <mask id="q" fill="#fff">
                        <use xlink:href="#p"/>
                    </mask>
                    <path fill="#642323" d="M1.538.05h438.417l1.762 14.94-245.63 5.564L.328 10.302z" mask="url(#q)"/>
                </g>
                <path fill="#FFDE17" d="M437.832 20.616c-.086 0-.165-.036-.193-.09l-2.668-5.12v5.038c0 .065-.073.121-.172.132-.103.01-.196-.028-.227-.091l-2.448-4.97v4.78c0 .066-.076.123-.179.131-.104.012-.197-.032-.223-.097l-1.94-4.62v4.463c0 .066-.074.122-.175.132-.096.01-.195-.03-.225-.093l-2.191-4.714v4.54c0 .066-.078.124-.18.131-.097.011-.198-.034-.222-.1l-1.645-4.454v4.314c0 .068-.076.125-.179.133-.096.009-.198-.033-.223-.098l-1.838-4.56v4.409c0 .063-.07.118-.164.131-.095.013-.19-.022-.23-.08l-3.178-5.006v4.767c0 .064-.068.119-.164.132-.096.013-.192-.021-.229-.08l-3.188-5.008v4.769c0 .065-.07.12-.17.132-.103.01-.194-.026-.225-.088l-2.617-4.858v4.657c0 .066-.076.123-.179.132-.104.01-.197-.035-.223-.099l-1.862-4.568v4.415c0 .067-.07.123-.172.133-.098.01-.195-.03-.225-.092l-2.295-4.751v4.57c0 .067-.075.124-.176.132-.104.01-.197-.033-.225-.097l-1.903-4.591v4.435c0 .065-.07.12-.169.131-.097.01-.192-.023-.227-.084l-2.805-4.913v4.698c0 .069-.08.126-.182.134-.101.007-.199-.037-.222-.104l-1.517-4.375v4.244c0 .067-.074.123-.174.133-.1.008-.197-.03-.227-.095l-2.152-4.698v4.527c0 .064-.07.118-.164.131-.098.012-.194-.021-.23-.08l-3.16-5.002v4.765c0 .065-.07.119-.167.13-.1.013-.194-.022-.229-.083l-2.905-4.939v4.72c0 .065-.074.122-.175.132-.106.007-.197-.032-.225-.096l-2.055-4.66v4.494c0 .063-.068.119-.166.132-.094.014-.19-.022-.227-.08l-3.173-5.006v4.768c0 .066-.076.122-.179.132-.106.012-.197-.032-.223-.097l-1.94-4.607v4.45c0 .066-.074.122-.175.132-.098.008-.195-.032-.225-.095l-2.113-4.683v4.513c0 .065-.07.12-.166.132-.096.011-.194-.023-.228-.084l-2.893-4.936v4.716c0 .065-.07.12-.168.131-.096.012-.193-.023-.228-.083l-2.893-4.935v4.715c0 .065-.07.12-.166.132-.1.012-.194-.024-.228-.085l-2.862-4.928v4.71c0 .064-.071.12-.17.132-.096.014-.193-.024-.227-.086l-2.701-4.883v4.675c0 .066-.071.121-.17.133-.102.009-.196-.028-.228-.089l-2.522-4.83v4.633c0 .067-.076.125-.18.133-.1.009-.197-.034-.222-.1l-1.789-4.532v4.384c0 .067-.076.125-.178.132-.106.009-.2-.033-.226-.098l-1.763-4.521v4.374c0 .064-.072.12-.17.132-.097.01-.193-.024-.226-.085l-2.837-4.92v4.704c0 .065-.073.122-.174.133-.097.01-.195-.03-.225-.093l-2.298-4.754V16.2c0 .065-.072.122-.171.133-.103.01-.194-.028-.225-.088l-2.623-4.86v4.657c0 .066-.072.121-.17.131-.1.011-.195-.025-.228-.087l-2.61-4.855v4.654c0 .065-.073.121-.172.132-.1.012-.194-.028-.227-.09l-2.442-4.804v4.612c0 .065-.07.12-.166.133-.096.011-.194-.023-.228-.084l-2.902-4.938v4.717c0 .066-.073.122-.172.132-.103.011-.195-.028-.227-.09l-2.365-4.778v4.592c0 .064-.068.118-.164.131-.094.013-.192-.02-.228-.08l-3.138-4.997v4.76c0 .067-.073.122-.17.133-.105.01-.195-.026-.228-.088l-2.608-4.856v4.654c0 .066-.074.123-.174.133-.097.011-.197-.03-.225-.094l-2.23-4.728v4.552c0 .066-.077.123-.178.132-.107.01-.197-.033-.225-.098l-1.914-4.595v4.438c0 .066-.073.123-.17.133-.099.012-.195-.026-.23-.087l-2.659-4.871v4.666c0 .067-.078.124-.179.133-.11.01-.2-.036-.223-.1l-1.688-4.48v4.337c0 .066-.073.122-.169.133-.1.01-.195-.028-.228-.09l-2.55-4.837v4.64c0 .067-.075.123-.176.133-.106.008-.199-.032-.225-.097l-1.974-4.623v4.463c0 .068-.078.126-.18.133-.107.006-.201-.038-.224-.104l-1.502-4.364v4.235c0 .064-.07.12-.168.131-.096.013-.192-.024-.226-.083l-2.882-4.933v4.714c0 .063-.068.118-.164.131-.096.012-.19-.022-.228-.081l-3.148-5v4.764c0 .063-.07.119-.166.132-.096.012-.192-.023-.229-.082l-3.043-4.975v4.746c0 .065-.075.122-.176.132-.096.01-.197-.032-.227-.095l-2.15-4.698v4.526c0 .066-.075.124-.176.133-.101.01-.197-.032-.227-.094l-2.143-4.695v4.523c0 .065-.071.121-.17.132-.102.01-.194-.027-.23-.088l-2.602-4.854v4.653c0 .069-.08.125-.183.133-.104.008-.198-.038-.221-.105L294.97 8.93v4.181c0 .069-.078.125-.182.133-.103.007-.199-.036-.222-.102l-1.517-4.376v4.244c0 .068-.076.125-.177.133-.1.012-.197-.033-.225-.097l-1.926-4.6v4.443c0 .064-.07.118-.166.131-.093.013-.19-.02-.227-.08l-3.148-4.998v4.76c0 .067-.071.122-.169.133-.096.014-.192-.025-.227-.087l-2.699-4.882v4.675c0 .065-.073.122-.172.132-.103.01-.196-.028-.227-.09l-2.348-4.772v4.586c0 .068-.08.126-.182.133-.11.009-.2-.037-.222-.104l-1.477-4.346v4.218c0 .07-.08.126-.183.134-.106.006-.198-.037-.221-.103l-1.484-4.353V12.2c0 .068-.078.127-.182.132-.1.008-.2-.037-.222-.103l-1.436-4.32v4.194c0 .066-.071.122-.169.134-.103.01-.195-.028-.229-.088l-2.586-4.85v4.648c0 .066-.075.123-.176.132-.1.01-.197-.03-.225-.095l-2.062-4.66v4.494c0 .066-.076.124-.177.132-.1.012-.197-.031-.225-.096l-1.93-4.602v4.445c0 .065-.072.12-.17.132-.1.009-.195-.028-.227-.089l-2.527-4.83v4.633c0 .068-.076.126-.18.133-.101.009-.199-.037-.224-.104l-1.518-4.376v4.246c0 .065-.07.12-.164.131-.098.012-.194-.021-.229-.08l-3.093-4.987v4.754c0 .067-.075.124-.178.132-.104.011-.197-.032-.223-.097l-1.901-4.59v4.435c0 .065-.075.121-.172.132-.103.012-.197-.03-.227-.092l-2.31-4.758v4.576c0 .064-.07.118-.164.13-.101.015-.192-.02-.23-.08l-3.112-4.99v4.755c0 .068-.073.123-.172.133-.103.012-.197-.03-.227-.094l-2.183-4.71v4.537c0 .067-.076.124-.179.132-.099.011-.197-.033-.225-.098l-1.843-4.562v4.41c0 .068-.08.126-.182.133-.101.009-.2-.038-.222-.105l-1.401-4.293v4.17c0 .067-.075.124-.176.133-.102.01-.197-.032-.225-.096l-2.126-4.891-1.009 4.688c-.015.073-.116.124-.23.113-.11-.01-.19-.076-.177-.15l1.146-5.314c.015-.063.093-.111.189-.116.1-.008.184.037.21.097l1.989 4.577v-4.48c0-.068.08-.125.184-.132.106-.007.2.038.222.106l1.399 4.293V5.123c0-.067.076-.125.179-.133.104-.009.199.033.223.098l1.845 4.562V5.24c0-.066.075-.122.174-.132.101-.01.197.03.227.093l2.183 4.71V5.377c0-.064.067-.12.165-.132.096-.013.19.022.227.082l3.112 4.989V5.559c0-.065.072-.122.173-.133.097-.008.196.03.227.093l2.309 4.757V5.7c0-.066.076-.124.177-.133.103-.008.199.033.224.098l1.902 4.588V5.822c0-.065.068-.12.164-.132.096-.014.192.023.229.081l3.092 4.986V6.004c0-.068.079-.126.183-.133.101-.008.2.037.22.103l1.52 4.376V6.105c0-.065.072-.121.171-.132.096-.013.194.027.227.089l2.526 4.83V6.257c0-.067.076-.123.177-.132.106-.013.199.032.225.097l1.93 4.602V6.38c0-.066.074-.123.176-.133.098-.008.196.031.224.096l2.062 4.661V6.508c0-.064.071-.12.17-.13.1-.012.194.026.227.087l2.587 4.85v-4.65c0-.069.08-.125.184-.133.107-.008.2.038.22.105l1.437 4.318V6.762c0-.068.077-.125.18-.133.102-.008.2.036.223.104l1.484 4.351V6.86c0-.068.077-.125.182-.132.107-.006.2.037.222.103l1.477 4.348v-4.22c0-.066.073-.122.172-.132.098-.011.197.028.225.09l2.35 4.773V7.102c0-.064.071-.12.17-.131.097-.012.194.026.226.086l2.7 4.883V7.266c0-.065.069-.12.165-.131.094-.014.19.02.228.08l3.147 4.998V7.45c0-.067.076-.124.177-.133.106-.011.199.033.225.096l1.926 4.601V7.573c0-.07.078-.126.182-.134.1-.005.199.037.22.103l1.519 4.376V7.673c0-.069.078-.126.184-.133.096-.006.198.038.222.104l1.416 4.306V7.768c0-.065.07-.12.17-.133.098-.01.194.028.227.088l2.603 4.856V7.926c0-.067.075-.123.176-.133.1-.007.197.03.227.094l2.144 4.695V8.06c0-.066.075-.122.174-.133.103-.009.197.031.225.094l2.155 4.699V8.193c0-.064.07-.12.164-.132.099-.013.192.022.23.082l3.044 4.974V8.373c0-.063.07-.119.163-.132.097-.014.194.022.23.08l3.147 5V8.559c0-.065.071-.12.169-.131.096-.012.192.022.229.083l2.878 4.933V8.729c0-.067.08-.125.182-.132.114-.008.199.037.222.103l1.502 4.365V8.83c0-.068.076-.124.177-.133.103-.008.197.032.225.096l1.972 4.623V8.953c0-.065.073-.12.171-.132.103-.01.195.028.227.09l2.55 4.838v-4.64c0-.069.078-.125.18-.134.107-.01.2.035.222.101l1.688 4.478V9.217c0-.064.071-.12.169-.131.1-.012.195.026.228.086l2.662 4.873V9.378c0-.068.074-.123.175-.133.103-.008.197.033.225.098l1.916 4.595v-4.44c0-.064.075-.122.174-.132.1-.01.197.03.225.094l2.231 4.728V9.636c0-.064.073-.12.169-.13.101-.014.195.024.229.086l2.608 4.857V9.795c0-.065.07-.12.165-.132.096-.013.19.021.229.08l3.136 4.997V9.98c0-.066.075-.123.174-.133.101-.01.196.029.225.09l2.365 4.778v-4.59c0-.065.071-.12.17-.133.093-.012.191.024.226.083l2.9 4.939v-4.718c0-.065.072-.121.172-.132.1-.01.195.028.227.09l2.442 4.804v-4.613c0-.065.072-.12.17-.132.097-.012.195.027.226.087l2.612 4.857v-4.654c0-.065.072-.121.17-.132.1-.012.194.026.227.088l2.621 4.859V10.76c0-.065.075-.121.174-.132.098-.007.196.03.226.092l2.298 4.754v-4.572c0-.064.071-.12.167-.132.1-.01.194.024.229.085l2.837 4.92v-4.704c0-.067.076-.124.178-.133.106-.01.198.036.224.1l1.764 4.522v-4.375c0-.068.077-.123.18-.133.103-.009.197.035.224.1l1.788 4.532V11.3c0-.064.073-.12.17-.131.1-.012.195.027.228.088l2.522 4.83v-4.633c0-.066.07-.12.17-.132.096-.014.194.025.227.086l2.701 4.883v-4.676c0-.064.07-.119.167-.13.1-.012.192.024.229.083l2.86 4.928v-4.71c0-.064.071-.12.169-.132.094-.01.192.024.228.085l2.892 4.935v-4.715c0-.065.07-.121.167-.131.094-.012.192.023.228.083l2.893 4.935V12.13c0-.067.075-.123.174-.133.1-.008.199.031.226.095l2.114 4.682v-4.512c0-.068.073-.124.176-.133.11-.014.197.032.225.097l1.94 4.607v-4.449c0-.063.069-.118.163-.131.098-.014.192.022.229.079l3.173 5.006V12.57c0-.066.076-.122.175-.132.104-.008.199.032.225.096l2.055 4.658V12.7c0-.064.07-.119.168-.132.1-.012.192.025.228.084l2.905 4.939v-4.718c0-.063.07-.118.164-.131.1-.013.19.021.228.08l3.162 5.002v-4.765c0-.066.074-.122.175-.132.103-.009.197.031.224.094l2.154 4.699V13.19c0-.067.078-.124.18-.133.103-.006.201.038.224.104l1.517 4.375v-4.245c0-.064.071-.119.169-.13.098-.012.192.024.227.084l2.807 4.912V13.46c0-.067.074-.123.175-.133.1-.01.197.034.226.099l1.902 4.59v-4.434c0-.068.073-.124.174-.133.101-.01.196.029.227.093l2.292 4.75v-4.57c0-.068.076-.124.179-.133.097-.008.197.034.223.098l1.86 4.57V13.84c0-.066.073-.122.169-.132.098-.013.194.024.228.087l2.617 4.858V14c0-.064.068-.12.164-.132.093-.013.192.021.228.08l3.187 5.009v-4.77c0-.063.07-.119.165-.132.095-.013.19.022.229.08l3.178 5.007v-4.768c0-.067.076-.125.178-.133.101-.012.197.033.222.098l1.84 4.56V14.49c0-.068.078-.126.179-.133.11-.009.199.036.224.1l1.644 4.455v-4.316c0-.066.074-.122.175-.132.1-.01.196.03.226.093l2.19 4.714v-4.554c0-.068.077-.125.178-.133.104-.013.197.033.225.096l1.94 4.621v-4.639c0-.066.072-.121.171-.13.101-.01.194.026.227.09l2.448 4.97v-4.995c0-.064.073-.12.17-.13.101-.014.196.026.229.088l2.666 5.12v-5.147c0-.066.075-.122.172-.132.106-.01.197.028.227.092l2.48 5.07v-5.096c0-.065.07-.12.17-.132.1-.013.195.028.227.089l2.667 5.12v-5.146c0-.067.072-.122.17-.133.095-.012.195.026.228.09l2.73 5.134v-5.163c0-.067.077-.125.181-.133.1-.007.199.037.222.104l1.676 4.76v-4.779c0-.066.074-.122.175-.132.105-.005.198.031.226.094l2.283 5.016v-5.038c0-.067.073-.123.174-.133.101-.01.197.03.227.094l2.386 5.046V14.15c0-.066.077-.124.178-.133.104-.008.2.034.225.1l1.985 4.907v-4.929c0-.067.078-.124.182-.133.108-.006.2.038.224.104l1.67 4.76v-4.778c0-.064.072-.12.17-.131.1-.012.194.026.228.086l2.837 5.16v-5.188c0-.068.078-.126.184-.133.1-.01.199.038.22.106l1.474 4.641v-4.657c0-.066.075-.122.176-.132.104-.01.195.029.225.092l2.43 5.06v-5.085c0-.065.074-.122.175-.132.102-.008.195.031.225.094l2.348 5.037v-5.061c0-.07.08-.126.184-.133.103-.007.2.038.222.104l1.547 4.69V13.76c0-.067.074-.122.173-.133.103-.007.197.028.226.092l2.484 5.076v-5.102c0-.067.077-.124.182-.133.097-.007.198.037.222.104l1.679 4.765v-4.783c0-.064.07-.12.167-.131.096-.012.19.022.227.082l3.128 5.221v-5.252c0-.066.075-.122.176-.133.1-.01.195.03.223.093l2.382 5.048v-5.071c0-.068.077-.125.178-.134.105-.01.197.035.224.1l1.95 4.896v-4.915c0-.07.08-.127.183-.134.108-.006.2.038.222.104l1.558 4.697v-4.712c0-.068.076-.126.179-.133.094-.011.197.033.222.097l2.004 4.92v-4.94c0-.065.072-.12.172-.131.1-.011.195.027.228.088l2.64 5.12V13.28c0-.065.075-.122.177-.132.103-.006.196.032.225.094l2.294 5.024v-5.045c0-.066.073-.123.17-.132.097-.013.194.024.23.086l2.818 5.16v-5.189c0-.065.072-.121.172-.132.1-.009.195.03.227.092l2.469 5.076V13.08c0-.065.071-.12.169-.131.094-.012.193.024.227.085l2.916 5.182v-5.21c0-.07.08-.128.184-.135.102-.009.2.039.22.106l1.475 4.646v-4.661c0-.068.08-.127.184-.134.098-.01.2.04.22.108l1.4 4.591v-4.606c0-.068.078-.125.179-.134.1-.007.197.036.223.1l1.933 4.892v-4.91c0-.065.07-.122.167-.134.098-.008.194.025.229.086l3 5.2v-5.23c0-.068.078-.125.179-.134.101-.007.197.034.224.1l1.94 4.895v-4.916c0-.065.072-.121.171-.132.096-.01.194.027.227.089l2.71 5.14v-5.167c0-.065.072-.12.17-.131.102-.012.193.025.228.088l2.74 5.146v-5.174c0-.069.077-.126.181-.133.101-.006.2.036.22.1l1.734 4.8v-4.815c0-.069.077-.126.18-.134.102-.008.198.034.221.098l1.987 4.916v-4.936c0-.065.072-.12.168-.13.097-.013.192.023.228.085l2.875 5.177v-5.205c0-.065.07-.12.167-.134.096-.01.194.025.227.086l3.014 5.204V12.34c0-.069.081-.126.184-.134.1-.006.2.04.222.109l1.394 4.591v-4.607c0-.067.076-.124.177-.133.103-.006.199.034.226.099l1.98 4.915v-4.936c0-.066.076-.122.179-.132.098-.009.197.034.223.097l2.082 4.955v-4.975c0-.065.071-.122.169-.132.101-.011.192.024.227.084l2.987 5.2v-5.23c0-.066.075-.124.177-.132.105-.01.198.032.224.096l2.138 4.976v-4.998c0-.065.07-.12.167-.13.101-.014.192.022.229.083l3.053 5.214v-5.246c0-.065.073-.121.173-.132.102-.01.195.03.226.091l2.577 5.11v-5.136c0-.067.076-.123.177-.132.098-.01.197.032.224.096l2.098 4.962V11.85c0-.068.078-.125.182-.133.113-.007.2.037.222.104l1.578 4.716v-4.732c0-.067.078-.124.18-.133.115-.009.2.036.224.1l1.807 4.841v-4.859c0-.066.075-.122.176-.132.106-.009.195.03.225.093l2.37 5.054v-5.078c0-.065.072-.121.172-.13.094-.014.194.025.225.088l2.666 5.133v-5.16c0-.065.07-.12.167-.132.105-.011.194.025.229.084l2.99 5.205v-5.234c0-.068.077-.125.178-.133.103-.009.197.033.225.1l1.954 4.906v-4.927c0-.066.076-.124.177-.132.098-.012.197.031.226.096l2.096 4.964v-4.986c0-.065.073-.121.172-.132.098-.01.194.028.226.09l2.628 5.126v-5.152c0-.067.074-.122.175-.132.1-.007.197.031.227.095l2.181 4.996v-5.018c0-.063.07-.119.167-.132.093-.012.192.023.227.083l3.185 5.241v-5.274c0-.068.076-.123.18-.132.098-.01.197.035.222.1l1.853 4.865v-4.884c0-.066.076-.123.177-.132.1-.009.197.03.225.095l2.21 5.005v-5.028c0-.068.077-.125.182-.133.102-.006.198.04.222.105l1.57 4.715v-4.732c0-.065.072-.121.17-.132.108-.009.197.03.229.091l2.51 5.098v-5.123c0-.068.078-.124.179-.132.114-.01.199.034.225.1l1.812 4.847v-4.865c0-.068.08-.126.182-.133.104-.009.2.038.222.105l1.555 4.705v-4.721c0-.07.078-.126.182-.134.103-.005.199.036.22.103l1.704 4.791V10.86c0-.066.072-.12.17-.131.094-.014.195.025.228.087l2.764 5.162v-5.19c0-.069.08-.126.182-.133.104-.01.2.038.223.105l1.504 4.675v-4.69c0-.068.078-.127.184-.133.098-.009.199.038.218.104l1.579 4.72V10.7c0-.067.072-.123.172-.133.107-.01.194.03.227.091l2.504 5.099v-5.124c0-.066.074-.123.177-.132.1-.012.197.033.223.097l2.09 4.966v-4.988c0-.065.075-.121.174-.132.096-.01.195.029.227.09l2.545 5.11V10.51c0-.065.071-.12.166-.131.096-.013.194.021.23.082l3.107 5.232V10.43c0-.067.074-.124.172-.134.11-.008.199.03.227.093l2.373 5.061v-5.084c0-.067.073-.123.172-.132.103-.01.197.029.227.092l2.421 5.076V10.3c0-.065.074-.122.172-.132.101-.008.197.029.227.092l2.476 5.092v-5.117c0-.067.074-.123.177-.133.103-.01.197.033.224.097l2.162 4.993v-5.016c0-.066.076-.123.18-.132.103-.014.196.031.221.096l2.148 4.988v-5.01c0-.068.078-.125.182-.133.113-.008.197.036.222.101l1.805 4.847V10.07c0-.067.074-.124.174-.133.104-.01.195.029.225.09l2.512 5.104v-5.128c0-.068.08-.126.182-.134.115-.004.2.038.222.104l1.66 4.772V9.956c0-.067.076-.123.177-.133.102-.012.198.032.225.097l2.083 4.967V9.899c0-.064.07-.12.167-.132.102-.013.193.024.227.083l3.094 5.234V9.82c0-.066.073-.122.174-.133.099-.01.195.028.227.091l2.484 5.098V9.754c0-.065.07-.12.167-.132.096-.012.192.023.228.084l3.105 5.236V9.673c0-.065.075-.121.173-.132.099-.009.197.03.226.092l2.47 5.093V9.61c0-.068.074-.124.177-.132.1-.013.197.031.225.096l2.077 4.967V9.552c0-.067.074-.123.177-.132.104-.01.197.031.225.096l2.136 4.988v-5.01c0-.066.076-.122.176-.132.102-.006.197.032.225.094l2.257 5.03V9.435c0-.069.08-.127.184-.133.1-.005.2.04.22.107l1.403 4.61V9.395c0-.069.076-.125.177-.135.11-.009.199.035.225.099l2.044 4.954V9.337c0-.068.078-.124.18-.132.1-.01.199.034.224.099l1.873 4.883V9.285c0-.066.07-.12.17-.132.106-.012.196.026.229.089l2.732 5.162v-5.19c0-.067.076-.124.177-.134.103-.007.197.033.224.097l2.194 5.01V9.155c0-.07.08-.126.184-.133.103-.007.199.038.222.104l1.566 4.722V9.11c0-.067.075-.123.173-.133.107-.007.198.03.227.094l2.346 5.06V9.047c0-.064.071-.12.17-.131.093-.013.194.026.226.086l2.792 5.177v-.984c0-.074.093-.134.204-.134.112 0 .205.06.205.134v1.765c0 .065-.073.122-.17.132-.098.01-.196-.025-.228-.087l-2.79-5.176v5.204c0 .065-.074.123-.174.132-.104.011-.195-.031-.227-.094l-2.346-5.06v5.083c0 .07-.078.125-.182.133-.106.007-.2-.038-.22-.104l-1.567-4.723v4.74c0 .066-.076.123-.177.131-.1.01-.197-.031-.226-.095l-2.194-5.01v5.032c0 .066-.071.121-.17.132-.1.012-.196-.026-.227-.088l-2.733-5.162v5.188c0 .069-.077.126-.18.134-.103.01-.197-.035-.224-.1l-1.873-4.882v4.9c0 .069-.076.125-.177.132-.11.011-.199-.032-.225-.097L663.46 10.4v4.976c0 .069-.08.126-.184.133-.106.003-.2-.04-.22-.107l-1.405-4.61v4.625c0 .067-.074.122-.173.132-.098.01-.196-.03-.227-.094l-2.256-5.03v5.052c0 .067-.074.124-.177.133-.106.008-.197-.032-.224-.097l-2.136-4.988v5.01c0 .067-.076.123-.179.132-.1.01-.197-.032-.225-.096l-2.078-4.967v4.986c0 .067-.071.124-.172.132-.095.012-.196-.028-.226-.09l-2.469-5.094v5.118c0 .063-.07.12-.167.131-.096.012-.192-.023-.227-.083l-3.106-5.235v5.266c0 .067-.073.122-.174.133-.096.01-.196-.03-.226-.093l-2.484-5.096V15.8c0 .064-.07.12-.168.133-.101.01-.193-.024-.229-.084l-3.093-5.234v5.265c0 .066-.077.123-.176.132-.1.013-.197-.033-.225-.097l-2.083-4.966v4.987c0 .068-.078.126-.18.133-.11.008-.201-.037-.224-.104l-1.66-4.771v4.789c0 .066-.073.122-.17.132-.106.01-.197-.03-.229-.091l-2.512-5.103v5.128c0 .067-.078.123-.179.132-.112.01-.197-.035-.223-.102l-1.807-4.846v4.865c0 .068-.075.123-.176.133-.109.008-.197-.032-.225-.097l-2.148-4.988v5.011c0 .065-.074.122-.175.132-.101.01-.197-.031-.225-.096l-2.163-4.994v5.014c0 .068-.075.124-.174.134-.098.01-.195-.03-.225-.091l-2.476-5.094v5.117c0 .067-.073.122-.174.133-.098.01-.195-.03-.225-.092l-2.421-5.076v5.1c0 .066-.075.122-.176.132-.104.01-.195-.03-.225-.094l-2.371-5.06v5.084c0 .064-.072.12-.17.131-.099.012-.191-.022-.226-.083l-3.107-5.232v5.262c0 .068-.073.123-.174.134-.094.008-.195-.029-.223-.09l-2.549-5.11v5.135c0 .066-.074.122-.175.132-.101.01-.197-.033-.226-.098l-2.09-4.965v4.987c0 .065-.074.121-.173.132-.105.01-.196-.029-.227-.09l-2.502-5.098v5.121c0 .07-.08.126-.184.133-.101.006-.199-.038-.22-.104l-1.579-4.72v4.735c0 .07-.077.127-.182.134-.102.004-.2-.04-.22-.105l-1.505-4.675v4.69c0 .066-.072.121-.17.132-.1.01-.195-.026-.228-.088l-2.765-5.16v5.188c0 .068-.078.125-.182.133-.1.008-.2-.036-.22-.103l-1.703-4.79v4.808c0 .068-.078.126-.182.133-.105.007-.2-.037-.222-.105l-1.555-4.706v4.723c0 .067-.078.124-.18.132-.11.012-.198-.035-.223-.101l-1.813-4.847v4.865c0 .067-.073.123-.172.133-.106.01-.195-.03-.227-.091l-2.51-5.098v5.123c0 .068-.08.124-.184.132-.103.006-.197-.038-.22-.104l-1.57-4.715v4.731c0 .067-.077.122-.178.132-.099.008-.197-.03-.225-.095l-2.209-5.006v5.029c0 .067-.074.123-.179.132-.097.01-.198-.035-.223-.101l-1.853-4.864v4.884c0 .064-.07.119-.166.13-.096.014-.194-.022-.228-.08l-3.185-5.243v5.274c0 .066-.076.122-.176.132-.099.01-.198-.031-.225-.096l-2.182-4.995v5.017c0 .065-.072.122-.173.133-.097.01-.193-.029-.226-.09l-2.627-5.127v5.153c0 .067-.076.122-.177.132-.101.007-.197-.033-.225-.098l-2.097-4.964v4.986c0 .067-.076.124-.179.132-.097.012-.197-.032-.223-.098l-1.954-4.908v4.928c0 .064-.071.12-.17.131-.102.011-.193-.025-.228-.084l-2.989-5.205v5.234c0 .066-.073.12-.172.132-.096.011-.195-.027-.225-.089l-2.666-5.133v5.16c0 .066-.075.122-.174.132-.106.01-.196-.03-.227-.092l-2.37-5.056v5.078c0 .069-.078.125-.179.133-.11.01-.198-.035-.223-.101l-1.809-4.84v4.858c0 .067-.077.126-.182.134-.114.006-.198-.038-.222-.106l-1.578-4.716v4.733c0 .067-.076.123-.177.133-.101.01-.197-.033-.225-.098l-2.097-4.962v4.984c0 .065-.073.121-.172.132-.104.011-.195-.028-.227-.09l-2.577-5.11v5.135c0 .065-.07.12-.165.131-.105.012-.194-.022-.23-.083l-3.056-5.215v5.245c0 .068-.073.124-.175.134-.106.005-.197-.034-.225-.097l-2.137-4.976v4.997c0 .065-.07.12-.167.13-.103.012-.194-.022-.228-.084l-2.988-5.201v5.23c0 .068-.076.125-.177.134-.098.012-.197-.033-.224-.097l-2.083-4.955v4.975c0 .068-.076.125-.177.133-.1.01-.199-.033-.224-.098l-1.982-4.916v4.935c0 .07-.081.127-.185.134-.105.005-.2-.04-.22-.108l-1.395-4.591v4.606c0 .065-.07.12-.167.132-.096.01-.194-.023-.227-.084l-3.016-5.206v5.235c0 .065-.07.122-.167.133-.1.01-.194-.025-.228-.087l-2.874-5.177v5.206c0 .066-.076.124-.18.132-.098.01-.197-.032-.222-.098l-1.986-4.915v4.935c0 .068-.077.125-.18.134-.104.005-.199-.038-.222-.103l-1.734-4.8v4.818c0 .065-.073.12-.169.131-.107.01-.195-.027-.228-.088l-2.74-5.146v5.174c0 .065-.072.12-.171.13-.1.012-.196-.025-.227-.087l-2.71-5.139v5.165c0 .068-.077.126-.18.133-.096.011-.197-.033-.222-.098l-1.94-4.896v4.914c0 .065-.07.121-.168.132-.096.012-.194-.024-.229-.084l-3-5.2v5.23c0 .067-.076.124-.18.133-.112.007-.198-.035-.223-.1l-1.932-4.89v4.91c0 .068-.08.127-.186.132-.104.001-.2-.039-.218-.106l-1.4-4.592v4.606c0 .069-.08.127-.183.134-.113.008-.2-.04-.222-.107l-1.474-4.644v4.66c0 .065-.071.12-.167.132-.1.01-.196-.025-.229-.086l-2.916-5.182v5.211c0 .065-.073.122-.172.133-.1.012-.197-.029-.227-.092l-2.47-5.076v5.1c0 .065-.07.12-.17.13-.096.015-.194-.023-.228-.085l-2.819-5.16v5.188c0 .066-.074.123-.174.132-.103.01-.195-.03-.225-.094l-2.297-5.023v5.046c0 .066-.073.122-.17.132-.103.01-.194-.027-.227-.09l-2.643-5.12v5.147c0 .066-.075.124-.178.132-.097.009-.197-.033-.225-.098l-2.004-4.919v4.94c0 .068-.077.125-.18.133-.11.007-.2-.038-.222-.105l-1.558-4.697v4.713c0 .067-.076.124-.18.133-.108.009-.198-.034-.221-.1l-1.952-4.896v4.917c0 .065-.073.121-.174.132-.098.01-.196-.03-.225-.093l-2.382-5.049v5.072c0 .065-.07.119-.165.13-.098.014-.194-.02-.229-.081l-3.128-5.22v5.251c0 .068-.08.126-.182.132-.105.006-.199-.036-.222-.102l-1.68-4.766v4.783c0 .066-.074.122-.172.132-.099.01-.195-.028-.226-.091l-2.484-5.076v5.1c0 .068-.078.125-.183.133-.102.01-.198-.038-.222-.105l-1.548-4.688v4.704c0 .066-.073.123-.172.132-.103.012-.197-.029-.227-.093l-2.35-5.037v5.06c0 .067-.074.123-.172.133-.104.01-.195-.03-.227-.092l-2.43-5.06v5.084c0 .07-.08.126-.183.133-.101.01-.199-.039-.222-.106l-1.474-4.641v4.656c0 .066-.071.12-.17.132-.101.014-.194-.025-.229-.086l-2.837-5.162v5.19c0 .067-.076.126-.18.133-.105.006-.199-.038-.222-.103l-1.671-4.76v4.776c0 .068-.076.125-.179.134-.096.008-.197-.034-.225-.099l-1.986-4.909v4.929c0 .066-.074.122-.172.132-.1.01-.197-.03-.227-.093l-2.388-5.047v5.072c0 .065-.073.122-.175.132-.1.008-.196-.03-.225-.094l-2.284-5.016v5.038c0 .067-.078.125-.182.134-.105.004-.199-.038-.222-.104l-1.674-4.76v4.777c0 .065-.073.121-.173.132-.099.01-.193-.027-.226-.088l-2.73-5.136v5.163c0 .065-.072.12-.172.132-.1.011-.195-.026-.225-.09l-2.67-5.12v5.147c0 .066-.072.122-.17.132-.101.01-.195-.028-.227-.091l-2.479-5.072v5.097c0 .065-.071.12-.169.131-.011.002-.023.002-.035.002"/>
                <g transform="translate(680.064)">
                    <mask id="s" fill="#fff">
                        <use xlink:href="#r"/>
                    </mask>
                    <path fill="#451414" d="M81.628.05H.012l1.76 14.94 50.2 3.74 31.054-5.865z" mask="url(#s)"/>
                </g>
                <path fill="#BFA711" d="M731.701 18.804c-.088 0-.165-.035-.194-.09l-2.828-5.396v5.114c0 .065-.071.122-.17.131-.105.012-.194-.025-.226-.086l-2.979-5.44v5.146c0 .065-.071.121-.172.132-.103.012-.196-.028-.227-.09l-2.71-5.359v5.087c0 .064-.07.12-.17.131-.102.013-.194-.025-.227-.085l-3.007-5.45v5.152c0 .069-.08.126-.182.133-.108.006-.2-.04-.222-.105l-1.573-4.821v4.647c0 .065-.075.122-.174.133-.098.01-.195-.03-.225-.093l-2.55-5.303v5.044c0 .065-.073.122-.171.133-.106.008-.194-.027-.229-.088l-2.878-5.41v5.124c0 .067-.078.124-.179.132-.102.01-.2-.035-.223-.102l-1.804-4.966v4.772c0 .067-.077.125-.178.133-.098.009-.2-.034-.224-.098l-2.017-5.08v4.866c0 .067-.074.124-.174.132-.1.01-.199-.03-.227-.094l-2.318-5.213v4.975c0 .066-.073.122-.176.132-.097.01-.197-.032-.225-.095l-2.288-5.202v4.965c0 .065-.072.122-.168.131-.097.011-.193-.023-.228-.084l-3.084-5.468v5.164c0 .066-.078.124-.18.133-.096.01-.197-.033-.222-.1l-2.015-5.077v4.866c0 .066-.077.122-.18.132-.109.007-.195-.033-.221-.097l-2.218-5.17v4.94c0 .068-.074.124-.175.133-.104.013-.196-.03-.225-.093l-2.478-5.275v5.023c0 .067-.076.125-.179.133-.109.01-.197-.034-.225-.1l-1.994-5.068v4.858c0 .069-.08.126-.183.133-.105.008-.2-.04-.22-.107l-1.46-4.735v4.572c0 .064-.07.12-.169.13-.107.01-.193-.025-.228-.087l-2.886-5.41v1.095c0 .075-.092.135-.204.135-.114 0-.204-.06-.204-.135V9.04c0-.065.071-.121.17-.132.1-.013.194.027.226.088l2.886 5.41V9.283c0-.07.081-.127.186-.133.1-.01.2.039.22.106l1.457 4.737V9.42c0-.069.078-.125.18-.134.112-.01.198.035.223.1l1.995 5.066V9.597c0-.066.073-.122.174-.132.106-.008.197.03.227.093l2.477 5.275V9.81c0-.066.075-.124.176-.132.106-.012.197.031.225.096l2.217 5.17v-4.941c0-.067.077-.124.178-.132.104-.007.198.033.225.1l2.015 5.076v-4.865c0-.065.071-.12.168-.132.096-.011.195.024.228.086l3.084 5.467V10.44c0-.067.074-.123.177-.133.097-.008.197.032.225.096l2.287 5.201v-4.965c0-.067.076-.124.177-.132.101-.008.197.03.225.094l2.317 5.214v-4.977c0-.066.078-.123.179-.132.104-.006.197.035.223.1l2.017 5.079v-4.868c0-.067.078-.124.18-.133.105-.004.198.038.223.103l1.803 4.966V11.18c0-.066.073-.121.17-.131.102-.014.195.025.228.088l2.878 5.408v-5.123c0-.067.074-.123.174-.133.099-.008.195.03.227.093l2.55 5.302V11.64c0-.07.08-.127.182-.134.1-.008.199.038.222.104l1.573 4.823v-4.648c0-.065.071-.12.17-.132.102-.012.194.026.227.086l3.008 5.449v-5.152c0-.066.073-.121.17-.132.105-.012.196.028.227.09l2.713 5.358v-5.086c0-.066.07-.121.167-.132.103-.015.194.026.229.087l2.977 5.44v-5.146c0-.065.073-.121.17-.132.098-.013.194.027.227.089l2.829 5.396v-5.204c0-.066.073-.122.172-.132.1-.01.197.028.227.09l2.381 4.77V12.25c0-.064.068-.12.163-.132.1-.014.193.022.23.08l2.976 4.725v-5.18c0-.067.077-.124.18-.132.12-.007.199.037.222.103l1.542 4.349v-4.61c0-.066.071-.121.169-.132.104-.013.193.025.228.086l2.48 4.514v-4.9c0-.064.069-.12.168-.132.103-.013.194.026.227.087l2.421 4.411v-4.788c0-.064.068-.12.166-.131.1-.013.19.021.227.08l2.755 4.342v-4.764c0-.065.073-.12.17-.13.107-.013.194.026.23.088l2.13 4.176V9.747c0-.067.075-.124.174-.133.111-.009.197.03.227.093l1.898 4.048V9.402c0-.066.073-.122.17-.132.1-.01.196.028.227.091l1.976 3.991V9.046c0-.066.076-.124.179-.133.101-.01.197.033.224.098l1.59 3.813V8.748c0-.064.069-.118.163-.132.093-.014.189.018.229.075l2.767 3.925V8.274c0-.067.074-.124.177-.133.103-.008.199.033.225.098l1.46 3.606v-.915c0-.074.09-.135.205-.135.11 0 .203.06.203.135v1.943c0 .067-.076.125-.179.132-.099.011-.197-.032-.223-.097l-1.46-3.606v3.923c0 .063-.065.117-.16.131-.092.013-.19-.018-.23-.076l-2.767-3.924v4.465c0 .068-.076.125-.176.133-.1.013-.197-.033-.225-.097l-1.593-3.814v4.156c0 .066-.073.12-.172.132-.096.012-.196-.028-.227-.091l-1.976-3.991v4.398c0 .067-.074.123-.173.133-.103.011-.196-.03-.227-.094l-1.896-4.047v4.442c0 .066-.073.122-.173.132-.104.013-.195-.027-.225-.09l-2.133-4.175v4.612c0 .064-.07.118-.165.131-.1.014-.19-.022-.229-.08l-2.754-4.341v4.885c0 .065-.071.12-.169.132-.107.011-.195-.026-.228-.087l-2.421-4.412v4.9c0 .064-.072.12-.168.131-.102.016-.195-.025-.228-.086l-2.48-4.514v5.012c0 .067-.077.125-.181.134-.11.01-.2-.037-.22-.104l-1.544-4.349v4.687c0 .063-.068.118-.164.13-.101.015-.192-.02-.228-.08l-2.976-4.725v5.312c0 .065-.073.121-.173.132-.099.01-.195-.029-.225-.09l-2.381-4.772v5.165c0 .066-.071.12-.169.132l-.035.001"/>
            </g>
        </g>
    </g>
</svg>
