<svg xmlns="http://www.w3.org/2000/svg" xmlns:xlink="http://www.w3.org/1999/xlink" width="349" height="484" viewBox="0 0 349 484">
    <defs>
        <radialGradient id="a" cx="48.145%" r="43.241%" fx="48.145%" fy="50%" gradientTransform="matrix(0 1 -.64762 0 .805 .019)">
            <stop offset="0%"/>
            <stop offset="21.045%" stop-opacity=".862"/>
            <stop offset="100%" stop-opacity="0"/>
        </radialGradient>
        <path id="b" d="M.012.05h91.197v87.926H.012z"/>
        <path id="d" d="M.012.05h91.197v87.926H.012z"/>
        <path id="f" d="M.329.05h441.388v20.504H.33z"/>
        <path id="h" d="M.012.05h83.014v18.68H.012z"/>
        <radialGradient id="l" r="100%" fx="50%" fy="50%">
            <stop offset="0%" stop-color="#FFF" stop-opacity=".292"/>
            <stop offset="100%" stop-color="#FFF"/>
        </radialGradient>
        <circle id="k" cx="88" cy="88" r="87.107"/>
        <filter id="j" width="117.2%" height="117.2%" x="-8.6%" y="-8.6%" filterUnits="objectBoundingBox">
            <feOffset in="SourceAlpha" result="shadowOffsetOuter1"/>
            <feGaussianBlur in="shadowOffsetOuter1" result="shadowBlurOuter1" stdDeviation="5"/>
            <feColorMatrix in="shadowBlurOuter1" values="0 0 0 0 0.988235294 0 0 0 0 0.729411765 0 0 0 0 0.0901960784 0 0 0 1 0"/>
        </filter>
        <linearGradient id="m" x1="53.573%" x2="50%" y1="23.527%" y2="69.835%">
            <stop offset="0%" stop-color="#F5F5F5" stop-opacity="0"/>
            <stop offset="27.096%" stop-color="#FFF" stop-opacity="0"/>
            <stop offset="100%" stop-color="#FFE99A" stop-opacity=".887"/>
        </linearGradient>
        <linearGradient id="n" x1="53.573%" x2="50%" y1="4.824%" y2="83.847%">
            <stop offset="0%" stop-color="#F5F5F5" stop-opacity="0"/>
            <stop offset="27.096%" stop-color="#FFF" stop-opacity="0"/>
            <stop offset="100%" stop-color="#FFE99A" stop-opacity=".887"/>
        </linearGradient>
        <radialGradient id="o" cy="0%" r="100%" fx="50%" fy="0%" gradientTransform="matrix(0 1 -1.35838 0 .5 -.5)">
            <stop offset="0%"/>
            <stop offset="100%" stop-opacity="0"/>
        </radialGradient>
        <path id="p" d="M.307.04h25.992v16.319H.307z"/>
    </defs>
    <g fill="none" fill-rule="evenodd">
        <g transform="translate(-142.192 375)">
            <ellipse cx="509.496" cy="104.573" fill="url(#a)" opacity=".141" rx="509.496" ry="5.622"/>
            <path fill="#854645" d="M744.208 102.55l-21.64-94.017 18.428-1.337 14.14 95.353zM328.328 102.55l21.64-94.017-18.428-1.337-14.14 95.353z"/>
            <path fill="#000" d="M676.2 2.699h85.56V0H676.2z"/>
            <path fill="#8E5F35" d="M676.2 7.646h85.56V2.7H676.2z"/>
            <path fill="#000" d="M685.032 2.699h76.728V0h-76.728z"/>
            <path fill="#9B7757" d="M685.032 7.646h76.728V2.7h-76.728z"/>
            <path fill="#D8B290" d="M243.432 2.699H761.76V0H243.432z"/>
            <path fill="#CE9F74" d="M243.432 7.646H761.76V2.7H243.432z"/>
            <path fill="#854645" d="M659.64 5.434l22.439 97.565h11.785L679.006 4.048zM243.432 102.55h11.786l22.438-97.566-19.363-1.386z"/>
            <path fill="#FCD5B1" d="M231.288 87.976c22.96 0 22.96-7.505 45.92-7.505 22.962 0 22.962 7.505 45.92 7.505 22.958 0 22.958-7.505 45.916-7.505 22.957 0 22.957 7.505 45.915 7.505 22.957 0 22.957-7.505 45.914-7.505s22.957 7.505 45.912 7.505c22.96 0 22.96-7.505 45.916-7.505 22.958 0 22.958 7.505 45.913 7.505 22.959 0 22.959-7.505 45.916-7.505 22.957 0 22.957 7.505 45.916 7.505L680.076.05H241.658l-10.37 87.926z"/>
            <path fill="#E7BE98" d="M293.055 16.567c-.717 12.575-.197 25.069-2.239 37.626-1.452 8.944-2.828 17.894-3.611 26.867 8.803 1.14 13.296 3.69 20.493 5.356.006-8.195-.492-16.39-1.138-24.481-1.222-15.351-4.26-31.117-13.505-45.368M373.96 80.603c12.566.683 17.239 3.947 25.93 5.896-.126-9.364-.757-18.727-3.004-27.892-3.61-14.704-11.576-28.705-20.967-42.21-2.133 11.656.227 23.35-.058 35.05-.235 9.73-1.283 19.437-1.901 29.156M483.534 59.524c-3.232-13.898-6.778-27.447-19.569-38.97 1.722 20.013 2.393 40.05 2.61 60.092 10.363.669 15.243 3.129 21.874 5.018-1.237-8.74-2.895-17.456-4.915-26.14M585.771 61.692c-3.895-7.578-8.942-14.873-14.406-22.016-3.926-5.133-7.475-12.357-14.493-16.169-1.77 19.008-.53 38.03-.06 57.052 17.687.782 20.05 6.573 37.797 7.335-1.926-8.873-4.451-17.668-8.838-26.202M676.557 86.75c-1.45-9.584-4.649-18.878-8.41-28.354-2.63-6.62-5.578-12.995-9.54-19.326-2.542-4.066-4.383-8.936-9.376-12.046 1.41 4.064 3.746 7.963 4.955 12.06 1.366 4.628 1.555 9.518 1.557 14.224.001 9.213-1.695 18.37-3.332 27.512 10.908 1.042 15.422 4.174 24.146 5.93"/>
            <g transform="translate(680.064)">
                <mask id="c" fill="#fff">
                    <use xlink:href="#b"/>
                </mask>
                <path fill="#D3D2D2" d="M.012.05h81.616l9.581 87.926c-10.101 0-10.101-2.502-20.205-2.502-10.103 0-10.103 2.502-20.206 2.502-10.105 0-10.105-2.502-20.208-2.502-10.105 0-10.105 2.502-20.208 2.502L.012.05z" mask="url(#c)"/>
            </g>
            <g transform="translate(680.064)">
                <mask id="e" fill="#fff">
                    <use xlink:href="#d"/>
                </mask>
                <path fill="#E7BE98" d="M.012.05h81.616l9.581 87.926c-10.101 0-10.101-2.502-20.205-2.502-10.103 0-10.103 2.502-20.206 2.502-10.105 0-10.105-2.502-20.208-2.502-10.105 0-10.105 2.502-20.208 2.502L.012.05z" mask="url(#e)"/>
            </g>
            <path fill="#D9AF87" d="M722.603 69.007c-4.556-8.873-6.546-18.222-11.643-26.975-1.458 4.165.021 8.704.95 12.85 1.214 5.426 2.317 10.844 3.733 16.253 1.291 4.938 2.01 10.036 3.017 15.097 3.441.736 5.786 1.744 12.201 1.744 1.232 0 2.314-.037 3.283-.103-4.747-6.014-8.28-12.519-11.541-18.866M746.12 35.095c-.571 10.028 5.866 43.809 10.329 50.685 3.924.504 5.873 1.498 9.984 1.954-2.28-2.434-18.36-47.951-20.313-52.639"/>
            <g transform="translate(240.12)">
                <mask id="g" fill="#fff">
                    <use xlink:href="#f"/>
                </mask>
                <path fill="#642323" d="M1.538.05h438.417l1.762 14.94-245.63 5.564L.328 10.302z" mask="url(#g)"/>
            </g>
            <path fill="#FFDE17" d="M437.832 20.616c-.086 0-.165-.036-.193-.09l-2.668-5.12v5.038c0 .065-.073.121-.172.132-.103.01-.196-.028-.227-.091l-2.448-4.97v4.78c0 .066-.076.123-.179.131-.104.012-.197-.032-.223-.097l-1.94-4.62v4.463c0 .066-.074.122-.175.132-.096.01-.195-.03-.225-.093l-2.191-4.714v4.54c0 .066-.078.124-.18.131-.097.011-.198-.034-.222-.1l-1.645-4.454v4.314c0 .068-.076.125-.179.133-.096.009-.198-.033-.223-.098l-1.838-4.56v4.409c0 .063-.07.118-.164.131-.095.013-.19-.022-.23-.08l-3.178-5.006v4.767c0 .064-.068.119-.164.132-.096.013-.192-.021-.229-.08l-3.188-5.008v4.769c0 .065-.07.12-.17.132-.103.01-.194-.026-.225-.088l-2.617-4.858v4.657c0 .066-.076.123-.179.132-.104.01-.197-.035-.223-.099l-1.862-4.568v4.415c0 .067-.07.123-.172.133-.098.01-.195-.03-.225-.092l-2.295-4.751v4.57c0 .067-.075.124-.176.132-.104.01-.197-.033-.225-.097l-1.903-4.591v4.435c0 .065-.07.12-.169.131-.097.01-.192-.023-.227-.084l-2.805-4.913v4.698c0 .069-.08.126-.182.134-.101.007-.199-.037-.222-.104l-1.517-4.375v4.244c0 .067-.074.123-.174.133-.1.008-.197-.03-.227-.095l-2.152-4.698v4.527c0 .064-.07.118-.164.131-.098.012-.194-.021-.23-.08l-3.16-5.002v4.765c0 .065-.07.119-.167.13-.1.013-.194-.022-.229-.083l-2.905-4.939v4.72c0 .065-.074.122-.175.132-.106.007-.197-.032-.225-.096l-2.055-4.66v4.494c0 .063-.068.119-.166.132-.094.014-.19-.022-.227-.08l-3.173-5.006v4.768c0 .066-.076.122-.179.132-.106.012-.197-.032-.223-.097l-1.94-4.607v4.45c0 .066-.074.122-.175.132-.098.008-.195-.032-.225-.095l-2.113-4.683v4.513c0 .065-.07.12-.166.132-.096.011-.194-.023-.228-.084l-2.893-4.936v4.716c0 .065-.07.12-.168.131-.096.012-.193-.023-.228-.083l-2.893-4.935v4.715c0 .065-.07.12-.166.132-.1.012-.194-.024-.228-.085l-2.862-4.928v4.71c0 .064-.071.12-.17.132-.096.014-.193-.024-.227-.086l-2.701-4.883v4.675c0 .066-.071.121-.17.133-.102.009-.196-.028-.228-.089l-2.522-4.83v4.633c0 .067-.076.125-.18.133-.1.009-.197-.034-.222-.1l-1.789-4.532v4.384c0 .067-.076.125-.178.132-.106.009-.2-.033-.226-.098l-1.763-4.521v4.374c0 .064-.072.12-.17.132-.097.01-.193-.024-.226-.085l-2.837-4.92v4.704c0 .065-.073.122-.174.133-.097.01-.195-.03-.225-.093l-2.298-4.754V16.2c0 .065-.072.122-.171.133-.103.01-.194-.028-.225-.088l-2.623-4.86v4.657c0 .066-.072.121-.17.131-.1.011-.195-.025-.228-.087l-2.61-4.855v4.654c0 .065-.073.121-.172.132-.1.012-.194-.028-.227-.09l-2.442-4.804v4.612c0 .065-.07.12-.166.133-.096.011-.194-.023-.228-.084l-2.902-4.938v4.717c0 .066-.073.122-.172.132-.103.011-.195-.028-.227-.09l-2.365-4.778v4.592c0 .064-.068.118-.164.131-.094.013-.192-.02-.228-.08l-3.138-4.997v4.76c0 .067-.073.122-.17.133-.105.01-.195-.026-.228-.088l-2.608-4.856v4.654c0 .066-.074.123-.174.133-.097.011-.197-.03-.225-.094l-2.23-4.728v4.552c0 .066-.077.123-.178.132-.107.01-.197-.033-.225-.098l-1.914-4.595v4.438c0 .066-.073.123-.17.133-.099.012-.195-.026-.23-.087l-2.659-4.871v4.666c0 .067-.078.124-.179.133-.11.01-.2-.036-.223-.1l-1.688-4.48v4.337c0 .066-.073.122-.169.133-.1.01-.195-.028-.228-.09l-2.55-4.837v4.64c0 .067-.075.123-.176.133-.106.008-.199-.032-.225-.097l-1.974-4.623v4.463c0 .068-.078.126-.18.133-.107.006-.201-.038-.224-.104l-1.502-4.364v4.235c0 .064-.07.12-.168.131-.096.013-.192-.024-.226-.083l-2.882-4.933v4.714c0 .063-.068.118-.164.131-.096.012-.19-.022-.228-.081l-3.148-5v4.764c0 .063-.07.119-.166.132-.096.012-.192-.023-.229-.082l-3.043-4.975v4.746c0 .065-.075.122-.176.132-.096.01-.197-.032-.227-.095l-2.15-4.698v4.526c0 .066-.075.124-.176.133-.101.01-.197-.032-.227-.094l-2.143-4.695v4.523c0 .065-.071.121-.17.132-.102.01-.194-.027-.23-.088l-2.602-4.854v4.653c0 .069-.08.125-.183.133-.104.008-.198-.038-.221-.105L294.97 8.93v4.181c0 .069-.078.125-.182.133-.103.007-.199-.036-.222-.102l-1.517-4.376v4.244c0 .068-.076.125-.177.133-.1.012-.197-.033-.225-.097l-1.926-4.6v4.443c0 .064-.07.118-.166.131-.093.013-.19-.02-.227-.08l-3.148-4.998v4.76c0 .067-.071.122-.169.133-.096.014-.192-.025-.227-.087l-2.699-4.882v4.675c0 .065-.073.122-.172.132-.103.01-.196-.028-.227-.09l-2.348-4.772v4.586c0 .068-.08.126-.182.133-.11.009-.2-.037-.222-.104l-1.477-4.346v4.218c0 .07-.08.126-.183.134-.106.006-.198-.037-.221-.103l-1.484-4.353V12.2c0 .068-.078.127-.182.132-.1.008-.2-.037-.222-.103l-1.436-4.32v4.194c0 .066-.071.122-.169.134-.103.01-.195-.028-.229-.088l-2.586-4.85v4.648c0 .066-.075.123-.176.132-.1.01-.197-.03-.225-.095l-2.062-4.66v4.494c0 .066-.076.124-.177.132-.1.012-.197-.031-.225-.096l-1.93-4.602v4.445c0 .065-.072.12-.17.132-.1.009-.195-.028-.227-.089l-2.527-4.83v4.633c0 .068-.076.126-.18.133-.101.009-.199-.037-.224-.104l-1.518-4.376v4.246c0 .065-.07.12-.164.131-.098.012-.194-.021-.229-.08l-3.093-4.987v4.754c0 .067-.075.124-.178.132-.104.011-.197-.032-.223-.097l-1.901-4.59v4.435c0 .065-.075.121-.172.132-.103.012-.197-.03-.227-.092l-2.31-4.758v4.576c0 .064-.07.118-.164.13-.101.015-.192-.02-.23-.08l-3.112-4.99v4.755c0 .068-.073.123-.172.133-.103.012-.197-.03-.227-.094l-2.183-4.71v4.537c0 .067-.076.124-.179.132-.099.011-.197-.033-.225-.098l-1.843-4.562v4.41c0 .068-.08.126-.182.133-.101.009-.2-.038-.222-.105l-1.401-4.293v4.17c0 .067-.075.124-.176.133-.102.01-.197-.032-.225-.096l-2.126-4.891-1.009 4.688c-.015.073-.116.124-.23.113-.11-.01-.19-.076-.177-.15l1.146-5.314c.015-.063.093-.111.189-.116.1-.008.184.037.21.097l1.989 4.577v-4.48c0-.068.08-.125.184-.132.106-.007.2.038.222.106l1.399 4.293V5.123c0-.067.076-.125.179-.133.104-.009.199.033.223.098l1.845 4.562V5.24c0-.066.075-.122.174-.132.101-.01.197.03.227.093l2.183 4.71V5.377c0-.064.067-.12.165-.132.096-.013.19.022.227.082l3.112 4.989V5.559c0-.065.072-.122.173-.133.097-.008.196.03.227.093l2.309 4.757V5.7c0-.066.076-.124.177-.133.103-.008.199.033.224.098l1.902 4.588V5.822c0-.065.068-.12.164-.132.096-.014.192.023.229.081l3.092 4.986V6.004c0-.068.079-.126.183-.133.101-.008.2.037.22.103l1.52 4.376V6.105c0-.065.072-.121.171-.132.096-.013.194.027.227.089l2.526 4.83V6.257c0-.067.076-.123.177-.132.106-.013.199.032.225.097l1.93 4.602V6.38c0-.066.074-.123.176-.133.098-.008.196.031.224.096l2.062 4.661V6.508c0-.064.071-.12.17-.13.1-.012.194.026.227.087l2.587 4.85v-4.65c0-.069.08-.125.184-.133.107-.008.2.038.22.105l1.437 4.318V6.762c0-.068.077-.125.18-.133.102-.008.2.036.223.104l1.484 4.351V6.86c0-.068.077-.125.182-.132.107-.006.2.037.222.103l1.477 4.348v-4.22c0-.066.073-.122.172-.132.098-.011.197.028.225.09l2.35 4.773V7.102c0-.064.071-.12.17-.131.097-.012.194.026.226.086l2.7 4.883V7.266c0-.065.069-.12.165-.131.094-.014.19.02.228.08l3.147 4.998V7.45c0-.067.076-.124.177-.133.106-.011.199.033.225.096l1.926 4.601V7.573c0-.07.078-.126.182-.134.1-.005.199.037.22.103l1.519 4.376V7.673c0-.069.078-.126.184-.133.096-.006.198.038.222.104l1.416 4.306V7.768c0-.065.07-.12.17-.133.098-.01.194.028.227.088l2.603 4.856V7.926c0-.067.075-.123.176-.133.1-.007.197.03.227.094l2.144 4.695V8.06c0-.066.075-.122.174-.133.103-.009.197.031.225.094l2.155 4.699V8.193c0-.064.07-.12.164-.132.099-.013.192.022.23.082l3.044 4.974V8.373c0-.063.07-.119.163-.132.097-.014.194.022.23.08l3.147 5V8.559c0-.065.071-.12.169-.131.096-.012.192.022.229.083l2.878 4.933V8.729c0-.067.08-.125.182-.132.114-.008.199.037.222.103l1.502 4.365V8.83c0-.068.076-.124.177-.133.103-.008.197.032.225.096l1.972 4.623V8.953c0-.065.073-.12.171-.132.103-.01.195.028.227.09l2.55 4.838v-4.64c0-.069.078-.125.18-.134.107-.01.2.035.222.101l1.688 4.478V9.217c0-.064.071-.12.169-.131.1-.012.195.026.228.086l2.662 4.873V9.378c0-.068.074-.123.175-.133.103-.008.197.033.225.098l1.916 4.595v-4.44c0-.064.075-.122.174-.132.1-.01.197.03.225.094l2.231 4.728V9.636c0-.064.073-.12.169-.13.101-.014.195.024.229.086l2.608 4.857V9.795c0-.065.07-.12.165-.132.096-.013.19.021.229.08l3.136 4.997V9.98c0-.066.075-.123.174-.133.101-.01.196.029.225.09l2.365 4.778v-4.59c0-.065.071-.12.17-.133.093-.012.191.024.226.083l2.9 4.939v-4.718c0-.065.072-.121.172-.132.1-.01.195.028.227.09l2.442 4.804v-4.613c0-.065.072-.12.17-.132.097-.012.195.027.226.087l2.612 4.857v-4.654c0-.065.072-.121.17-.132.1-.012.194.026.227.088l2.621 4.859V10.76c0-.065.075-.121.174-.132.098-.007.196.03.226.092l2.298 4.754v-4.572c0-.064.071-.12.167-.132.1-.01.194.024.229.085l2.837 4.92v-4.704c0-.067.076-.124.178-.133.106-.01.198.036.224.1l1.764 4.522v-4.375c0-.068.077-.123.18-.133.103-.009.197.035.224.1l1.788 4.532V11.3c0-.064.073-.12.17-.131.1-.012.195.027.228.088l2.522 4.83v-4.633c0-.066.07-.12.17-.132.096-.014.194.025.227.086l2.701 4.883v-4.676c0-.064.07-.119.167-.13.1-.012.192.024.229.083l2.86 4.928v-4.71c0-.064.071-.12.169-.132.094-.01.192.024.228.085l2.892 4.935v-4.715c0-.065.07-.121.167-.131.094-.012.192.023.228.083l2.893 4.935V12.13c0-.067.075-.123.174-.133.1-.008.199.031.226.095l2.114 4.682v-4.512c0-.068.073-.124.176-.133.11-.014.197.032.225.097l1.94 4.607v-4.449c0-.063.069-.118.163-.131.098-.014.192.022.229.079l3.173 5.006V12.57c0-.066.076-.122.175-.132.104-.008.199.032.225.096l2.055 4.658V12.7c0-.064.07-.119.168-.132.1-.012.192.025.228.084l2.905 4.939v-4.718c0-.063.07-.118.164-.131.1-.013.19.021.228.08l3.162 5.002v-4.765c0-.066.074-.122.175-.132.103-.009.197.031.224.094l2.154 4.699V13.19c0-.067.078-.124.18-.133.103-.006.201.038.224.104l1.517 4.375v-4.245c0-.064.071-.119.169-.13.098-.012.192.024.227.084l2.807 4.912V13.46c0-.067.074-.123.175-.133.1-.01.197.034.226.099l1.902 4.59v-4.434c0-.068.073-.124.174-.133.101-.01.196.029.227.093l2.292 4.75v-4.57c0-.068.076-.124.179-.133.097-.008.197.034.223.098l1.86 4.57V13.84c0-.066.073-.122.169-.132.098-.013.194.024.228.087l2.617 4.858V14c0-.064.068-.12.164-.132.093-.013.192.021.228.08l3.187 5.009v-4.77c0-.063.07-.119.165-.132.095-.013.19.022.229.08l3.178 5.007v-4.768c0-.067.076-.125.178-.133.101-.012.197.033.222.098l1.84 4.56V14.49c0-.068.078-.126.179-.133.11-.009.199.036.224.1l1.644 4.455v-4.316c0-.066.074-.122.175-.132.1-.01.196.03.226.093l2.19 4.714v-4.554c0-.068.077-.125.178-.133.104-.013.197.033.225.096l1.94 4.621v-4.639c0-.066.072-.121.171-.13.101-.01.194.026.227.09l2.448 4.97v-4.995c0-.064.073-.12.17-.13.101-.014.196.026.229.088l2.666 5.12v-5.147c0-.066.075-.122.172-.132.106-.01.197.028.227.092l2.48 5.07v-5.096c0-.065.07-.12.17-.132.1-.013.195.028.227.089l2.667 5.12v-5.146c0-.067.072-.122.17-.133.095-.012.195.026.228.09l2.73 5.134v-5.163c0-.067.077-.125.181-.133.1-.007.199.037.222.104l1.676 4.76v-4.779c0-.066.074-.122.175-.132.105-.005.198.031.226.094l2.283 5.016v-5.038c0-.067.073-.123.174-.133.101-.01.197.03.227.094l2.386 5.046V14.15c0-.066.077-.124.178-.133.104-.008.2.034.225.1l1.985 4.907v-4.929c0-.067.078-.124.182-.133.108-.006.2.038.224.104l1.67 4.76v-4.778c0-.064.072-.12.17-.131.1-.012.194.026.228.086l2.837 5.16v-5.188c0-.068.078-.126.184-.133.1-.01.199.038.22.106l1.474 4.641v-4.657c0-.066.075-.122.176-.132.104-.01.195.029.225.092l2.43 5.06v-5.085c0-.065.074-.122.175-.132.102-.008.195.031.225.094l2.348 5.037v-5.061c0-.07.08-.126.184-.133.103-.007.2.038.222.104l1.547 4.69V13.76c0-.067.074-.122.173-.133.103-.007.197.028.226.092l2.484 5.076v-5.102c0-.067.077-.124.182-.133.097-.007.198.037.222.104l1.679 4.765v-4.783c0-.064.07-.12.167-.131.096-.012.19.022.227.082l3.128 5.221v-5.252c0-.066.075-.122.176-.133.1-.01.195.03.223.093l2.382 5.048v-5.071c0-.068.077-.125.178-.134.105-.01.197.035.224.1l1.95 4.896v-4.915c0-.07.08-.127.183-.134.108-.006.2.038.222.104l1.558 4.697v-4.712c0-.068.076-.126.179-.133.094-.011.197.033.222.097l2.004 4.92v-4.94c0-.065.072-.12.172-.131.1-.011.195.027.228.088l2.64 5.12V13.28c0-.065.075-.122.177-.132.103-.006.196.032.225.094l2.294 5.024v-5.045c0-.066.073-.123.17-.132.097-.013.194.024.23.086l2.818 5.16v-5.189c0-.065.072-.121.172-.132.1-.009.195.03.227.092l2.469 5.076V13.08c0-.065.071-.12.169-.131.094-.012.193.024.227.085l2.916 5.182v-5.21c0-.07.08-.128.184-.135.102-.009.2.039.22.106l1.475 4.646v-4.661c0-.068.08-.127.184-.134.098-.01.2.04.22.108l1.4 4.591v-4.606c0-.068.078-.125.179-.134.1-.007.197.036.223.1l1.933 4.892v-4.91c0-.065.07-.122.167-.134.098-.008.194.025.229.086l3 5.2v-5.23c0-.068.078-.125.179-.134.101-.007.197.034.224.1l1.94 4.895v-4.916c0-.065.072-.121.171-.132.096-.01.194.027.227.089l2.71 5.14v-5.167c0-.065.072-.12.17-.131.102-.012.193.025.228.088l2.74 5.146v-5.174c0-.069.077-.126.181-.133.101-.006.2.036.22.1l1.734 4.8v-4.815c0-.069.077-.126.18-.134.102-.008.198.034.221.098l1.987 4.916v-4.936c0-.065.072-.12.168-.13.097-.013.192.023.228.085l2.875 5.177v-5.205c0-.065.07-.12.167-.134.096-.01.194.025.227.086l3.014 5.204V12.34c0-.069.081-.126.184-.134.1-.006.2.04.222.109l1.394 4.591v-4.607c0-.067.076-.124.177-.133.103-.006.199.034.226.099l1.98 4.915v-4.936c0-.066.076-.122.179-.132.098-.009.197.034.223.097l2.082 4.955v-4.975c0-.065.071-.122.169-.132.101-.011.192.024.227.084l2.987 5.2v-5.23c0-.066.075-.124.177-.132.105-.01.198.032.224.096l2.138 4.976v-4.998c0-.065.07-.12.167-.13.101-.014.192.022.229.083l3.053 5.214v-5.246c0-.065.073-.121.173-.132.102-.01.195.03.226.091l2.577 5.11v-5.136c0-.067.076-.123.177-.132.098-.01.197.032.224.096l2.098 4.962V11.85c0-.068.078-.125.182-.133.113-.007.2.037.222.104l1.578 4.716v-4.732c0-.067.078-.124.18-.133.115-.009.2.036.224.1l1.807 4.841v-4.859c0-.066.075-.122.176-.132.106-.009.195.03.225.093l2.37 5.054v-5.078c0-.065.072-.121.172-.13.094-.014.194.025.225.088l2.666 5.133v-5.16c0-.065.07-.12.167-.132.105-.011.194.025.229.084l2.99 5.205v-5.234c0-.068.077-.125.178-.133.103-.009.197.033.225.1l1.954 4.906v-4.927c0-.066.076-.124.177-.132.098-.012.197.031.226.096l2.096 4.964v-4.986c0-.065.073-.121.172-.132.098-.01.194.028.226.09l2.628 5.126v-5.152c0-.067.074-.122.175-.132.1-.007.197.031.227.095l2.181 4.996v-5.018c0-.063.07-.119.167-.132.093-.012.192.023.227.083l3.185 5.241v-5.274c0-.068.076-.123.18-.132.098-.01.197.035.222.1l1.853 4.865v-4.884c0-.066.076-.123.177-.132.1-.009.197.03.225.095l2.21 5.005v-5.028c0-.068.077-.125.182-.133.102-.006.198.04.222.105l1.57 4.715v-4.732c0-.065.072-.121.17-.132.108-.009.197.03.229.091l2.51 5.098v-5.123c0-.068.078-.124.179-.132.114-.01.199.034.225.1l1.812 4.847v-4.865c0-.068.08-.126.182-.133.104-.009.2.038.222.105l1.555 4.705v-4.721c0-.07.078-.126.182-.134.103-.005.199.036.22.103l1.704 4.791V10.86c0-.066.072-.12.17-.131.094-.014.195.025.228.087l2.764 5.162v-5.19c0-.069.08-.126.182-.133.104-.01.2.038.223.105l1.504 4.675v-4.69c0-.068.078-.127.184-.133.098-.009.199.038.218.104l1.579 4.72V10.7c0-.067.072-.123.172-.133.107-.01.194.03.227.091l2.504 5.099v-5.124c0-.066.074-.123.177-.132.1-.012.197.033.223.097l2.09 4.966v-4.988c0-.065.075-.121.174-.132.096-.01.195.029.227.09l2.545 5.11V10.51c0-.065.071-.12.166-.131.096-.013.194.021.23.082l3.107 5.232V10.43c0-.067.074-.124.172-.134.11-.008.199.03.227.093l2.373 5.061v-5.084c0-.067.073-.123.172-.132.103-.01.197.029.227.092l2.421 5.076V10.3c0-.065.074-.122.172-.132.101-.008.197.029.227.092l2.476 5.092v-5.117c0-.067.074-.123.177-.133.103-.01.197.033.224.097l2.162 4.993v-5.016c0-.066.076-.123.18-.132.103-.014.196.031.221.096l2.148 4.988v-5.01c0-.068.078-.125.182-.133.113-.008.197.036.222.101l1.805 4.847V10.07c0-.067.074-.124.174-.133.104-.01.195.029.225.09l2.512 5.104v-5.128c0-.068.08-.126.182-.134.115-.004.2.038.222.104l1.66 4.772V9.956c0-.067.076-.123.177-.133.102-.012.198.032.225.097l2.083 4.967V9.899c0-.064.07-.12.167-.132.102-.013.193.024.227.083l3.094 5.234V9.82c0-.066.073-.122.174-.133.099-.01.195.028.227.091l2.484 5.098V9.754c0-.065.07-.12.167-.132.096-.012.192.023.228.084l3.105 5.236V9.673c0-.065.075-.121.173-.132.099-.009.197.03.226.092l2.47 5.093V9.61c0-.068.074-.124.177-.132.1-.013.197.031.225.096l2.077 4.967V9.552c0-.067.074-.123.177-.132.104-.01.197.031.225.096l2.136 4.988v-5.01c0-.066.076-.122.176-.132.102-.006.197.032.225.094l2.257 5.03V9.435c0-.069.08-.127.184-.133.1-.005.2.04.22.107l1.403 4.61V9.395c0-.069.076-.125.177-.135.11-.009.199.035.225.099l2.044 4.954V9.337c0-.068.078-.124.18-.132.1-.01.199.034.224.099l1.873 4.883V9.285c0-.066.07-.12.17-.132.106-.012.196.026.229.089l2.732 5.162v-5.19c0-.067.076-.124.177-.134.103-.007.197.033.224.097l2.194 5.01V9.155c0-.07.08-.126.184-.133.103-.007.199.038.222.104l1.566 4.722V9.11c0-.067.075-.123.173-.133.107-.007.198.03.227.094l2.346 5.06V9.047c0-.064.071-.12.17-.131.093-.013.194.026.226.086l2.792 5.177v-.984c0-.074.093-.134.204-.134.112 0 .205.06.205.134v1.765c0 .065-.073.122-.17.132-.098.01-.196-.025-.228-.087l-2.79-5.176v5.204c0 .065-.074.123-.174.132-.104.011-.195-.031-.227-.094l-2.346-5.06v5.083c0 .07-.078.125-.182.133-.106.007-.2-.038-.22-.104l-1.567-4.723v4.74c0 .066-.076.123-.177.131-.1.01-.197-.031-.226-.095l-2.194-5.01v5.032c0 .066-.071.121-.17.132-.1.012-.196-.026-.227-.088l-2.733-5.162v5.188c0 .069-.077.126-.18.134-.103.01-.197-.035-.224-.1l-1.873-4.882v4.9c0 .069-.076.125-.177.132-.11.011-.199-.032-.225-.097L663.46 10.4v4.976c0 .069-.08.126-.184.133-.106.003-.2-.04-.22-.107l-1.405-4.61v4.625c0 .067-.074.122-.173.132-.098.01-.196-.03-.227-.094l-2.256-5.03v5.052c0 .067-.074.124-.177.133-.106.008-.197-.032-.224-.097l-2.136-4.988v5.01c0 .067-.076.123-.179.132-.1.01-.197-.032-.225-.096l-2.078-4.967v4.986c0 .067-.071.124-.172.132-.095.012-.196-.028-.226-.09l-2.469-5.094v5.118c0 .063-.07.12-.167.131-.096.012-.192-.023-.227-.083l-3.106-5.235v5.266c0 .067-.073.122-.174.133-.096.01-.196-.03-.226-.093l-2.484-5.096V15.8c0 .064-.07.12-.168.133-.101.01-.193-.024-.229-.084l-3.093-5.234v5.265c0 .066-.077.123-.176.132-.1.013-.197-.033-.225-.097l-2.083-4.966v4.987c0 .068-.078.126-.18.133-.11.008-.201-.037-.224-.104l-1.66-4.771v4.789c0 .066-.073.122-.17.132-.106.01-.197-.03-.229-.091l-2.512-5.103v5.128c0 .067-.078.123-.179.132-.112.01-.197-.035-.223-.102l-1.807-4.846v4.865c0 .068-.075.123-.176.133-.109.008-.197-.032-.225-.097l-2.148-4.988v5.011c0 .065-.074.122-.175.132-.101.01-.197-.031-.225-.096l-2.163-4.994v5.014c0 .068-.075.124-.174.134-.098.01-.195-.03-.225-.091l-2.476-5.094v5.117c0 .067-.073.122-.174.133-.098.01-.195-.03-.225-.092l-2.421-5.076v5.1c0 .066-.075.122-.176.132-.104.01-.195-.03-.225-.094l-2.371-5.06v5.084c0 .064-.072.12-.17.131-.099.012-.191-.022-.226-.083l-3.107-5.232v5.262c0 .068-.073.123-.174.134-.094.008-.195-.029-.223-.09l-2.549-5.11v5.135c0 .066-.074.122-.175.132-.101.01-.197-.033-.226-.098l-2.09-4.965v4.987c0 .065-.074.121-.173.132-.105.01-.196-.029-.227-.09l-2.502-5.098v5.121c0 .07-.08.126-.184.133-.101.006-.199-.038-.22-.104l-1.579-4.72v4.735c0 .07-.077.127-.182.134-.102.004-.2-.04-.22-.105l-1.505-4.675v4.69c0 .066-.072.121-.17.132-.1.01-.195-.026-.228-.088l-2.765-5.16v5.188c0 .068-.078.125-.182.133-.1.008-.2-.036-.22-.103l-1.703-4.79v4.808c0 .068-.078.126-.182.133-.105.007-.2-.037-.222-.105l-1.555-4.706v4.723c0 .067-.078.124-.18.132-.11.012-.198-.035-.223-.101l-1.813-4.847v4.865c0 .067-.073.123-.172.133-.106.01-.195-.03-.227-.091l-2.51-5.098v5.123c0 .068-.08.124-.184.132-.103.006-.197-.038-.22-.104l-1.57-4.715v4.731c0 .067-.077.122-.178.132-.099.008-.197-.03-.225-.095l-2.209-5.006v5.029c0 .067-.074.123-.179.132-.097.01-.198-.035-.223-.101l-1.853-4.864v4.884c0 .064-.07.119-.166.13-.096.014-.194-.022-.228-.08l-3.185-5.243v5.274c0 .066-.076.122-.176.132-.099.01-.198-.031-.225-.096l-2.182-4.995v5.017c0 .065-.072.122-.173.133-.097.01-.193-.029-.226-.09l-2.627-5.127v5.153c0 .067-.076.122-.177.132-.101.007-.197-.033-.225-.098l-2.097-4.964v4.986c0 .067-.076.124-.179.132-.097.012-.197-.032-.223-.098l-1.954-4.908v4.928c0 .064-.071.12-.17.131-.102.011-.193-.025-.228-.084l-2.989-5.205v5.234c0 .066-.073.12-.172.132-.096.011-.195-.027-.225-.089l-2.666-5.133v5.16c0 .066-.075.122-.174.132-.106.01-.196-.03-.227-.092l-2.37-5.056v5.078c0 .069-.078.125-.179.133-.11.01-.198-.035-.223-.101l-1.809-4.84v4.858c0 .067-.077.126-.182.134-.114.006-.198-.038-.222-.106l-1.578-4.716v4.733c0 .067-.076.123-.177.133-.101.01-.197-.033-.225-.098l-2.097-4.962v4.984c0 .065-.073.121-.172.132-.104.011-.195-.028-.227-.09l-2.577-5.11v5.135c0 .065-.07.12-.165.131-.105.012-.194-.022-.23-.083l-3.056-5.215v5.245c0 .068-.073.124-.175.134-.106.005-.197-.034-.225-.097l-2.137-4.976v4.997c0 .065-.07.12-.167.13-.103.012-.194-.022-.228-.084l-2.988-5.201v5.23c0 .068-.076.125-.177.134-.098.012-.197-.033-.224-.097l-2.083-4.955v4.975c0 .068-.076.125-.177.133-.1.01-.199-.033-.224-.098l-1.982-4.916v4.935c0 .07-.081.127-.185.134-.105.005-.2-.04-.22-.108l-1.395-4.591v4.606c0 .065-.07.12-.167.132-.096.01-.194-.023-.227-.084l-3.016-5.206v5.235c0 .065-.07.122-.167.133-.1.01-.194-.025-.228-.087l-2.874-5.177v5.206c0 .066-.076.124-.18.132-.098.01-.197-.032-.222-.098l-1.986-4.915v4.935c0 .068-.077.125-.18.134-.104.005-.199-.038-.222-.103l-1.734-4.8v4.818c0 .065-.073.12-.169.131-.107.01-.195-.027-.228-.088l-2.74-5.146v5.174c0 .065-.072.12-.171.13-.1.012-.196-.025-.227-.087l-2.71-5.139v5.165c0 .068-.077.126-.18.133-.096.011-.197-.033-.222-.098l-1.94-4.896v4.914c0 .065-.07.121-.168.132-.096.012-.194-.024-.229-.084l-3-5.2v5.23c0 .067-.076.124-.18.133-.112.007-.198-.035-.223-.1l-1.932-4.89v4.91c0 .068-.08.127-.186.132-.104.001-.2-.039-.218-.106l-1.4-4.592v4.606c0 .069-.08.127-.183.134-.113.008-.2-.04-.222-.107l-1.474-4.644v4.66c0 .065-.071.12-.167.132-.1.01-.196-.025-.229-.086l-2.916-5.182v5.211c0 .065-.073.122-.172.133-.1.012-.197-.029-.227-.092l-2.47-5.076v5.1c0 .065-.07.12-.17.13-.096.015-.194-.023-.228-.085l-2.819-5.16v5.188c0 .066-.074.123-.174.132-.103.01-.195-.03-.225-.094l-2.297-5.023v5.046c0 .066-.073.122-.17.132-.103.01-.194-.027-.227-.09l-2.643-5.12v5.147c0 .066-.075.124-.178.132-.097.009-.197-.033-.225-.098l-2.004-4.919v4.94c0 .068-.077.125-.18.133-.11.007-.2-.038-.222-.105l-1.558-4.697v4.713c0 .067-.076.124-.18.133-.108.009-.198-.034-.221-.1l-1.952-4.896v4.917c0 .065-.073.121-.174.132-.098.01-.196-.03-.225-.093l-2.382-5.049v5.072c0 .065-.07.119-.165.13-.098.014-.194-.02-.229-.081l-3.128-5.22v5.251c0 .068-.08.126-.182.132-.105.006-.199-.036-.222-.102l-1.68-4.766v4.783c0 .066-.074.122-.172.132-.099.01-.195-.028-.226-.091l-2.484-5.076v5.1c0 .068-.078.125-.183.133-.102.01-.198-.038-.222-.105l-1.548-4.688v4.704c0 .066-.073.123-.172.132-.103.012-.197-.029-.227-.093l-2.35-5.037v5.06c0 .067-.074.123-.172.133-.104.01-.195-.03-.227-.092l-2.43-5.06v5.084c0 .07-.08.126-.183.133-.101.01-.199-.039-.222-.106l-1.474-4.641v4.656c0 .066-.071.12-.17.132-.101.014-.194-.025-.229-.086l-2.837-5.162v5.19c0 .067-.076.126-.18.133-.105.006-.199-.038-.222-.103l-1.671-4.76v4.776c0 .068-.076.125-.179.134-.096.008-.197-.034-.225-.099l-1.986-4.909v4.929c0 .066-.074.122-.172.132-.1.01-.197-.03-.227-.093l-2.388-5.047v5.072c0 .065-.073.122-.175.132-.1.008-.196-.03-.225-.094l-2.284-5.016v5.038c0 .067-.078.125-.182.134-.105.004-.199-.038-.222-.104l-1.674-4.76v4.777c0 .065-.073.121-.173.132-.099.01-.193-.027-.226-.088l-2.73-5.136v5.163c0 .065-.072.12-.172.132-.1.011-.195-.026-.225-.09l-2.67-5.12v5.147c0 .066-.072.122-.17.132-.101.01-.195-.028-.227-.091l-2.479-5.072v5.097c0 .065-.071.12-.169.131-.011.002-.023.002-.035.002"/>
            <g transform="translate(680.064)">
                <mask id="i" fill="#fff">
                    <use xlink:href="#h"/>
                </mask>
                <path fill="#451414" d="M81.628.05H.012l1.76 14.94 50.2 3.74 31.054-5.865z" mask="url(#i)"/>
            </g>
            <path fill="#BFA711" d="M731.701 18.804c-.088 0-.165-.035-.194-.09l-2.828-5.396v5.114c0 .065-.071.122-.17.131-.105.012-.194-.025-.226-.086l-2.979-5.44v5.146c0 .065-.071.121-.172.132-.103.012-.196-.028-.227-.09l-2.71-5.359v5.087c0 .064-.07.12-.17.131-.102.013-.194-.025-.227-.085l-3.007-5.45v5.152c0 .069-.08.126-.182.133-.108.006-.2-.04-.222-.105l-1.573-4.821v4.647c0 .065-.075.122-.174.133-.098.01-.195-.03-.225-.093l-2.55-5.303v5.044c0 .065-.073.122-.171.133-.106.008-.194-.027-.229-.088l-2.878-5.41v5.124c0 .067-.078.124-.179.132-.102.01-.2-.035-.223-.102l-1.804-4.966v4.772c0 .067-.077.125-.178.133-.098.009-.2-.034-.224-.098l-2.017-5.08v4.866c0 .067-.074.124-.174.132-.1.01-.199-.03-.227-.094l-2.318-5.213v4.975c0 .066-.073.122-.176.132-.097.01-.197-.032-.225-.095l-2.288-5.202v4.965c0 .065-.072.122-.168.131-.097.011-.193-.023-.228-.084l-3.084-5.468v5.164c0 .066-.078.124-.18.133-.096.01-.197-.033-.222-.1l-2.015-5.077v4.866c0 .066-.077.122-.18.132-.109.007-.195-.033-.221-.097l-2.218-5.17v4.94c0 .068-.074.124-.175.133-.104.013-.196-.03-.225-.093l-2.478-5.275v5.023c0 .067-.076.125-.179.133-.109.01-.197-.034-.225-.1l-1.994-5.068v4.858c0 .069-.08.126-.183.133-.105.008-.2-.04-.22-.107l-1.46-4.735v4.572c0 .064-.07.12-.169.13-.107.01-.193-.025-.228-.087l-2.886-5.41v1.095c0 .075-.092.135-.204.135-.114 0-.204-.06-.204-.135V9.04c0-.065.071-.121.17-.132.1-.013.194.027.226.088l2.886 5.41V9.283c0-.07.081-.127.186-.133.1-.01.2.039.22.106l1.457 4.737V9.42c0-.069.078-.125.18-.134.112-.01.198.035.223.1l1.995 5.066V9.597c0-.066.073-.122.174-.132.106-.008.197.03.227.093l2.477 5.275V9.81c0-.066.075-.124.176-.132.106-.012.197.031.225.096l2.217 5.17v-4.941c0-.067.077-.124.178-.132.104-.007.198.033.225.1l2.015 5.076v-4.865c0-.065.071-.12.168-.132.096-.011.195.024.228.086l3.084 5.467V10.44c0-.067.074-.123.177-.133.097-.008.197.032.225.096l2.287 5.201v-4.965c0-.067.076-.124.177-.132.101-.008.197.03.225.094l2.317 5.214v-4.977c0-.066.078-.123.179-.132.104-.006.197.035.223.1l2.017 5.079v-4.868c0-.067.078-.124.18-.133.105-.004.198.038.223.103l1.803 4.966V11.18c0-.066.073-.121.17-.131.102-.014.195.025.228.088l2.878 5.408v-5.123c0-.067.074-.123.174-.133.099-.008.195.03.227.093l2.55 5.302V11.64c0-.07.08-.127.182-.134.1-.008.199.038.222.104l1.573 4.823v-4.648c0-.065.071-.12.17-.132.102-.012.194.026.227.086l3.008 5.449v-5.152c0-.066.073-.121.17-.132.105-.012.196.028.227.09l2.713 5.358v-5.086c0-.066.07-.121.167-.132.103-.015.194.026.229.087l2.977 5.44v-5.146c0-.065.073-.121.17-.132.098-.013.194.027.227.089l2.829 5.396v-5.204c0-.066.073-.122.172-.132.1-.01.197.028.227.09l2.381 4.77V12.25c0-.064.068-.12.163-.132.1-.014.193.022.23.08l2.976 4.725v-5.18c0-.067.077-.124.18-.132.12-.007.199.037.222.103l1.542 4.349v-4.61c0-.066.071-.121.169-.132.104-.013.193.025.228.086l2.48 4.514v-4.9c0-.064.069-.12.168-.132.103-.013.194.026.227.087l2.421 4.411v-4.788c0-.064.068-.12.166-.131.1-.013.19.021.227.08l2.755 4.342v-4.764c0-.065.073-.12.17-.13.107-.013.194.026.23.088l2.13 4.176V9.747c0-.067.075-.124.174-.133.111-.009.197.03.227.093l1.898 4.048V9.402c0-.066.073-.122.17-.132.1-.01.196.028.227.091l1.976 3.991V9.046c0-.066.076-.124.179-.133.101-.01.197.033.224.098l1.59 3.813V8.748c0-.064.069-.118.163-.132.093-.014.189.018.229.075l2.767 3.925V8.274c0-.067.074-.124.177-.133.103-.008.199.033.225.098l1.46 3.606v-.915c0-.074.09-.135.205-.135.11 0 .203.06.203.135v1.943c0 .067-.076.125-.179.132-.099.011-.197-.032-.223-.097l-1.46-3.606v3.923c0 .063-.065.117-.16.131-.092.013-.19-.018-.23-.076l-2.767-3.924v4.465c0 .068-.076.125-.176.133-.1.013-.197-.033-.225-.097l-1.593-3.814v4.156c0 .066-.073.12-.172.132-.096.012-.196-.028-.227-.091l-1.976-3.991v4.398c0 .067-.074.123-.173.133-.103.011-.196-.03-.227-.094l-1.896-4.047v4.442c0 .066-.073.122-.173.132-.104.013-.195-.027-.225-.09l-2.133-4.175v4.612c0 .064-.07.118-.165.131-.1.014-.19-.022-.229-.08l-2.754-4.341v4.885c0 .065-.071.12-.169.132-.107.011-.195-.026-.228-.087l-2.421-4.412v4.9c0 .064-.072.12-.168.131-.102.016-.195-.025-.228-.086l-2.48-4.514v5.012c0 .067-.077.125-.181.134-.11.01-.2-.037-.22-.104l-1.544-4.349v4.687c0 .063-.068.118-.164.13-.101.015-.192-.02-.228-.08l-2.976-4.725v5.312c0 .065-.073.121-.173.132-.099.01-.195-.029-.225-.09l-2.381-4.772v5.165c0 .066-.071.12-.169.132l-.035.001"/>
        </g>
        <g transform="translate(9 9)">
            <use fill="#000" filter="url(#j)" xlink:href="#k"/>
            <use fill="url(#l)" xlink:href="#k"/>
        </g>
        <path stroke="#FFD798" stroke-width="4" d="M10.2 82.6c-7.953 47.94 24.462 93.249 72.4 101.2 47.939 7.954 93.248-24.462 101.2-72.4 7.953-47.94-24.463-93.249-72.401-101.2-47.94-7.954-93.247 24.462-101.2 72.4z"/>
        <g font-family="NotoSerifCJKtc-Bold, Noto Serif CJK TC" font-weight="bold">
            <text fill="#430000" font-size="18" transform="translate(18.827 58.137)">
                <tspan x="24.5" y="-5.63">新申辦項目達</tspan>
            </text>
            <text fill="#430000" font-size="18" transform="translate(18.827 58.137)">
                <tspan x="120.27" y="68.609">項</tspan>
            </text>
            <text fill="#F05050" font-size="50" transform="translate(18.827 58.137)">
                <tspan x="37.77" y="97.37">3-4</tspan>
            </text>
        </g>
        <g>
            <path fill="url(#m)" d="M81.283 123L17 9h181l-73.971 114z" transform="translate(137 126)"/>
            <path fill="url(#n)" d="M77.593 147.985L2.675 0H183.65l-80.867 148.902z" transform="translate(148.58 126)"/>
            <g transform="translate(148.58 227.73)">
                <ellipse cx="87.963" cy="149.765" fill="url(#o)" opacity=".453" rx="34.37" ry="5.527"/>
                <path fill="#E8C067" d="M146.287 143.7c-6.422 5.408-23.03 5.948-23.03 5.948s-2.585.908-7.292 1.812a104.66 104.66 0 0 1-9.442 1.5c-10.235 1.17-20.08.897-28.248.136-13.191-.705-31.46-2.903-37.24-8.878-9.676-10-11.136-17.8-9.676-36.406C33.496 80.579 57.253 55.63 63.054 49.87c5.801-5.767 12.707-11.249 12.707-11.249l33.474.074s5.945 3.05 9.78 6.59c12.016 11.094 24.65 24.41 31 64.78 0 0 2.699 28.226-3.728 33.634"/>
                <path fill="#D3AC5F" d="M130.38 148.896s-2.974.91-8.374 1.813c-3.63.653-7.255 1.147-10.842 1.501 11.456-5.173 29.14-15.94 30.419-33.48 0 0 5.343 17.652-11.204 30.166M54.594 149.647s2.973.908 8.373 1.812c3.63.654 6.788.934 10.376 1.29-11.456-5.174-28.673-15.729-29.953-33.269 0 0-5.342 17.653 11.204 30.167"/>
                <path fill="#DDAF52" d="M76.008 38.695h33.227s-19.474 2.242-33.227 0"/>
                <path fill="#D3AC5F" d="M88.289 39.193S71.419 52.88 63.92 62.964c0 0 6.113-18.727 17.338-24.27l7.03.499zM91.55 38.695s-3.462 7.369.934 19.157 2.522-19.032 2.522-19.032l-3.456-.125z"/>
                <path fill="#DDAF52" d="M101.117 38.695s15.757 9.215 22.943 22.423c0 0-3.564-12.18-14.825-22.423h-8.118z"/>
                <path fill="#470417" d="M95.605 100.326c2.014.142 3.67.986 4.341 2.225.424.777.442 2.35.028 3.07-.736 1.278-3.026 2.165-5.63 2.182l-.81.009v-3.747c0-2.067.029-3.781.065-3.815.037-.033.34-.033.672-.017.331.026.929.068 1.334.093zm-8.969-12.42v3.763h-.524c-.48-.009-.773-.05-1.463-.193-.276-.058-1.454-.493-1.509-.552a1.644 1.644 0 0 0-.322-.175c-.497-.234-1.39-1.07-1.71-1.606-.295-.494-.314-.578-.314-1.322 0-.577.056-.928.184-1.288.516-1.396 2.475-2.35 4.857-2.384l.801-.008v3.764zm0-13.258c0 1.982-.028 2.55-.11 2.55-.065 0-.58.043-1.15.084-1.288.1-2.75.41-3.662.762-.101.033-.45.167-.781.293-2.797 1.036-5.842 3.52-7.258 5.904-.304.527-.737 1.414-.81 1.69-.322 1.196-.377 2.158-.212 3.521.34 2.702 1.656 4.943 3.864 6.566.708.518.763.552 1.067.728.258.15 2.245 1.054 2.567 1.17.248.084.947.302 1.058.319.174.041.92.225 1.103.292.543.167 2.337.46 3.845.628l.479.058V107.837l-.754-.05c-.7-.043-1.822-.252-2.052-.377a.54.54 0 0 0-.138-.067c-.653-.117-2.474-1.364-2.622-1.798-.036-.092-.092-.16-.128-.16-.11 0-.69-1.112-.874-1.672l-.157-.46-3.771.025-3.772.017.056.527c.156 1.38.597 2.869 1.214 4.073.239.452.91 1.547 1.058 1.715.036.041.248.292.469.543.662.778 1.858 1.798 3.008 2.56.552.368 2.244 1.288 2.364 1.288.046 0 .23.075.405.159.312.15 1.536.527 2.428.753.57.142 1.73.259 2.539.259h.727V120.609h6.899l.018-2.777.028-2.786.782-.05c1.113-.075 3.137-.485 3.956-.803.073-.025.165-.058.202-.058a.395.395 0 0 0 .129-.067c.036-.042.12-.067.184-.067.147 0 1.49-.586 2.29-.995.359-.184.708-.369.782-.402.074-.033.184-.1.248-.142.065-.05.331-.226.589-.385.644-.393 2.033-1.514 2.456-1.982.184-.2.432-.477.552-.594.331-.351 1.214-1.673 1.49-2.233.957-1.94 1.224-4.149.727-6.022-.1-.368-.193-.745-.22-.837-.065-.234-1.012-1.966-1.215-2.208-1.775-2.124-3.698-3.43-6.513-4.383-1.269-.426-3.2-.794-4.553-.853a43.07 43.07 0 0 1-1.453-.092l-.48-.042.02-4.198.027-4.2.534.017c1.416.042 3.375.787 4.185 1.573.607.594.947 1.238 1.012 1.924l.046.543h7.938l-.036-.318c-.037-.392-.267-1.263-.479-1.856-1.297-3.597-4.056-6.616-7.359-8.047-1.223-.526-1.554-.652-2.161-.786-.047-.016-.405-.1-.791-.192a14.959 14.959 0 0 0-1.656-.26c-.525-.05-1.03-.108-1.114-.133-.156-.042-.165-.234-.165-2.426v-2.375h-6.899v2.551z"/>
                <path fill="#E8C067" d="M72.318 11.43s9.85-2.135 13.996-4.044c4.147-1.909 10.22-1.586 20.143 3.655L90.313 21.523 72.318 11.429z"/>
                <path fill="#CE9F4D" d="M72.318 12.982s11.553-3.3 15.848-5.305c4.295-2.006 13.552 1.165 18.29 5.305L99.2 22.43l-24.463 3.17-2.419-12.617z"/>
                <path fill="#E8C067" d="M118.936 11.364a20.49 20.49 0 0 1-.438 1.846c-.824 2.838-1.918 3.652-3.149 7.547a37.196 37.196 0 0 0-.662 2.35s-3.6 10.87-13.09 16.015H83.17s-1.043-.6-2.686-1.72c-2.575-1.763-6.617-4.81-10.41-8.85a46.916 46.916 0 0 1-3.799-4.569l-.006-.004c-.131-.088-5.224-3.532-4.792-6.404.412-2.743 2.38-2.553 5.435-5.058.07-.053.138-.112.207-.17.119-.097.237-.198.356-.304.48-.427 1-.824 1.574-1.183.05-.038.106-.072.163-.106a12.17 12.17 0 0 1 2.137-1.027c.956-.354 2.03-.62 3.243-.77a20.32 20.32 0 0 1 2.392-.15c2.056-.01 4.43.266 7.205.91l.18.044c.338.082.676.164 1.025.256.52.136 1.05.281 1.594.446.144.039.287.082.437.126 6.973 2.112 11.135.33 14.427-1.051h.007c.806-.334 1.55-.644 2.274-.872.768-.243 1.512-.383 2.256-.358.187.004.368.019.555.048 2.181.324 5.23-.145 7.717-.165.768-.014 1.475.024 2.087.136 1.593.29 2.555 1.094 2.187 3.037"/>
                <path fill="#D3AC5F" d="M118.936 11.365c-.139.706-.282 1.312-.438 1.845-.826 2.837-1.917 3.651-3.15 7.548 0 0 0 .003-.004.005a40.71 40.71 0 0 0-.656 2.343s-1.665 5.033-5.723 9.87c-1.903 2.27-4.333 4.5-7.367 6.147H96.53c-.656-12.91 2.093-22.712 5.322-29.586h.006c.806-.332 1.55-.643 2.274-.872.768-.24 1.512-.383 2.256-.359.187.005.368.021.558.05.83.127 1.79.13 2.804.093 1.624-.059 3.374-.248 4.91-.259.095 0 .194-.005.289-.005a10.2 10.2 0 0 1 1.798.142c1.594.29 2.555 1.094 2.188 3.038M91.144 39.122H83.17s-1.043-.601-2.686-1.72C78.279 30.16 74.374 19.12 69.05 10.86c.05-.039.106-.073.163-.106.643-.393 1.35-.737 2.137-1.027.956-.354 2.03-.62 3.243-.77a20.369 20.369 0 0 1 2.392-.15c2.056-.01 4.43.266 7.205.91 2.537 6.341 5.886 16.364 6.76 26.837.075.872.138 1.73.194 2.568"/>
                <path fill="#470417" d="M108.965 39.122h-33.5c-.904 0-1.645-.674-1.645-1.496v-.159c0-.823.74-1.496 1.645-1.496h33.5c.905 0 1.645.673 1.645 1.496v.159c0 .822-.74 1.496-1.645 1.496M108.828 35.971h-33.5c-.905 0-1.645-.673-1.645-1.496v-.159c0-.822.74-1.495 1.645-1.495h33.5c.905 0 1.645.673 1.645 1.495v.16c0 .822-.74 1.495-1.645 1.495"/>
                <path fill="#28030F" d="M75.464 35.971s15.61 2.617 33.227 0H75.464z"/>
                <path fill="#E8C067" d="M114.95 8.186c-5.817 7.455-10.51 17.415-10.51 17.415-.937-5.88 4.898-15.743 4.898-15.743.126-.495.263-.964.413-1.41 1.624-.058 3.374-.247 4.91-.257.095 0 .194-.005.289-.005"/>
                <path fill="#D3AC5F" d="M118.936 11.365a20.104 20.104 0 0 1-.436 1.846s-.218-2.186-1.58-3.496c-1.364-1.31-5.78.97-7.578.144-1.8-.827-6-.92-7.742.826-1.742 1.747-13.465 3.543-16.627 1.068-3.162-2.475-13.52-2.475-14.829-.29-1.308 2.182-4.634 3.202-6.596 5.434-1.936 2.203 2.606 6.96 2.724 7.083-.134-.09-5.225-3.53-4.796-6.404.437-2.911 2.617-2.523 5.997-5.532 3.38-3.008 9.05-4.755 19.953-1.455 10.903 3.3 14.937-2.912 19.517-2.233 4.579.68 12.975-2.135 11.993 3.009"/>
                <path fill="#470417" d="M105.023 38.086c-.178.084-.355.166-.529.253-.515.256-1.01.519-1.477.784a26.641 26.641 0 0 0-2.509 1.596c-7.39 5.369-7.101 11.728-7.101 13.063 0 1.564 1.593 3.535 0 4.11a2.71 2.71 0 0 1-.256.084h-.004c-1.465.438-2.616-.083-2.616-.083-4.399-7.66 2.306-14.813 6.111-18.031.33-.275.64-.528.912-.74a25.808 25.808 0 0 1 1.411-1.036h6.058z"/>
                <path fill="#470417" d="M123.179 70.072c-.174.202-.438.39-.743.538-.76.361-1.787.483-2.418-.02-.5-.396-.277-1.241-.305-1.769a27.192 27.192 0 0 0-.252-2.3 29.617 29.617 0 0 0-1.056-4.543c-.937-2.982-2.299-5.867-3.954-8.647-2.525-4.227-6.375-8.571-10.08-12.564-.198-.217-.4-.432-.603-.646-.289-.313-.582-.624-.87-.931-.021-.025-.046-.048-.062-.067-.326-.355-.652-.698-.97-1.037l-.446-.476c.557-.122 1.614.041 2.484.102.413.029.78.035 1.04-.02.124-.028.252-.053.38-.066h.004c.16-.023.318-.02.466.022.03.006.05.016.075.029h.004c.206.086.338.256.503.39l.025.02c.124.102.247.204.367.31.28.236.557.476.825.726.17.153.339.31.504.47 2.748 2.601 5.133 5.692 7.171 8.526 4.313 6.005 7.486 12.215 8.443 19.052.136.991.182 2.066-.532 2.901"/>
                <path fill="#28030F" d="M108.095 39.592c-1.162.659-2.437 1.022-3.724 1.177-.493-.533-.987-1.06-1.474-1.58a26.647 26.647 0 0 0-2.387 1.531 23.267 23.267 0 0 1-3.867-.857c.33-.276.637-.528.911-.741h10.042c.168.155.337.31.5.47"/>
                <path fill="#F29C1D" d="M155.256 153.387H130.4c-.42 0-.763-.312-.763-.694v-2.09c0-.382.343-.694.763-.694h24.857c.42 0 .764.312.764.693v2.091c0 .382-.344.694-.764.694"/>
                <path fill="#E98822" d="M154.181 153.365l-71.844.023 4.266-11.888 7.107-10.055 17.825-3.868z"/>
                <path fill="#FFD524" d="M128.35 140.48c0 6.623-5.906 11.993-13.19 11.993-7.286 0-13.192-5.37-13.192-11.993 0-6.624 5.906-11.994 13.191-11.994 7.285 0 13.19 5.37 13.19 11.994"/>
                <path fill="#E5970C" d="M125.96 140.479c0 .085-.003.169-.005.254-.152-5.305-4.927-9.56-10.796-9.56-5.87 0-10.646 4.255-10.797 9.56-.003-.085-.005-.17-.005-.254 0-5.423 4.836-9.82 10.802-9.82 5.965 0 10.8 4.397 10.8 9.82"/>
                <path fill="#FCB527" d="M125.955 140.733v.008c-.152 5.305-4.927 9.56-10.796 9.56-5.87 0-10.646-4.255-10.797-9.56v-.008c.151-5.305 4.926-9.56 10.797-9.56 5.87 0 10.644 4.255 10.796 9.56"/>
                <path fill="#FCF232" d="M125.96 140.995c0 5.423-4.836 9.82-10.8 9.82-5.967 0-10.803-4.397-10.803-9.82 0-.085.002-.17.005-.254.15 5.305 4.926 9.56 10.797 9.56 5.87 0 10.644-4.255 10.796-9.56.002.085.004.17.004.254"/>
                <path fill="#FFD524" d="M102.312 144.798c0 5.436-5.74 9.844-12.818 9.844-7.08 0-12.818-4.408-12.818-9.844 0-5.437 5.739-9.844 12.818-9.844s12.818 4.407 12.818 9.844"/>
                <path fill="#E5970C" d="M99.989 144.797c0 .07-.003.139-.005.209-.147-4.354-4.787-7.847-10.49-7.847-5.705 0-10.345 3.493-10.492 7.847-.002-.07-.005-.14-.005-.209 0-4.451 4.7-8.06 10.497-8.06 5.796 0 10.495 3.609 10.495 8.06"/>
                <path fill="#FCB527" d="M99.984 145.006v.006c-.147 4.354-4.787 7.847-10.49 7.847-5.705 0-10.345-3.493-10.492-7.847v-.006c.147-4.354 4.787-7.847 10.492-7.847 5.703 0 10.343 3.493 10.49 7.847"/>
                <path fill="#FCF232" d="M99.989 145.22c0 4.452-4.7 8.06-10.495 8.06-5.798 0-10.497-3.608-10.497-8.06 0-.069.003-.138.005-.208.147 4.354 4.787 7.846 10.492 7.846 5.703 0 10.343-3.492 10.49-7.846.002.07.005.14.005.209"/>
                <path fill="#444566" d="M133.05 135.287c.025-.02.052-.04.073-.063-.021.023-.048.042-.073.063zm-.69.29c.049-.01.102-.019.148-.031-.047.012-.099.02-.149.03zm-2.005-.004c.086.012.172.022.254.03l-.089-.01-.165-.02zm-.24-.03c.048.007.097.014.144.019l-.06-.008-.085-.01zm-.571-.088l-.097-.018a21.5 21.5 0 0 1-.446-.084l-.181-.038a21.539 21.539 0 0 1-.008-.003c.454.097.883.173 1.28.228l-.061-.008a15.41 15.41 0 0 1-.487-.077zm-1.899-.414l-.137-.036a31.334 31.334 0 0 1 .86.211l-.127-.029a31.632 31.632 0 0 1-.596-.146zm-1.472-.413c-.056-.016-.114-.036-.17-.052l.27.082-.08-.023a.612.612 0 0 0-.02-.007zm-.848-.267l-.01-.003.23.074-.066-.02-.154-.05zm-.732-.244l-.243-.086.387.135.087.029-.087-.03-.144-.048zm-.784-.276l-.134-.05.332.12-.154-.055-.044-.015zm-.841-.314l.261.098-.118-.044-.143-.054zm-.965-.378l.217.088a1.952 1.952 0 0 1-.05-.02l-.167-.068zm-.766-.314c-.027-.01-.053-.023-.08-.034l.322.134-.084-.034-.158-.066zm-.835-.356l-.02-.009.306.132-.082-.035c-.067-.03-.136-.058-.204-.088zm-1.526-.69l-.161-.075a64.882 64.882 0 0 1 .16.076zm-.951-.454l-.187-.093a51.602 51.602 0 0 0 .372.182l-.185-.09zm-.768-.383a63.678 63.678 0 0 1-1.357-.713l-.12-.065a48.222 48.222 0 0 0 1.478.777c.016.011.032.017.049.026.037.02.076.038.114.058l-.105-.053-.059-.03zm-4.085-2.32l.027.017a24.669 24.669 0 0 0-.027-.017zm-.597-.393c.116.08.238.158.359.237-.091-.06-.184-.12-.273-.18l-.086-.057zm-.528-.364c-.03-.02-.056-.04-.086-.062l.227.16-.125-.086-.016-.012zm-.526-.383l.114.085-.06-.044-.054-.041zm-2.591-2.693l-.014-.04.014.04zm24.398 10.283c.778-1.42-4.055-5.042-10.797-8.09-5.937-2.685-11.37-4.028-13.11-3.34-.178.07-.315.158-.413.27a1.086 1.086 0 0 0-.042.053c-.016.021-.03.047-.044.07l-.049.107-1.07 2.541c-.777 1.42 4.06 5.041 10.8 8.09 6.74 3.048 12.832 4.367 13.61 2.95l1.117-2.651c-.008.013-.02.025-.029.038.008-.013.02-.025.027-.038z" opacity=".28"/>
                <path fill="#F29C1D" d="M132.909 136.04l1.116-2.652c-.242.443-1.002.62-2.136.56a10.22 10.22 0 0 1-.894-.087 18.168 18.168 0 0 1-.656-.1c-.032-.004-.065-.012-.097-.017a21.588 21.588 0 0 1-1.064-.218c-.048-.011-.094-.02-.141-.032a26.762 26.762 0 0 1-.596-.146l-.137-.036c-.167-.044-.337-.09-.509-.138l-.172-.048a38.356 38.356 0 0 1-1.348-.408l-.155-.05c-.193-.063-.39-.128-.587-.196l-.145-.049a51.73 51.73 0 0 1-.74-.26l-.043-.016c-.231-.084-.464-.17-.699-.259l-.174-.066a57.268 57.268 0 0 1-.669-.26l-.098-.039a61.218 61.218 0 0 1-.775-.315l-.157-.067c-.21-.087-.42-.176-.631-.267l-.204-.089a54.717 54.717 0 0 1-1.735-.788 48.604 48.604 0 0 1-.558-.266l-.185-.09a57.866 57.866 0 0 1-1.4-.708l-.173-.092c-.186-.098-.37-.197-.551-.296-.04-.02-.08-.043-.12-.064-.223-.122-.441-.244-.655-.365l-.07-.04a45.41 45.41 0 0 1-.552-.32l-.14-.082c-.18-.107-.358-.214-.531-.32l-.059-.036c-.196-.121-.387-.242-.574-.362l-.085-.055c-.155-.1-.306-.2-.453-.297l-.119-.08a29.428 29.428 0 0 1-.48-.33l-.016-.012c-.162-.115-.319-.23-.471-.342l-.09-.068c-.122-.091-.239-.181-.352-.27l-.095-.075a15.284 15.284 0 0 1-.749-.633l-.074-.068a10.64 10.64 0 0 1-.261-.25c-.84-.828-1.241-1.531-1.081-2.017l-1.07 2.54c-.777 1.42 4.059 5.042 10.8 8.09 6.739 3.049 12.831 4.368 13.61 2.95"/>
                <path fill="#FFD524" d="M134.024 133.388a.72.72 0 0 1-.233.252.985.985 0 0 1-.167.1c-.091.044-.198.082-.314.112h-.003c-.358.095-.828.126-1.394.097a8.448 8.448 0 0 1-.319-.021c-.055-.004-.114-.01-.172-.017a4.808 4.808 0 0 1-.332-.038 18.018 18.018 0 0 1-1.483-.254 30.512 30.512 0 0 1-1.982-.493 42.988 42.988 0 0 1-1.613-.493l-.48-.16a57.409 57.409 0 0 1-5.117-2.034 58.706 58.706 0 0 1-2.413-1.155c-.016-.009-.033-.015-.049-.026a39.586 39.586 0 0 1-.805-.417c-.94-.495-1.82-.994-2.62-1.487-.019-.01-.037-.024-.059-.036-.197-.12-.388-.241-.574-.362l-.086-.055a17.72 17.72 0 0 1-.57-.377l-.245-.167a21.418 21.418 0 0 1-1.654-1.25 11.297 11.297 0 0 1-.387-.34c-.016-.014-.03-.029-.042-.041a5.277 5.277 0 0 1-.302-.288 6.877 6.877 0 0 1-.438-.476l-.055-.066v-.002a3.15 3.15 0 0 1-.473-.738 1.46 1.46 0 0 1-.067-.193.85.85 0 0 1-.007-.503l.049-.108c.014-.024.027-.049.044-.07l.042-.053c.097-.112.235-.2.412-.27 1.74-.689 7.174.655 13.11 3.34 6.742 3.047 11.575 6.67 10.798 8.09"/>
                <path fill="#FCF232" d="M132.367 132.107c-1.306-1.556-4.726-3.821-9.015-5.838-4.826-2.272-9.254-3.527-11.058-3.24 1.15-.801 5.88.306 11.066 2.655 5.193 2.345 9.02 5.104 9.007 6.423"/>
                <path fill="#FCB527" d="M130.553 132.843c-2.07-.104-5.668-1.164-9.519-2.906-3.691-1.67-6.697-3.547-8.115-4.967-.675-.672-.994-1.242-.861-1.638l.038-.09a.645.645 0 0 1 .198-.212c1.804-.288 6.232.967 11.058 3.239 4.289 2.017 7.709 4.282 9.015 5.838a.553.553 0 0 1-.068.271c-.198.365-.819.512-1.746.465"/>
                <path fill="#444566" d="M103.64 129.056c-7.373 0-13.35 5.434-13.35 12.137s5.977 12.137 13.35 12.137c7.372 0 13.348-5.434 13.348-12.137s-5.976-12.137-13.349-12.137" opacity=".28"/>
                <path fill="#F29C1D" d="M128.87 150.615v2.067c0 .021 0 .046-.004.068-.035.357-.356.637-.745.637h-24.883c-.389 0-.71-.28-.745-.637-.005-.022-.005-.047-.005-.068v-2.067c0-.388.338-.706.75-.706h24.883c.412 0 .75.318.75.706"/>
                <g transform="translate(131.97 137.008)">
                    <mask id="q" fill="#fff">
                        <use xlink:href="#p"/>
                    </mask>
                    <path fill="#444566" d="M25.604 12.453c.026-.028.054-.055.078-.083-.024.028-.052.055-.078.083zm.21-.257c.025-.035.055-.07.079-.107-.024.037-.054.072-.08.107zm-.447.49c.02-.018.041-.034.06-.052-.019.018-.04.034-.06.051zm-.339.266l.041-.03-.04.03zm-.264.166c.017-.009.033-.02.05-.03a.95.95 0 0 1-.05.03zm-1.396.564l.078-.022-.078.022zm-2.172.33c.033-.003.068-.003.101-.006-.033.003-.067.004-.101.005zm-.534.02l.114-.003-.114.002zM19.283 14l.096.005-.096-.005zm-1.368-.132l.259.033-.259-.033zm-.406-.056l.139.02-.139-.02zm-.55-.087l.152.026-.151-.026zm-.683-.126c.097.02.195.038.292.056-.098-.018-.195-.036-.292-.056zm-.557-.117l.296.063c-.1-.02-.197-.04-.296-.063zm-1.382-.345l.269.074-.267-.073h-.002zm-.576-.165l.14.04-.14-.04zm-1.16-.372l.205.069-.204-.068zm-1.832-.696l.088.037-.088-.037zm-.615-.265l.14.063c-.047-.02-.094-.042-.14-.063zm-1.662-.8l.203.105h-.002l-.2-.105zm-1.348-.756c.098.06.197.12.297.178l-.297-.178zm-.898-.567zM4.47 8.19l.17.144-.17-.144zm-1.014-.937l.136.136-.136-.136zm-.236-.249a2.528 2.528 0 0 0 0 0zm-.654-.777l.046.062-.046-.061zm-.243-.338l.035.05-.035-.05zm-.385-.632c.02.039.042.077.064.116-.022-.039-.044-.077-.064-.116zm-.282-.61l.017.041a1.098 1.098 0 0 1-.017-.041zm-.193-.673l.016.085c-.007-.029-.011-.057-.016-.085zm-.047-.328c0 .015.003.03.004.046 0-.016-.003-.031-.004-.046zm.101-1.047c-.007.024-.011.049-.018.073.007-.024.011-.049.018-.073zm14.751-.696C9.527-.722 2.977-.553 1.64 2.284L.546 4.606c-1.336 2.837 3.05 7.263 9.79 9.889 6.743 2.626 13.292 2.456 14.629-.377l1.094-2.326c1.336-2.836-3.046-7.263-9.79-9.889z" mask="url(#q)" opacity=".28"/>
                </g>
                <path fill="#F29C1D" d="M156.542 148.773l-.09.065c-.059.04-.12.079-.182.116l-.082.05c-.08.047-.162.09-.246.133l-.039.02c-.103.051-.21.1-.321.145l-.005.002a6.357 6.357 0 0 1-.327.123c-.026.01-.054.018-.08.026a6.074 6.074 0 0 1-.379.114 7.669 7.669 0 0 1-.27.07l-.114.025c-.094.022-.19.041-.288.059l-.11.021c-.112.02-.226.038-.342.054l-.07.01c-.143.02-.289.037-.437.052l-.033.002c-.133.013-.27.023-.407.032l-.146.008a11.654 11.654 0 0 1-.489.017c-.095.002-.192.003-.29.003l-.196-.001a18.814 18.814 0 0 1-.288-.006l-.206-.007-.302-.015-.2-.011c-.14-.01-.28-.02-.423-.034l-.273-.026-.31-.033-.258-.033a24.207 24.207 0 0 1-.805-.117 20.619 20.619 0 0 1-.544-.096c-.097-.018-.194-.036-.29-.056a23.273 23.273 0 0 1-.262-.054c-.099-.021-.197-.04-.296-.063-.093-.02-.187-.043-.281-.065a29.09 29.09 0 0 1-.518-.126l-.294-.075c-.095-.025-.191-.052-.287-.079a22.66 22.66 0 0 1-.874-.256 30.566 30.566 0 0 1-1.22-.407l-.226-.08a32.117 32.117 0 0 1-1.162-.453l-.243-.102c-.107-.046-.214-.091-.32-.138-.094-.04-.186-.082-.278-.123l-.272-.124c-.098-.045-.195-.09-.29-.136l-.244-.117c-.1-.049-.2-.097-.297-.147-.074-.036-.146-.074-.22-.111a18.679 18.679 0 0 1-.304-.158c-.055-.028-.108-.058-.162-.087a26.1 26.1 0 0 1-.687-.382l-.098-.055-.298-.178-.179-.108a23.012 23.012 0 0 1-.905-.585l-.245-.168-.185-.132c-.077-.056-.155-.11-.23-.166-.065-.048-.127-.096-.19-.144a19.156 19.156 0 0 1-.335-.26c-.078-.061-.157-.124-.233-.186l-.171-.144a13.513 13.513 0 0 1-.196-.167c-.056-.049-.11-.097-.163-.146a25.224 25.224 0 0 1-.519-.489 11.394 11.394 0 0 1-.318-.327c-.038-.04-.077-.08-.114-.121a9.702 9.702 0 0 1-.216-.244l-.059-.07a8.994 8.994 0 0 1-.253-.312c-.023-.029-.043-.058-.065-.087a8.828 8.828 0 0 1-.167-.226l-.077-.113a7.619 7.619 0 0 1-.32-.515l-.065-.116a4.604 4.604 0 0 1-.102-.201c-.017-.036-.035-.071-.051-.107a4.934 4.934 0 0 1-.1-.234l-.029-.069a4.16 4.16 0 0 1-.101-.295c-.01-.03-.016-.06-.024-.09a4.028 4.028 0 0 1-.052-.202c-.009-.04-.015-.079-.022-.118a3.467 3.467 0 0 1-.041-.295c-.044-.482.025-.94.224-1.362l-1.095 2.322c-1.336 2.837 3.05 7.263 9.79 9.889 6.743 2.626 13.292 2.456 14.629-.378l1.094-2.325c-.2.426-.52.79-.94 1.095"/>
                <path fill="#FFD524" d="M157.482 147.678c-.19.4-.482.745-.862 1.04-2.321 1.788-7.97 1.595-13.764-.659-5.793-2.258-9.845-5.844-10.025-8.607a2.569 2.569 0 0 1 .232-1.282c1.337-2.837 7.887-3.006 14.63-.38 6.743 2.625 11.126 7.051 9.79 9.888"/>
                <path fill="#FCF232" d="M155.831 144.511c-1.09-1.806-3.744-3.766-7.205-5.113-5.21-2.03-10.269-1.898-11.302.293-.145.31-.203.64-.18.99.017.265.082.538.187.82-.32-.53-.503-1.044-.535-1.526-.024-.35.034-.683.179-.992 1.033-2.19 6.092-2.321 11.302-.295 3.917 1.526 6.802 3.839 7.554 5.823"/>
                <path fill="#FCB527" d="M155.84 146.331a2.237 2.237 0 0 1-.665.802c-1.794 1.382-6.158 1.234-10.635-.51-3.463-1.35-6.12-3.314-7.21-5.122a2.867 2.867 0 0 1-.185-.82 1.994 1.994 0 0 1 .179-.99c1.033-2.191 6.092-2.323 11.303-.293 3.46 1.347 6.115 3.307 7.204 5.113.25.656.265 1.277.01 1.82"/>
                <path fill="#444566" d="M117.259 136.925a6.046 6.046 0 0 1 0 0zm.021.369a6.721 6.721 0 0 1 0 0zm.113.765c.014.07.028.14.044.212-.016-.071-.03-.141-.044-.212zm.098.423v-.002c.005.022.01.045.017.067a4.965 4.965 0 0 0-.017-.065zm.162.552c.011.036.026.072.038.109v-.001c-.012-.036-.027-.072-.038-.108zm.142.397l.033.083-.033-.083zm.163.4v-.002c.018.044.038.088.058.131-.02-.043-.04-.087-.058-.13zm.39.81v-.001c.02.041.043.082.065.123l-.066-.123zm.226.41l.068.115-.068-.116zm.25.415v-.001c.02.034.042.068.064.102l-.064-.101zm.275.423l.054.08v-.001c-.019-.026-.036-.053-.054-.08zm2.877 3.257c.033.03.066.06.1.088h-.001l-.099-.088zm.427.374l.112.095-.112-.095zm.962.774l.07.053-.07-.053zm.426.316l-.001-.001c.03.02.058.042.088.063a6.939 6.939 0 0 1-.087-.062zm.514.36l-.004-.001.082.056a12.904 12.904 0 0 0-.078-.054zm-7.016-10.826zm-.007.066c-.006.06-.01.12-.014.181.005-.06.008-.121.014-.18zm-.023.354c-.003.083-.004.166-.003.25 0-.084 0-.167.003-.25zm6.143 13.5c5.67 3.622 11.997 4.283 14.87 1.727.262-.229.494-.489.698-.776.15-.213.271-.438.379-.669l1.139-2.015c2.409-3.425-.657-9.41-6.847-13.365-6.19-3.952-13.16-4.38-15.568-.952a4.497 4.497 0 0 0-.425.762l-1.027 1.84c-.021.028-.046.053-.066.082-.2.287-.363.592-.49.914-1.38 3.505 1.667 8.832 7.337 12.451z" opacity=".28"/>
                <path fill="#FFD524" d="M116.232 137.915c0 6.624-5.906 11.993-13.191 11.993-7.285 0-13.191-5.37-13.191-11.993 0-6.624 5.906-11.994 13.19-11.994 7.286 0 13.192 5.37 13.192 11.994"/>
                <path fill="#E5970C" d="M113.841 137.914c0 .085-.002.17-.004.254-.151-5.304-4.927-9.56-10.796-9.56-5.87 0-10.646 4.256-10.797 9.56-.003-.085-.005-.17-.005-.254 0-5.423 4.836-9.82 10.802-9.82 5.964 0 10.8 4.397 10.8 9.82"/>
                <path fill="#FCB527" d="M113.837 138.168v.009c-.152 5.304-4.927 9.559-10.796 9.559-5.87 0-10.646-4.255-10.797-9.56v-.008c.151-5.305 4.926-9.56 10.797-9.56 5.869 0 10.644 4.255 10.796 9.56"/>
                <path fill="#FCF232" d="M113.841 138.43c0 5.424-4.836 9.82-10.8 9.82-5.966 0-10.802-4.396-10.802-9.82 0-.085.002-.169.005-.253.15 5.304 4.926 9.56 10.797 9.56 5.87 0 10.645-4.256 10.796-9.56.002.084.004.168.004.254"/>
                <path fill="#F29C1D" d="M116.55 136.287a4.06 4.06 0 0 1 .476-.845c.02-.026.043-.05.063-.075l.996-1.7c-.025.045-.042.093-.064.141a4.17 4.17 0 0 0-.292 1.184c-.008.08-.013.161-.018.242-.001.029-.003.056-.003.085-.003.076-.004.154-.003.231a5.888 5.888 0 0 0 .014.325 5.665 5.665 0 0 0 .034.334c.004.044.012.088.019.132.01.069.021.139.034.209.01.05.02.1.032.15.013.064.026.13.042.195.016.065.034.13.052.195.014.052.027.104.043.156.034.117.072.235.114.354.011.033.025.066.037.1.032.088.065.177.1.266l.049.115c.035.084.07.169.11.254.017.04.037.08.055.12.04.084.08.168.123.252l.06.119c.045.085.091.172.138.257l.064.113c.05.089.103.178.156.266l.065.106a12.965 12.965 0 0 0 .444.668l.052.073c.078.11.16.22.243.329l.032.042a16.232 16.232 0 0 0 1.681 1.86l.052.05c.108.102.217.203.328.304l.08.07c.104.095.21.188.318.28l.095.081c.105.089.211.177.318.265l.108.086a20.958 20.958 0 0 0 .77.588l.121.09c.114.08.23.162.345.241a23.876 23.876 0 0 0 .498.334l.103.068a23.29 23.29 0 0 0 1.528.903l.069.036c.324.173.648.34.974.494.04.02.082.036.122.055.308.144.616.283.924.41.051.022.103.039.154.06.297.12.594.236.889.34.065.023.13.041.194.064.281.096.562.19.84.27.08.025.16.042.24.065.26.073.52.145.778.205.098.023.193.039.29.06.237.051.474.103.707.143.116.02.229.032.344.05.21.031.42.065.627.087.133.015.263.02.395.031.181.015.365.033.543.04.15.007.294.004.44.005.154 0 .31.005.46.001.164-.005.32-.02.479-.032.126-.01.255-.015.379-.029.171-.02.336-.05.501-.077.103-.017.208-.03.308-.05.175-.036.34-.083.507-.128.082-.023.169-.041.25-.066.17-.054.332-.119.493-.184.067-.027.139-.05.204-.078a5.6 5.6 0 0 0 .463-.239c.056-.031.116-.058.17-.09a4.9 4.9 0 0 0 .415-.29c.067-.052.142-.097.206-.151.253-.211.479-.451.676-.717l-1.104 1.86a3.979 3.979 0 0 1-.367.619 4.146 4.146 0 0 1-.675.716c-2.782 2.36-8.91 1.75-14.4-1.595-5.491-3.343-8.443-8.262-7.106-11.498"/>
                <path fill="#FFD524" d="M125.127 145.306c5.442 3.316 11.509 3.947 14.326 1.653.025-.016.05-.038.074-.057.254-.211.479-.451.676-.717 2.332-3.163-.637-8.69-6.63-12.342-5.995-3.65-12.745-4.046-15.077-.88-.161.224-.299.458-.411.704-.025.045-.043.093-.064.14-.112.276-.197.56-.246.858-.573 3.201 2.325 7.583 7.352 10.64"/>
                <path fill="#FCF232" d="M120.829 133.907c1.91-2.571 7.404-2.243 12.282.727 4.596 2.8 7.011 6.956 5.697 9.583 1.899-2.577-.521-7.082-5.406-10.059-4.885-2.974-10.388-3.298-12.29-.717-.109.15-.202.305-.283.466"/>
                <path fill="#FCB527" d="M126.518 143.505c4.436 2.701 9.383 3.215 11.68 1.347a3.356 3.356 0 0 0 .61-.633c.002-.002 0-.002 0-.002 1.315-2.627-1.101-6.783-5.697-9.583-4.878-2.97-10.372-3.298-12.283-.727l-.05.107c-.021.039-.035.077-.052.117-.093.224-.16.455-.202.698-.466 2.61 1.896 6.18 5.994 8.676"/>
                <path fill="#FFF" d="M89.049 136.916s.239 2.998-3.345 3.128c0 0 3.352.478 3.348 3.173 0 0 .38-2.912 3.486-3.15 0 0-3.441-.153-3.489-3.151M140.115 142.96s.27 3.391-3.785 3.54c0 0 3.793.54 3.79 3.588 0 0 .428-3.294 3.943-3.564 0 0-3.894-.173-3.948-3.565"/>
            </g>
            <g font-family="NotoSerifCJKtc-Bold, Noto Serif CJK TC" font-weight="bold">
                <text fill="#F05050" font-size="50" transform="translate(182.782 155.766)">
                    <tspan x="0" y="58">0.5%</tspan>
                </text>
                <text fill="#430000" font-size="18" transform="translate(182.782 155.766)">
                    <tspan x="15" y="62">刷卡金回饋</tspan>
                </text>
            </g>
        </g>
    </g>
</svg>
