<svg xmlns="http://www.w3.org/2000/svg" xmlns:xlink="http://www.w3.org/1999/xlink" width="343" height="514" viewBox="0 0 343 514">
    <defs>
        <radialGradient id="a" cx="48.145%" r="43.241%" fx="48.145%" fy="50%" gradientTransform="matrix(0 1 -.64762 0 .805 .019)">
            <stop offset="0%"/>
            <stop offset="21.045%" stop-opacity=".862"/>
            <stop offset="100%" stop-opacity="0"/>
        </radialGradient>
        <path id="b" d="M.012.05h91.197v87.926H.012z"/>
        <path id="d" d="M.012.05h91.197v87.926H.012z"/>
        <path id="f" d="M.329.05h441.388v20.504H.33z"/>
        <path id="h" d="M.012.05h83.014v18.68H.012z"/>
        <radialGradient id="j" cy="0%" r="100%" fx="50%" fy="0%" gradientTransform="matrix(0 1 -.3658 0 .5 -.5)">
            <stop offset="0%"/>
            <stop offset="100%" stop-opacity="0"/>
        </radialGradient>
        <path id="k" d="M0 .172h165.378v15.026H0z"/>
        <path id="m" d="M.01.172h149.374v15.026H.011z"/>
        <linearGradient id="o" x1="100%" x2="71.812%" y1="36.73%" y2="73.435%">
            <stop offset="0%" stop-color="#8B4F25"/>
            <stop offset="100%" stop-color="#522B17"/>
        </linearGradient>
        <linearGradient id="p" x1="53.573%" x2="50%" y1="9.204%" y2="80.566%">
            <stop offset="0%" stop-color="#F5F5F5" stop-opacity="0"/>
            <stop offset="26.708%" stop-color="#FAFAFA" stop-opacity=".355"/>
            <stop offset="56.601%" stop-color="#FFF" stop-opacity=".98"/>
            <stop offset="100%" stop-color="#FFE99A" stop-opacity=".887"/>
        </linearGradient>
        <path id="q" d="M0 0h140.739v68.712H0z"/>
        <path id="s" d="M61.213 4.71L29.285 1.573 18.324 5.652l-7.522-.593L8.153 6 7.75 7.083 6.192 8.335l-2.63.555-2.412 2.405-.884 4.396 25.32 4.636h3.486l2.833-2.858 8.164.87 8.537-1.986 29.46 3.887 11.124-3.224 7.696-2.045 7.752.197 4.664-2.51 10.333-.214 5.203-2.302-1.126-1.771-4.179-1.386-1.597-1.31-.109-1.468-3.934-1.85-4.097.593-8.024-2.789z"/>
        <path id="u" d="M61.213 4.71L29.285 1.573 18.324 5.652l-7.522-.593L8.153 6 7.75 7.083 6.192 8.335l-2.63.555-2.412 2.405-.884 4.396 25.32 4.636h3.486l2.833-2.858 8.164.87 8.537-1.986 29.46 3.887 11.124-3.224 7.696-2.045 7.752.197 4.664-2.51 10.333-.214 5.203-2.302-1.126-1.771-4.179-1.386-1.597-1.31-.109-1.468-3.934-1.85-4.097.593-8.024-2.789"/>
        <path id="w" d="M61.213 4.71L29.285 1.573 18.324 5.652l-7.522-.593L8.153 6 7.75 7.083 6.192 8.335l-2.63.555-2.412 2.405-.884 4.396 25.32 4.636h3.486l2.833-2.858 8.164.87 8.537-1.986 29.46 3.887 11.124-3.224 7.696-2.045 7.752.197 4.664-2.51 10.333-.214 5.203-2.302-1.126-1.771-4.179-1.386-1.597-1.31-.109-1.468-3.934-1.85-4.097.593-8.024-2.789z"/>
        <path id="y" d="M61.213 4.71L29.285 1.573 18.324 5.652l-7.522-.593L8.153 6 7.75 7.083 6.192 8.335l-2.63.555-2.412 2.405-.884 4.396 25.32 4.636h3.486l2.833-2.858 8.164.87 8.537-1.986 29.46 3.887 11.124-3.224 7.696-2.045 7.752.197 4.664-2.51 10.333-.214 5.203-2.302-1.126-1.771-4.179-1.386-1.597-1.31-.109-1.468-3.934-1.85-4.097.593-8.024-2.789z"/>
        <path id="A" d="M61.213 4.71L29.285 1.573 18.324 5.652l-7.522-.593L8.153 6 7.75 7.083 6.192 8.335l-2.63.555-2.412 2.405-.884 4.396 25.32 4.636h3.486l2.833-2.858 8.164.87 8.537-1.986 29.46 3.887 11.124-3.224 7.696-2.045 7.752.197 4.664-2.51 10.333-.214 5.203-2.302-1.126-1.771-4.179-1.386-1.597-1.31-.109-1.468-3.934-1.85-4.097.593-8.024-2.789z"/>
        <path id="C" d="M61.213 4.71L29.285 1.573 18.324 5.652l-7.522-.593L8.153 6 7.75 7.083 6.192 8.335l-2.63.555-2.412 2.405-.884 4.396 25.32 4.636h3.486l2.833-2.858 8.164.87 8.537-1.986 29.46 3.887 11.124-3.224 7.696-2.045 7.752.197 4.664-2.51 10.333-.214 5.203-2.302-1.126-1.771-4.179-1.386-1.597-1.31-.109-1.468-3.934-1.85-4.097.593-8.024-2.789z"/>
        <path id="E" d="M61.213 4.71L29.285 1.573 18.324 5.652l-7.522-.593L8.153 6 7.75 7.083 6.192 8.335l-2.63.555-2.412 2.405-.884 4.396 25.32 4.636h3.486l2.833-2.858 8.164.87 8.537-1.986 29.46 3.887 11.124-3.224 7.696-2.045 7.752.197 4.664-2.51 10.333-.214 5.203-2.302-1.126-1.771-4.179-1.386-1.597-1.31-.109-1.468-3.934-1.85-4.097.593-8.024-2.789z"/>
        <path id="G" d="M61.213 4.71L29.285 1.573 18.324 5.652l-7.522-.593L8.153 6 7.75 7.083 6.192 8.335l-2.63.555-2.412 2.405-.884 4.396 25.32 4.636h3.486l2.833-2.858 8.164.87 8.537-1.986 29.46 3.887 11.124-3.224 7.696-2.045 7.752.197 4.664-2.51 10.333-.214 5.203-2.302-1.126-1.771-4.179-1.386-1.597-1.31-.109-1.468-3.934-1.85-4.097.593-8.024-2.789z"/>
        <path id="I" d="M61.213 4.71L29.285 1.573 18.324 5.652l-7.522-.593L8.153 6 7.75 7.083 6.192 8.335l-2.63.555-2.412 2.405-.884 4.396 25.32 4.636h3.486l2.833-2.858 8.164.87 8.537-1.986 29.46 3.887 11.124-3.224 7.696-2.045 7.752.197 4.664-2.51 10.333-.214 5.203-2.302-1.126-1.771-4.179-1.386-1.597-1.31-.109-1.468-3.934-1.85-4.097.593-8.024-2.789z"/>
        <path id="K" d="M61.213 4.71L29.285 1.573 18.324 5.652l-7.522-.593L8.153 6 7.75 7.083 6.192 8.335l-2.63.555-2.412 2.405-.884 4.396 25.32 4.636h3.486l2.833-2.858 8.164.87 8.537-1.986 29.46 3.887 11.124-3.224 7.696-2.045 7.752.197 4.664-2.51 10.333-.214 5.203-2.302-1.126-1.771-4.179-1.386-1.597-1.31-.109-1.468-3.934-1.85-4.097.593-8.024-2.789z"/>
        <path id="M" d="M61.213 4.71L29.285 1.573 18.324 5.652l-7.522-.593L8.153 6 7.75 7.083 6.192 8.335l-2.63.555-2.412 2.405-.884 4.396 25.32 4.636h3.486l2.833-2.858 8.164.87 8.537-1.986 29.46 3.887 11.124-3.224 7.696-2.045 7.752.197 4.664-2.51 10.333-.214 5.203-2.302-1.126-1.771-4.179-1.386-1.597-1.31-.109-1.468-3.934-1.85-4.097.593-8.024-2.789"/>
        <path id="O" d="M0 88.745h126.437V.245H0z"/>
        <path id="Q" d="M0 .42h35.397v29.794H0z"/>
    </defs>
    <g fill="none" fill-rule="evenodd">
        <g transform="matrix(-1 0 0 1 480.192 405)">
            <ellipse cx="509.496" cy="104.573" fill="url(#a)" opacity=".141" rx="509.496" ry="5.622"/>
            <path fill="#854645" d="M744.208 102.55l-21.64-94.017 18.428-1.337 14.14 95.353zM328.328 102.55l21.64-94.017-18.428-1.337-14.14 95.353z"/>
            <path fill="#000" d="M676.2 2.699h85.56V0H676.2z"/>
            <path fill="#8E5F35" d="M676.2 7.646h85.56V2.7H676.2z"/>
            <path fill="#000" d="M685.032 2.699h76.728V0h-76.728z"/>
            <path fill="#9B7757" d="M685.032 7.646h76.728V2.7h-76.728z"/>
            <path fill="#D8B290" d="M243.432 2.699H761.76V0H243.432z"/>
            <path fill="#CE9F74" d="M243.432 7.646H761.76V2.7H243.432z"/>
            <path fill="#854645" d="M659.64 5.434l22.439 97.565h11.785L679.006 4.048zM243.432 102.55h11.786l22.438-97.566-19.363-1.386z"/>
            <path fill="#FCD5B1" d="M231.288 87.976c22.96 0 22.96-7.505 45.92-7.505 22.962 0 22.962 7.505 45.92 7.505 22.958 0 22.958-7.505 45.916-7.505 22.957 0 22.957 7.505 45.915 7.505 22.957 0 22.957-7.505 45.914-7.505s22.957 7.505 45.912 7.505c22.96 0 22.96-7.505 45.916-7.505 22.958 0 22.958 7.505 45.913 7.505 22.959 0 22.959-7.505 45.916-7.505 22.957 0 22.957 7.505 45.916 7.505L680.076.05H241.658l-10.37 87.926z"/>
            <path fill="#E7BE98" d="M293.055 16.567c-.717 12.575-.197 25.069-2.239 37.626-1.452 8.944-2.828 17.894-3.611 26.867 8.803 1.14 13.296 3.69 20.493 5.356.006-8.195-.492-16.39-1.138-24.481-1.222-15.351-4.26-31.117-13.505-45.368M373.96 80.603c12.566.683 17.239 3.947 25.93 5.896-.126-9.364-.757-18.727-3.004-27.892-3.61-14.704-11.576-28.705-20.967-42.21-2.133 11.656.227 23.35-.058 35.05-.235 9.73-1.283 19.437-1.901 29.156M483.534 59.524c-3.232-13.898-6.778-27.447-19.569-38.97 1.722 20.013 2.393 40.05 2.61 60.092 10.363.669 15.243 3.129 21.874 5.018-1.237-8.74-2.895-17.456-4.915-26.14M585.771 61.692c-3.895-7.578-8.942-14.873-14.406-22.016-3.926-5.133-7.475-12.357-14.493-16.169-1.77 19.008-.53 38.03-.06 57.052 17.687.782 20.05 6.573 37.797 7.335-1.926-8.873-4.451-17.668-8.838-26.202M676.557 86.75c-1.45-9.584-4.649-18.878-8.41-28.354-2.63-6.62-5.578-12.995-9.54-19.326-2.542-4.066-4.383-8.936-9.376-12.046 1.41 4.064 3.746 7.963 4.955 12.06 1.366 4.628 1.555 9.518 1.557 14.224.001 9.213-1.695 18.37-3.332 27.512 10.908 1.042 15.422 4.174 24.146 5.93"/>
            <g transform="translate(680.064)">
                <mask id="c" fill="#fff">
                    <use xlink:href="#b"/>
                </mask>
                <path fill="#D3D2D2" d="M.012.05h81.616l9.581 87.926c-10.101 0-10.101-2.502-20.205-2.502-10.103 0-10.103 2.502-20.206 2.502-10.105 0-10.105-2.502-20.208-2.502-10.105 0-10.105 2.502-20.208 2.502L.012.05z" mask="url(#c)"/>
            </g>
            <g transform="translate(680.064)">
                <mask id="e" fill="#fff">
                    <use xlink:href="#d"/>
                </mask>
                <path fill="#E7BE98" d="M.012.05h81.616l9.581 87.926c-10.101 0-10.101-2.502-20.205-2.502-10.103 0-10.103 2.502-20.206 2.502-10.105 0-10.105-2.502-20.208-2.502-10.105 0-10.105 2.502-20.208 2.502L.012.05z" mask="url(#e)"/>
            </g>
            <path fill="#D9AF87" d="M722.603 69.007c-4.556-8.873-6.546-18.222-11.643-26.975-1.458 4.165.021 8.704.95 12.85 1.214 5.426 2.317 10.844 3.733 16.253 1.291 4.938 2.01 10.036 3.017 15.097 3.441.736 5.786 1.744 12.201 1.744 1.232 0 2.314-.037 3.283-.103-4.747-6.014-8.28-12.519-11.541-18.866M746.12 35.095c-.571 10.028 5.866 43.809 10.329 50.685 3.924.504 5.873 1.498 9.984 1.954-2.28-2.434-18.36-47.951-20.313-52.639"/>
            <g transform="translate(240.12)">
                <mask id="g" fill="#fff">
                    <use xlink:href="#f"/>
                </mask>
                <path fill="#642323" d="M1.538.05h438.417l1.762 14.94-245.63 5.564L.328 10.302z" mask="url(#g)"/>
            </g>
            <path fill="#FFDE17" d="M437.832 20.616c-.086 0-.165-.036-.193-.09l-2.668-5.12v5.038c0 .065-.073.121-.172.132-.103.01-.196-.028-.227-.091l-2.448-4.97v4.78c0 .066-.076.123-.179.131-.104.012-.197-.032-.223-.097l-1.94-4.62v4.463c0 .066-.074.122-.175.132-.096.01-.195-.03-.225-.093l-2.191-4.714v4.54c0 .066-.078.124-.18.131-.097.011-.198-.034-.222-.1l-1.645-4.454v4.314c0 .068-.076.125-.179.133-.096.009-.198-.033-.223-.098l-1.838-4.56v4.409c0 .063-.07.118-.164.131-.095.013-.19-.022-.23-.08l-3.178-5.006v4.767c0 .064-.068.119-.164.132-.096.013-.192-.021-.229-.08l-3.188-5.008v4.769c0 .065-.07.12-.17.132-.103.01-.194-.026-.225-.088l-2.617-4.858v4.657c0 .066-.076.123-.179.132-.104.01-.197-.035-.223-.099l-1.862-4.568v4.415c0 .067-.07.123-.172.133-.098.01-.195-.03-.225-.092l-2.295-4.751v4.57c0 .067-.075.124-.176.132-.104.01-.197-.033-.225-.097l-1.903-4.591v4.435c0 .065-.07.12-.169.131-.097.01-.192-.023-.227-.084l-2.805-4.913v4.698c0 .069-.08.126-.182.134-.101.007-.199-.037-.222-.104l-1.517-4.375v4.244c0 .067-.074.123-.174.133-.1.008-.197-.03-.227-.095l-2.152-4.698v4.527c0 .064-.07.118-.164.131-.098.012-.194-.021-.23-.08l-3.16-5.002v4.765c0 .065-.07.119-.167.13-.1.013-.194-.022-.229-.083l-2.905-4.939v4.72c0 .065-.074.122-.175.132-.106.007-.197-.032-.225-.096l-2.055-4.66v4.494c0 .063-.068.119-.166.132-.094.014-.19-.022-.227-.08l-3.173-5.006v4.768c0 .066-.076.122-.179.132-.106.012-.197-.032-.223-.097l-1.94-4.607v4.45c0 .066-.074.122-.175.132-.098.008-.195-.032-.225-.095l-2.113-4.683v4.513c0 .065-.07.12-.166.132-.096.011-.194-.023-.228-.084l-2.893-4.936v4.716c0 .065-.07.12-.168.131-.096.012-.193-.023-.228-.083l-2.893-4.935v4.715c0 .065-.07.12-.166.132-.1.012-.194-.024-.228-.085l-2.862-4.928v4.71c0 .064-.071.12-.17.132-.096.014-.193-.024-.227-.086l-2.701-4.883v4.675c0 .066-.071.121-.17.133-.102.009-.196-.028-.228-.089l-2.522-4.83v4.633c0 .067-.076.125-.18.133-.1.009-.197-.034-.222-.1l-1.789-4.532v4.384c0 .067-.076.125-.178.132-.106.009-.2-.033-.226-.098l-1.763-4.521v4.374c0 .064-.072.12-.17.132-.097.01-.193-.024-.226-.085l-2.837-4.92v4.704c0 .065-.073.122-.174.133-.097.01-.195-.03-.225-.093l-2.298-4.754V16.2c0 .065-.072.122-.171.133-.103.01-.194-.028-.225-.088l-2.623-4.86v4.657c0 .066-.072.121-.17.131-.1.011-.195-.025-.228-.087l-2.61-4.855v4.654c0 .065-.073.121-.172.132-.1.012-.194-.028-.227-.09l-2.442-4.804v4.612c0 .065-.07.12-.166.133-.096.011-.194-.023-.228-.084l-2.902-4.938v4.717c0 .066-.073.122-.172.132-.103.011-.195-.028-.227-.09l-2.365-4.778v4.592c0 .064-.068.118-.164.131-.094.013-.192-.02-.228-.08l-3.138-4.997v4.76c0 .067-.073.122-.17.133-.105.01-.195-.026-.228-.088l-2.608-4.856v4.654c0 .066-.074.123-.174.133-.097.011-.197-.03-.225-.094l-2.23-4.728v4.552c0 .066-.077.123-.178.132-.107.01-.197-.033-.225-.098l-1.914-4.595v4.438c0 .066-.073.123-.17.133-.099.012-.195-.026-.23-.087l-2.659-4.871v4.666c0 .067-.078.124-.179.133-.11.01-.2-.036-.223-.1l-1.688-4.48v4.337c0 .066-.073.122-.169.133-.1.01-.195-.028-.228-.09l-2.55-4.837v4.64c0 .067-.075.123-.176.133-.106.008-.199-.032-.225-.097l-1.974-4.623v4.463c0 .068-.078.126-.18.133-.107.006-.201-.038-.224-.104l-1.502-4.364v4.235c0 .064-.07.12-.168.131-.096.013-.192-.024-.226-.083l-2.882-4.933v4.714c0 .063-.068.118-.164.131-.096.012-.19-.022-.228-.081l-3.148-5v4.764c0 .063-.07.119-.166.132-.096.012-.192-.023-.229-.082l-3.043-4.975v4.746c0 .065-.075.122-.176.132-.096.01-.197-.032-.227-.095l-2.15-4.698v4.526c0 .066-.075.124-.176.133-.101.01-.197-.032-.227-.094l-2.143-4.695v4.523c0 .065-.071.121-.17.132-.102.01-.194-.027-.23-.088l-2.602-4.854v4.653c0 .069-.08.125-.183.133-.104.008-.198-.038-.221-.105L294.97 8.93v4.181c0 .069-.078.125-.182.133-.103.007-.199-.036-.222-.102l-1.517-4.376v4.244c0 .068-.076.125-.177.133-.1.012-.197-.033-.225-.097l-1.926-4.6v4.443c0 .064-.07.118-.166.131-.093.013-.19-.02-.227-.08l-3.148-4.998v4.76c0 .067-.071.122-.169.133-.096.014-.192-.025-.227-.087l-2.699-4.882v4.675c0 .065-.073.122-.172.132-.103.01-.196-.028-.227-.09l-2.348-4.772v4.586c0 .068-.08.126-.182.133-.11.009-.2-.037-.222-.104l-1.477-4.346v4.218c0 .07-.08.126-.183.134-.106.006-.198-.037-.221-.103l-1.484-4.353V12.2c0 .068-.078.127-.182.132-.1.008-.2-.037-.222-.103l-1.436-4.32v4.194c0 .066-.071.122-.169.134-.103.01-.195-.028-.229-.088l-2.586-4.85v4.648c0 .066-.075.123-.176.132-.1.01-.197-.03-.225-.095l-2.062-4.66v4.494c0 .066-.076.124-.177.132-.1.012-.197-.031-.225-.096l-1.93-4.602v4.445c0 .065-.072.12-.17.132-.1.009-.195-.028-.227-.089l-2.527-4.83v4.633c0 .068-.076.126-.18.133-.101.009-.199-.037-.224-.104l-1.518-4.376v4.246c0 .065-.07.12-.164.131-.098.012-.194-.021-.229-.08l-3.093-4.987v4.754c0 .067-.075.124-.178.132-.104.011-.197-.032-.223-.097l-1.901-4.59v4.435c0 .065-.075.121-.172.132-.103.012-.197-.03-.227-.092l-2.31-4.758v4.576c0 .064-.07.118-.164.13-.101.015-.192-.02-.23-.08l-3.112-4.99v4.755c0 .068-.073.123-.172.133-.103.012-.197-.03-.227-.094l-2.183-4.71v4.537c0 .067-.076.124-.179.132-.099.011-.197-.033-.225-.098l-1.843-4.562v4.41c0 .068-.08.126-.182.133-.101.009-.2-.038-.222-.105l-1.401-4.293v4.17c0 .067-.075.124-.176.133-.102.01-.197-.032-.225-.096l-2.126-4.891-1.009 4.688c-.015.073-.116.124-.23.113-.11-.01-.19-.076-.177-.15l1.146-5.314c.015-.063.093-.111.189-.116.1-.008.184.037.21.097l1.989 4.577v-4.48c0-.068.08-.125.184-.132.106-.007.2.038.222.106l1.399 4.293V5.123c0-.067.076-.125.179-.133.104-.009.199.033.223.098l1.845 4.562V5.24c0-.066.075-.122.174-.132.101-.01.197.03.227.093l2.183 4.71V5.377c0-.064.067-.12.165-.132.096-.013.19.022.227.082l3.112 4.989V5.559c0-.065.072-.122.173-.133.097-.008.196.03.227.093l2.309 4.757V5.7c0-.066.076-.124.177-.133.103-.008.199.033.224.098l1.902 4.588V5.822c0-.065.068-.12.164-.132.096-.014.192.023.229.081l3.092 4.986V6.004c0-.068.079-.126.183-.133.101-.008.2.037.22.103l1.52 4.376V6.105c0-.065.072-.121.171-.132.096-.013.194.027.227.089l2.526 4.83V6.257c0-.067.076-.123.177-.132.106-.013.199.032.225.097l1.93 4.602V6.38c0-.066.074-.123.176-.133.098-.008.196.031.224.096l2.062 4.661V6.508c0-.064.071-.12.17-.13.1-.012.194.026.227.087l2.587 4.85v-4.65c0-.069.08-.125.184-.133.107-.008.2.038.22.105l1.437 4.318V6.762c0-.068.077-.125.18-.133.102-.008.2.036.223.104l1.484 4.351V6.86c0-.068.077-.125.182-.132.107-.006.2.037.222.103l1.477 4.348v-4.22c0-.066.073-.122.172-.132.098-.011.197.028.225.09l2.35 4.773V7.102c0-.064.071-.12.17-.131.097-.012.194.026.226.086l2.7 4.883V7.266c0-.065.069-.12.165-.131.094-.014.19.02.228.08l3.147 4.998V7.45c0-.067.076-.124.177-.133.106-.011.199.033.225.096l1.926 4.601V7.573c0-.07.078-.126.182-.134.1-.005.199.037.22.103l1.519 4.376V7.673c0-.069.078-.126.184-.133.096-.006.198.038.222.104l1.416 4.306V7.768c0-.065.07-.12.17-.133.098-.01.194.028.227.088l2.603 4.856V7.926c0-.067.075-.123.176-.133.1-.007.197.03.227.094l2.144 4.695V8.06c0-.066.075-.122.174-.133.103-.009.197.031.225.094l2.155 4.699V8.193c0-.064.07-.12.164-.132.099-.013.192.022.23.082l3.044 4.974V8.373c0-.063.07-.119.163-.132.097-.014.194.022.23.08l3.147 5V8.559c0-.065.071-.12.169-.131.096-.012.192.022.229.083l2.878 4.933V8.729c0-.067.08-.125.182-.132.114-.008.199.037.222.103l1.502 4.365V8.83c0-.068.076-.124.177-.133.103-.008.197.032.225.096l1.972 4.623V8.953c0-.065.073-.12.171-.132.103-.01.195.028.227.09l2.55 4.838v-4.64c0-.069.078-.125.18-.134.107-.01.2.035.222.101l1.688 4.478V9.217c0-.064.071-.12.169-.131.1-.012.195.026.228.086l2.662 4.873V9.378c0-.068.074-.123.175-.133.103-.008.197.033.225.098l1.916 4.595v-4.44c0-.064.075-.122.174-.132.1-.01.197.03.225.094l2.231 4.728V9.636c0-.064.073-.12.169-.13.101-.014.195.024.229.086l2.608 4.857V9.795c0-.065.07-.12.165-.132.096-.013.19.021.229.08l3.136 4.997V9.98c0-.066.075-.123.174-.133.101-.01.196.029.225.09l2.365 4.778v-4.59c0-.065.071-.12.17-.133.093-.012.191.024.226.083l2.9 4.939v-4.718c0-.065.072-.121.172-.132.1-.01.195.028.227.09l2.442 4.804v-4.613c0-.065.072-.12.17-.132.097-.012.195.027.226.087l2.612 4.857v-4.654c0-.065.072-.121.17-.132.1-.012.194.026.227.088l2.621 4.859V10.76c0-.065.075-.121.174-.132.098-.007.196.03.226.092l2.298 4.754v-4.572c0-.064.071-.12.167-.132.1-.01.194.024.229.085l2.837 4.92v-4.704c0-.067.076-.124.178-.133.106-.01.198.036.224.1l1.764 4.522v-4.375c0-.068.077-.123.18-.133.103-.009.197.035.224.1l1.788 4.532V11.3c0-.064.073-.12.17-.131.1-.012.195.027.228.088l2.522 4.83v-4.633c0-.066.07-.12.17-.132.096-.014.194.025.227.086l2.701 4.883v-4.676c0-.064.07-.119.167-.13.1-.012.192.024.229.083l2.86 4.928v-4.71c0-.064.071-.12.169-.132.094-.01.192.024.228.085l2.892 4.935v-4.715c0-.065.07-.121.167-.131.094-.012.192.023.228.083l2.893 4.935V12.13c0-.067.075-.123.174-.133.1-.008.199.031.226.095l2.114 4.682v-4.512c0-.068.073-.124.176-.133.11-.014.197.032.225.097l1.94 4.607v-4.449c0-.063.069-.118.163-.131.098-.014.192.022.229.079l3.173 5.006V12.57c0-.066.076-.122.175-.132.104-.008.199.032.225.096l2.055 4.658V12.7c0-.064.07-.119.168-.132.1-.012.192.025.228.084l2.905 4.939v-4.718c0-.063.07-.118.164-.131.1-.013.19.021.228.08l3.162 5.002v-4.765c0-.066.074-.122.175-.132.103-.009.197.031.224.094l2.154 4.699V13.19c0-.067.078-.124.18-.133.103-.006.201.038.224.104l1.517 4.375v-4.245c0-.064.071-.119.169-.13.098-.012.192.024.227.084l2.807 4.912V13.46c0-.067.074-.123.175-.133.1-.01.197.034.226.099l1.902 4.59v-4.434c0-.068.073-.124.174-.133.101-.01.196.029.227.093l2.292 4.75v-4.57c0-.068.076-.124.179-.133.097-.008.197.034.223.098l1.86 4.57V13.84c0-.066.073-.122.169-.132.098-.013.194.024.228.087l2.617 4.858V14c0-.064.068-.12.164-.132.093-.013.192.021.228.08l3.187 5.009v-4.77c0-.063.07-.119.165-.132.095-.013.19.022.229.08l3.178 5.007v-4.768c0-.067.076-.125.178-.133.101-.012.197.033.222.098l1.84 4.56V14.49c0-.068.078-.126.179-.133.11-.009.199.036.224.1l1.644 4.455v-4.316c0-.066.074-.122.175-.132.1-.01.196.03.226.093l2.19 4.714v-4.554c0-.068.077-.125.178-.133.104-.013.197.033.225.096l1.94 4.621v-4.639c0-.066.072-.121.171-.13.101-.01.194.026.227.09l2.448 4.97v-4.995c0-.064.073-.12.17-.13.101-.014.196.026.229.088l2.666 5.12v-5.147c0-.066.075-.122.172-.132.106-.01.197.028.227.092l2.48 5.07v-5.096c0-.065.07-.12.17-.132.1-.013.195.028.227.089l2.667 5.12v-5.146c0-.067.072-.122.17-.133.095-.012.195.026.228.09l2.73 5.134v-5.163c0-.067.077-.125.181-.133.1-.007.199.037.222.104l1.676 4.76v-4.779c0-.066.074-.122.175-.132.105-.005.198.031.226.094l2.283 5.016v-5.038c0-.067.073-.123.174-.133.101-.01.197.03.227.094l2.386 5.046V14.15c0-.066.077-.124.178-.133.104-.008.2.034.225.1l1.985 4.907v-4.929c0-.067.078-.124.182-.133.108-.006.2.038.224.104l1.67 4.76v-4.778c0-.064.072-.12.17-.131.1-.012.194.026.228.086l2.837 5.16v-5.188c0-.068.078-.126.184-.133.1-.01.199.038.22.106l1.474 4.641v-4.657c0-.066.075-.122.176-.132.104-.01.195.029.225.092l2.43 5.06v-5.085c0-.065.074-.122.175-.132.102-.008.195.031.225.094l2.348 5.037v-5.061c0-.07.08-.126.184-.133.103-.007.2.038.222.104l1.547 4.69V13.76c0-.067.074-.122.173-.133.103-.007.197.028.226.092l2.484 5.076v-5.102c0-.067.077-.124.182-.133.097-.007.198.037.222.104l1.679 4.765v-4.783c0-.064.07-.12.167-.131.096-.012.19.022.227.082l3.128 5.221v-5.252c0-.066.075-.122.176-.133.1-.01.195.03.223.093l2.382 5.048v-5.071c0-.068.077-.125.178-.134.105-.01.197.035.224.1l1.95 4.896v-4.915c0-.07.08-.127.183-.134.108-.006.2.038.222.104l1.558 4.697v-4.712c0-.068.076-.126.179-.133.094-.011.197.033.222.097l2.004 4.92v-4.94c0-.065.072-.12.172-.131.1-.011.195.027.228.088l2.64 5.12V13.28c0-.065.075-.122.177-.132.103-.006.196.032.225.094l2.294 5.024v-5.045c0-.066.073-.123.17-.132.097-.013.194.024.23.086l2.818 5.16v-5.189c0-.065.072-.121.172-.132.1-.009.195.03.227.092l2.469 5.076V13.08c0-.065.071-.12.169-.131.094-.012.193.024.227.085l2.916 5.182v-5.21c0-.07.08-.128.184-.135.102-.009.2.039.22.106l1.475 4.646v-4.661c0-.068.08-.127.184-.134.098-.01.2.04.22.108l1.4 4.591v-4.606c0-.068.078-.125.179-.134.1-.007.197.036.223.1l1.933 4.892v-4.91c0-.065.07-.122.167-.134.098-.008.194.025.229.086l3 5.2v-5.23c0-.068.078-.125.179-.134.101-.007.197.034.224.1l1.94 4.895v-4.916c0-.065.072-.121.171-.132.096-.01.194.027.227.089l2.71 5.14v-5.167c0-.065.072-.12.17-.131.102-.012.193.025.228.088l2.74 5.146v-5.174c0-.069.077-.126.181-.133.101-.006.2.036.22.1l1.734 4.8v-4.815c0-.069.077-.126.18-.134.102-.008.198.034.221.098l1.987 4.916v-4.936c0-.065.072-.12.168-.13.097-.013.192.023.228.085l2.875 5.177v-5.205c0-.065.07-.12.167-.134.096-.01.194.025.227.086l3.014 5.204V12.34c0-.069.081-.126.184-.134.1-.006.2.04.222.109l1.394 4.591v-4.607c0-.067.076-.124.177-.133.103-.006.199.034.226.099l1.98 4.915v-4.936c0-.066.076-.122.179-.132.098-.009.197.034.223.097l2.082 4.955v-4.975c0-.065.071-.122.169-.132.101-.011.192.024.227.084l2.987 5.2v-5.23c0-.066.075-.124.177-.132.105-.01.198.032.224.096l2.138 4.976v-4.998c0-.065.07-.12.167-.13.101-.014.192.022.229.083l3.053 5.214v-5.246c0-.065.073-.121.173-.132.102-.01.195.03.226.091l2.577 5.11v-5.136c0-.067.076-.123.177-.132.098-.01.197.032.224.096l2.098 4.962V11.85c0-.068.078-.125.182-.133.113-.007.2.037.222.104l1.578 4.716v-4.732c0-.067.078-.124.18-.133.115-.009.2.036.224.1l1.807 4.841v-4.859c0-.066.075-.122.176-.132.106-.009.195.03.225.093l2.37 5.054v-5.078c0-.065.072-.121.172-.13.094-.014.194.025.225.088l2.666 5.133v-5.16c0-.065.07-.12.167-.132.105-.011.194.025.229.084l2.99 5.205v-5.234c0-.068.077-.125.178-.133.103-.009.197.033.225.1l1.954 4.906v-4.927c0-.066.076-.124.177-.132.098-.012.197.031.226.096l2.096 4.964v-4.986c0-.065.073-.121.172-.132.098-.01.194.028.226.09l2.628 5.126v-5.152c0-.067.074-.122.175-.132.1-.007.197.031.227.095l2.181 4.996v-5.018c0-.063.07-.119.167-.132.093-.012.192.023.227.083l3.185 5.241v-5.274c0-.068.076-.123.18-.132.098-.01.197.035.222.1l1.853 4.865v-4.884c0-.066.076-.123.177-.132.1-.009.197.03.225.095l2.21 5.005v-5.028c0-.068.077-.125.182-.133.102-.006.198.04.222.105l1.57 4.715v-4.732c0-.065.072-.121.17-.132.108-.009.197.03.229.091l2.51 5.098v-5.123c0-.068.078-.124.179-.132.114-.01.199.034.225.1l1.812 4.847v-4.865c0-.068.08-.126.182-.133.104-.009.2.038.222.105l1.555 4.705v-4.721c0-.07.078-.126.182-.134.103-.005.199.036.22.103l1.704 4.791V10.86c0-.066.072-.12.17-.131.094-.014.195.025.228.087l2.764 5.162v-5.19c0-.069.08-.126.182-.133.104-.01.2.038.223.105l1.504 4.675v-4.69c0-.068.078-.127.184-.133.098-.009.199.038.218.104l1.579 4.72V10.7c0-.067.072-.123.172-.133.107-.01.194.03.227.091l2.504 5.099v-5.124c0-.066.074-.123.177-.132.1-.012.197.033.223.097l2.09 4.966v-4.988c0-.065.075-.121.174-.132.096-.01.195.029.227.09l2.545 5.11V10.51c0-.065.071-.12.166-.131.096-.013.194.021.23.082l3.107 5.232V10.43c0-.067.074-.124.172-.134.11-.008.199.03.227.093l2.373 5.061v-5.084c0-.067.073-.123.172-.132.103-.01.197.029.227.092l2.421 5.076V10.3c0-.065.074-.122.172-.132.101-.008.197.029.227.092l2.476 5.092v-5.117c0-.067.074-.123.177-.133.103-.01.197.033.224.097l2.162 4.993v-5.016c0-.066.076-.123.18-.132.103-.014.196.031.221.096l2.148 4.988v-5.01c0-.068.078-.125.182-.133.113-.008.197.036.222.101l1.805 4.847V10.07c0-.067.074-.124.174-.133.104-.01.195.029.225.09l2.512 5.104v-5.128c0-.068.08-.126.182-.134.115-.004.2.038.222.104l1.66 4.772V9.956c0-.067.076-.123.177-.133.102-.012.198.032.225.097l2.083 4.967V9.899c0-.064.07-.12.167-.132.102-.013.193.024.227.083l3.094 5.234V9.82c0-.066.073-.122.174-.133.099-.01.195.028.227.091l2.484 5.098V9.754c0-.065.07-.12.167-.132.096-.012.192.023.228.084l3.105 5.236V9.673c0-.065.075-.121.173-.132.099-.009.197.03.226.092l2.47 5.093V9.61c0-.068.074-.124.177-.132.1-.013.197.031.225.096l2.077 4.967V9.552c0-.067.074-.123.177-.132.104-.01.197.031.225.096l2.136 4.988v-5.01c0-.066.076-.122.176-.132.102-.006.197.032.225.094l2.257 5.03V9.435c0-.069.08-.127.184-.133.1-.005.2.04.22.107l1.403 4.61V9.395c0-.069.076-.125.177-.135.11-.009.199.035.225.099l2.044 4.954V9.337c0-.068.078-.124.18-.132.1-.01.199.034.224.099l1.873 4.883V9.285c0-.066.07-.12.17-.132.106-.012.196.026.229.089l2.732 5.162v-5.19c0-.067.076-.124.177-.134.103-.007.197.033.224.097l2.194 5.01V9.155c0-.07.08-.126.184-.133.103-.007.199.038.222.104l1.566 4.722V9.11c0-.067.075-.123.173-.133.107-.007.198.03.227.094l2.346 5.06V9.047c0-.064.071-.12.17-.131.093-.013.194.026.226.086l2.792 5.177v-.984c0-.074.093-.134.204-.134.112 0 .205.06.205.134v1.765c0 .065-.073.122-.17.132-.098.01-.196-.025-.228-.087l-2.79-5.176v5.204c0 .065-.074.123-.174.132-.104.011-.195-.031-.227-.094l-2.346-5.06v5.083c0 .07-.078.125-.182.133-.106.007-.2-.038-.22-.104l-1.567-4.723v4.74c0 .066-.076.123-.177.131-.1.01-.197-.031-.226-.095l-2.194-5.01v5.032c0 .066-.071.121-.17.132-.1.012-.196-.026-.227-.088l-2.733-5.162v5.188c0 .069-.077.126-.18.134-.103.01-.197-.035-.224-.1l-1.873-4.882v4.9c0 .069-.076.125-.177.132-.11.011-.199-.032-.225-.097L663.46 10.4v4.976c0 .069-.08.126-.184.133-.106.003-.2-.04-.22-.107l-1.405-4.61v4.625c0 .067-.074.122-.173.132-.098.01-.196-.03-.227-.094l-2.256-5.03v5.052c0 .067-.074.124-.177.133-.106.008-.197-.032-.224-.097l-2.136-4.988v5.01c0 .067-.076.123-.179.132-.1.01-.197-.032-.225-.096l-2.078-4.967v4.986c0 .067-.071.124-.172.132-.095.012-.196-.028-.226-.09l-2.469-5.094v5.118c0 .063-.07.12-.167.131-.096.012-.192-.023-.227-.083l-3.106-5.235v5.266c0 .067-.073.122-.174.133-.096.01-.196-.03-.226-.093l-2.484-5.096V15.8c0 .064-.07.12-.168.133-.101.01-.193-.024-.229-.084l-3.093-5.234v5.265c0 .066-.077.123-.176.132-.1.013-.197-.033-.225-.097l-2.083-4.966v4.987c0 .068-.078.126-.18.133-.11.008-.201-.037-.224-.104l-1.66-4.771v4.789c0 .066-.073.122-.17.132-.106.01-.197-.03-.229-.091l-2.512-5.103v5.128c0 .067-.078.123-.179.132-.112.01-.197-.035-.223-.102l-1.807-4.846v4.865c0 .068-.075.123-.176.133-.109.008-.197-.032-.225-.097l-2.148-4.988v5.011c0 .065-.074.122-.175.132-.101.01-.197-.031-.225-.096l-2.163-4.994v5.014c0 .068-.075.124-.174.134-.098.01-.195-.03-.225-.091l-2.476-5.094v5.117c0 .067-.073.122-.174.133-.098.01-.195-.03-.225-.092l-2.421-5.076v5.1c0 .066-.075.122-.176.132-.104.01-.195-.03-.225-.094l-2.371-5.06v5.084c0 .064-.072.12-.17.131-.099.012-.191-.022-.226-.083l-3.107-5.232v5.262c0 .068-.073.123-.174.134-.094.008-.195-.029-.223-.09l-2.549-5.11v5.135c0 .066-.074.122-.175.132-.101.01-.197-.033-.226-.098l-2.09-4.965v4.987c0 .065-.074.121-.173.132-.105.01-.196-.029-.227-.09l-2.502-5.098v5.121c0 .07-.08.126-.184.133-.101.006-.199-.038-.22-.104l-1.579-4.72v4.735c0 .07-.077.127-.182.134-.102.004-.2-.04-.22-.105l-1.505-4.675v4.69c0 .066-.072.121-.17.132-.1.01-.195-.026-.228-.088l-2.765-5.16v5.188c0 .068-.078.125-.182.133-.1.008-.2-.036-.22-.103l-1.703-4.79v4.808c0 .068-.078.126-.182.133-.105.007-.2-.037-.222-.105l-1.555-4.706v4.723c0 .067-.078.124-.18.132-.11.012-.198-.035-.223-.101l-1.813-4.847v4.865c0 .067-.073.123-.172.133-.106.01-.195-.03-.227-.091l-2.51-5.098v5.123c0 .068-.08.124-.184.132-.103.006-.197-.038-.22-.104l-1.57-4.715v4.731c0 .067-.077.122-.178.132-.099.008-.197-.03-.225-.095l-2.209-5.006v5.029c0 .067-.074.123-.179.132-.097.01-.198-.035-.223-.101l-1.853-4.864v4.884c0 .064-.07.119-.166.13-.096.014-.194-.022-.228-.08l-3.185-5.243v5.274c0 .066-.076.122-.176.132-.099.01-.198-.031-.225-.096l-2.182-4.995v5.017c0 .065-.072.122-.173.133-.097.01-.193-.029-.226-.09l-2.627-5.127v5.153c0 .067-.076.122-.177.132-.101.007-.197-.033-.225-.098l-2.097-4.964v4.986c0 .067-.076.124-.179.132-.097.012-.197-.032-.223-.098l-1.954-4.908v4.928c0 .064-.071.12-.17.131-.102.011-.193-.025-.228-.084l-2.989-5.205v5.234c0 .066-.073.12-.172.132-.096.011-.195-.027-.225-.089l-2.666-5.133v5.16c0 .066-.075.122-.174.132-.106.01-.196-.03-.227-.092l-2.37-5.056v5.078c0 .069-.078.125-.179.133-.11.01-.198-.035-.223-.101l-1.809-4.84v4.858c0 .067-.077.126-.182.134-.114.006-.198-.038-.222-.106l-1.578-4.716v4.733c0 .067-.076.123-.177.133-.101.01-.197-.033-.225-.098l-2.097-4.962v4.984c0 .065-.073.121-.172.132-.104.011-.195-.028-.227-.09l-2.577-5.11v5.135c0 .065-.07.12-.165.131-.105.012-.194-.022-.23-.083l-3.056-5.215v5.245c0 .068-.073.124-.175.134-.106.005-.197-.034-.225-.097l-2.137-4.976v4.997c0 .065-.07.12-.167.13-.103.012-.194-.022-.228-.084l-2.988-5.201v5.23c0 .068-.076.125-.177.134-.098.012-.197-.033-.224-.097l-2.083-4.955v4.975c0 .068-.076.125-.177.133-.1.01-.199-.033-.224-.098l-1.982-4.916v4.935c0 .07-.081.127-.185.134-.105.005-.2-.04-.22-.108l-1.395-4.591v4.606c0 .065-.07.12-.167.132-.096.01-.194-.023-.227-.084l-3.016-5.206v5.235c0 .065-.07.122-.167.133-.1.01-.194-.025-.228-.087l-2.874-5.177v5.206c0 .066-.076.124-.18.132-.098.01-.197-.032-.222-.098l-1.986-4.915v4.935c0 .068-.077.125-.18.134-.104.005-.199-.038-.222-.103l-1.734-4.8v4.818c0 .065-.073.12-.169.131-.107.01-.195-.027-.228-.088l-2.74-5.146v5.174c0 .065-.072.12-.171.13-.1.012-.196-.025-.227-.087l-2.71-5.139v5.165c0 .068-.077.126-.18.133-.096.011-.197-.033-.222-.098l-1.94-4.896v4.914c0 .065-.07.121-.168.132-.096.012-.194-.024-.229-.084l-3-5.2v5.23c0 .067-.076.124-.18.133-.112.007-.198-.035-.223-.1l-1.932-4.89v4.91c0 .068-.08.127-.186.132-.104.001-.2-.039-.218-.106l-1.4-4.592v4.606c0 .069-.08.127-.183.134-.113.008-.2-.04-.222-.107l-1.474-4.644v4.66c0 .065-.071.12-.167.132-.1.01-.196-.025-.229-.086l-2.916-5.182v5.211c0 .065-.073.122-.172.133-.1.012-.197-.029-.227-.092l-2.47-5.076v5.1c0 .065-.07.12-.17.13-.096.015-.194-.023-.228-.085l-2.819-5.16v5.188c0 .066-.074.123-.174.132-.103.01-.195-.03-.225-.094l-2.297-5.023v5.046c0 .066-.073.122-.17.132-.103.01-.194-.027-.227-.09l-2.643-5.12v5.147c0 .066-.075.124-.178.132-.097.009-.197-.033-.225-.098l-2.004-4.919v4.94c0 .068-.077.125-.18.133-.11.007-.2-.038-.222-.105l-1.558-4.697v4.713c0 .067-.076.124-.18.133-.108.009-.198-.034-.221-.1l-1.952-4.896v4.917c0 .065-.073.121-.174.132-.098.01-.196-.03-.225-.093l-2.382-5.049v5.072c0 .065-.07.119-.165.13-.098.014-.194-.02-.229-.081l-3.128-5.22v5.251c0 .068-.08.126-.182.132-.105.006-.199-.036-.222-.102l-1.68-4.766v4.783c0 .066-.074.122-.172.132-.099.01-.195-.028-.226-.091l-2.484-5.076v5.1c0 .068-.078.125-.183.133-.102.01-.198-.038-.222-.105l-1.548-4.688v4.704c0 .066-.073.123-.172.132-.103.012-.197-.029-.227-.093l-2.35-5.037v5.06c0 .067-.074.123-.172.133-.104.01-.195-.03-.227-.092l-2.43-5.06v5.084c0 .07-.08.126-.183.133-.101.01-.199-.039-.222-.106l-1.474-4.641v4.656c0 .066-.071.12-.17.132-.101.014-.194-.025-.229-.086l-2.837-5.162v5.19c0 .067-.076.126-.18.133-.105.006-.199-.038-.222-.103l-1.671-4.76v4.776c0 .068-.076.125-.179.134-.096.008-.197-.034-.225-.099l-1.986-4.909v4.929c0 .066-.074.122-.172.132-.1.01-.197-.03-.227-.093l-2.388-5.047v5.072c0 .065-.073.122-.175.132-.1.008-.196-.03-.225-.094l-2.284-5.016v5.038c0 .067-.078.125-.182.134-.105.004-.199-.038-.222-.104l-1.674-4.76v4.777c0 .065-.073.121-.173.132-.099.01-.193-.027-.226-.088l-2.73-5.136v5.163c0 .065-.072.12-.172.132-.1.011-.195-.026-.225-.09l-2.67-5.12v5.147c0 .066-.072.122-.17.132-.101.01-.195-.028-.227-.091l-2.479-5.072v5.097c0 .065-.071.12-.169.131-.011.002-.023.002-.035.002"/>
            <g transform="translate(680.064)">
                <mask id="i" fill="#fff">
                    <use xlink:href="#h"/>
                </mask>
                <path fill="#451414" d="M81.628.05H.012l1.76 14.94 50.2 3.74 31.054-5.865z" mask="url(#i)"/>
            </g>
            <path fill="#BFA711" d="M731.701 18.804c-.088 0-.165-.035-.194-.09l-2.828-5.396v5.114c0 .065-.071.122-.17.131-.105.012-.194-.025-.226-.086l-2.979-5.44v5.146c0 .065-.071.121-.172.132-.103.012-.196-.028-.227-.09l-2.71-5.359v5.087c0 .064-.07.12-.17.131-.102.013-.194-.025-.227-.085l-3.007-5.45v5.152c0 .069-.08.126-.182.133-.108.006-.2-.04-.222-.105l-1.573-4.821v4.647c0 .065-.075.122-.174.133-.098.01-.195-.03-.225-.093l-2.55-5.303v5.044c0 .065-.073.122-.171.133-.106.008-.194-.027-.229-.088l-2.878-5.41v5.124c0 .067-.078.124-.179.132-.102.01-.2-.035-.223-.102l-1.804-4.966v4.772c0 .067-.077.125-.178.133-.098.009-.2-.034-.224-.098l-2.017-5.08v4.866c0 .067-.074.124-.174.132-.1.01-.199-.03-.227-.094l-2.318-5.213v4.975c0 .066-.073.122-.176.132-.097.01-.197-.032-.225-.095l-2.288-5.202v4.965c0 .065-.072.122-.168.131-.097.011-.193-.023-.228-.084l-3.084-5.468v5.164c0 .066-.078.124-.18.133-.096.01-.197-.033-.222-.1l-2.015-5.077v4.866c0 .066-.077.122-.18.132-.109.007-.195-.033-.221-.097l-2.218-5.17v4.94c0 .068-.074.124-.175.133-.104.013-.196-.03-.225-.093l-2.478-5.275v5.023c0 .067-.076.125-.179.133-.109.01-.197-.034-.225-.1l-1.994-5.068v4.858c0 .069-.08.126-.183.133-.105.008-.2-.04-.22-.107l-1.46-4.735v4.572c0 .064-.07.12-.169.13-.107.01-.193-.025-.228-.087l-2.886-5.41v1.095c0 .075-.092.135-.204.135-.114 0-.204-.06-.204-.135V9.04c0-.065.071-.121.17-.132.1-.013.194.027.226.088l2.886 5.41V9.283c0-.07.081-.127.186-.133.1-.01.2.039.22.106l1.457 4.737V9.42c0-.069.078-.125.18-.134.112-.01.198.035.223.1l1.995 5.066V9.597c0-.066.073-.122.174-.132.106-.008.197.03.227.093l2.477 5.275V9.81c0-.066.075-.124.176-.132.106-.012.197.031.225.096l2.217 5.17v-4.941c0-.067.077-.124.178-.132.104-.007.198.033.225.1l2.015 5.076v-4.865c0-.065.071-.12.168-.132.096-.011.195.024.228.086l3.084 5.467V10.44c0-.067.074-.123.177-.133.097-.008.197.032.225.096l2.287 5.201v-4.965c0-.067.076-.124.177-.132.101-.008.197.03.225.094l2.317 5.214v-4.977c0-.066.078-.123.179-.132.104-.006.197.035.223.1l2.017 5.079v-4.868c0-.067.078-.124.18-.133.105-.004.198.038.223.103l1.803 4.966V11.18c0-.066.073-.121.17-.131.102-.014.195.025.228.088l2.878 5.408v-5.123c0-.067.074-.123.174-.133.099-.008.195.03.227.093l2.55 5.302V11.64c0-.07.08-.127.182-.134.1-.008.199.038.222.104l1.573 4.823v-4.648c0-.065.071-.12.17-.132.102-.012.194.026.227.086l3.008 5.449v-5.152c0-.066.073-.121.17-.132.105-.012.196.028.227.09l2.713 5.358v-5.086c0-.066.07-.121.167-.132.103-.015.194.026.229.087l2.977 5.44v-5.146c0-.065.073-.121.17-.132.098-.013.194.027.227.089l2.829 5.396v-5.204c0-.066.073-.122.172-.132.1-.01.197.028.227.09l2.381 4.77V12.25c0-.064.068-.12.163-.132.1-.014.193.022.23.08l2.976 4.725v-5.18c0-.067.077-.124.18-.132.12-.007.199.037.222.103l1.542 4.349v-4.61c0-.066.071-.121.169-.132.104-.013.193.025.228.086l2.48 4.514v-4.9c0-.064.069-.12.168-.132.103-.013.194.026.227.087l2.421 4.411v-4.788c0-.064.068-.12.166-.131.1-.013.19.021.227.08l2.755 4.342v-4.764c0-.065.073-.12.17-.13.107-.013.194.026.23.088l2.13 4.176V9.747c0-.067.075-.124.174-.133.111-.009.197.03.227.093l1.898 4.048V9.402c0-.066.073-.122.17-.132.1-.01.196.028.227.091l1.976 3.991V9.046c0-.066.076-.124.179-.133.101-.01.197.033.224.098l1.59 3.813V8.748c0-.064.069-.118.163-.132.093-.014.189.018.229.075l2.767 3.925V8.274c0-.067.074-.124.177-.133.103-.008.199.033.225.098l1.46 3.606v-.915c0-.074.09-.135.205-.135.11 0 .203.06.203.135v1.943c0 .067-.076.125-.179.132-.099.011-.197-.032-.223-.097l-1.46-3.606v3.923c0 .063-.065.117-.16.131-.092.013-.19-.018-.23-.076l-2.767-3.924v4.465c0 .068-.076.125-.176.133-.1.013-.197-.033-.225-.097l-1.593-3.814v4.156c0 .066-.073.12-.172.132-.096.012-.196-.028-.227-.091l-1.976-3.991v4.398c0 .067-.074.123-.173.133-.103.011-.196-.03-.227-.094l-1.896-4.047v4.442c0 .066-.073.122-.173.132-.104.013-.195-.027-.225-.09l-2.133-4.175v4.612c0 .064-.07.118-.165.131-.1.014-.19-.022-.229-.08l-2.754-4.341v4.885c0 .065-.071.12-.169.132-.107.011-.195-.026-.228-.087l-2.421-4.412v4.9c0 .064-.072.12-.168.131-.102.016-.195-.025-.228-.086l-2.48-4.514v5.012c0 .067-.077.125-.181.134-.11.01-.2-.037-.22-.104l-1.544-4.349v4.687c0 .063-.068.118-.164.13-.101.015-.192-.02-.228-.08l-2.976-4.725v5.312c0 .065-.073.121-.173.132-.099.01-.195-.029-.225-.09l-2.381-4.772v5.165c0 .066-.071.12-.169.132l-.035.001"/>
        </g>
        <g transform="translate(20 151)">
            <ellipse cx="106.445" cy="257.544" fill="url(#j)" opacity=".453" rx="102.882" ry="4.456"/>
            <path fill="#C18100" d="M103.255 119.291H20.488l11.342 47.14h142.745l11.29-47.136v-.004z"/>
            <path fill="#452706" d="M169.033 166.431H37.32l-8.133-40.507h148.028z"/>
            <g transform="translate(20.487 104.093)">
                <mask id="l" fill="#fff">
                    <use xlink:href="#k"/>
                </mask>
                <path fill="#C18100" d="M6.111 8.011c-1.916 2.277-3.988 4.663-6.11 7.187h165.378c-2.124-2.524-4.145-4.91-6.061-7.187-8.856-10.452-144.4-10.452-153.207 0" mask="url(#l)"/>
            </g>
            <g transform="translate(28.504 104.093)">
                <mask id="n" fill="#fff">
                    <use xlink:href="#m"/>
                </mask>
                <path fill="#89642C" d="M.01 15.198h149.374a1171.912 1171.912 0 0 1-5.282-8.339c-.621-.988-1.917-1.892-3.833-2.716-28.538-5.295-102.604-5.295-131.194 0-1.864.824-3.16 1.728-3.78 2.716C3.636 9.493 1.876 12.29.01 15.198" mask="url(#n)"/>
            </g>
            <path fill="#160F01" d="M173.487 112.324l-.621-.988H33.54l-.622.988z"/>
            <path fill="#996A00" d="M179.547 166.431H26.858a3.007 3.007 0 0 0-3.004 3.005v82.23a3.007 3.007 0 0 0 3.004 3.005h152.689c1.606 0 2.952-1.348 2.952-3.005v-82.23c0-1.657-1.346-3.005-2.952-3.005"/>
            <path fill="url(#o)" d="M10.1 143.842h145.23v-74.82H10.1z" transform="translate(20.487 104.093)"/>
            <path fill="#FCB932" d="M163.75 256.225h17.351c1.605 0 2.952-1.348 2.952-3.005v-16.995c-.31 0-.673-.052-1.036-.052-10.67 0-19.267 8.653-19.267 19.327v.725z"/>
            <path stroke="#A56D0A" stroke-width="2.575" d="M163.75 256.225h17.351c1.605 0 2.952-1.348 2.952-3.005v-16.995c-.31 0-.673-.052-1.036-.052-10.67 0-19.267 8.653-19.267 19.327v.725z"/>
            <path fill="#FCB932" d="M22.3 235.81v17.41a3.007 3.007 0 0 0 3.004 3.005h17.3c.051-.415.051-.778.051-1.14 0-10.674-8.649-19.327-19.267-19.327-.363 0-.726.052-1.087.052"/>
            <path stroke="#A56D0A" stroke-width="2.575" d="M22.3 235.81v17.41a3.007 3.007 0 0 0 3.004 3.005h17.3c.051-.415.051-.778.051-1.14 0-10.674-8.649-19.327-19.267-19.327-.363 0-.726.052-1.087.052z"/>
            <path fill="#FCB932" d="M42.655 164.877H25.304a3.007 3.007 0 0 0-3.004 3.005v16.943c.363.052.725.052 1.088.052 10.618 0 19.267-8.653 19.267-19.275v-.725z"/>
            <path stroke="#A56D0A" stroke-width="2.575" d="M42.655 164.877H25.304a3.007 3.007 0 0 0-3.004 3.005v16.943c.363.052.725.052 1.088.052 10.618 0 19.267-8.653 19.267-19.275v-.725z"/>
            <path fill="#FCB932" d="M181.1 164.877h-17.35v.984c0 10.674 8.597 19.327 19.267 19.327.363 0 .726-.053 1.036-.053v-17.253c0-1.658-1.346-3.005-2.952-3.005"/>
            <path stroke="#A56D0A" stroke-width="2.575" d="M181.1 164.877h-17.35v.984c0 10.674 8.597 19.327 19.267 19.327.363 0 .726-.053 1.036-.053v-17.253c0-1.658-1.346-3.005-2.952-3.005z"/>
            <path fill="#000" d="M133.554 168.4c.777 0 1.45.622 1.45 1.399s-.673 1.45-1.45 1.45c-.777 0-1.399-.673-1.399-1.45 0-.777.622-1.398 1.399-1.398M123.454 168.4c.776 0 1.398.622 1.398 1.399s-.622 1.45-1.398 1.45c-.777 0-1.45-.673-1.45-1.45 0-.777.673-1.398 1.45-1.398M153.805 168.4c.777 0 1.45.622 1.45 1.399s-.673 1.45-1.45 1.45c-.776 0-1.398-.673-1.398-1.45 0-.777.622-1.398 1.398-1.398M113.302 168.4c.777 0 1.45.622 1.45 1.399s-.673 1.45-1.45 1.45c-.777 0-1.398-.673-1.398-1.45 0-.777.621-1.398 1.398-1.398M143.705 168.4c.777 0 1.399.622 1.399 1.399s-.622 1.45-1.399 1.45c-.776 0-1.45-.673-1.45-1.45 0-.777.674-1.398 1.45-1.398M52.6 168.4c.776 0 1.398.622 1.398 1.399s-.622 1.45-1.399 1.45c-.828 0-1.45-.673-1.45-1.45 0-.777.622-1.398 1.45-1.398M62.7 168.4c.776 0 1.398.622 1.398 1.399s-.622 1.45-1.398 1.45c-.777 0-1.399-.673-1.399-1.45 0-.777.622-1.398 1.399-1.398M72.8 168.4c.828 0 1.45.622 1.45 1.399s-.622 1.45-1.45 1.45c-.777 0-1.399-.673-1.399-1.45 0-.777.622-1.398 1.399-1.398M82.951 168.4c.777 0 1.398.622 1.398 1.399s-.621 1.45-1.398 1.45c-.777 0-1.398-.673-1.398-1.45 0-.777.621-1.398 1.398-1.398M103.202 168.4c.778 0 1.399.622 1.399 1.399s-.621 1.45-1.399 1.45c-.777 0-1.45-.673-1.45-1.45 0-.777.673-1.398 1.45-1.398M93.05 168.4c.83 0 1.45.622 1.45 1.399s-.62 1.45-1.45 1.45c-.776 0-1.397-.673-1.397-1.45 0-.777.62-1.398 1.398-1.398M123.454 250.007c.776 0 1.398.674 1.398 1.451s-.622 1.399-1.398 1.399c-.777 0-1.45-.622-1.45-1.399s.673-1.451 1.45-1.451M113.302 250.007c.777 0 1.45.674 1.45 1.451s-.673 1.399-1.45 1.399a1.392 1.392 0 0 1-1.398-1.399c0-.777.621-1.451 1.398-1.451M133.554 250.007c.777 0 1.45.674 1.45 1.451s-.673 1.399-1.45 1.399a1.392 1.392 0 0 1-1.399-1.399c0-.777.622-1.451 1.399-1.451M143.705 250.007c.777 0 1.399.674 1.399 1.451s-.622 1.399-1.399 1.399c-.776 0-1.45-.622-1.45-1.399s.674-1.451 1.45-1.451M52.6 250.007c.776 0 1.398.674 1.398 1.451s-.622 1.399-1.399 1.399c-.828 0-1.45-.622-1.45-1.399s.622-1.451 1.45-1.451M153.805 250.007c.777 0 1.45.674 1.45 1.451s-.673 1.399-1.45 1.399a1.392 1.392 0 0 1-1.398-1.399c0-.777.622-1.451 1.398-1.451M103.202 250.007c.778 0 1.399.674 1.399 1.451s-.621 1.399-1.399 1.399c-.777 0-1.45-.622-1.45-1.399s.673-1.451 1.45-1.451M62.7 250.007c.776 0 1.398.674 1.398 1.451s-.622 1.399-1.398 1.399a1.392 1.392 0 0 1-1.399-1.399c0-.777.622-1.451 1.399-1.451M72.8 250.007c.828 0 1.45.674 1.45 1.451s-.622 1.399-1.45 1.399a1.392 1.392 0 0 1-1.399-1.399c0-.777.622-1.451 1.399-1.451M93.05 250.007c.83 0 1.45.674 1.45 1.451s-.62 1.399-1.45 1.399a1.392 1.392 0 0 1-1.397-1.399c0-.777.62-1.451 1.398-1.451M82.951 250.007c.777 0 1.398.674 1.398 1.451s-.621 1.399-1.398 1.399a1.392 1.392 0 0 1-1.398-1.399c0-.777.621-1.451 1.398-1.451M26.91 224.308c.777 0 1.45.62 1.45 1.398 0 .83-.673 1.45-1.45 1.45-.777 0-1.398-.62-1.398-1.45 0-.777.621-1.398 1.398-1.398M26.91 196.743a1.393 1.393 0 0 1-1.398-1.4c0-.777.621-1.399 1.398-1.399.777 0 1.45.622 1.45 1.4 0 .777-.673 1.399-1.45 1.399M26.91 214.204c.777 0 1.45.62 1.45 1.398 0 .777-.673 1.4-1.45 1.4a1.394 1.394 0 0 1-1.398-1.4c0-.777.621-1.398 1.398-1.398M26.91 204.048c.777 0 1.45.622 1.45 1.451 0 .777-.673 1.399-1.45 1.399a1.392 1.392 0 0 1-1.398-1.399c0-.83.621-1.451 1.398-1.451"/>
            <path fill="#160F01" d="M30.587 189.127h145.23v-1.867H30.587zM30.587 204.256h145.23v-1.866H30.587zM30.587 219.437h145.23v-1.866H30.587zM30.587 234.618h145.23v-1.866H30.587z"/>
            <path fill="#D68900" d="M111.127 165.395H95.226c-.621 0-1.19.57-1.19 1.244v31.036c0 7.046 18.334 6.685 18.334 0v-31.036c0-.674-.57-1.244-1.243-1.244"/>
            <path fill="#000" d="M101.027 187.727a3.642 3.642 0 0 0-1.606 3.057c0 2.072 1.71 3.73 3.78 3.73a3.714 3.714 0 0 0 3.73-3.73c0-1.296-.62-2.384-1.553-3.057l.362-3.005c.207-2.021.518-4.456.83-7.514h-6.734c.311 3.058.621 5.493.829 7.514l.362 3.005zM179.184 224.308c.777 0 1.398.62 1.398 1.398 0 .83-.621 1.45-1.398 1.45-.777 0-1.398-.62-1.398-1.45 0-.777.621-1.398 1.398-1.398M179.184 196.743a1.393 1.393 0 0 1-1.398-1.4c0-.777.621-1.399 1.398-1.399.777 0 1.398.622 1.398 1.4 0 .777-.621 1.399-1.398 1.399M179.184 214.204c.777 0 1.398.62 1.398 1.398 0 .777-.621 1.4-1.398 1.4a1.394 1.394 0 0 1-1.398-1.4c0-.777.621-1.398 1.398-1.398M179.184 204.048c.777 0 1.398.622 1.398 1.451 0 .777-.621 1.399-1.398 1.399a1.392 1.392 0 0 1-1.398-1.399c0-.83.621-1.451 1.398-1.451"/>
            <path fill="url(#p)" d="M53.572 165.406L0 0h212l-53.125 165.755z"/>
        </g>
        <g font-family="NotoSerifCJKtc-Bold, Noto Serif CJK TC" font-weight="bold">
            <text fill="#F05050" font-size="50" transform="translate(65.782 180.766)">
                <tspan x="0" y="58">0.3%</tspan>
            </text>
            <text fill="#430000" font-size="18" transform="translate(65.782 180.766)">
                <tspan x="15" y="62">地價稅回饋</tspan>
            </text>
        </g>
        <g transform="translate(54.74 248.267)">
            <mask id="r" fill="#fff">
                <use xlink:href="#q"/>
            </mask>
            <g mask="url(#r)">
                <path fill="#754C29" d="M42.167 65.05L12.98 61.599 7.362 65.52l6.714 11.452h2.604l6.303 7.216h6.303L39.29 89.05l2.262-2.588h5.137l3.734-4.275 6.955 3.02 4.521-.078 2.193 1.49 5.797-.8 1.945-1.24 4.179.393 2.604.784 1.233-1.411 9.455 2.405 13.017-4.758 2.466 2.823 3.427-3.922 4.59 3.844 2.982-1.341 4.451-4.11 1.199 1.372 3.31-2.588 3.748-5.726 3.47-11.451-22.244-2.902z"/>
                <path fill="#613C1B" d="M112.804 84.737l1.575-8.707 3.837-3.921-2.329-12.236 9.043-1.882-2.329 15.373-5.48 3.764zM126.232 61.128l.479 2.432 1.782 8.784 3.472-11.451-2.512-4zM121.436 80.658l2.535-5.647L125 68.266l1.165 7.53-1.417 2.274zM111.433 61.05l.311 5.376-.996 9.055-2.535 5.412 1.302-6.039-2.877-6.824 1.438.706 1.782 2.196.89-5.02zM104.788 84.815l-1.096-6.118.822-8.079-2.81 9.805.618 1.568zM95.059 63.638l1.164 7.216-1.849 9.49 2.808-4.549 2.673-.392 2.192-5.49-1.712-8.55zM89.304 86.75l2.877-5.464.274-8.942-1.712 6.196-.754-2.745-.617 4.55.822 2.039zM84.92 67.716l-.275 4.079.068 7.137-4.864 5.412 2.467-5.647-2.673-9.49zM74.985 66.383l.137 8.706 3.494 10.667-2.604-.784-6.029-8.628 1.781-.078.754-1.098 1.233-.392-.616-3.138.274-3.608zM63.269 66.305l2.398 10.745-1.576 9.57L67.654 76.5l-1.097-5.098-1.096.313-1.37-5.254zM69.888 85.818l-.042-5.63 1.987 4.392zM70.188 68.265l-.274 6.04 1.576-6.04zM59.021 66.226l.616 10.589-2.26 8.392 3.082-2.196 2.742-9.099-2.057 2.746-.137-6.118-.685 1.96zM55.732 66.618l-3.631 9.177-1.678 6.392-.583-6.627zM41.55 86.462l2.809-6.353-2.26-11.765 3.7 7.06.616 6.98 1.507-2.746-.89 4.628-2.81.706-1.553 1.481zM32.711 71.952l1.44 9.333 3.905 4.55 1.233 3.215.343-5.333-4.18-4-3.083-9.648zM28.875 69.442l1.028 8.863-.617 5.883 2.466-6.589zM22.983 84.188l-.89-7.452 1.986-9.02-2.466 5.02-2.467-.157v2.275l-1.85-.157 2.33 2.353zM17.64 65.599l-.755 3.373.48 4.392-1.713-4.55.411-3.529zM14.076 76.972l.411-3.138-2.877-6.353.205 3.843-4.453-5.804z"/>
                <path fill="#613C1B" d="M25.815 67.403l1.187 8.889-1.004 6.38 4.11-7.635.366-5.96z"/>
                <path fill="#522D0D" d="M114.425 63.638l2.192 6.902-2.237 5.49 3.836-3.921-1.873-9.726zM126.164 75.795l-1.165-7.53 1.712-4.705 1.028 4.706-1.301 2.666zM106.638 68.03l2.877 6.824-1.302 6.04-1.781 1.96 1.165-4.47-1.782-5.648 1.234-.47zM101.02 64.736l1.027 5.177-2.192 5.49.617-6.431-2.124-4.393zM95.47 65.207l.753 5.647-1.849 9.49v-7.921l-1.85-5.804zM89.304 86.75l.89-4.366-.822-2.04.617-4.549-.89-4.47-.206 4.47-1.644 5.02 1.575 2.666zM77.52 67.01l-1.576 8.236.754 4.628 1.918 5.882-3.905-7.059-.137-5.02.685-5.647zM57.376 85.207l2.261-8.393-.274-5.568-1.85 1.569-.616 6.117-.48-3.293-.41 5.019.958 1.726-.41 2.588zM28.327 68.893l-1.324 7.399-1.76-7.791zM38.81 68.5l2.603 6.432-.617 5.883 2.398-6.588-1.233-7.373zM10.719 63.481l.89 4 2.878 6.353-1.027-8.784zM51.622 66.305l-1.507 6.274 1.575-2.588-1.85 5.569 6.714-9.726zM129.316 60.971l.89 5.726.617-6.353zM122.464 62.853l-1.644 8.393-.41-8.393zM97.183 75.795l1.233-4.549.137 4.393-1.85 3.293zM82.658 70.07l-.343 8.627-2.877 2.824 1.85-4.235-.96-3.216-1.233 4.078.822-5.96-.274-2.98zM65.53 65.285l-.069 6.431.206 5.334-2.261-9.255.069-2.51zM97.845 83.612l3.86-3.19.822-6.744-1.988 6.04-1.164 1.49v-4.08z"/>
                <path fill="#3C6E16" d="M65.598 56.265l-40.97-1.726-16.352 7.684-.884 1.729-.03 1.568 25.35 6.432 4.068-.715 4.349-2.3 6.245-.382 8.358-1.937 28.912 5.177 11.013-4.606 8.716-1.669 7.371.906 5.655-2.115 9.311-.751 5.255-2.667V58.34l-1.127-.879-23.858-5.118z"/>
                <g transform="translate(7.126 48.26)">
                    <mask id="t" fill="#fff">
                        <use xlink:href="#s"/>
                    </mask>
                    <path fill="#C4D66F" d="M.303 5.768S21.265 3.93 25 3.93c3.735 0 52.116 2.036 52.116 2.036s-32.953 5.532-44.085 5.77C25.247 11.902 2.024 9.02 2.024 9.02L.303 5.768z" mask="url(#t)"/>
                </g>
                <g transform="translate(7.126 48.26)">
                    <mask id="v" fill="#fff">
                        <use xlink:href="#u"/>
                    </mask>
                    <path fill="#DDE495" d="M65.976 6.337c7.075-1.082 11.141-.371 11.141-.371S28.736 3.93 25 3.93C21.264 3.93.303 5.768.303 5.768v2.489s22.21-2.598 25.945-2.598c2.508 0 25.124.075 39.728.678" mask="url(#v)"/>
                </g>
                <g transform="translate(7.126 48.26)">
                    <mask id="x" fill="#fff">
                        <use xlink:href="#w"/>
                    </mask>
                    <path fill="#ECE561" d="M.3 11.047s42.491-3.16 71.36-6.336c28.87-3.176 53.179-5.883 53.179-5.883v25.91H.3V11.046z" mask="url(#x)"/>
                </g>
                <g transform="translate(7.126 48.26)">
                    <mask id="z" fill="#fff">
                        <use xlink:href="#y"/>
                    </mask>
                    <path fill="#C6D341" d="M124.976.945c-4.937.315-41.982 6.066-41.982 6.066s-28.822.505-36.37.187c-3.06.28-35.076 2.918-38.062 3.18C8.556 13.453.331 18.384.53 24.738h124.31l.137-23.793z" mask="url(#z)"/>
                </g>
                <g transform="translate(7.126 48.26)">
                    <mask id="B" fill="#fff">
                        <use xlink:href="#A"/>
                    </mask>
                    <path fill="#DEDD42" d="M113.414 8.445c4.124 0 8.01-.231 11.425-.639V4.778S110.967 6.93 97.37 7.415c-3.623.13-9.663.068-15.89.408-7.533.41-11.536.791-24.765 2.32C27.325 13.535.3 13.31.3 13.31v.59c3.217.587 6.95.613 11.407.613 8.333 0 15.397-.657 18.44-1.052 3.488-.453 8.443-.626 12.812-.626 9.88 0 18.579-.879 23.222-1.713 3.906-.701 9.79-.378 15.092-.378l32.141-2.3z" mask="url(#B)"/>
                </g>
                <g transform="translate(7.126 48.26)">
                    <mask id="D" fill="#fff">
                        <use xlink:href="#C"/>
                    </mask>
                    <path fill="#A9BC43" d="M.3 13.899s67.29-2.842 85.783-4.2c18.494-1.358 38.756-3.178 38.756-3.178v18.216H.3V13.9z" mask="url(#D)"/>
                </g>
                <g transform="translate(7.126 48.26)">
                    <mask id="F" fill="#fff">
                        <use xlink:href="#E"/>
                    </mask>
                    <path fill="#86B046" d="M126.437 8.083s-21.78 2.124-36.595 2.931c-14.815.808-25.82.145-25.82.145s8.786 3.767 26.465 6.165c18.032 2.445 33.337 7.276 33.337 7.276l2.613-16.517z" mask="url(#F)"/>
                </g>
                <g transform="translate(7.126 48.26)">
                    <mask id="H" fill="#fff">
                        <use xlink:href="#G"/>
                    </mask>
                    <path fill="#A3C045" d="M.3 5.384s70.716 5.975 88.585 8.664c9.34 1.405 35.954.755 35.954.755v10.614L.3 25.41V5.384z" mask="url(#H)"/>
                </g>
                <g transform="translate(7.126 48.26)">
                    <mask id="J" fill="#fff">
                        <use xlink:href="#I"/>
                    </mask>
                    <path fill="#79A022" d="M.3 11.172s39.898 2.285 55.588 4.216c15.692 1.933 30.923 3.417 39.604 4.685 8.155 1.192 29.142 5.338 29.142 5.338H.3V11.17z" mask="url(#J)"/>
                </g>
                <g transform="translate(7.126 48.26)">
                    <mask id="L" fill="#fff">
                        <use xlink:href="#K"/>
                    </mask>
                    <path fill="#53882A" d="M0 15.116s16.594.161 24.44 1.39c7.846 1.23 40.807 4.682 49.96 5.856 8.088 1.038 23.956 3.049 23.956 3.049H.3L0 15.116z" mask="url(#L)"/>
                </g>
                <g transform="translate(7.126 48.26)">
                    <mask id="N" fill="#fff">
                        <use xlink:href="#M"/>
                    </mask>
                    <path fill="#E4DF3D" d="M89.19 13.262C71.146 11.972.647 6.541.647 6.541L.3 8.72s70.723 3.975 88.748 5.474c9.47.787 35.79 1.954 35.79 1.954l-15.53-3.439s-9.988 1.276-20.118.552" mask="url(#N)"/>
                </g>
                <path fill="#877E7A" d="M43.152 58.973h31.39V49.8h-31.39z"/>
                <path fill="#D6B476" d="M54.687 56.734h10.151v-5.1H54.687z"/>
                <g transform="translate(7.126 .305)">
                    <path fill="#F9E6AE" d="M71.66 49.495H85.17V27.432c-5.134-3.044-9.577-2.823-13.508 0v22.063zm-34.718-26.3L62.72 3.736l13.383 10.103-15.057 11.368 1.674 2.226 5.61-4.236v26.299H36.943v-26.3z"/>
                    <path fill="#D6B476" d="M62.72 9.393a4.853 4.853 0 0 1 4.849 4.858 4.853 4.853 0 0 1-4.849 4.857 4.853 4.853 0 0 1-4.848-4.857 4.853 4.853 0 0 1 4.848-4.858"/>
                    <mask id="P" fill="#fff">
                        <use xlink:href="#O"/>
                    </mask>
                    <path fill="#716B68" d="M86.084 58.668h3.33v-9.173h-3.33zM67.415 58.668h3.33v-9.173h-3.33z" mask="url(#P)"/>
                    <path fill="#9E9E9E" d="M70.745 58.668h15.34v-1.835h-15.34z" mask="url(#P)"/>
                    <path fill="#8B8B8B" d="M70.745 56.833h15.34v-1.834h-15.34z" mask="url(#P)"/>
                    <path fill="#B0B0B0" d="M70.745 54.999h15.34v-1.835h-15.34z" mask="url(#P)"/>
                    <path fill="#9E9E9E" d="M70.745 53.164h15.34v-1.835h-15.34z" mask="url(#P)"/>
                    <path fill="#F1F1F1" d="M78.414 12.094L62.72.246l-33.063 24.96 1.674 2.225 31.39-23.696L76.102 13.84z" mask="url(#P)"/>
                    <path fill="#C2C2C2" d="M70.745 51.329h15.34v-1.834h-15.34z" mask="url(#P)"/>
                    <path fill="#48616F" d="M62.72 10.28a3.966 3.966 0 0 1 3.963 3.97 3.966 3.966 0 0 1-3.963 3.97 3.966 3.966 0 0 1-3.963-3.97 3.967 3.967 0 0 1 3.963-3.97" mask="url(#P)"/>
                    <path fill="#D6B476" d="M53.561 46.106h6.53V27.432h-6.53z" mask="url(#P)"/>
                    <path fill="#48616F" d="M48.446 55.542h8.38v-3.326h-8.38z" mask="url(#P)"/>
                    <path fill="#D6B476" d="M45.18 46.106h6.531V27.432h-6.53z" mask="url(#P)"/>
                    <path fill="#E9C175" d="M71.66 49.495H85.17V27.432c-5.134-3.044-9.577-2.823-13.508 0v22.063zm-3.33-26.3l10.084-7.611 10.084 7.612v26.299H68.331v-26.3z" mask="url(#P)"/>
                    <path fill="#FFF" d="M95.783 25.206L78.414 12.094 61.046 25.206l1.674 2.225 15.694-11.847L94.108 27.43z" mask="url(#P)"/>
                    <path fill="#BE9E69" d="M36.942 23.196L62.72 3.736l13.383 10.102-1.66 1.253-10.182-7.687-2.887 2.18a4.856 4.856 0 0 0-2.76 2.084l-21.672 16.36v-4.832z" mask="url(#P)"/>
                    <path fill="#A7844D" d="M68.33 23.196l10.084-7.613 10.084 7.58v2.494l-8.514-6.427-11.653 8.798z" mask="url(#P)"/>
                    <path fill="#AC8E5D" d="M71.66 49.495h3.29V37.584c3.067-2.202 6.445-2.82 10.219-1.541v-8.611c-5.134-3.044-9.577-2.823-13.508 0v22.063z" mask="url(#P)"/>
                    <path fill="#826B3F" d="M62.72 9.393c.607 0 1.19.113 1.726.317l-6.557 4.95a4.853 4.853 0 0 1 4.83-5.267" mask="url(#P)"/>
                    <path fill="#304048" d="M62.72 10.28c.291 0 .576.032.849.092l-4.804 3.627a3.967 3.967 0 0 1 3.955-3.719" mask="url(#P)"/>
                    <path fill="#48616F" d="M46.066 31.643h4.76v-3.325h-4.76v3.325zm0 13.576h4.76V32.53h-4.76v12.688z" mask="url(#P)"/>
                    <path fill="#826B3F" d="M47.56 56.429h1.154v-2.42h8.998v-2.68H47.561z" mask="url(#P)"/>
                    <path fill="#304048" d="M48.446 52.216h8.38v1.793h-8.112v1.533h-.268z" mask="url(#P)"/>
                    <path fill="#5A5554" d="M86.084 49.495l3.33 7.735v1.438h-3.33z" mask="url(#P)"/>
                    <path fill="#7BA3A1" d="M51.762 55.542l1.007-1.533h-1l-1.006 1.533h1zm2.677 0l1.006-1.533h-2.102l-1.006 1.533h2.102z" mask="url(#P)"/>
                    <path fill="#8EB8B6" d="M60.874 17.764l4.336-6.602-.01-.008a2.703 2.703 0 0 0-.063-.05l-.019-.014a4.973 4.973 0 0 0-.056-.042l-.02-.015-.054-.038-.027-.018a3.862 3.862 0 0 1-.05-.034l-.032-.021-.046-.03-.038-.024-.04-.025-.043-.025-.038-.022-.047-.025c-.011-.008-.024-.014-.036-.02a2.226 2.226 0 0 0-.05-.027l-.032-.017-4.329 6.591.04.032c.01.01.022.019.033.028l.041.033.032.023.047.036.029.02.05.037a5.259 5.259 0 0 1 .081.056l.02.011.06.04.011.006.003.002.075.045v.001l.012.007.068.04.011.006.079.042.002.001z" mask="url(#P)"/>
                    <path fill="#7BA3A1" d="M63.918 18.036l2.745-4.181a3.954 3.954 0 0 0-.871-2.113l-4.155 6.328c.343.098.708.15 1.083.15.418 0 .82-.064 1.198-.184" mask="url(#P)"/>
                    <path fill="#8A4949" d="M74.216 49.495h8.396v-19.19h-8.396z" mask="url(#P)"/>
                    <path fill="#48616F" d="M76.034 45.219h4.76V32.53h-4.76z" mask="url(#P)"/>
                    <path fill="#693C3C" d="M74.217 30.305h8.395v5.152c-2.763-.321-5.304.435-7.662 2.127v11.91h-.733v-19.19z" mask="url(#P)"/>
                    <path fill="#304048" d="M76.034 32.53h4.76v2.87c-1.667.097-3.25.601-4.76 1.48v-4.35z" mask="url(#P)"/>
                    <path fill="#48616F" d="M54.447 31.643h4.76v-3.325h-4.76v3.325zm0 13.576h4.76V32.53h-4.76v12.688z" mask="url(#P)"/>
                    <path fill="#826B3F" d="M53.561 46.105h1.154V30.111h5.377v-2.68h-6.53z" mask="url(#P)"/>
                    <path fill="#304048" d="M54.447 28.318h4.76v1.793h-4.492v1.533h-.268v-3.326zm0 16.9h.268V32.532h-.268v12.688z" mask="url(#P)"/>
                    <path fill="#826B3F" d="M45.18 46.105h1.155V30.111h5.376v-2.68h-6.53z" mask="url(#P)"/>
                    <path fill="#304048" d="M46.066 28.318h4.76v1.793h-4.492v1.533h-.268v-3.326zm0 16.9h.268V32.532h-.268v12.688z" mask="url(#P)"/>
                    <path fill="#8EB8B6" d="M46.334 41.83l4.492-6.839v-1.523l-4.492 6.84z" mask="url(#P)"/>
                    <path fill="#7BA3A1" d="M46.838 45.218l3.988-6.073v-3.102l-4.492 6.84v2.335zM54.715 42.67l4.491-6.839v-1.523l-4.491 6.84z" mask="url(#P)"/>
                    <path fill="#8EB8B6" d="M56.024 45.218l3.182-4.845v-3.405l-4.491 6.84v1.41z" mask="url(#P)"/>
                    <path fill="#7BA3A1" d="M76.034 45.035l4.76-7.248v-1.523l-4.76 7.248zM79.06 45.218l1.734-2.64v-3.57l-4.078 6.21z" mask="url(#P)"/>
                    <path fill="#54747E" d="M52.769 54.01l1.177-1.794h-1l-1.177 1.793h1zm2.676 0l1.178-1.794H54.52l-1.178 1.793h2.102zM54.447 43.08l.3-.41v-1.522l-.3.408v1.523zm.3.727l-.3.41v1.001h.3v-1.41zM46.066 42.24l.301-.41v-1.522l-.3.408v1.523zm.301.642l-.3.409v1.927h.3v-2.336z" mask="url(#P)"/>
                    <path fill="#BE9E69" d="M61.046 25.206l1.674 2.225 5.61-4.235v19.345z" mask="url(#P)"/>
                </g>
            </g>
        </g>
        <g>
            <path fill="#FFF" stroke="#BD924F" stroke-width="4.159" d="M166.193 76.406c-7.907 47.814 24.323 93.004 71.988 100.934 47.667 7.933 92.719-24.398 100.626-72.21 7.907-47.813-24.325-93.003-71.99-100.933-47.667-7.933-92.717 24.398-100.624 72.21z"/>
            <g font-family="NotoSerifCJKtc-Bold, Noto Serif CJK TC" font-weight="bold">
                <text fill="#430000" font-size="18" transform="translate(174.772 52.008)">
                    <tspan x="6" y="-5.63">累積代扣繳項目達</tspan>
                </text>
                <text fill="#430000" font-size="18" transform="translate(174.772 52.008)">
                    <tspan x="119.784" y="68.609">項</tspan>
                </text>
                <text fill="#F05050" font-size="50" transform="translate(174.772 52.008)">
                    <tspan x="37.284" y="97.37">1-2</tspan>
                </text>
            </g>
            <path fill="#C38C3B" d="M223.935 211.202l-10.777 8.865 6.68 8.38 2.474-2.035-2.384-2.992 4.206-3.46 2.385 2.992 4.096-3.37zM213.768 198.45l-2.144 1.764 2.177 2.73-2.297 1.889-2.176-2.73-2.346 1.93 2.212 2.774-2.297 1.89-2.213-2.774-1.692 1.392 6.68 8.38 10.776-8.865z"/>
            <path fill="#CA9A53" d="M251.696 181.124L220.45 206.83l-10.777 8.865-2.65 2.18 3.487 4.372 2.649-2.18 10.776-8.865 31.248-25.707z"/>
            <g transform="rotate(71 28.49 267.434)">
                <mask id="R" fill="#fff">
                    <use xlink:href="#Q"/>
                </mask>
                <path fill="#C38C3B" d="M5.514 19.647c-1.533-4.114.552-8.631 4.657-10.09l9.503-3.377c4.105-1.46 8.676.692 10.21 4.805 1.533 4.114-.552 8.632-4.657 10.09l-9.504 3.379c-4.105 1.458-8.676-.694-10.21-4.807m28.94-10.285C31.976 2.715 25.39-1.048 19.746.959L6.679 5.603C1.034 7.609-1.534 14.623.944 21.27c2.477 6.646 9.06 10.408 14.706 8.404l13.07-4.645c5.644-2.008 8.21-9.022 5.733-15.668" mask="url(#R)"/>
            </g>
            <path stroke="#B07D30" stroke-width="1.902" d="M255.298 165.037c3.39-2.788 8.34-2.287 11.056 1.12l6.287 7.885c2.716 3.407 2.17 8.429-1.22 11.218-3.39 2.789-8.34 2.289-11.057-1.118l-6.288-7.886c-2.715-3.407-2.169-8.43 1.222-11.219z"/>
            <path fill="#A36D22" d="M210.509 222.247l2.65-2.18 10.775-8.864 31.248-25.708-1.069-1.34-44.674 36.752z"/>
            <path fill="#BF8530" d="M223.934 211.202l-10.776 8.865 1.736 2.178 10.776-8.866zM220.449 206.83l-1.868-2.342-10.776 8.865 1.868 2.342z"/>
            <path stroke="#FFF" stroke-linecap="round" stroke-linejoin="round" stroke-width="2" d="M230.89 199.794l10.596-8.782M254.18 162.822c2.97-1.53 5.033-2.295 6.189-2.295 1.734 0 4.473.632 7.456 3.259"/>
        </g>
    </g>
</svg>
