<svg xmlns="http://www.w3.org/2000/svg" xmlns:xlink="http://www.w3.org/1999/xlink" width="109" height="109" viewBox="0 0 109 109">
    <defs>
        <radialGradient id="a" fx="50%" fy="50%">
            <stop offset="0%" stop-color="#FFF"/>
            <stop offset="13.363%" stop-color="#FFF"/>
            <stop offset="33.493%" stop-color="#FFF" stop-opacity=".892"/>
            <stop offset="40.472%" stop-color="#FFF" stop-opacity=".824"/>
            <stop offset="100%" stop-color="#FFF" stop-opacity="0"/>
        </radialGradient>
        <path id="b" d="M0 .111h69.614v18.455H0z"/>
    </defs>
    <g fill="none" fill-rule="evenodd">
        <circle cx="54.148" cy="54.148" r="54.148" fill="url(#a)"/>
        <text fill="#430000" font-family="NotoSerifCJKtc-Bold, Noto Serif CJK TC" font-size="16" font-weight="bold">
            <tspan x="16.148" y="85.522">路邊停車費</tspan>
        </text>
        <path fill="#0C2635" d="M77.115 54.668a5.335 5.335 0 1 1-10.67 0 5.335 5.335 0 0 1 10.67 0M39.989 54.668a5.334 5.334 0 1 1-10.669 0 5.334 5.334 0 0 1 10.669 0"/>
        <path fill="#20323F" d="M39.722 45.747c.559-.264 7.496-3.792 9.568-4.762 1.381-.647 3.233-1.028 3.233-1.028l-.102-.294c-6.614.882-15.213 5.997-15.213 5.997s1.954.352 2.514.087M79.098 43.961c-.731-.265-5.721-2.094-8.429-3.064-1.806-.647-4.227-1.028-4.227-1.028l-.748-.339c9.368.815 18.296 4.895 18.296 4.895s-4.163-.2-4.892-.464"/>
        <g transform="translate(19.339 39.022)">
            <mask id="c" fill="#fff">
                <use xlink:href="#b"/>
            </mask>
            <path fill="#CE652F" d="M69.546 10.804l-.959-.558-.115-3.168.324-1.102-5.82-1.528s-2.567.095-2.953.028C50.558.773 46.413.111 40.474.111c-6.468 0-9.406.06-20.298 6.322-.374.215-3.04-.149-3.04-.149-6.024.25-13.992 3.175-16.24 5.467-.64.625-.884.897-.896 1.936-.012 1.037.675 3.894.675 3.894s.44.587 1.767.634l2.95.106.99-.005 1.492.032V16.01a6.119 6.119 0 1 1 12.238 0v2.556l28.414-.356v-2.2a6.12 6.12 0 1 1 12.238 0v1.925c4.395-.672 7.614-1.61 8.282-2.656.84-1.317.5-4.475.5-4.475" mask="url(#c)"/>
        </g>
        <path fill="#20323F" d="M79.32 55.11a5.335 5.335 0 1 1-10.67 0 5.335 5.335 0 1 1 10.67 0"/>
        <path fill="#0C2635" d="M79.277 55.666a.491.491 0 0 0-.483.396 4.904 4.904 0 0 1-9.617.012.507.507 0 0 0-.497-.408h-.002a5.335 5.335 0 0 0 10.612 0h-.013zM70.882 54.526a3.16 3.16 0 0 1 6.208 0h.62a.53.53 0 0 0 .51-.683 4.419 4.419 0 0 0-8.466 0 .53.53 0 0 0 .508.683h.62z"/>
        <path fill="#506679" d="M77.088 55.692a3.155 3.155 0 0 1-6.203 0h-.62a.529.529 0 0 0-.509.682 4.418 4.418 0 0 0 4.23 3.15c1.999 0 3.686-1.328 4.23-3.15a.532.532 0 0 0-.508-.682h-.62z"/>
        <path fill="#E2E6F0" d="M77.948 55.11a3.963 3.963 0 1 1-7.927 0 3.963 3.963 0 0 1 7.927 0"/>
        <path fill="#0C2635" d="M77.522 55.11a3.537 3.537 0 1 1-7.075 0 3.537 3.537 0 1 1 7.075 0"/>
        <path fill="#E2E6F0" d="M75.217 55.11a1.232 1.232 0 1 1-2.464-.002 1.232 1.232 0 0 1 2.464.001"/>
        <path fill="#F0F2F8" d="M77.696 54.466h-.977a.937.937 0 0 1-.811-1.404l.488-.846-1.112-.643-.488.846a.936.936 0 0 1-1.622 0l-.488-.846-1.113.643.489.846a.937.937 0 0 1-.811 1.405h-.977v1.284h.977a.936.936 0 0 1 .81 1.405l-.488.846 1.113.642.488-.845a.937.937 0 0 1 1.622 0l.488.845 1.112-.642-.488-.846a.936.936 0 0 1 .81-1.405h.978v-1.285z"/>
        <path fill="#A6B3C6" d="M77.696 55.11h-7.422v.64h.977a.936.936 0 0 1 .81 1.406l-.488.846 1.113.642.488-.846a.937.937 0 0 1 1.622 0l.488.846 1.112-.642-.488-.846a.936.936 0 0 1 .81-1.405h.978v-.642z"/>
        <path fill="#0C2635" d="M74.643 55.11a.659.659 0 1 1-1.318-.002.659.659 0 0 1 1.318.001"/>
        <path fill="#20323F" d="M38.667 55.11a5.335 5.335 0 1 1-10.67 0 5.335 5.335 0 1 1 10.67 0"/>
        <path fill="#0C2635" d="M38.63 55.666a.498.498 0 0 0-.49.402 4.904 4.904 0 0 1-9.62-.005.491.491 0 0 0-.48-.397h-.014a5.335 5.335 0 0 0 10.612 0h-.008zM30.228 54.526a3.16 3.16 0 0 1 6.21 0h.618a.53.53 0 0 0 .51-.683 4.418 4.418 0 0 0-8.466 0 .53.53 0 0 0 .509.683h.62z"/>
        <path fill="#506679" d="M36.435 55.692a3.157 3.157 0 0 1-6.205 0h-.62a.53.53 0 0 0-.509.682 4.417 4.417 0 0 0 8.462 0 .53.53 0 0 0-.509-.682h-.619z"/>
        <path fill="#E2E6F0" d="M37.295 55.11a3.964 3.964 0 1 1-7.928-.003 3.964 3.964 0 0 1 7.928.002"/>
        <path fill="#0C2635" d="M36.869 55.11a3.538 3.538 0 1 1-7.075 0 3.538 3.538 0 0 1 7.075 0"/>
        <path fill="#E2E6F0" d="M34.564 55.11a1.232 1.232 0 1 1-2.464-.002 1.232 1.232 0 0 1 2.464.001"/>
        <path fill="#F0F2F8" d="M37.043 54.466h-.977a.936.936 0 0 1-.811-1.404l.489-.846-1.113-.643-.488.847a.936.936 0 0 1-1.622 0l-.489-.847-1.113.643.489.846a.938.938 0 0 1-.812 1.404h-.976v1.285h.977a.937.937 0 0 1 .811 1.405l-.489.846 1.113.642.489-.846a.936.936 0 0 1 1.622 0l.488.846 1.113-.642-.489-.846a.937.937 0 0 1 .81-1.405h.978v-1.285z"/>
        <path fill="#A6B3C6" d="M37.043 55.11H29.62v.64h.977a.937.937 0 0 1 .811 1.406l-.489.846 1.113.642.489-.846a.937.937 0 0 1 1.622 0l.488.846 1.113-.642-.489-.846a.937.937 0 0 1 .81-1.405h.978v-.642z"/>
        <path fill="#0C2635" d="M33.99 55.11a.658.658 0 1 1-1.316 0 .658.658 0 0 1 1.316 0M74.29 42.925c-7.252-2.583-10.623-2.851-14.903-2.865-6.394-.022-9.48.88-18.498 5.92-.138.135-.24.923-.24.923s22.354-1.332 31.305-1.949c.602-.043 1.94-1.047 2.336-2.029"/>
        <path fill="#0C2635" d="M71.935 44.69c-8.255.569-28.168 1.762-30.973 1.93.036-.196.08-.364.113-.44 4.715-2.634 7.532-3.974 10.035-4.777 2.804-.9 5.163-1.08 8.059-1.08l.216.001c2.253.007 4.092.088 6.295.465 2.338.401 4.964 1.13 8.242 2.286-.46.799-1.534 1.583-1.987 1.615m-12.548-4.63l-.218-.001c-6.248 0-9.364.939-18.28 5.92-.138.136-.24.924-.24.924s22.354-1.332 31.305-1.949c.602-.043 1.94-1.047 2.336-2.028-7.252-2.584-10.623-2.852-14.903-2.866"/>
        <g fill="#861114">
            <path d="M80.103 55.032v1.925c4.139-.633 7.232-1.5 8.138-2.474l-8.145.26c.004.096.007.192.007.29M27.213 57.37v-.94l-7.15.227c.146.147.639.543 1.718.58l2.95.105.99-.004 1.492.031zM67.865 55.134l-28.414.905v1.549l28.414-.356z"/>
        </g>
        <path fill="#0C2635" d="M55.876 47.338l-2.73.144.238-.5 2.73-.144zM69.528 46.528l-2.73.144.238-.5 2.73-.143z"/>
        <path fill="#506679" d="M55.876 47.25l-2.73.143.238-.498 2.73-.145zM69.528 46.44l-2.73.144.238-.499 2.73-.144z"/>
        <path fill="#DDF2F2" d="M87.509 47.953a1.347 1.347 0 0 0-1.175-1.26c-.883-.115-2.048-.259-2.541-.292-1.778-.122 1.611 2.7 1.611 2.7l2.178.144-.073-1.292zM26.112 49.328s-1.09 1.801-1.689 2.102c-1.853.926-4.41 1.278-4.512 1.278-.264-.963.807-1.751.807-1.751 1.314-.918 3.352-1.497 5.394-1.63"/>
        <path fill="#861114" d="M87.81 46.1l.325-1.103-3.966.588z"/>
        <path fill="#F47A54" d="M44.605 45.282c-1.273.324-2.197.824-2.895 1.848.816.281 1.875.322 2.895.138v-1.986z"/>
        <path fill="#0C1B24" d="M44.605 47.268v-.777l-2.895.639c.816.281 1.875.322 2.895.138"/>
        <path fill="#FFF" d="M44.605 45.282c-1.273.324-2.197.824-2.895 1.848 0 0 1.182-.93 2.895-1.375v-.473z"/>
    </g>
</svg>
