<svg xmlns="http://www.w3.org/2000/svg" xmlns:xlink="http://www.w3.org/1999/xlink" width="109" height="109" viewBox="0 0 109 109">
    <defs>
        <radialGradient id="a" fx="50%" fy="50%">
            <stop offset="0%" stop-color="#FFF"/>
            <stop offset="13.363%" stop-color="#FFF"/>
            <stop offset="33.493%" stop-color="#FFF" stop-opacity=".892"/>
            <stop offset="40.472%" stop-color="#FFF" stop-opacity=".824"/>
            <stop offset="100%" stop-color="#FFF" stop-opacity="0"/>
        </radialGradient>
        <path id="b" d="M0 .207h21.733v27.77H0z"/>
        <path id="d" d="M.06.198h4.116v1.484H.06z"/>
    </defs>
    <g fill="none" fill-rule="evenodd">
        <circle cx="54.148" cy="54.148" r="54.148" fill="url(#a)"/>
        <text fill="#430000" font-family="NotoSerifCJKtc-Bold, Noto Serif CJK TC" font-size="16" font-weight="bold">
            <tspan x="36.641" y="97.522">電費</tspan>
        </text>
        <g transform="translate(43.484 27.09)">
            <mask id="c" fill="#fff">
                <use xlink:href="#b"/>
            </mask>
            <path fill="#FFCF08" d="M18.78 18.515a10.826 10.826 0 0 0 2.953-7.442c0-6.001-4.865-10.867-10.867-10.867C4.866.206 0 5.072 0 11.073c0 2.88 1.123 5.498 2.952 7.442.824 1.031 2.048 2.741 2.36 4.149l.007.002a5.553 5.553 0 0 0 11.095 0l.006-.002c.313-1.408 1.537-3.118 2.36-4.149" mask="url(#c)"/>
        </g>
        <path fill="#BFBFBF" d="M48.797 49.755v4.587h.006c.126 2.956 2.562 4.516 5.548 4.516s5.421-1.56 5.547-4.516h.007v-4.587H48.797z"/>
        <g transform="translate(52.233 58.383)">
            <mask id="e" fill="#fff">
                <use xlink:href="#d"/>
            </mask>
            <path fill="#8A8A8A" d="M2.118.475A7.455 7.455 0 0 1 .06.198a2.17 2.17 0 0 0 2.058 1.485A2.17 2.17 0 0 0 4.176.198a7.458 7.458 0 0 1-2.058.277" mask="url(#e)"/>
        </g>
        <path fill="#F2F2F2" d="M48.844 56.514l11.108-.724a.725.725 0 0 0-.094-1.446l-11.108.725a.725.725 0 0 0 .094 1.445m0-2.656l11.108-.724a.725.725 0 0 0-.094-1.446l-11.108.725a.725.725 0 1 0 .094 1.445m-.048-2.654a.725.725 0 0 1-.046-1.448l11.108-.724a.724.724 0 1 1 .094 1.446l-11.108.724a.766.766 0 0 1-.048.002"/>
        <path fill="#EFEFEF" d="M58.69 36.245a.472.472 0 0 0-.234.004.483.483 0 0 0-.121-.017c-.586 0-.873.416-1.062.692-.153.222-.203.274-.267.274-.063 0-.114-.052-.267-.274-.19-.276-.476-.692-1.062-.692-.586 0-.873.416-1.062.692-.153.222-.203.274-.266.274s-.113-.052-.266-.274c-.189-.276-.476-.692-1.061-.692-.586 0-.873.416-1.062.692-.153.222-.203.274-.266.274s-.113-.052-.266-.274c-.19-.276-.476-.692-1.061-.692a.486.486 0 0 0-.122.017.483.483 0 0 0-.59.579l3.14 13.04a.484.484 0 0 0 .939-.226l-2.852-11.848c.183.197.434.37.812.37.586 0 .872-.417 1.062-.693.152-.222.202-.273.266-.273.062 0 .113.05.265.273.19.276.475.693 1.062.693.586 0 .872-.417 1.062-.693.153-.222.202-.273.266-.273s.114.05.267.274c.189.275.476.692 1.062.692.379 0 .631-.174.815-.371l-2.854 11.849a.484.484 0 0 0 .94.225l3.139-13.04a.482.482 0 0 0-.356-.582"/>
        <g fill="#E60011">
            <path d="M41.753 26.58v-3.845l-6.043 8.13v-1.977L28.13 39.326l4.944-4.175-.33 3.186 6.373-7.8-.22 3.515 13.514-18.84zM35.71 53.878V51.9l6.043 8.13v-3.845L52.41 67.554l-13.514-18.84.22 3.515-6.372-7.8.33 3.186-4.945-4.175zM55.304 14.944l13.514 18.839-.22-3.516 6.372 7.802-.329-3.187 4.944 4.175-7.58-10.437v1.977l-6.044-8.13v3.845zM74.64 47.346l.33-3.186-6.372 7.801.22-3.516-13.514 18.84L65.96 55.916v3.846l6.043-8.131v1.978l7.581-10.438z"/>
        </g>
    </g>
</svg>
