<svg xmlns="http://www.w3.org/2000/svg" xmlns:xlink="http://www.w3.org/1999/xlink" width="109" height="109" viewBox="0 0 109 109">
    <defs>
        <radialGradient id="a" fx="50%" fy="50%">
            <stop offset="0%" stop-color="#FFF"/>
            <stop offset="13.363%" stop-color="#FFF"/>
            <stop offset="33.493%" stop-color="#FFF" stop-opacity=".892"/>
            <stop offset="40.472%" stop-color="#FFF" stop-opacity=".824"/>
            <stop offset="100%" stop-color="#FFF" stop-opacity="0"/>
        </radialGradient>
        <path id="b" d="M.242.261h14.625V13.44H.242z"/>
    </defs>
    <g fill="none" fill-rule="evenodd">
        <circle cx="54.148" cy="54.148" r="54.148" fill="url(#a)"/>
        <text fill="#430000" font-family="NotoSerifCJKtc-Bold, Noto Serif CJK TC" font-size="15" font-weight="bold">
            <tspan x="34.737" y="80">e-Tag</tspan> <tspan x="23" y="98.48">自動儲值</tspan>
        </text>
        <path fill="#A2CCD3" d="M26.24 59.871h57.325V22.865H26.24z"/>
        <path fill="#364C56" d="M26.255 60.186h57.322V23.179H26.255v37.007zm58.262-39.854H25.315c-.724 0-1.315.747-1.315 1.66v39.854c0 .915.59 1.66 1.315 1.66h59.202c.724 0 1.315-.745 1.315-1.66V21.992c0-.913-.59-1.66-1.315-1.66z"/>
        <g>
            <g transform="translate(64.44 39.208)">
                <mask id="c" fill="#fff">
                    <use xlink:href="#b"/>
                </mask>
                <path fill="#060101" d="M9.837 2.277a5.913 5.913 0 0 0-.509.01s-1.115.092-1.692.312a4.048 4.048 0 0 0-1.558 1.036c-.429.47-.704.954-.844 1.458-.098.377-.106.73-.033 1.047.088.34.292.601.642.786.32.185.692.275 1.1.275.595 0 1.196-.174 1.762-.522a4.063 4.063 0 0 0 1.357-1.45c.323-.57.887-2.298.887-2.298.038-.124.097-.3.116-.377.023-.074-.02-.145-.084-.16-.081-.012-.252-.028-.387-.048l-.757-.07zm-3.36 11.132c-.133.004-.368.01-.51.01L.44 13.44c-.146 0-.226-.11-.187-.238l.493-1.5a.368.368 0 0 1 .332-.24h4.051c.434 0 .814-.03 1.178-.108.379-.076.684-.171.928-.284.246-.11.488-.26.706-.449.216-.19.393-.388.542-.614.15-.228.272-.476.374-.74.108-.277.294-.82.294-.82.048-.136.112-.358.148-.486l.058-.171c.04-.132-.022-.187-.143-.11l-.195.113c-.123.075-.313.198-.44.265l-.638.36a6.615 6.615 0 0 1-.833.335c-.313.104-.65.189-1.037.258-.373.055-.747.09-1.14.09-.899 0-1.675-.174-2.296-.507-.624-.319-1.015-.766-1.21-1.345-.187-.584-.187-1.22 0-1.9a5.363 5.363 0 0 1 1.144-2.184c.554-.662 1.248-1.21 2.07-1.673A8.788 8.788 0 0 1 7.262.539a15.717 15.717 0 0 1 3.051-.278c.65 0 1.382.034 2.168.1.614.052 2.187.246 2.187.246.142.02.227.147.192.283l-2.065 7.748a8.85 8.85 0 0 1-.137.49l-.226.753c-.04.14-.11.352-.165.486 0 0-.157.431-.329.739a3.472 3.472 0 0 1-.562.762 3.948 3.948 0 0 1-.807.604c-.343.2-.696.35-1.1.482-.412.12-.88.222-1.434.302-.568.084-1.556.153-1.556.153z" mask="url(#c)"/>
            </g>
            <path fill="#060101" d="M63.299 47.813a.372.372 0 0 1-.337.252h-3.165c-.14 0-.217-.116-.173-.252l1.204-3.408c.037-.128.117-.346.155-.483v-.005c.05-.126-.018-.205-.153-.156l-.01.01c-.132.037-.357.115-.486.154 0 0-.269.103-.448.141-.164.056-.472.13-.852.211-.421.092-.761.174-.999.24-.265.07-.506.161-.72.267-.255.13-.432.273-.569.419-.13.138-.23.315-.284.507-.05.215-.064.511.224.76.208.173.544.259 1.037.259.155 0 2.844.031 2.844.031.137 0 .219.11.172.242l-.405.811c-.045.136-.206.252-.343.241 0 0-3.433-.038-3.926-.038-.866 0-1.558-.095-2.07-.283-.493-.175-.828-.471-1.01-.862-.174-.398-.213-.786-.114-1.161.062-.23.178-.455.34-.672.165-.231.394-.459.674-.679.291-.23.622-.434.977-.586.362-.163.85-.333 1.464-.481a25.14 25.14 0 0 1 2.33-.43c.394-.067.778-.128 1.115-.199.34-.071.595-.13.76-.181a1.78 1.78 0 0 0 .478-.228c.142-.095.263-.202.342-.317a.984.984 0 0 0 .18-.363c.069-.237.069-.55-.298-.78-.25-.142-.608-.217-1.106-.217-1.034 0-3.833.032-3.833.032-.135.01-.205-.099-.135-.23l.433-.866a.435.435 0 0 1 .357-.234h4.727c.825 0 1.574.073 2.23.224.616.149 1.07.368 1.346.681.249.282.316.685.163 1.232-.055.218-.318.968-.318.968-.04.134-.12.35-.158.482l-1.64 4.947z"/>
            <path fill="#060101" d="M50.794 47.813a.388.388 0 0 1-.339.252H46.96c-.146 0-.228-.116-.184-.252l1.548-5.09c.04-.131.119-.35.156-.49l1.42-4.616c.045-.138.103-.312.124-.408.02-.084-.02-.152-.115-.152h-4.277c-.133 0-.218-.11-.162-.25l.523-1.573a.387.387 0 0 1 .34-.234h12.843c.147 0 .228.107.182.234l-.534 1.574a.385.385 0 0 1-.334.249h-4.218c-.08 0-.171.06-.191.14-.025.082-.079.264-.13.39l-3.157 10.226z"/>
            <path fill="#D72C18" d="M38.788 39.25a5.069 5.069 0 0 0-.507-.006s-.342.022-.633.098a3.46 3.46 0 0 0-.865.35 3.03 3.03 0 0 0-.716.526c-.21.197-.377.39-.507.575-.1.172-.263.486-.263.486-.065.125-.174.323-.227.45-.069.127-.01.228.112.228H39.935c.09 0 .19-.08.228-.175.032-.1.085-.286.13-.408l.027-.095c.105-.426.121-.809.006-1.123-.122-.336-.357-.57-.694-.715-.295-.142-.844-.19-.844-.19zm-2.116 8.815c-.075 0-.244 0-.383-.011 0 0-1.711-.052-2.537-.165-.797-.105-1.464-.302-1.992-.583-.523-.27-.932-.614-1.221-1.023-.286-.388-.453-.872-.514-1.432a4.587 4.587 0 0 1 .153-1.721c.22-.837.657-1.66 1.292-2.463.628-.796 1.328-1.43 2.105-1.877a8.783 8.783 0 0 1 2.57-.97 13.374 13.374 0 0 1 5.537-.026c.805.175 1.444.473 1.914.902.476.436.75.9.85 1.425.106.53.075 1.123-.096 1.727-.08.292-.264.783-.264.783-.048.128-.271.507-.407.507l-8.41-.039h-.428c-.102 0-.207.073-.23.164-.033.108-.028.014-.065.136l-.035.102c-.238.891 0 1.577.676 1.99.52.327 1.765.518 1.765.518.144.026.375.04.511.04l4.682.018c.14 0 .204.105.148.23l-.707 1.526c-.06.126-.222.242-.359.242h-4.556z"/>
        </g>
    </g>
</svg>
