<svg xmlns="http://www.w3.org/2000/svg" xmlns:xlink="http://www.w3.org/1999/xlink" width="167" height="168" viewBox="0 0 167 168">
    <defs>
        <filter id="a" width="379.5%" height="211.9%" x="-138.2%" y="-55.9%" filterUnits="objectBoundingBox">
            <feOffset in="SourceAlpha" result="shadowOffsetOuter1"/>
            <feGaussianBlur in="shadowOffsetOuter1" result="shadowBlurOuter1" stdDeviation="8.5"/>
            <feColorMatrix in="shadowBlurOuter1" result="shadowMatrixOuter1" values="0 0 0 0 1 0 0 0 0 1 0 0 0 0 1 0 0 0 1 0"/>
            <feMerge>
                <feMergeNode in="shadowMatrixOuter1"/>
                <feMergeNode in="SourceGraphic"/>
            </feMerge>
        </filter>
        <path id="b" d="M0 .072h23.057v58.241H0z"/>
        <path id="d" d="M0 .07h26.378v59.323H0z"/>
        <path id="f" d="M0 .283h23.176V20.39H0z"/>
        <radialGradient id="h" r="63.194%" fx="50%" fy="50%" gradientTransform="matrix(0 .99773 -1 0 1 .001)">
            <stop offset="0%" stop-color="#FFF" stop-opacity=".026"/>
            <stop offset="48.007%" stop-color="#FFFDF7" stop-opacity=".286"/>
            <stop offset="100%" stop-color="#FFC645" stop-opacity=".161"/>
        </radialGradient>
    </defs>
    <g fill="none" fill-rule="evenodd">
        <g filter="url(#a)" transform="rotate(-38 159.197 -83.893)">
            <g transform="translate(.378 .084)">
                <mask id="c" fill="#fff">
                    <use xlink:href="#b"/>
                </mask>
                <path fill="#FFCE2D" d="M5.772 15.975c.307-.302.503-.572.568-.667l.966-1.326.029.027a7.193 7.193 0 0 1 2.23 5.23v.064c-1.321-.486-2.98-1.45-3.793-3.328zM4.58 14.11a.805.805 0 0 0-.022.031c-.137.2-.646.79-1.17.871-.157.025-.409.024-.785-.263-.373-.285-.436-.53-.452-.69-.031-.326.123-.693.288-.977.248-.425.648-.757 1.134-.877.455-.113 1.079-.088 1.85.363l.195.117L4.58 14.11zM7.198 5.72c1.103-1.254 2.96-1.629 3.682-1.73a10.745 10.745 0 0 1 1.305.001c.728.103 2.575.479 3.675 1.73.627.713.92 1.598.89 2.7-.213.212-.51.515-.858.89a.622.622 0 0 1-.952-.057l-2.383-3.27c-.694-.795-1.523-.684-2.056 0l-2.384 3.27a.622.622 0 0 1-.951.056 35.67 35.67 0 0 0-.858-.89c-.03-1.1.262-1.986.89-2.7zm4.33-4.71c.564 0 1.02.446 1.02.996 0 .549-.456.994-1.02.994-.563 0-1.02-.445-1.02-.994 0-.55.457-.995 1.02-.995zm5.758 14.964c-.814 1.877-2.472 2.842-3.793 3.328v-.065a7.193 7.193 0 0 1 2.258-5.256l.966 1.326c.065.095.262.365.569.667zm.349-3.408c.77-.45 1.394-.476 1.85-.363.485.12.886.452 1.133.877.166.284.32.651.288.977-.015.16-.079.405-.452.69-.376.287-.627.288-.784.263-.525-.082-1.033-.67-1.17-.87a.948.948 0 0 0-.022-.032l-1.038-1.425c.064-.04.13-.079.195-.117zm-6.633 1.707a24.988 24.988 0 0 0-1.647-2.391.583.583 0 0 1-.007-.702l1.682-2.307a.621.621 0 0 1 .998 0l1.681 2.307a.583.583 0 0 1-.007.702 24.967 24.967 0 0 0-1.646 2.391.618.618 0 0 1-1.054 0zm3.435 41.162h.97v-7.883h-.97v7.883zm3.88 0h.97v-7.883h-.97v7.883zm-10.664 0h.97v-7.883h-.97v7.883zm-3.88 0h.97v-7.883h-.97v7.883zm11.244-34.487c1.503-.684 3.166-1.868 4.135-3.906.053.011.105.024.16.033.593.097 1.502.057 2.466-.68.754-.575 1.192-1.322 1.268-2.16.14-1.548-1-2.838-1.13-2.98-.168-.18-.4-.376-.688-.557.22-.963.36-3.017-2.374-3.204-.136-1.211-.595-2.267-1.377-3.15-.934-1.057-2.17-1.666-3.23-2.016C14.035 1.05 12.901.072 11.53.072c-1.372 0-2.507.978-2.719 2.257-1.06.35-2.295.959-3.23 2.015-.782.884-1.241 1.94-1.377 3.15C1.47 7.683 1.61 9.737 1.83 10.7c-.287.18-.52.377-.688.557-.13.142-1.269 1.432-1.13 2.98.077.838.515 1.585 1.268 2.16.965.737 1.874.777 2.467.68.054-.009.107-.022.16-.033.969 2.038 2.632 3.222 4.135 3.906.198.574.635 1.507 1.523 2.202v2.16c-.86.01-1.554.429-1.554.945 0 .522.708.946 1.58.946v.75c-.872 0-1.58.423-1.58.945s.708.945 1.58.945v16.45H6.683v1.261h-.97v-1.26h-2.91v1.26h-.97v-1.26H.865v10.404h.97v-1.261h.97v1.261h2.91v-1.261h.969v1.261H9.59v1.616h3.877v-1.616h2.91v-1.261h.97v1.261h2.909v-1.261h.97v1.261h.97V46.292h-.97v1.261h-.97v-1.26h-2.91v1.26h-.97v-1.26h-2.909V29.841c.873 0 1.58-.423 1.58-.945s-.707-.946-1.58-.946v-.75c.873 0 1.58-.423 1.58-.945 0-.516-.693-.936-1.554-.944v-2.16c.889-.696 1.326-1.629 1.524-2.203z" mask="url(#c)"/>
            </g>
            <path fill="#FFF" d="M22.128 14.984c.39-1.359-.74-2.46-.79-2.506a.333.333 0 0 0-.459.003.307.307 0 0 0 .003.444c.01.009.91.884.62 1.89a.313.313 0 0 0 .227.387.323.323 0 0 0 .4-.219m-1.546 1.5c.338-.11.65-.284.902-.504a.307.307 0 0 0 .023-.444.332.332 0 0 0-.458-.022 1.92 1.92 0 0 1-.672.374.312.312 0 0 0-.206.397.324.324 0 0 0 .41.198M17.705 8.41a.318.318 0 0 0 .304-.334c-.117-1.76-1.325-2.684-1.376-2.723a.333.333 0 0 0-.456.056.307.307 0 0 0 .058.44c.01.009 1.028.786 1.125 2.267a.32.32 0 0 0 .345.294M5.62 6.763a.33.33 0 0 1-.13-.026.31.31 0 0 1-.168-.413 5.19 5.19 0 0 1 .867-1.333c.753-.844 1.797-1.488 3.104-1.915a.328.328 0 0 1 .411.197.312.312 0 0 1-.203.398c-1.196.39-2.144.973-2.82 1.73a4.559 4.559 0 0 0-.763 1.173.325.325 0 0 1-.298.189m-.414 1.543l-.036-.002a.317.317 0 0 1-.287-.347c.029-.257.074-.51.135-.753a.326.326 0 0 1 .392-.232c.175.041.282.211.24.38a5.179 5.179 0 0 0-.122.674.321.321 0 0 1-.322.28m4.877.605a.33.33 0 0 1-.188-.058.308.308 0 0 1-.077-.438l1.334-1.813c.104-.133.372-.422.748-.422.18 0 .325.141.325.314a.32.32 0 0 1-.325.314c-.046 0-.14.059-.225.166L10.348 8.78a.328.328 0 0 1-.265.132M9.02 10.355a.33.33 0 0 1-.188-.058.308.308 0 0 1-.076-.438l.348-.473a.332.332 0 0 1 .453-.075c.146.1.18.297.076.438l-.348.474a.328.328 0 0 1-.265.132m-6.286.512a.32.32 0 0 1-.322-.281 2.882 2.882 0 0 1 .017-.814c.053-.298.162-.555.324-.766a.332.332 0 0 1 .455-.063c.143.103.173.3.066.44-.1.13-.17.296-.205.495a2.272 2.272 0 0 0-.011.642.316.316 0 0 1-.324.347m-1.74 4.03a.32.32 0 0 1-.323-.286c-.13-1.438 1.005-2.68 1.054-2.732.16-.172.382-.349.625-.5l.381-.237a.332.332 0 0 1 .449.094.308.308 0 0 1-.098.434l-.38.237a2.55 2.55 0 0 0-.495.393c-.009.01-.995 1.087-.889 2.256a.317.317 0 0 1-.324.341m12.015.41a.33.33 0 0 1-.164-.043.308.308 0 0 1-.116-.43c.32-.531.693-1.087 1.105-1.652a.332.332 0 0 1 .453-.076c.147.1.181.296.078.438-.402.55-.764 1.09-1.075 1.607a.326.326 0 0 1-.28.155m-1.091.606a.32.32 0 0 1-.325-.314.32.32 0 0 1 .325-.314.99.99 0 0 0 .246-.03.326.326 0 0 1 .397.222.313.313 0 0 1-.23.384 1.654 1.654 0 0 1-.413.052m-1.418 2.823a.322.322 0 0 1-.32-.267 7.417 7.417 0 0 0-2.249-4.282l-.574-.53a.307.307 0 0 1-.01-.444.333.333 0 0 1 .459-.01l.575.532a8.04 8.04 0 0 1 2.44 4.64.316.316 0 0 1-.321.361m5.231 1.077a.327.327 0 0 1-.274-.145.308.308 0 0 1 .099-.434c.876-.542 1.57-1.22 2.064-2.016a.33.33 0 0 1 .446-.108c.154.09.204.283.111.431-.546.88-1.31 1.627-2.271 2.222a.331.331 0 0 1-.175.05m-1.61.775a.324.324 0 0 1-.304-.204.31.31 0 0 1 .189-.404 9.11 9.11 0 0 0 .643-.263.33.33 0 0 1 .432.15.31.31 0 0 1-.156.418 9.628 9.628 0 0 1-.69.282.33.33 0 0 1-.115.02m-3.526.32a.32.32 0 0 1-.325-.313v-.973a.32.32 0 0 1 .325-.314c.179 0 .325.14.325.314v.973a.32.32 0 0 1-.325.314m3.037 5.679h-.623a.32.32 0 0 1-.325-.315.32.32 0 0 1 .325-.314h.623c.179 0 .325.141.325.314a.32.32 0 0 1-.325.315m-4.618.435a.325.325 0 0 1-.323-.322c0-.416.46-.742 1.045-.742h2.264c.18 0 .325.141.325.314a.32.32 0 0 1-.325.315H9.737c-.238 0-.38.09-.399.129 0 .173-.144.306-.323.306m4.618 2.195h-.623a.32.32 0 0 1-.325-.315.32.32 0 0 1 .325-.314h.623c.179 0 .325.141.325.314a.32.32 0 0 1-.325.315m-4.618.435a.325.325 0 0 1-.323-.322c0-.416.46-.742 1.045-.742h2.264c.18 0 .325.141.325.314a.32.32 0 0 1-.325.315H9.737c-.238 0-.38.09-.399.129 0 .173-.144.306-.323.306m1.722 25.625a.32.32 0 0 1-.325-.314v-23.88a.32.32 0 0 1 .325-.314c.179 0 .324.14.324.314v23.88a.32.32 0 0 1-.324.314m0 2.857a.32.32 0 0 1-.325-.314v-1.567a.32.32 0 0 1 .325-.314c.179 0 .324.14.324.314v1.567a.32.32 0 0 1-.324.314"/>
            <path fill="#FFA810" d="M9.5 20.39c-1.31-.47-3.034-1.42-3.949-3.273-.412.2-.85.284-1.026.3.502-.245.845-.687.845-.687l.142-.135c.307-.296.495-.554.55-.632l.968-1.297c-.099-.455-.65-1.009-.65-1.009l.872.71.28.258c.69.638 1.243 1.4 1.643 2.235a7.108 7.108 0 0 0-1.53-2.03l-.03-.027-.992 1.325a4.758 4.758 0 0 1-.584.668c.83 1.864 2.515 2.828 3.866 3.317v.424L9.5 20.39zm14.277-5.333c-.078.838-.528 1.584-1.301 2.16-.99.737-1.924.777-2.533.68-.056-.01-.11-.022-.165-.034-.995 2.038-2.702 3.222-4.245 3.906-.204.575-.652 1.508-1.565 2.203v2.16h-.02c.896 0 1.622.423 1.622.945s-.726.945-1.622.945v.75h-.84v-.75H9.968c-.65 0-1.209-.223-1.468-.545.297.16.72.26 1.191.26h3.981c.896 0 1.622-.36 1.622-.803 0-.443-.726-.802-1.622-.802h-.562v-1.844c-.634.107-1.242.008-1.301-.048.827.012 1.518-.405 1.518-.405l.112-.086c.828-.633 1.252-1.475 1.463-2.07l.04-.117.117-.051c1.908-.85 3.283-2.117 4.086-3.768l.013-.028c-.295-.128-.719-.341-.877-.662.557.402.965.48.965.48l.279.06c.034.009.069.016.105.022.143.023.29.034.435.034.647 0 1.27-.22 1.855-.657.704-.526 1.113-1.203 1.183-1.96.132-1.43-.956-2.632-1.08-2.764a3.193 3.193 0 0 0-.644-.508l-.176-.108s-2.12-.327-3.155.276c.172-.297 1.706-1.164 3.258-.765.081-.516.09-1.242-.33-1.778-.745-.909-2.778-.55-3.096-.471.234-.207.962-.33.962-.33l-.027-.238c-.133-1.153-.583-2.16-1.338-2.994-.77-.851-1.839-1.501-3.175-1.932l-.17-.055-.03-.17c-.198-1.169-1.243-2.018-2.486-2.018-.99 0-1.853.54-2.264 1.351.431-.96 1.43-1.636 2.6-1.636 1.409 0 2.574.978 2.791 2.258 1.09.35 2.357.958 3.317 2.015.803.883 1.275 1.939 1.414 3.15 2.808.187 2.664 2.241 2.438 3.205.295.18.534.376.706.557.134.142 1.304 1.431 1.16 2.98zm-20.186.775c-.16.025-.419.023-.805-.264-.383-.285-.448-.53-.464-.69-.032-.325.126-.692.296-.976a1.886 1.886 0 0 1 1.164-.878c.467-.112 1.108-.087 1.9.364l.2.117-1.066 1.424a1.077 1.077 0 0 0-.023.032c-.14.2-.663.789-1.202.87zm2.403-2.407l-.266-.161a10.249 10.249 0 0 0-.206-.121c-.534-.306-1.062-.46-1.566-.46-.189 0-.375.021-.555.064a2.186 2.186 0 0 0-1.347 1.014c-.174.292-.373.728-.332 1.144.033.333.221.623.576.888.3.225.583.334.864.334.056 0 .112-.004.17-.013.778-.119 1.393-.986 1.4-.995l1.262-1.694zm8.819-1.691s.513-.711.088-1.444l-.003-.006c-.012-.015-.025-.028-.036-.043l-2.431-3.26c-.263-.291-.552-.445-.836-.445-.22 0-.439.095-.63.268l-.114.062.044-.06c.548-.685 1.4-.796 2.112 0l2.447 3.27c.218.29.646.33.921.102l.01.003-.25.278-1.322 1.275zM5.056 8.557c.226.014.606.098.922.262.049-.98.371-1.788.979-2.463 1.191-1.324 3.16-1.719 3.952-1.827.147-.02.538-.022.7-.022.129 0 .564.001.72.023.79.109 2.757.505 3.945 1.826.178.197.33.406.46.628-.1-.154-.21-.302-.336-.442-1.13-1.25-3.026-1.627-3.774-1.73a11.328 11.328 0 0 0-1.339 0c-.743.1-2.648.475-3.781 1.73-.644.713-.945 1.599-.914 2.7.218.212.523.515.881.89a.65.65 0 0 0 .977-.056l-.214.308c-.165.21-.37.633.104 1.11.426.406.9.211.987.094l1.536-2.06a.942.942 0 0 1 .754-.37c.155 0 .305.037.438.105l.375.382v.012a.646.646 0 0 0-.99.037l-1.726 2.308a.57.57 0 0 0 .007.701c.59.745 1.177 1.556 1.69 2.392.232.376.783.389 1.044.048l-.137.224a.931.931 0 0 1-.7.309.925.925 0 0 1-.799-.437 24.599 24.599 0 0 0-1.665-2.364s-1.038-1.402-2.223-2.551c-.372-.39-.678-.695-.87-.883l-.082-.08s-.558-.59-.921-.804zm5.848-5.73c0 .55.469.995 1.047.995.387 0 .721-.202.902-.498-.204.46-.682.783-1.238.783-.74 0-1.343-.574-1.343-1.28 0-.706.603-1.28 1.343-1.28.556 0 1.035.323 1.238.783a1.054 1.054 0 0 0-.902-.498c-.578 0-1.047.445-1.047.995zm7.317 10.56a9.523 9.523 0 0 0-.2.118l1.066 1.424.022.032c.14.2.663.789 1.202.87.16.026.42.024.805-.263.097-.072.174-.142.235-.209a1.635 1.635 0 0 1-.418.434c-.3.225-.583.334-.864.334a1.11 1.11 0 0 1-.17-.013c-.778-.119-1.393-.986-1.4-.996l-1.032-1.384c-1.08.031-1.167.934-1.173 1.055l.006.008-.007.006-.002.005-.004-.005-.03.027a7.103 7.103 0 0 0-2.289 5.229v.065a.19.19 0 0 0 .009-.003l-.003.003v.175a9.127 9.127 0 0 1-.243.092l-.405.146v-.478c0-2.057.865-4.038 2.371-5.433l.282-.258 1.258-.943.266-.161c.068-.042.137-.082.206-.121.534-.306 1.061-.46 1.566-.46.189 0 .375.021.554.064.51.123.966.449 1.273.9-.25-.3-.588-.528-.982-.623-.467-.112-1.108-.087-1.9.364zm-4.273 15.385h-.277c.896 0 1.622.36 1.622.802 0 .444-.726.803-1.622.803h-3.98c-.472 0-.895-.1-1.192-.26.26.322.818.546 1.468.546h3.142v28.47h.839v-28.47c.896 0 1.622-.424 1.622-.946s-.726-.945-1.622-.945zM3.994 57.518h.996v-1.262h-.996v1.262zm0-9.144h.996v-1.261h-.996v1.26zm-1.992 7.882h.996v-7.882h-.996v7.882zm3.984 0h.995v-7.882h-.995v7.882zm1.991-7.882h.996v-1.261h-.996v1.26zm0 9.144h.996v-1.262h-.996v1.262zm10.95 0h.996v-1.262h-.996v1.262zm0-9.144h.996v-1.261h-.996v1.26zm1.992 7.882h.996v-7.882h-.996v7.882zm-3.984 0h.996v-7.882h-.996v7.882zm-1.991-7.882h.996v-1.261h-.996v1.26zm0 9.144h.996v-1.262h-.996v1.262z"/>
        </g>
        <g transform="scale(-1 1) rotate(-18 192.11 292.82)">
            <mask id="e" fill="#fff">
                <use xlink:href="#d"/>
            </mask>
            <path fill="#66697F" d="M14.565 11.857c0 .742-.616 1.343-1.376 1.343-.76 0-1.376-.601-1.376-1.343s.616-1.344 1.376-1.344c.76 0 1.376.602 1.376 1.344m-4.996 0v.004c0 .212-.17.38-.388.378h-.034c-2.152 0-3.896 1.702-3.896 3.802 0 .21.02.414.054.614a.636.636 0 0 1-.107.463l-.005.008c-.217.322-.673.38-.984.142a3.584 3.584 0 0 1-1.412-2.98c.06-1.517 1.164-2.886 2.687-3.328l.026-.008c1.76-.491 2.97-2 3.024-3.759.004-.104.01-.21.02-.315.22-2.194 2.086-3.945 4.344-4.074.098-.005.194-.001.291 0 .097-.001.193-.005.291 0 2.258.13 4.125 1.88 4.343 4.074.011.105.018.21.021.315.054 1.758 1.265 3.268 3.024 3.76l.026.007c1.523.442 2.628 1.81 2.687 3.328a3.584 3.584 0 0 1-1.412 2.98c-.311.239-.766.18-.984-.142l-.005-.008a.636.636 0 0 1-.107-.463c.035-.2.054-.405.054-.614 0-2.1-1.744-3.803-3.896-3.803h-.034a.377.377 0 0 1-.387-.377v-.004c0-1.952-1.622-3.528-3.62-3.529-2 0-3.621 1.577-3.621 3.529m7.842 5.201a6.593 6.593 0 0 1 1.676 1.946 2.782 2.782 0 0 0 2.425 1.4c.419 0 .833-.095 1.21-.274 2.316-1.1 3.75-3.431 3.652-5.946-.106-2.709-1.987-5.055-4.682-5.838l-.066-.019c-.583-.163-.97-.64-.989-1.215a7.362 7.362 0 0 0-.032-.498c-.35-3.518-3.343-6.326-6.962-6.532a7.895 7.895 0 0 0-.454-.012c-.15 0-.301.003-.454.012-3.619.206-6.611 3.014-6.962 6.532a7.362 7.362 0 0 0-.032.498c-.018.575-.406 1.052-.989 1.215l-.065.019C1.992 9.129.11 11.476.005 14.184-.093 16.7 1.34 19.03 3.656 20.13c.378.18.791.274 1.21.274 1.01 0 1.938-.537 2.425-1.4a6.593 6.593 0 0 1 1.676-1.946c.869-.68 2.159-.071 2.159 1.015v2.053h-.065c-.957 0-1.734.757-1.734 1.692 0 .935.777 1.692 1.734 1.692v18.108c-.363.294-.608.837-.608 1.46 0 .622.245 1.164.608 1.458V52.7H7.583v4.318h3.478v2.376h4.256v-1.178h1.43v-1.198h1.812v1.198h1.812v-1.198h1.811v1.198h1.431v-4.407h-1.974a2.249 2.249 0 0 1-2.174 1.616c-1.247 0-2.258-.986-2.258-2.203v-.278h1.575v.744h1.366v-3.192h-1.366v.743h-1.575v-.277c0-1.217 1.011-2.203 2.258-2.203 1.038 0 1.91.685 2.174 1.616h1.974v-4.407h-1.43v1.197H20.37v-1.197h-1.812v1.197h-1.811v-1.197h-1.431v-1.43c.363-.295.608-.837.608-1.46 0-.622-.245-1.165-.608-1.459V23.51c.958 0 1.734-.757 1.734-1.692 0-.935-.776-1.692-1.734-1.692h-.064v-2.053c0-1.086 1.29-1.695 2.158-1.015" mask="url(#e)"/>
        </g>
        <path fill="#3E435B" d="M48.51 118.461l-1.536-.499.5-1.54 1.537.499zM46.49 113.846c-.605.084-1.169.458-1.523 1.024l-.461-.15 1-3.08 1.538.499-.555 1.707zM44.703 120.119l-.555 1.707-1.537-.5 1.001-3.08.46.15c-.045.666.191 1.3.63 1.723M55.933 82.299a3.934 3.934 0 0 1 4.985-2.525.385.385 0 0 0 .492-.252l.001-.004a3.652 3.652 0 0 1 4.6-2.351 3.641 3.641 0 0 1 2.405 2.574 3.26 3.26 0 0 0-2.112-2.164 3.27 3.27 0 0 0-4.091 2.04c-.082.265-.294 1.106.01 1.944a2.78 2.78 0 0 1-.649-1.042c-.087-.255-.396-.345-.396-.345a3.553 3.553 0 0 0-4.598 2.847c-.038.259-.177.496-.39.668a1.05 1.05 0 0 1-.99.184 1.088 1.088 0 0 1-.566-.43 4.115 4.115 0 0 1-.58-1.34c.105.382.265.748.487 1.081a.679.679 0 0 0 .99.166l.007-.006a.674.674 0 0 0 .25-.423c.031-.208.078-.416.145-.622"/>
        <path fill="#3E435B" d="M72.441 89.212a1.098 1.098 0 0 1-.698.008 1.04 1.04 0 0 1-.684-.695c-.007-.024-.01-.048-.014-.072a.686.686 0 0 0 .858.368 3.518 3.518 0 0 0 2.239-2.358c.405-1.438-.221-3.059-1.524-3.94l-.023-.015c-1.511-1-2.195-2.785-1.711-4.447.029-.1.054-.2.077-.302.46-2.12-.77-4.333-2.861-5.146-.091-.035-.183-.061-.275-.09-.091-.03-.18-.063-.275-.088-2.016-.532-4.138.352-5.13 2.073 1.038-1.952 3.392-2.97 5.627-2.382.046.012.091.026.136.04l.161.054.16.051c.045.015.09.03.134.047 2.265.88 3.596 3.275 3.097 5.57-.024.11-.052.218-.083.325-.44 1.509.186 3.132 1.556 4.038l.024.017c1.436.971 2.126 2.757 1.678 4.345a3.89 3.89 0 0 1-2.469 2.6"/>
        <path fill="#3E435B" d="M51.617 78.98c.939-2.547 3.462-4.197 6.278-4.106l.069.003c.607.025 1.125-.309 1.32-.85.056-.155.117-.311.185-.465 1.423-3.24 5.15-4.986 8.67-4.06.148.04.294.084.437.13A7.55 7.55 0 0 1 73.51 74.7a7.164 7.164 0 0 0-4.622-4.662l-.032-.01a7.268 7.268 0 0 0-.4-.119c-3.34-.879-6.875.777-8.225 3.851a6.874 6.874 0 0 0-.176.441c-.25.698-.914 1.128-1.69 1.095l-.068-.003c-2.65-.085-5.026 1.468-5.91 3.865-.819 2.223-.21 4.734 1.552 6.397.263.248.583.438.923.549.83.27 1.738.077 2.371-.502a6.958 6.958 0 0 1 2.328-1.408c.097-.035.196-.06.295-.078 0 0 1.487-.368 2.843-.158 0 0 2.841.9 2.842.902 1.128.54 2.077 1.574 2.282 1.807.094.089.183.185.258.296.517.767.873 1.61 1.056 2.507.172.84.794 1.53 1.623 1.799.34.11.71.145 1.07.099a6.008 6.008 0 0 0 4.487-2.996c-.947 1.792-2.735 3.049-4.841 3.32-.416.053-.84.015-1.24-.115a2.795 2.795 0 0 1-1.883-2.086 6.606 6.606 0 0 0-1-2.372 1.324 1.324 0 0 0-.822-.56h-.002c-.627-.137-1.327.17-1.55.856l-.193.593c.012-.039.024-.08.04-.126.434-1.337-.974-1.838-.974-1.838l-.351-.114s-1.433-.423-1.868.915l-.483 1.487-.527-.171c-.915-.298-1.855.074-2.1.83-.246.755.296 1.608 1.21 1.905l4.065 1.321c.482.156.969.126 1.36-.046a1.744 1.744 0 0 1-1.8.441l-3.208-1.042-5.53 17.02s-.256-.069-.352-.073c-.562-.022-1.12.394-1.33 1.039-.246.755.08 1.538.729 1.749l2.88.936c.34.11.702.04 1.004-.162-.365.487-.893.736-1.363.583l-2.615-.85-4.525 13.925-.856-.278 4.596-14.147c-.256-.393-.322-.985-.13-1.578.193-.592.595-1.033 1.033-1.2l5.602-17.242c-.914-.298-1.421-1.26-1.132-2.15.289-.89 1.265-1.37 2.18-1.073l.06.02.636-1.955c.336-1.034-.708-2.014-1.748-1.636a6.608 6.608 0 0 0-2.203 1.333 2.795 2.795 0 0 1-2.748.58c-.401-.13-.767-.348-1.072-.636-1.872-1.766-2.519-4.43-1.648-6.795"/>
        <path fill="#3E435B" d="M65.347 79.658c-.666-.216-1.352-.002-1.673.482.363-.714 1.306-1.052 2.219-.756.993.323 1.577 1.277 1.301 2.126-.276.85-1.309 1.278-2.303.955-.648-.21-1.12-.69-1.294-1.233.164.372.509.69.966.84.78.253 1.587-.082 1.804-.749.216-.666-.24-1.411-1.02-1.665"/>
        <path fill="#FFF" d="M53.515 109.735l.466.152a.38.38 0 0 0 .484-.233.38.38 0 0 0-.255-.472l-.466-.152a.38.38 0 0 0-.484.233.38.38 0 0 0 .255.472m3.222 1.853a.38.38 0 0 0 .484-.233c.197-.606-.049-1.21-.558-1.376l-1.246-.405a.38.38 0 0 0-.484.232.38.38 0 0 0 .255.473l1.246.405c.042.013.128.188.049.431a.38.38 0 0 0 .254.473m2.993-22.105l.658.214a.38.38 0 0 0 .483-.232.38.38 0 0 0-.254-.473l-.658-.214a.38.38 0 0 0-.484.233.38.38 0 0 0 .255.472m4.646 2.315a.38.38 0 0 0 .483-.232c.194-.596-.156-1.246-.78-1.449l-2.395-.778a.38.38 0 0 0-.484.233.38.38 0 0 0 .255.472l2.395.778c.217.07.339.297.271.504a.38.38 0 0 0 .255.472m5.721-19.741c.151.049.321.006.422-.12a.367.367 0 0 0-.073-.523 7.346 7.346 0 0 0-2.18-1.135l-.034-.01a7.51 7.51 0 0 0-.405-.12.377.377 0 0 0-.467.259.379.379 0 0 0 .282.458c.122.032.242.069.36.107l.034.01a6.542 6.542 0 0 1 1.942 1.011.405.405 0 0 0 .12.063m-9.28 3.24a.38.38 0 0 0 .48-.221c.038-.106.08-.211.126-.315.584-1.325 1.763-2.308 3.235-2.699a.36.36 0 0 0 .258-.457.399.399 0 0 0-.482-.26c-1.692.448-3.05 1.582-3.723 3.108-.053.12-.101.24-.145.362a.378.378 0 0 0 .24.479l.011.004m-4.645 2.255a.398.398 0 0 0 .218.008c.38-.092.772-.132 1.164-.117l.029.001c.213.01.39-.15.393-.355a.393.393 0 0 0-.38-.389l-.031-.001a5.035 5.035 0 0 0-1.382.14.36.36 0 0 0-.269.45.392.392 0 0 0 .258.263m11.214 4.79a.38.38 0 0 0 .483-.232c.536-1.65-.435-3.45-2.164-4.013a.38.38 0 0 0-.483.233.38.38 0 0 0 .254.472c1.322.43 2.065 1.807 1.655 3.068a.38.38 0 0 0 .255.473m8.724 3.505c.043.014.089.02.136.02a.366.366 0 0 0 .364-.383c-.105-1.874-1.144-3.648-2.779-4.745l-.056-.037c-.657-.432-.947-1.168-.741-1.877.043-.15.082-.303.115-.457.402-1.86-.044-3.846-1.222-5.452a.4.4 0 0 0-.54-.098.36.36 0 0 0-.087.517c1.052 1.434 1.45 3.206 1.093 4.863-.03.138-.066.277-.104.41-.298 1.023.119 2.085 1.062 2.705l.053.035c1.431.96 2.342 2.515 2.435 4.157.01.16.121.293.271.342m-13.157-3.115c.12.039.257.021.361-.06a.36.36 0 0 0 .05-.522 1.688 1.688 0 0 1-.332-1.616.38.38 0 0 0-.255-.472.38.38 0 0 0-.483.233c-.257.79-.08 1.656.476 2.314.05.06.114.1.183.123m12.968 4.848l.014.004a.378.378 0 0 0 .474-.25 5.64 5.64 0 0 0 .15-.699.383.383 0 0 0-.329-.429.373.373 0 0 0-.436.305c-.03.205-.075.41-.131.61a.38.38 0 0 0 .258.459m-5.618-1.647a.4.4 0 0 0 .22.008.36.36 0 0 0 .266-.452c-.329-1.136-1.216-2.04-2.374-2.416l-.033-.01a.38.38 0 0 0-.483.232.38.38 0 0 0 .254.473l.033.01a2.832 2.832 0 0 1 1.86 1.893.392.392 0 0 0 .257.262m-.025 1.729a.38.38 0 0 0 .484-.233c.081-.25.132-.509.151-.77a.389.389 0 0 0-.358-.407.37.37 0 0 0-.412.335 2.566 2.566 0 0 1-.12.603.38.38 0 0 0 .255.472m-16.657-3.515c.11.036.233.025.334-.04a.36.36 0 0 0 .1-.515c-.75-1.067-.935-2.414-.496-3.603a3.771 3.771 0 0 1 1.238-1.665.36.36 0 0 0 .05-.523.4.4 0 0 0-.544-.062 4.493 4.493 0 0 0-1.473 1.983c-.52 1.412-.301 3.01.588 4.276a.398.398 0 0 0 .203.15m9.986 4.694a.38.38 0 0 0 .483-.233l.358-1.101a.38.38 0 0 0-.254-.473.38.38 0 0 0-.484.233l-.358 1.101a.38.38 0 0 0 .255.473m-8.212 35.897l.949-2.92a.38.38 0 0 1 .483-.233.38.38 0 0 1 .254.473l-.949 2.92a.38.38 0 0 1-.483.233.38.38 0 0 1-.254-.473m1.648-15.724a.38.38 0 0 0 .483-.232l5.036-15.5a.38.38 0 0 0-.254-.472.38.38 0 0 0-.484.232l-5.036 15.5a.38.38 0 0 0 .255.472m-4.431 13.637a.38.38 0 0 0 .483-.232l2.757-8.484a.38.38 0 0 0-.255-.472.38.38 0 0 0-.483.232l-2.757 8.484a.38.38 0 0 0 .255.472m-1.133 3.485a.38.38 0 0 0 .484-.232l.62-1.912a.38.38 0 0 0-.254-.472.38.38 0 0 0-.483.232l-.621 1.912a.38.38 0 0 0 .254.472"/>
        <g>
            <path fill="#C38C3B" d="M90.143 118.138l1.449 9.27 6.952-1.115-.333-2.128-2.482.398-.565-3.618 2.482-.398-.55-3.524zM79.563 119.836l.289 1.844 2.265-.363.308 1.975-2.265.364.316 2.018 2.301-.37.31 1.977-2.303.37.228 1.455 6.952-1.115-1.449-9.27z"/>
            <path fill="#CA9A53" d="M82.314 91.84l4.202 26.88 1.448 9.271.357 2.28 3.627-.583-.357-2.28-1.448-9.27-4.202-26.88z"/>
            <g transform="rotate(11 -330.213 416.428)">
                <mask id="g" fill="#fff">
                    <use xlink:href="#f"/>
                </mask>
                <path fill="#C38C3B" d="M3.61 13.258c-1.004-2.776.362-5.824 3.05-6.809L12.88 4.17c2.688-.985 5.681.468 6.685 3.243 1.003 2.776-.361 5.825-3.05 6.81l-6.221 2.279c-2.688.984-5.681-.468-6.685-3.244m18.947-6.94C20.936 1.832 16.624-.707 12.928.647L4.373 3.78C.677 5.135-1.004 9.868.618 14.354c1.622 4.485 5.932 7.024 9.628 5.671l8.559-3.134c3.694-1.356 5.374-6.088 3.752-10.573" mask="url(#g)"/>
            </g>
            <path stroke="#B07D30" stroke-width="1.902" d="M74.405 84.362c-.455-2.917 1.466-5.649 4.293-6.102l6.542-1.05c2.827-.454 5.487 1.543 5.943 4.459.456 2.917-1.466 5.649-4.292 6.102l-6.543 1.05c-2.826.454-5.487-1.543-5.943-4.46z"/>
            <path fill="#A36D22" d="M91.948 129.688l-.356-2.28-1.449-9.27-4.202-26.88-1.112.178 6.007 38.431z"/>
            <path fill="#BF8530" d="M90.143 118.139l1.449 9.27 1.806-.29-1.449-9.27zM86.515 118.72l-1.943.313 1.45 9.27 1.942-.312z"/>
            <path stroke="#FFF" stroke-linecap="round" stroke-linejoin="round" stroke-width="2" d="M85.897 109.853l-1.642-9.034M72.351 84.447c.119-2.233.372-3.686.76-4.358.581-1.007 1.864-2.39 4.372-3.254"/>
        </g>
        <g>
            <path stroke="#BD924F" stroke-width="4.159" d="M59.615 52.832c-2.368 14.309 7.285 27.832 21.56 30.205 14.276 2.374 27.768-7.301 30.137-21.609 2.368-14.308-7.285-27.831-21.56-30.204-14.276-2.374-27.768 7.3-30.137 21.608z"/>
            <path stroke="#BD924F" stroke-width="4.159" d="M76.664 81.87a26.25 26.25 0 0 0 4.511 1.167 26.02 26.02 0 0 0 14.876-1.882M59.267 57.85a26.228 26.228 0 0 0 4.257 13.638"/>
            <path fill="#D1B384" d="M89.752 31.223l-2.56-.238c-.855-.016-1.71.008-2.563.01-.851.053-1.7.16-2.548.239-.842.13-1.673.326-2.509.486-3.309.806-6.465 2.237-9.224 4.235-2.776 1.972-5.147 4.503-6.977 7.383-.42.741-.874 1.466-1.27 2.223-.346.779-.722 1.549-1.047 2.34-.277.807-.576 1.612-.838 2.428l-.6 2.503.495-2.532c.227-.829.493-1.65.738-2.477.304-.806.667-1.59.999-2.388.381-.774.822-1.518 1.23-2.28 1.795-2.958 4.21-5.533 7.01-7.565 2.823-2 6.034-3.46 9.407-4.205.85-.143 1.696-.32 2.55-.432.86-.057 1.718-.149 2.578-.177.86.034 1.72.048 2.577.1l2.552.347z"/>
        </g>
        <g fill="url(#h)">
            <ellipse cx="83.5" cy="83.69" rx="83.5" ry="83.69"/>
        </g>
    </g>
</svg>
