<svg xmlns="http://www.w3.org/2000/svg" xmlns:xlink="http://www.w3.org/1999/xlink" width="167" height="168" viewBox="0 0 167 168">
    <defs>
        <path id="a" d="M0 .094h90.015v8.193H0z"/>
        <path id="c" d="M.006.094H81.31v8.193H.006z"/>
        <linearGradient id="e" x1="100%" x2="63.306%" y1="24.118%" y2="68.804%">
            <stop offset="0%" stop-color="#FFDB5E"/>
            <stop offset="100%" stop-color="#FFBD30"/>
        </linearGradient>
        <linearGradient id="f" x1="50%" x2="50%" y1="11.895%" y2="100%">
            <stop offset="0%" stop-color="#F5F5F5" stop-opacity="0"/>
            <stop offset="100%" stop-color="#FFC800"/>
        </linearGradient>
        <radialGradient id="g" r="63.194%" fx="50%" fy="50%" gradientTransform="matrix(0 .99773 -1 0 1 .001)">
            <stop offset="0%" stop-color="#FFF" stop-opacity=".026"/>
            <stop offset="48.007%" stop-color="#FFFDF7" stop-opacity=".286"/>
            <stop offset="100%" stop-color="#FFC645" stop-opacity=".161"/>
        </radialGradient>
    </defs>
    <g fill="none" fill-rule="evenodd">
        <path fill="#FA0" d="M83.999 47.231h-45.05l6.174 25.705h77.695l6.146-25.705z"/>
        <path fill="#75420A" d="M119.802 72.936H48.11l-4.426-22.088h80.571z"/>
        <g transform="translate(38.949 38.944)">
            <mask id="b" fill="#fff">
                <use xlink:href="#a"/>
            </mask>
            <path fill="#FA0" d="M3.327 4.368C2.284 5.61 1.156 6.911 0 8.288h90.015C88.86 6.91 87.76 5.61 86.717 4.367c-4.82-5.7-78.598-5.7-83.39 0" mask="url(#b)"/>
        </g>
        <g transform="translate(43.312 38.944)">
            <mask id="d" fill="#fff">
                <use xlink:href="#c"/>
            </mask>
            <path fill="#CF933A" d="M.006 8.287H81.31a622.286 622.286 0 0 1-2.875-4.547c-.339-.539-1.043-1.032-2.086-1.48C60.815-.629 20.5-.629 4.939 2.26c-1.014.448-1.719.941-2.057 1.48-.903 1.436-1.86 2.962-2.876 4.547" mask="url(#d)"/>
        </g>
        <path fill="#E09F12" d="M122.226 43.432l-.338-.539H46.053l-.339.539z"/>
        <path fill="#C68926" d="M125.525 72.936H42.416c-.901 0-1.635.735-1.635 1.639v44.839c0 .904.734 1.639 1.635 1.639h83.109c.874 0 1.606-.735 1.606-1.639v-44.84c0-.903-.732-1.638-1.606-1.638"/>
        <path fill="url(#e)" d="M5.498 78.436h79.048V37.638H5.498z" transform="translate(38.949 38.944)"/>
        <path fill="#D38D00" d="M116.926 121.9h9.444c.874 0 1.607-.735 1.607-1.639v-9.267c-.169 0-.366-.028-.564-.028-5.807 0-10.487 4.718-10.487 10.539v.395z"/>
        <path stroke="#E8A735" stroke-width="2.317" d="M116.926 121.9h9.444c.874 0 1.607-.735 1.607-1.639v-9.267c-.169 0-.366-.028-.564-.028-5.807 0-10.487 4.718-10.487 10.539v.395z"/>
        <path fill="#D38D00" d="M39.935 110.768v9.493c0 .904.733 1.639 1.636 1.639h9.415c.029-.226.029-.424.029-.622 0-5.82-4.708-10.538-10.488-10.538-.197 0-.394.028-.592.028"/>
        <path stroke="#E8A735" stroke-width="2.317" d="M39.935 110.768v9.493c0 .904.733 1.639 1.636 1.639h9.415c.029-.226.029-.424.029-.622 0-5.82-4.708-10.538-10.488-10.538-.197 0-.394.028-.592.028z"/>
        <path fill="#D38D00" d="M51.015 72.088H41.57c-.903 0-1.636.735-1.636 1.64v9.238c.198.028.395.028.592.028 5.78 0 10.488-4.718 10.488-10.51v-.396z"/>
        <path stroke="#E8A735" stroke-width="2.317" d="M51.015 72.088H41.57c-.903 0-1.636.735-1.636 1.64v9.238c.198.028.395.028.592.028 5.78 0 10.488-4.718 10.488-10.51v-.396z"/>
        <path fill="#D38D00" d="M126.37 72.088h-9.444v.537c0 5.82 4.68 10.54 10.487 10.54.198 0 .395-.03.564-.03v-9.408c0-.904-.733-1.639-1.607-1.639"/>
        <path stroke="#E8A735" stroke-width="2.317" d="M126.37 72.088h-9.444v.537c0 5.82 4.68 10.54 10.487 10.54.198 0 .395-.03.564-.03v-9.408c0-.904-.733-1.639-1.607-1.639z"/>
        <path fill="#CC8F15" d="M44.446 85.312h79.049v-1.018H44.446zM44.446 93.562h79.049v-1.018H44.446zM44.446 101.84h79.049v-1.017H44.446zM44.446 110.118h79.049v-1.017H44.446z"/>
        <path fill="#875307" d="M100.49 74.01c.424 0 .79.339.79.762a.807.807 0 0 1-.79.791c-.422 0-.76-.367-.76-.79 0-.424.338-.763.76-.763M94.993 74.01c.423 0 .761.339.761.762 0 .424-.338.791-.76.791a.808.808 0 0 1-.79-.79c0-.424.367-.763.79-.763M111.514 74.01c.422 0 .789.339.789.762a.808.808 0 0 1-.79.791c-.422 0-.76-.367-.76-.79 0-.424.338-.763.76-.763M89.468 74.01c.423 0 .79.339.79.762a.808.808 0 0 1-.79.791c-.423 0-.761-.367-.761-.79 0-.424.338-.763.761-.763M106.016 74.01c.423 0 .761.339.761.762 0 .424-.338.791-.76.791a.808.808 0 0 1-.79-.79c0-.424.366-.763.79-.763M56.427 74.01c.423 0 .762.339.762.762 0 .424-.339.791-.762.791a.789.789 0 0 1-.789-.79c0-.424.338-.763.79-.763M61.925 74.01c.423 0 .76.339.76.762 0 .424-.337.791-.76.791s-.761-.367-.761-.79c0-.424.338-.763.761-.763M67.422 74.01c.451 0 .79.339.79.762a.789.789 0 0 1-.79.791c-.423 0-.761-.367-.761-.79 0-.424.338-.763.761-.763M72.947 74.01c.423 0 .762.339.762.762 0 .424-.339.791-.762.791-.422 0-.76-.367-.76-.79 0-.424.338-.763.76-.763M83.97 74.01c.423 0 .762.339.762.762 0 .424-.339.791-.762.791a.808.808 0 0 1-.789-.79c0-.424.367-.763.79-.763M78.445 74.01c.451 0 .79.339.79.762a.789.789 0 0 1-.79.791c-.423 0-.761-.367-.761-.79 0-.424.338-.763.761-.763M94.993 118.51c.423 0 .761.367.761.79a.758.758 0 0 1-.76.763c-.423 0-.79-.338-.79-.762s.367-.792.79-.792M89.468 118.51c.423 0 .79.367.79.79 0 .425-.367.763-.79.763a.758.758 0 0 1-.761-.762c0-.424.338-.792.761-.792M100.49 118.51c.424 0 .79.367.79.79 0 .425-.366.763-.79.763a.758.758 0 0 1-.76-.762c0-.424.338-.792.76-.792M106.016 118.51c.423 0 .761.367.761.79a.758.758 0 0 1-.76.763c-.424 0-.79-.338-.79-.762s.366-.792.79-.792M56.427 118.51c.423 0 .762.367.762.79a.759.759 0 0 1-.762.763c-.45 0-.789-.338-.789-.762a.79.79 0 0 1 .79-.792M111.514 118.51c.422 0 .789.367.789.79 0 .425-.367.763-.79.763a.758.758 0 0 1-.76-.762c0-.424.338-.792.76-.792M83.97 118.51c.423 0 .762.367.762.79a.759.759 0 0 1-.762.763c-.422 0-.789-.338-.789-.762s.367-.792.79-.792M61.925 118.51c.423 0 .76.367.76.79a.758.758 0 0 1-.76.763.758.758 0 0 1-.761-.762c0-.424.338-.792.761-.792M67.422 118.51a.79.79 0 0 1 .79.79c0 .425-.339.763-.79.763a.759.759 0 0 1-.761-.762c0-.424.338-.792.761-.792M78.445 118.51a.79.79 0 0 1 .79.79c0 .425-.339.763-.79.763a.759.759 0 0 1-.761-.762c0-.424.338-.792.761-.792M72.947 118.51c.423 0 .762.367.762.79a.759.759 0 0 1-.762.763.758.758 0 0 1-.76-.762c0-.424.338-.792.76-.792M42.444 104.496c.423 0 .79.338.79.762a.789.789 0 0 1-.79.791c-.422 0-.76-.338-.76-.79 0-.425.338-.763.76-.763M42.444 89.465a.759.759 0 0 1-.76-.763c0-.424.338-.763.76-.763.423 0 .79.339.79.763s-.367.763-.79.763M42.444 98.986c.423 0 .79.339.79.763 0 .423-.367.763-.79.763a.759.759 0 0 1-.76-.763c0-.424.338-.763.76-.763M42.444 93.448c.423 0 .79.34.79.792 0 .423-.367.762-.79.762a.758.758 0 0 1-.76-.762c0-.453.338-.792.76-.792M125.327 104.496c.423 0 .761.338.761.762 0 .453-.338.791-.76.791-.424 0-.762-.338-.762-.79 0-.425.338-.763.761-.763M125.327 89.465a.759.759 0 0 1-.76-.763c0-.424.337-.763.76-.763s.761.339.761.763a.759.759 0 0 1-.76.763M125.327 98.986c.423 0 .761.339.761.763a.76.76 0 0 1-.76.763.759.759 0 0 1-.762-.763c0-.424.338-.763.761-.763M125.327 93.448c.423 0 .761.34.761.792a.758.758 0 0 1-.76.762.758.758 0 0 1-.762-.762c0-.453.338-.792.761-.792"/>
        <path fill="#FFD672" d="M88.284 72.37h-8.655c-.338 0-.648.312-.648.68v16.923c0 3.842 9.98 3.645 9.98 0V73.05a.687.687 0 0 0-.677-.678"/>
        <path fill="#875307" d="M82.786 84.548c-.535.368-.873.961-.873 1.668 0 1.13.93 2.034 2.057 2.034 1.129 0 2.03-.905 2.03-2.034 0-.707-.338-1.3-.845-1.668l.197-1.638c.113-1.102.282-2.43.451-4.097h-3.665c.17 1.667.338 2.995.451 4.097l.197 1.638z"/>
        <path fill="url(#f)" d="M29.16 60.615L0 0h115.392L86.476 60.743z" transform="translate(25.858 11.339)"/>
        <g fill="url(#g)">
            <ellipse cx="83.5" cy="83.69" rx="83.5" ry="83.69"/>
        </g>
    </g>
</svg>
