<svg xmlns="http://www.w3.org/2000/svg" xmlns:xlink="http://www.w3.org/1999/xlink" width="282" height="78" viewBox="0 0 282 78">
    <defs>
        <path id="a" d="M.006.025h47.59V43.84H.005z"/>
        <path id="c" d="M.006.025h47.59V43.84H.005z"/>
        <path id="e" d="M.172.025H230.5v10.14H.172z"/>
        <path id="g" d="M.006.025h43.32V9.25H.005z"/>
    </defs>
    <g fill="none" fill-rule="evenodd">
        <path fill="#954A32" d="M267.651 74.862l-11.41-70.718 9.717-1.006 7.455 71.724zM50.954 74.862L62.365 4.144l-9.717-1.006-7.456 71.724z"/>
        <path fill="#000" d="M232.288 2.241h44.289V0h-44.289z"/>
        <path fill="#8E5F35" d="M232.288 5.828h44.289V2.24h-44.289z"/>
        <path fill="#000" d="M236.808 2.241h40.22V0h-40.22z"/>
        <path fill="#9B7757" d="M236.808 5.828h40.22V2.24h-40.22z"/>
        <path fill="#D8B290" d="M5.875 2.241h270.702V0H5.875z"/>
        <path fill="#CE9F74" d="M5.875 5.828h270.702V2.24H5.875z"/>
        <path fill="#954A32" d="M223.702 3.738l11.556 73.814h6.069L233.675 2.69zM6.779 77.552h6.07L24.403 3.738 14.432 2.69z"/>
        <path fill="#D8D8D8" d="M0 43.931c11.976 0 11.976-3.75 23.954-3.75s11.978 3.75 23.954 3.75 11.976-3.75 23.952-3.75 11.976 3.75 23.951 3.75c11.976 0 11.976-3.75 23.952-3.75 11.975 0 11.975 3.75 23.95 3.75 11.976 0 11.976-3.75 23.952-3.75s11.976 3.75 23.95 3.75c11.977 0 11.977-3.75 23.952-3.75 11.976 0 11.976 3.75 23.952 3.75L234.11 0H5.41L0 43.931z"/>
        <path fill="#C3C3C3" d="M32.02 8.069c-.38 6.295-.105 12.549-1.185 18.835-.769 4.477-1.497 8.957-1.912 13.45 4.66.57 7.037 1.847 10.846 2.68.004-4.101-.26-8.204-.602-12.254-.647-7.685-2.254-15.577-7.147-22.711M74.567 40.093c6.57.341 9.014 1.97 13.558 2.941-.066-4.67-.396-9.34-1.57-13.911-1.888-7.335-6.053-14.318-10.963-21.054-1.116 5.813.118 11.647-.03 17.482-.124 4.853-.672 9.695-.995 14.542M131.681 29.628c-1.67-6.889-3.503-13.606-10.114-19.318.89 9.921 1.237 19.854 1.35 29.789 5.355.331 7.877 1.55 11.304 2.487a144.424 144.424 0 0 0-2.54-12.958M185.158 30.796c-2.049-3.798-4.704-7.455-7.578-11.036-2.065-2.573-3.932-6.194-7.624-8.105-.931 9.528-.279 19.064-.031 28.6 9.304.391 10.547 3.294 19.883 3.676-1.013-4.448-2.342-8.856-4.65-13.135M232.288 43.034c-.766-4.747-2.46-9.351-4.45-14.045-1.392-3.28-2.953-6.437-5.049-9.573-1.345-2.014-2.32-4.427-4.962-5.968.746 2.014 1.982 3.945 2.622 5.975.723 2.292.823 4.714.824 7.045 0 4.564-.897 9.1-1.763 13.629 5.772.516 8.162 2.068 12.778 2.937"/>
        <g transform="translate(234.096)">
            <mask id="b" fill="#fff">
                <use xlink:href="#a"/>
            </mask>
            <path fill="#D3D2D2" d="M.006.025h42.59l5 43.816c-5.272 0-5.272-1.246-10.544-1.246S31.78 43.84 26.508 43.84c-5.273 0-5.273-1.246-10.545-1.246-5.273 0-5.273 1.246-10.546 1.246L.007.025z" mask="url(#b)"/>
        </g>
        <g transform="translate(234.096)">
            <mask id="d" fill="#fff">
                <use xlink:href="#c"/>
            </mask>
            <path fill="#C3C3C3" d="M.006.025h42.59l5 43.816c-5.272 0-5.272-1.246-10.544-1.246S31.78 43.84 26.508 43.84c-5.273 0-5.273-1.246-10.545-1.246-5.273 0-5.273 1.246-10.546 1.246L.007.025z" mask="url(#d)"/>
        </g>
        <path fill="#A4A4A4" d="M256.198 34.492c-2.336-4.415-3.357-9.068-5.97-13.423-.747 2.072.01 4.331.487 6.394.623 2.7 1.188 5.396 1.914 8.088.662 2.457 1.03 4.994 1.547 7.512 1.765.366 2.967.868 6.256.868.632 0 1.187-.018 1.683-.051-2.433-2.993-4.245-6.23-5.917-9.388M268.912 17.483c-.291 5.038 2.997 22.011 5.276 25.466 2.005.253 3 .753 5.1.982-1.164-1.223-9.378-24.093-10.376-26.448"/>
        <g transform="translate(4.52)">
            <mask id="f" fill="#fff">
                <use xlink:href="#e"/>
            </mask>
            <path fill="#642323" d="M.802.025h228.779l.92 7.388-128.178 2.752L.172 5.095z" mask="url(#f)"/>
        </g>
        <path fill="#FFDE17" d="M107.57 10.31c-.044 0-.086-.018-.1-.046l-1.394-2.617v2.575c0 .033-.038.062-.09.068-.054.005-.102-.015-.119-.047l-1.278-2.54v2.443c0 .034-.04.063-.093.067-.055.006-.103-.016-.117-.05l-1.013-2.361v2.281c0 .034-.039.063-.091.068-.05.005-.103-.015-.118-.048l-1.144-2.41v2.32c0 .035-.041.065-.095.069-.05.005-.103-.018-.116-.052l-.858-2.277V9.96c0 .034-.04.063-.094.068-.05.004-.104-.018-.117-.05l-.96-2.331v2.253c0 .032-.036.06-.085.067-.05.007-.1-.01-.12-.04l-1.66-2.56v2.437c0 .033-.036.06-.086.067-.05.007-.1-.01-.12-.04l-1.664-2.56v2.438c0 .033-.037.061-.09.067-.053.005-.1-.013-.117-.045l-1.366-2.483v2.38c0 .034-.04.063-.094.068-.054.005-.103-.018-.117-.05l-.972-2.336v2.257c0 .034-.037.063-.09.068-.05.005-.102-.015-.117-.047l-1.2-2.429v2.336c0 .035-.038.064-.09.068-.055.005-.104-.017-.118-.05l-.994-2.347v2.268c0 .033-.037.06-.088.067-.051.005-.1-.012-.119-.043l-1.465-2.512v2.402c0 .035-.042.064-.095.068-.053.004-.104-.019-.116-.053l-.792-2.237v2.17c0 .034-.04.063-.091.068-.053.004-.103-.016-.119-.048l-1.124-2.402v2.314c0 .033-.036.06-.086.067-.05.006-.1-.01-.12-.04l-1.65-2.558v2.436c0 .033-.036.06-.088.067-.051.006-.1-.012-.119-.043l-1.517-2.525v2.413c0 .034-.039.062-.092.067-.055.004-.103-.016-.117-.048L81.8 6.68v2.297c0 .032-.035.06-.086.067-.05.007-.1-.011-.119-.04l-1.657-2.56v2.437c0 .034-.04.063-.093.068-.055.006-.103-.017-.117-.05l-1.013-2.355V8.82c0 .034-.039.062-.091.067-.051.005-.102-.016-.118-.048l-1.104-2.394v2.307c0 .034-.036.062-.086.068-.05.005-.101-.012-.12-.043l-1.51-2.524v2.411c0 .033-.037.062-.088.067-.05.006-.101-.011-.12-.042l-1.51-2.523v2.41c0 .033-.037.062-.087.068-.052.006-.1-.013-.119-.044l-1.495-2.519v2.408c0 .033-.037.062-.089.067-.05.007-.1-.012-.118-.044l-1.41-2.496v2.39c0 .034-.038.062-.09.068-.053.005-.102-.014-.118-.045l-1.318-2.47v2.369c0 .034-.04.064-.094.068-.052.004-.103-.018-.116-.051l-.934-2.317v2.241c0 .034-.04.064-.093.068-.056.004-.104-.017-.118-.05l-.921-2.312v2.236c0 .033-.037.061-.088.068-.051.005-.102-.013-.119-.044L65.161 5.72v2.405c0 .033-.038.062-.091.068-.051.005-.102-.016-.118-.047l-1.2-2.43v2.336c0 .034-.038.063-.09.068-.053.006-.1-.014-.117-.045l-1.37-2.484v2.38c0 .034-.037.063-.09.068-.051.005-.1-.013-.118-.045l-1.363-2.482v2.38c0 .032-.038.061-.09.067-.052.006-.1-.015-.118-.046L59.12 5.457v2.358c0 .033-.036.061-.086.067-.05.006-.102-.011-.12-.042L57.4 5.315v2.412c0 .033-.038.062-.09.067-.054.006-.102-.014-.119-.046l-1.235-2.442v2.347c0 .033-.035.06-.085.067-.05.007-.1-.01-.12-.041l-1.639-2.554v2.433c0 .034-.038.062-.089.068-.054.005-.1-.013-.118-.045l-1.362-2.482v2.379c0 .034-.04.062-.091.067-.051.007-.103-.015-.118-.047L51.168 5.08v2.327c0 .033-.04.063-.092.067-.057.006-.103-.017-.118-.05l-1-2.35v2.27c0 .034-.038.063-.089.068-.051.006-.101-.013-.12-.045l-1.388-2.49v2.385c0 .035-.041.064-.094.069-.057.005-.104-.019-.117-.052l-.88-2.29v2.217c0 .034-.039.063-.09.068-.052.006-.101-.014-.118-.045L45.73 4.757v2.372c0 .034-.04.062-.092.067-.055.005-.104-.016-.118-.049l-1.03-2.363v2.281c0 .035-.041.064-.095.068-.055.003-.105-.02-.117-.053l-.784-2.23v2.164c0 .033-.037.061-.088.067-.05.007-.1-.012-.118-.043l-1.505-2.521v2.41c0 .032-.035.06-.086.067-.05.006-.1-.011-.119-.042l-1.644-2.555v2.435c0 .032-.036.06-.087.067-.05.006-.1-.012-.119-.042l-1.59-2.543V6.74c0 .033-.039.062-.091.067-.05.005-.103-.016-.119-.048l-1.123-2.402v2.314c0 .034-.04.063-.092.068-.053.005-.103-.016-.119-.048l-1.119-2.4v2.312c0 .033-.037.062-.089.068-.053.005-.101-.014-.12-.045l-1.359-2.482v2.379c0 .035-.041.064-.095.068-.054.004-.104-.02-.116-.054l-.74-2.2v2.137c0 .035-.04.064-.095.067-.054.004-.104-.018-.116-.052l-.793-2.236v2.17c0 .034-.04.063-.092.067-.052.006-.103-.017-.118-.05L30.736 4.09V6.36c0 .033-.036.06-.086.067-.049.007-.1-.01-.119-.04L28.887 3.83v2.434c0 .034-.037.062-.088.068-.05.007-.1-.013-.118-.045l-1.41-2.495v2.39c0 .033-.038.061-.09.067-.054.004-.102-.014-.119-.047l-1.226-2.439V6.11c0 .035-.042.064-.095.068-.057.004-.104-.019-.116-.053l-.772-2.222v2.156c0 .036-.041.065-.095.068-.055.004-.104-.018-.116-.052l-.775-2.225v2.159c0 .035-.04.065-.095.067-.052.004-.104-.018-.116-.052l-.75-2.208v2.144c0 .033-.037.062-.088.068-.053.005-.102-.014-.12-.045l-1.35-2.48V5.88c0 .034-.04.062-.092.067-.053.005-.103-.015-.117-.048l-1.077-2.383v2.298c0 .034-.04.063-.093.067-.052.007-.103-.016-.117-.049L18.844 3.48V5.75c0 .033-.038.061-.09.067-.051.005-.101-.014-.118-.045l-1.32-2.47v2.37c0 .034-.04.063-.094.067-.053.005-.104-.019-.117-.053l-.793-2.237v2.17c0 .034-.036.062-.085.068-.051.006-.101-.011-.12-.041l-1.615-2.55v2.43c0 .035-.04.064-.093.068-.054.006-.103-.017-.117-.05L13.29 3.2v2.267c0 .033-.038.062-.09.068-.053.006-.102-.015-.118-.047l-1.207-2.433v2.34c0 .032-.036.06-.085.066-.053.008-.1-.01-.12-.041l-1.626-2.551v2.431c0 .035-.038.063-.09.068-.053.006-.102-.015-.118-.048l-1.14-2.408v2.32c0 .034-.04.063-.093.067-.052.006-.103-.017-.118-.05l-.963-2.332V5.17c0 .035-.041.064-.095.068-.052.005-.104-.02-.116-.053L6.58 2.99v2.132c0 .034-.04.063-.092.068-.054.005-.103-.017-.118-.05l-1.11-2.5-.527 2.397c-.008.037-.06.063-.12.058-.058-.005-.1-.04-.093-.077L5.118 2.3c.008-.032.048-.056.098-.06.053-.003.096.02.11.05l1.039 2.34v-2.29c0-.034.042-.064.096-.067.055-.004.105.02.116.054l.73 2.194V2.39c0-.034.04-.063.094-.068.055-.004.104.017.117.05l.963 2.333V2.45c0-.034.04-.062.091-.067.053-.005.103.015.119.047l1.14 2.408V2.52c0-.032.035-.06.086-.067.05-.006.1.011.119.042l1.625 2.55V2.613c0-.033.038-.062.09-.068.05-.004.103.015.12.048l1.205 2.431V2.686c0-.034.04-.064.092-.068.054-.004.104.017.117.05l.994 2.345V2.748c0-.034.035-.062.086-.068.05-.007.1.012.119.042l1.615 2.548V2.84c0-.034.041-.064.096-.067.052-.004.103.018.115.052l.793 2.237v-2.17c0-.033.038-.062.09-.067.05-.007.101.014.118.045l1.32 2.47V2.97c0-.034.04-.062.092-.067.055-.007.104.016.117.05l1.008 2.352V3.033c0-.034.039-.063.093-.068.05-.004.102.016.116.05l1.077 2.382V3.098c0-.032.037-.061.09-.067.051-.005.1.014.118.045l1.35 2.48V3.178c0-.036.042-.065.097-.068.056-.004.104.019.115.053l.75 2.208V3.228c0-.035.04-.064.095-.068.053-.004.104.019.116.053l.775 2.225v-2.16c0-.034.04-.064.095-.067.056-.003.104.019.116.053l.771 2.222V3.329c0-.034.038-.063.09-.068.051-.005.103.015.118.047l1.227 2.44V3.401c0-.033.037-.061.09-.067.05-.006.1.013.117.044l1.41 2.496v-2.39c0-.033.036-.06.086-.066.05-.008.1.01.12.04l1.643 2.556V3.58c0-.034.04-.063.092-.068.056-.005.104.017.118.05l1.006 2.352V3.643c0-.036.04-.065.095-.069.052-.002.104.02.115.053l.793 2.237v-2.17c0-.035.04-.065.096-.068.05-.003.104.02.116.053l.74 2.201V3.742c0-.033.037-.061.089-.067.05-.006.1.014.118.045l1.36 2.482V3.823c0-.034.039-.062.091-.068.052-.003.103.016.119.048l1.12 2.4V3.891c0-.033.039-.062.09-.068.054-.004.104.016.118.048l1.126 2.402V3.96c0-.032.036-.06.085-.067.052-.006.1.011.12.042l1.59 2.543V4.05c0-.032.037-.06.086-.067.05-.007.101.011.12.041l1.643 2.556V4.146c0-.033.038-.06.089-.067.05-.006.1.012.119.043l1.503 2.521v-2.41c0-.034.042-.063.095-.067.06-.004.104.019.116.053l.785 2.231V4.285c0-.035.04-.063.092-.068.054-.004.103.017.118.05l1.03 2.363V4.348c0-.033.038-.061.089-.067.054-.006.102.014.119.045L47.055 6.8V4.428c0-.035.041-.064.095-.068.055-.005.104.017.116.051l.881 2.289V4.483c0-.033.037-.061.088-.067.052-.006.102.013.12.044l1.39 2.49V4.567c0-.035.038-.064.091-.069.054-.003.103.017.118.05l1 2.35v-2.27c0-.033.04-.062.091-.067.052-.005.103.014.118.047l1.165 2.417V4.697c0-.032.038-.061.088-.067.053-.006.102.013.12.045l1.362 2.483v-2.38c0-.033.036-.06.086-.067.05-.006.1.01.12.041l1.638 2.555V4.873c0-.034.039-.062.09-.068.053-.004.103.015.118.047l1.235 2.442V4.947c0-.033.037-.061.089-.068.049-.006.1.012.118.043l1.514 2.524V5.035c0-.033.039-.062.09-.068.053-.005.102.015.119.046L60.39 7.47V5.111c0-.033.037-.062.089-.068.05-.006.1.014.117.045l1.364 2.483v-2.38c0-.033.038-.061.09-.067.051-.006.1.013.118.045l1.369 2.484v-2.38c0-.034.039-.063.09-.069.052-.003.103.015.118.048l1.201 2.43V5.345c0-.033.037-.062.087-.068.052-.005.102.012.12.043l1.481 2.516V5.43c0-.034.04-.064.094-.068.055-.006.103.018.116.05l.922 2.313V5.489c0-.035.04-.063.094-.068.053-.004.103.018.117.051l.934 2.317V5.547c0-.032.038-.061.089-.067.052-.006.101.014.118.045l1.318 2.47V5.625c0-.034.037-.061.089-.067.05-.008.1.012.118.044l1.41 2.496v-2.39c0-.033.037-.061.088-.067.052-.006.1.012.12.042l1.493 2.52V5.796c0-.033.037-.061.088-.067.05-.006.1.012.12.043l1.51 2.523v-2.41c0-.034.037-.063.087-.068.05-.006.1.012.12.043l1.51 2.523v-2.41c0-.035.04-.064.091-.069.052-.004.104.016.118.049l1.105 2.393V6.04c0-.034.038-.063.091-.067.057-.007.103.016.118.05l1.013 2.355V6.102c0-.032.036-.06.085-.067.051-.007.1.011.12.04l1.657 2.56V6.197c0-.033.04-.062.091-.067.055-.005.104.016.118.049L82.87 8.56V6.263c0-.032.037-.06.088-.067.053-.006.1.012.12.042l1.516 2.525V6.351c0-.032.037-.06.086-.067.052-.006.1.011.12.042l1.65 2.556V6.447c0-.034.04-.063.092-.068.054-.004.103.016.117.048l1.125 2.402V6.515c0-.034.04-.064.094-.068.054-.004.105.02.117.053l.792 2.236v-2.17c0-.032.037-.06.089-.067.05-.005.1.013.118.044l1.466 2.51v-2.4c0-.035.039-.064.092-.069.052-.005.103.017.117.05l.994 2.347V6.714c0-.034.038-.063.09-.067.054-.005.103.014.12.047l1.196 2.428V6.786c0-.035.04-.063.094-.068.05-.004.103.017.117.05l.97 2.336V6.847c0-.034.039-.062.09-.068.05-.006.1.013.118.045l1.367 2.483v-2.38c0-.032.036-.06.086-.067.048-.007.1.011.119.041l1.664 2.56V7.023c0-.032.036-.06.087-.067.049-.007.1.011.119.04l1.66 2.56V7.12c0-.035.04-.064.093-.068.053-.006.103.017.116.05l.96 2.33V7.18c0-.035.042-.064.094-.068.057-.004.104.018.117.052l.859 2.277V7.234c0-.034.039-.063.092-.068.052-.006.102.015.117.048l1.145 2.41V7.294c0-.034.04-.064.092-.068.055-.006.103.017.118.05l1.013 2.362V7.267c0-.033.038-.062.09-.067.052-.005.1.014.118.047l1.278 2.54V7.234c0-.033.038-.061.09-.067.052-.007.101.014.119.045l1.392 2.617V7.2c0-.034.04-.063.09-.068.056-.005.103.014.119.047l1.294 2.592V7.165c0-.033.038-.062.09-.068.051-.006.102.015.118.046l1.393 2.618V7.129c0-.033.038-.062.089-.067.05-.006.102.013.119.045l1.426 2.625v-2.64c0-.034.04-.063.094-.067.052-.004.104.018.116.053l.876 2.433V7.068c0-.033.039-.062.091-.067.055-.003.103.016.118.048l1.193 2.564V7.037c0-.033.038-.062.09-.067.053-.005.103.015.119.047l1.246 2.58V7.005c0-.034.04-.063.093-.068.054-.004.105.017.118.05l1.037 2.51v-2.52c0-.034.04-.064.095-.068.056-.003.104.02.116.053l.873 2.433V6.953c0-.033.037-.062.088-.067.053-.007.102.013.12.044l1.481 2.638V6.915c0-.034.04-.064.096-.068.052-.005.104.02.115.055l.77 2.372v-2.38c0-.034.039-.063.092-.068.054-.005.102.015.117.047l1.27 2.587v-2.6c0-.033.038-.062.09-.068.055-.003.103.017.119.049l1.226 2.575V6.828c0-.035.041-.064.096-.068.054-.003.105.02.116.054l.808 2.397V6.806c0-.034.039-.062.09-.068.054-.004.103.015.118.047l1.298 2.595V6.772c0-.034.04-.064.095-.068.05-.004.103.019.116.053l.877 2.436V6.748c0-.033.036-.061.087-.067.05-.007.1.011.118.042l1.634 2.669V6.707c0-.034.04-.062.092-.068.052-.006.102.016.117.048l1.243 2.58V6.674c0-.034.041-.063.094-.068.054-.005.103.018.117.051l1.018 2.503V6.647c0-.035.042-.065.096-.068.056-.003.104.02.115.053l.814 2.401V6.625c0-.035.04-.065.094-.069.05-.005.103.018.116.05l1.046 2.515V6.596c0-.033.038-.062.09-.067.052-.006.102.014.12.045l1.378 2.617v-2.63c0-.034.04-.063.093-.068.053-.004.102.016.117.048l1.198 2.568V6.53c0-.033.038-.062.09-.067.05-.006.1.013.119.045l1.472 2.638V6.492c0-.034.038-.062.09-.068.052-.004.102.016.118.047l1.29 2.595V6.458c0-.033.037-.06.088-.067.05-.006.101.013.118.044l1.524 2.65V6.42c0-.035.041-.065.096-.069.053-.004.104.02.115.055l.77 2.375V6.398c0-.035.042-.065.096-.068.051-.005.105.02.115.055l.731 2.347V6.377c0-.034.04-.064.094-.068.052-.004.102.018.116.05l1.01 2.501V6.35c0-.033.037-.062.087-.068.051-.004.101.013.12.044l1.567 2.658V6.31c0-.034.04-.063.093-.068.053-.004.103.017.117.051l1.013 2.502V6.283c0-.034.038-.062.09-.068.05-.005.1.014.118.046l1.416 2.627V6.247c0-.034.037-.062.088-.067.054-.006.101.012.12.045l1.43 2.63V6.211c0-.036.04-.065.095-.068.053-.004.104.018.115.051l.906 2.454V6.186c0-.035.04-.065.093-.068.054-.005.104.017.116.05l1.038 2.513V6.158c0-.034.037-.062.087-.068.051-.006.1.013.12.044l1.501 2.647V6.12c0-.033.036-.062.087-.068.05-.005.102.012.119.043l1.574 2.66V6.08c0-.035.042-.064.096-.068.052-.003.105.02.116.056l.728 2.347V6.059c0-.034.04-.064.093-.068.053-.004.104.017.117.05l1.035 2.513V6.03c0-.034.04-.063.093-.068.051-.004.103.017.117.05l1.087 2.533V6.002c0-.033.037-.062.088-.067.053-.006.1.012.119.043l1.56 2.658V5.962c0-.033.04-.063.093-.067.054-.005.103.016.117.05l1.116 2.543V5.933c0-.033.036-.061.087-.067.053-.007.1.012.12.043l1.595 2.665V5.893c0-.034.038-.062.09-.068.053-.005.102.015.118.047l1.346 2.612V5.858c0-.034.04-.063.093-.067.05-.005.102.016.116.049l1.096 2.537V5.829c0-.034.04-.064.095-.068.06-.004.105.02.116.054l.824 2.41V5.806c0-.034.041-.064.095-.068.06-.004.103.018.116.052l.944 2.474V5.78c0-.034.039-.062.092-.067.055-.005.102.015.117.047l1.238 2.584V5.748c0-.033.038-.062.09-.067.05-.007.101.013.118.045l1.392 2.625V5.713c0-.034.036-.062.088-.068.054-.006.1.013.119.043l1.562 2.66V5.674c0-.035.04-.063.092-.068.054-.004.103.017.118.051l1.02 2.508V5.646c0-.034.04-.064.093-.068.051-.006.103.016.118.05l1.095 2.537V5.616c0-.033.038-.062.09-.067.05-.006.1.014.117.046l1.373 2.62V5.58c0-.034.039-.062.092-.067.052-.004.103.016.118.048l1.14 2.554V5.551c0-.032.036-.06.087-.067.048-.006.1.011.118.042l1.663 2.68V5.508c0-.035.04-.063.095-.067.05-.006.103.017.115.051l.968 2.487V5.483c0-.034.04-.063.093-.067.052-.005.103.015.117.048l1.154 2.559v-2.57c0-.035.04-.065.095-.068.054-.004.104.02.116.053l.82 2.41V5.43c0-.033.038-.062.09-.067.056-.005.102.015.119.046l1.31 2.606V5.396c0-.035.042-.064.094-.068.06-.005.104.018.118.052l.946 2.477V5.37c0-.035.042-.064.095-.068.055-.004.105.02.116.054l.812 2.405V5.347c0-.035.041-.064.095-.068.054-.002.104.019.115.053l.89 2.449V5.322c0-.033.038-.061.089-.067.049-.007.102.013.12.045l1.443 2.639V5.286c0-.036.041-.065.095-.068.054-.005.104.02.116.054l.786 2.39V5.263c0-.035.04-.065.096-.068.05-.005.104.019.114.053l.824 2.413V5.24c0-.033.038-.062.09-.067.056-.005.101.015.119.046l1.307 2.607v-2.62c0-.033.04-.062.093-.067.052-.006.103.017.117.05l1.091 2.538v-2.55c0-.033.04-.062.091-.067.05-.005.102.015.119.046l1.329 2.612V5.144c0-.034.037-.062.086-.068.05-.006.102.012.12.043l1.623 2.674v-2.69c0-.034.04-.063.09-.068.057-.005.104.015.119.047l1.24 2.588v-2.6c0-.034.037-.062.089-.067.054-.005.103.015.119.047l1.264 2.595V5.037c0-.033.039-.062.09-.067.053-.004.103.015.118.047l1.293 2.603V5.004c0-.034.04-.063.093-.068.054-.005.103.017.117.05l1.13 2.552V4.974c0-.034.04-.063.093-.068.054-.007.103.016.116.05l1.121 2.55V4.944c0-.034.041-.064.096-.068.058-.004.103.019.116.052l.942 2.478V4.919c0-.034.04-.063.091-.068.055-.004.102.015.118.047l1.312 2.608V4.885c0-.035.041-.064.095-.068.06-.003.104.019.116.053l.866 2.439V4.86c0-.034.04-.063.093-.068.054-.006.104.016.118.05l1.088 2.538v-2.55c0-.032.036-.06.087-.066.053-.007.1.012.119.042l1.615 2.675v-2.69c0-.034.038-.063.091-.068.052-.005.102.014.118.046l1.298 2.606V4.758c0-.033.037-.062.087-.068.05-.006.1.012.12.043l1.621 2.677V4.716c0-.033.04-.062.09-.067.052-.005.103.015.119.047l1.29 2.603V4.684c0-.035.038-.064.092-.068.052-.007.103.016.117.05l1.085 2.538v-2.55c0-.034.039-.062.093-.067.054-.005.103.016.117.049l1.116 2.55V4.625c0-.034.04-.063.092-.068.053-.003.103.016.117.049l1.18 2.571V4.594c0-.035.04-.065.095-.068.053-.002.105.02.115.055l.733 2.357V4.573c0-.035.04-.063.092-.068.058-.005.104.017.118.05l1.067 2.533V4.545c0-.035.04-.064.094-.068.052-.006.104.017.117.05l.978 2.497V4.518c0-.034.038-.062.09-.068.055-.006.102.014.119.046l1.427 2.639V4.48c0-.033.04-.063.093-.068.053-.004.102.017.116.05l1.146 2.56V4.452c0-.035.042-.064.096-.068.054-.003.104.02.116.054l.818 2.414V4.428c0-.034.04-.062.09-.067.057-.004.104.015.119.047l1.225 2.587V4.396c0-.033.038-.061.09-.067.048-.007.1.013.117.044l1.458 2.647v-.503c0-.038.049-.069.107-.069.059 0 .107.03.107.069v.902c0 .033-.038.062-.09.067-.05.005-.101-.013-.118-.044l-1.457-2.646v2.66c0 .034-.039.063-.09.068-.055.005-.103-.016-.12-.048L231.9 4.889v2.598c0 .036-.04.065-.095.068-.055.004-.104-.019-.115-.053l-.818-2.414v2.423c0 .034-.04.063-.093.067-.052.005-.103-.016-.117-.049l-1.146-2.56V7.54c0 .034-.038.063-.09.068-.051.006-.102-.013-.118-.045l-1.427-2.639v2.653c0 .034-.04.064-.094.068-.054.005-.103-.018-.117-.051l-.978-2.496v2.505c0 .035-.04.064-.093.068-.057.005-.104-.017-.117-.05l-1.069-2.533v2.543c0 .036-.041.065-.096.069-.055.001-.104-.02-.115-.055l-.733-2.357v2.364c0 .035-.039.063-.09.068-.052.006-.103-.016-.12-.048L223.083 5.1v2.582c0 .034-.04.064-.093.068-.055.004-.103-.016-.117-.05l-1.115-2.55v2.562c0 .034-.04.063-.094.067-.053.005-.103-.016-.118-.049l-1.085-2.539v2.55c0 .033-.037.062-.09.067-.05.006-.102-.015-.118-.047l-1.29-2.604v2.617c0 .032-.035.06-.086.067-.05.006-.1-.012-.119-.043l-1.623-2.676v2.692c0 .034-.038.062-.09.068-.05.005-.102-.015-.118-.047l-1.297-2.605v2.618c0 .032-.038.06-.089.067-.052.006-.1-.012-.119-.043l-1.616-2.675v2.691c0 .034-.04.063-.091.068-.053.006-.103-.017-.118-.05l-1.088-2.539v2.55c0 .035-.04.064-.094.068-.057.004-.105-.019-.117-.053l-.867-2.44v2.449c0 .033-.038.062-.089.067-.055.005-.103-.015-.12-.046l-1.311-2.609v2.621c0 .035-.04.064-.094.068-.058.005-.102-.018-.116-.052l-.944-2.477V8c0 .034-.039.063-.092.068-.057.004-.103-.017-.117-.05l-1.122-2.55v2.562c0 .033-.039.062-.092.067-.052.005-.103-.016-.117-.049l-1.13-2.553V8.06c0 .034-.039.063-.09.068-.052.005-.103-.015-.118-.047l-1.293-2.603v2.615c0 .034-.038.063-.091.068-.051.005-.102-.015-.118-.047l-1.264-2.595v2.607c0 .034-.04.063-.092.068-.054.005-.102-.016-.118-.048l-1.238-2.587v2.6c0 .032-.037.06-.088.066-.052.006-.1-.011-.119-.042l-1.622-2.675v2.69c0 .035-.038.063-.091.068-.05.005-.102-.014-.117-.046l-1.331-2.612v2.625c0 .034-.039.063-.092.068-.053.005-.103-.017-.117-.05l-1.092-2.538v2.549c0 .033-.039.062-.09.068-.055.004-.103-.015-.12-.047l-1.306-2.606v2.618c0 .036-.042.064-.096.068-.053.003-.104-.02-.115-.053l-.824-2.413v2.42c0 .036-.041.066-.096.069-.053.002-.104-.02-.115-.054l-.786-2.39V8.34c0 .034-.037.062-.089.068-.052.005-.101-.014-.118-.045l-1.445-2.638v2.652c0 .035-.04.064-.095.068-.052.004-.104-.019-.115-.053l-.889-2.448v2.458c0 .034-.04.064-.095.068-.055.003-.105-.02-.116-.054l-.812-2.406v2.414c0 .035-.04.064-.095.068-.057.006-.102-.018-.115-.052l-.947-2.478V8.45c0 .034-.039.062-.09.067-.056.005-.102-.015-.119-.046l-1.311-2.606v2.619c0 .034-.042.063-.096.067-.054.003-.103-.02-.115-.053l-.82-2.41v2.418c0 .035-.04.063-.093.068-.052.004-.103-.016-.117-.049L184.6 5.966v2.57c0 .035-.039.064-.093.068-.051.006-.104-.017-.117-.051l-.968-2.487v2.497c0 .032-.036.06-.087.067-.05.006-.1-.012-.119-.042l-1.663-2.68v2.696c0 .034-.04.063-.092.068-.052.005-.104-.016-.117-.05l-1.14-2.553v2.565c0 .033-.038.062-.09.068-.051.005-.102-.015-.119-.046l-1.372-2.621v2.634c0 .035-.04.063-.092.068-.053.004-.103-.017-.118-.05l-1.095-2.538v2.549c0 .034-.04.063-.093.068-.051.006-.103-.017-.117-.05l-1.02-2.51v2.52c0 .032-.038.06-.089.067-.053.005-.1-.013-.12-.044l-1.56-2.66v2.675c0 .034-.038.062-.09.068-.05.006-.102-.014-.118-.045l-1.392-2.625V8.8c0 .034-.04.063-.091.068-.055.005-.102-.016-.119-.048l-1.237-2.584v2.596c0 .035-.04.064-.094.068-.058.005-.103-.018-.116-.052l-.945-2.474v2.484c0 .034-.04.064-.095.068-.06.003-.104-.02-.116-.054l-.824-2.41V8.88c0 .035-.04.063-.093.068-.053.005-.103-.016-.117-.05l-1.095-2.536V8.91c0 .033-.038.062-.09.067-.055.006-.102-.014-.119-.046l-1.346-2.612v2.625c0 .033-.037.061-.086.067-.055.006-.101-.012-.12-.043l-1.596-2.665v2.68c0 .035-.038.064-.092.069-.055.003-.103-.017-.117-.05l-1.116-2.543v2.554c0 .033-.037.062-.087.067-.054.006-.102-.011-.12-.043l-1.56-2.659v2.674c0 .034-.04.064-.093.068-.05.006-.103-.016-.116-.05l-1.088-2.532V9.08c0 .035-.04.064-.093.068-.052.005-.104-.017-.117-.05l-1.035-2.513v2.523c0 .035-.042.064-.097.068-.054.002-.105-.02-.115-.055l-.728-2.347V9.13c0 .033-.037.06-.088.067-.05.005-.1-.012-.118-.043l-1.575-2.661v2.676c0 .033-.037.062-.087.068-.052.005-.102-.013-.12-.045l-1.5-2.646v2.661c0 .034-.04.063-.095.068-.05.005-.103-.017-.116-.05l-1.037-2.513v2.523c0 .034-.04.064-.094.068-.054.003-.104-.02-.116-.053l-.905-2.453V9.26c0 .033-.038.061-.089.067-.056.005-.102-.014-.119-.045l-1.43-2.63v2.644c0 .033-.039.061-.09.067-.052.005-.103-.013-.119-.045l-1.415-2.627v2.64c0 .035-.04.065-.094.068-.05.006-.103-.017-.116-.05l-1.014-2.503v2.512c0 .034-.036.062-.087.068-.05.006-.101-.012-.12-.043l-1.567-2.659v2.674c0 .035-.04.063-.093.068-.059.004-.104-.018-.117-.05l-1.01-2.501v2.51c0 .035-.04.065-.096.068-.055 0-.105-.02-.114-.054l-.731-2.348v2.355c0 .035-.042.065-.096.068-.059.005-.105-.02-.116-.054l-.77-2.374v2.382c0 .033-.037.062-.087.067-.052.006-.102-.013-.12-.044l-1.523-2.649v2.664c0 .034-.038.062-.09.068-.051.006-.102-.014-.118-.047l-1.29-2.595V9.54c0 .034-.037.062-.089.067-.05.007-.1-.012-.12-.044l-1.471-2.638v2.653c0 .034-.039.062-.09.067-.055.005-.103-.015-.119-.048l-1.2-2.567v2.579c0 .034-.037.062-.088.067-.054.005-.101-.013-.119-.046l-1.38-2.617v2.631c0 .034-.04.063-.093.068-.05.004-.103-.017-.117-.05l-1.047-2.515v2.525c0 .035-.04.064-.094.068-.057.004-.105-.02-.116-.054l-.814-2.4v2.409c0 .034-.04.063-.093.068-.057.004-.104-.017-.116-.051l-1.02-2.503v2.513c0 .034-.038.062-.09.068-.052.005-.103-.016-.118-.048l-1.244-2.58v2.592c0 .033-.036.06-.087.067-.05.007-.1-.011-.119-.042l-1.634-2.668v2.684c0 .035-.041.064-.095.068-.054.002-.104-.019-.116-.053l-.877-2.436v2.445c0 .034-.039.062-.09.067-.052.005-.102-.014-.118-.046l-1.298-2.595v2.608c0 .034-.04.063-.095.067-.053.005-.104-.02-.116-.054l-.808-2.396v2.405c0 .034-.038.062-.09.067-.054.006-.103-.015-.119-.047l-1.227-2.575v2.587c0 .034-.04.062-.09.067-.055.005-.102-.014-.119-.047l-1.27-2.587v2.6c0 .035-.04.064-.094.068-.053.005-.104-.02-.116-.055l-.77-2.372v2.38c0 .034-.037.062-.09.068-.052.007-.1-.013-.119-.045l-1.481-2.638v2.653c0 .034-.04.064-.094.068-.055.003-.104-.02-.116-.053l-.873-2.433v2.442c0 .034-.04.063-.093.068-.05.004-.103-.017-.118-.05l-1.037-2.51v2.52c0 .033-.039.062-.09.067-.053.006-.103-.015-.118-.048l-1.248-2.58v2.593c0 .033-.038.063-.091.068-.052.004-.102-.016-.118-.049L113.5 7.538v2.575c0 .034-.04.064-.095.068-.054.002-.104-.02-.116-.053l-.874-2.433v2.442c0 .033-.038.062-.09.068-.052.005-.101-.014-.119-.045l-1.425-2.626v2.64c0 .033-.038.061-.09.067-.052.006-.102-.014-.118-.046l-1.394-2.617v2.63c0 .034-.038.063-.089.068-.053.005-.102-.014-.118-.047l-1.295-2.592v2.605c0 .033-.037.062-.088.067l-.018.001"/>
        <g transform="translate(234.096)">
            <mask id="h" fill="#fff">
                <use xlink:href="#g"/>
            </mask>
            <path fill="#451414" d="M42.596.025H.006l.919 7.378L27.12 9.251l16.204-2.897z" mask="url(#h)"/>
        </g>
        <path fill="#BFA711" d="M261.034 9.414c-.046 0-.086-.018-.101-.046l-1.484-2.721v2.58c0 .032-.037.06-.09.065-.054.006-.101-.012-.118-.043l-1.562-2.744v2.596c0 .032-.038.06-.09.066-.054.006-.103-.014-.12-.045l-1.42-2.703v2.566c0 .032-.038.06-.09.066-.054.006-.102-.013-.12-.043l-1.577-2.749v2.598c0 .035-.041.064-.095.067-.057.004-.105-.02-.117-.053l-.825-2.431v2.344c0 .033-.039.061-.091.067-.051.005-.103-.016-.118-.047l-1.338-2.675v2.545c0 .032-.038.06-.09.066-.055.005-.101-.013-.12-.044l-1.509-2.729v2.585c0 .033-.04.062-.094.066-.054.005-.105-.017-.117-.051l-.946-2.505v2.407c0 .034-.04.063-.094.067-.051.005-.104-.017-.117-.05l-1.058-2.562v2.455c0 .034-.04.062-.091.067-.053.004-.105-.016-.12-.048l-1.216-2.63v2.51c0 .033-.038.061-.092.066-.05.005-.103-.015-.118-.048l-1.2-2.624v2.505c0 .033-.038.061-.088.066-.051.006-.102-.012-.12-.042l-1.617-2.759v2.605c0 .034-.041.063-.095.067-.05.006-.103-.016-.116-.05l-1.058-2.561v2.454c0 .034-.04.062-.093.067-.058.004-.103-.016-.117-.049l-1.163-2.608V7.86c0 .034-.039.063-.092.067-.055.007-.102-.015-.118-.047l-1.3-2.66v2.533c0 .034-.04.063-.093.067-.058.005-.104-.017-.119-.05l-1.045-2.556v2.45c0 .035-.042.064-.097.067-.055.004-.105-.02-.115-.054l-.766-2.388v2.306c0 .032-.037.06-.088.066-.057.005-.102-.013-.12-.044l-1.514-2.73v.553c0 .038-.048.068-.107.068-.06 0-.107-.03-.107-.068v-.95c0-.033.037-.062.089-.067.053-.007.102.014.119.044l1.514 2.73V4.61c0-.035.042-.064.097-.067.052-.005.105.02.116.054l.764 2.389V4.68c0-.035.04-.063.095-.068.058-.005.103.018.116.05l1.047 2.556V4.77c0-.033.038-.061.091-.066.056-.004.103.015.119.047l1.3 2.66V4.878c0-.033.039-.062.092-.067.055-.006.103.016.118.049l1.163 2.607V4.974c0-.034.04-.062.093-.066.055-.004.104.016.118.05l1.057 2.56V5.065c0-.032.038-.06.088-.066.05-.006.102.012.12.043L244.48 7.8V5.194c0-.033.04-.062.093-.067.051-.004.104.016.118.048l1.2 2.624V5.295c0-.034.04-.063.093-.067.053-.004.103.015.118.047l1.215 2.63v-2.51c0-.033.041-.062.094-.066.055-.004.103.017.117.05l1.058 2.562V5.485c0-.033.041-.062.094-.067.056-.002.104.02.117.052l.946 2.505V5.568c0-.033.039-.061.089-.066.054-.007.103.012.12.044l1.51 2.728V5.69c0-.033.039-.062.09-.067.053-.004.103.015.12.047l1.338 2.674V5.8c0-.035.041-.064.095-.067.053-.004.104.02.117.053l.825 2.432V5.874c0-.033.037-.061.09-.067.052-.006.1.013.118.044l1.578 2.748V6c0-.033.038-.06.09-.066.054-.006.102.014.118.045l1.423 2.703V6.116c0-.033.037-.06.088-.066.054-.008.101.013.12.043l1.562 2.745V6.242c0-.033.038-.061.089-.067.051-.006.102.014.119.045l1.484 2.722V6.317c0-.033.038-.061.09-.067.052-.005.103.015.119.046l1.25 2.406V6.107c0-.032.035-.06.084-.066.053-.007.102.01.121.04l1.561 2.384V5.852c0-.034.04-.063.095-.067.062-.004.104.019.116.052l.809 2.194V5.705c0-.033.037-.061.088-.066.055-.007.102.012.12.043l1.3 2.277V5.487c0-.032.037-.06.09-.066.053-.007.1.013.118.044l1.27 2.225V5.274c0-.032.036-.06.087-.066.052-.006.1.011.12.04l1.445 2.191V5.036c0-.033.038-.06.09-.066.055-.006.1.014.119.045l1.118 2.106V4.845c0-.034.039-.062.091-.067.058-.004.104.015.12.047l.995 2.042V4.671c0-.033.038-.061.09-.066.051-.005.102.014.118.046l1.036 2.013V4.49c0-.033.04-.062.094-.066.053-.006.104.016.118.049l.834 1.923V4.341c0-.032.036-.06.085-.066.05-.007.1.009.12.038l1.452 1.98v-2.19c0-.035.039-.063.093-.068.054-.004.104.017.118.05l.765 1.819v-.462c0-.037.048-.068.108-.068.058 0 .107.03.107.068v.98c0 .034-.04.063-.094.067-.052.005-.103-.017-.117-.05l-.766-1.819V6.6c0 .031-.034.059-.084.066-.049.006-.1-.01-.12-.038l-1.452-1.98V6.9c0 .034-.04.063-.092.067-.053.007-.104-.016-.118-.049l-.836-1.924v2.097c0 .033-.038.06-.09.066-.05.006-.103-.014-.12-.046l-1.036-2.013v2.219c0 .034-.039.062-.09.067-.055.006-.103-.015-.12-.047l-.995-2.042v2.24c0 .034-.038.063-.09.067-.055.007-.102-.013-.118-.045l-1.119-2.106v2.326c0 .033-.036.06-.087.067-.052.007-.1-.011-.12-.04l-1.444-2.19v2.464c0 .032-.037.06-.089.066-.056.006-.102-.013-.12-.043l-1.27-2.226v2.471c0 .033-.037.06-.087.067-.054.007-.103-.013-.12-.044l-1.3-2.277V8.62c0 .034-.041.063-.096.068-.057.005-.104-.019-.116-.053l-.81-2.193v2.364c0 .032-.035.06-.085.066-.053.007-.101-.011-.12-.04l-1.561-2.384v2.68c0 .032-.038.06-.09.066-.053.005-.103-.015-.119-.046l-1.249-2.407v2.606c0 .033-.037.06-.088.066h-.019"/>
    </g>
</svg>
