<svg xmlns="http://www.w3.org/2000/svg" width="152" height="36" viewBox="0 0 152 36">
    <g fill="#FFF" fill-rule="nonzero">
        <path d="M52.1 24.7V20c0-.2.1-.3.3-.3h12.4c.3 0 .4.1.4.3v4.7H52.1zm14.1-10c.7.6 1.3 1.4 1.9 2.1l1.9-1.6c-2.2-2.6-4.6-5.1-7.2-7.4L61 9.6l3 2.8-11.1.7c1.3-1.8 2.5-3.7 3.5-5.6l-2.1-1.4c-1.4 2.5-3 4.9-4.7 7.2h-2.1c.3.9.5 1.7.7 2.5l18-1.1zM52.1 27.2h13.1v1.3h2.5V18.1c.1-.4-.2-.8-.7-.9H50.4c-.6 0-.8.3-.8.9v10.4h2.5v-1.3zM80.3 6.7h2.4v1.5h3.8v2.3H75.9V8.2h4.4V6.7zm2.2 22.1h-2.3V23c-1 1.5-2.1 2.8-3.3 4.1l-2-1.3c1.7-1.5 3.2-3.1 4.4-5h-3.8v-2.3h4.7v-1.7h-4.6v-2.3h2.7c-.3-1-.8-1.9-1.3-2.8l1.9-1c.6 1 1.1 2.1 1.5 3.2l-1.4.6h2.9c.6-1.3 1.1-2.6 1.5-3.9l2.1.9c-.3 1-.6 2-1.1 3h2.2v2.3h-4.1v1.7h4.1v2.3h-3.2c1 .9 1.9 1.9 2.8 2.9l-1.7 1.6-2-2.4v5.9zm7.4-13.2v3.2c0 1.7-.3 3.3-.8 4.9-.8 1.9-2 3.6-3.4 5.1L83.8 27c1.3-1.3 2.4-2.8 3.1-4.5.4-1.2.7-2.4.7-3.7V8c0-.5.2-.8.6-.8 2.6 0 5.2-.2 7.7-.6l.8 2.4c-2.1.3-4.3.5-6.4.5-.3 0-.4.2-.4.5v3.2h7v2.4h-2.1v13.2h-2.4V15.6h-2.5zM121.3 13.9v1.6c.1.3-.1.5-.4.6H115.3v-2.2h6zm-18.6 6.4c.5 1.5.9 3.1 1.2 4.7l2.2-.6c-.2-1.6-.7-3.2-1.3-4.7l-2.1.6zm7.6-.6c-.3 1.2-.7 2.4-1.2 3.5l1.8.9c.4-1.1.9-2.3 1.3-3.7l-1.9-.7zm-3.6 6l-3.5.5.3 2.4 7.9-1.7.6 2.3c2.5-.5 4.9-1.2 7.2-2.1l-.7-2.3-3.2 1.2v-7.6h1.6c.1 3 1.2 5.9 3.2 8.1 1 .9 2 1.8 3.1 2.5l2-1.7c-1.6-.9-3-2-4.2-3.4 1.3-1.1 2.5-2.2 3.6-3.5l-1.6-1.7c-.9 1.2-2 2.2-3.2 3.1-.3-1.1-.6-2.2-.6-3.4h3.7c.5 0 .7-.3.7-.8V7.7c0-.5-.2-.7-.7-.7h-9.3c-.3-.1-.6.2-.7.5V26.6l-1.1.2h.4l-.4-2.3-2.8.7v-6.3h3v-2.2h-3v-2h2.2v-2.3h-6.4c1.3-.8 2.5-1.9 3.5-3.1l3.1 2.6 1.5-1.9-4-3.1h-1.7c-1.2 1.6-2.8 2.8-4.5 3.8l1.5 2h.1v2.1h2.4v2h-3.3V19h3.3v6.7zm8.6-14.1V9.8c-.1-.3.1-.5.5-.5h5c.3 0 .5.2.5.5v1.8h-6zM19.8 0c-5.3 0-9.7 4.3-9.8 9.6-.2 4.1 2.1 8 5.9 9.7 2.5 1.1 7 1.9 6.9 6-.1 4.1-3.8 5.7-7.3 5.7H9.4V13H4.3V4.5h5.1V0H0v17.5h5v17.9h11.7c5.8 0 10.5-4.6 10.7-10.4.1-5.1-3.9-7.8-8.7-9.4-2.6-.7-4.4-3.2-4.3-5.9.2-2.8 2.5-5.1 5.3-5.2h13.4v8.3h4.2V0H19.8z"/>
        <path d="M29.1 10.6c-2.1-1.5-4.5-2.4-7-2.6h-.2c-1.2 0-2.2 1-2.2 2.2 0 .7.3 1.4.8 1.8.5.3 1.1.6 1.7.7 5.2 1.3 9.5 6.3 9.8 11 .4 4.4-1.4 8.8-4.8 11.7h5.4c2.4-2.4 4-6.4 3.9-11.5-.2-5.4-3-10.3-7.4-13.3M136.3 7.5c-1 2.5-2.5 4.8-4.4 6.7l-2-1.5c1.9-1.7 3.3-3.8 4.2-6.1l2.2.9zm-4.8 13.7l-1.9-1.7c2.3-1.7 4.1-4 5.3-6.6L137 14c-.5 1-1 2-1.6 2.9v11.6H133v-8.6l-1.5 1.3zm7.2-11.2H151V7.5h-12.3V10zm-.9 5.7v-2.5h14v2.5h-2.9v10.9c0 .3-.1.7-.3.9-.3.3-.6.6-1 .8-1.4.7-3.8.7-7.1-.1v-2.6l1.3.4c2.1.5 3.6.5 4.4.1.1-.2.2-.4.2-.6v-9.8h-8.6z"/>
    </g>
</svg>
