<svg xmlns="http://www.w3.org/2000/svg" xmlns:xlink="http://www.w3.org/1999/xlink" width="109" height="109" viewBox="0 0 109 109">
    <defs>
        <radialGradient id="a" fx="50%" fy="50%">
            <stop offset="0%" stop-color="#FFF"/>
            <stop offset="13.363%" stop-color="#FFF"/>
            <stop offset="33.493%" stop-color="#FFF" stop-opacity=".892"/>
            <stop offset="40.472%" stop-color="#FFF" stop-opacity=".824"/>
            <stop offset="100%" stop-color="#FFF" stop-opacity="0"/>
        </radialGradient>
        <path id="b" d="M.296.003h4.147v5.313H.296z"/>
    </defs>
    <g fill="none" fill-rule="evenodd">
        <circle cx="54.148" cy="54.148" r="54.148" fill="url(#a)"/>
        <text fill="#430000" font-family="NotoSerifCJKtc-Bold, Noto Serif CJK TC" font-size="16" font-weight="bold">
            <tspan x="38.258" y="93.69">水費</tspan>
        </text>
        <path fill="#77D3FE" d="M63.265 49.1s.142.748 1.57.916c0 0 2.789.715 3.346 1.896.558 1.181.609 5.007 0 6.338-.608 1.33-3.535 6.363.742 6.363V49.1h-5.658z"/>
        <path fill="#FFF" d="M69.288 50.312c-4.86 0-4.652-1.552-4.652-1.552h1.131s-.061 1.272 3.521 1.272v.28z"/>
        <path fill="#77D3FE" d="M74.581 49.1s-.143.748-1.571.916c0 0-2.788.715-3.346 1.896-.557 1.181-.608 5.007 0 6.338.608 1.33 3.535 6.363-.741 6.363V49.1h5.658z"/>
        <path fill="#FFF" d="M68.513 50.312c4.86 0 4.652-1.552 4.652-1.552h-1.13s.06 1.272-3.522 1.272v.28zM68.513 64.271s2.305.14 1.914-2.325c0 0-.19 1.872-1.914 2.325"/>
        <path fill="#77818B" d="M52.988 13.93h-8.533a1.496 1.496 0 1 0 0 2.992h8.533V13.93z"/>
        <path fill="#5E666E" d="M57.453 19.865H52.356c-.577 1.155-1.4 3.702 2.549 3.702 3.948 0 3.126-2.547 2.548-3.702"/>
        <path fill="#AAAFB3" d="M63.303 24.6H44.996v4.45H64.813V24.6z"/>
        <path fill="#77818B" d="M35.161 26.825v21.21h2.953v-21.21z"/>
        <path fill="#5A6773" d="M54.905 17.74H53.77v2.125h2.269V17.74z"/>
        <path fill="#77818B" d="M54.905 17.74h-.773v2.125h1.545V17.74zM60.208 22.813l-1.702-2.948h-1.053c.577 1.155 1.4 3.702-2.549 3.702s-3.126-2.547-2.548-3.702h-1.054l-1.701 2.948a3.574 3.574 0 0 1-3.095 1.787h16.796a3.573 3.573 0 0 1-3.094-1.787"/>
        <g transform="translate(52.535 12.737)">
            <mask id="c" fill="#fff">
                <use xlink:href="#b"/>
            </mask>
            <path fill="#5A6773" d="M2.419.003h-.1A2.024 2.024 0 0 0 .297 2.027v1.5c0 .989.8 1.789 1.788 1.789h.57c.988 0 1.789-.8 1.789-1.788v-1.5A2.024 2.024 0 0 0 2.419.002" mask="url(#c)"/>
        </g>
        <path fill="#D8D8D8" d="M54.905 13.935a1.844 1.844 0 0 0-1.846 1.842c0 1.017.828 1.841 1.846 1.841a1.844 1.844 0 0 0 1.845-1.841 1.845 1.845 0 0 0-1.845-1.842"/>
        <path fill="#77818B" d="M56.821 13.93h8.533a1.496 1.496 0 1 1 0 2.992H56.82V13.93z"/>
        <path fill="#5A6773" d="M60.525 29.05H49.246c0 .319-.036.633-.104.94h11.562a2.556 2.556 0 0 1-.18-.94"/>
        <path fill="#77818B" d="M67.375 32.474l-4.76-.901a2.566 2.566 0 0 1-1.91-1.584H49.141a4.32 4.32 0 0 1-1.16 2.115l-.29.29a3.338 3.338 0 0 1-2.36.977h-2.373v8.339H48c.638 0 1.25.253 1.702.704a6.644 6.644 0 0 0 9.397 0l.057-.056a2.407 2.407 0 0 1 4.11 1.701V49.1H74.58v-7.929a8.852 8.852 0 0 0-7.206-8.697"/>
        <path fill="#5E666E" d="M38.114 29.47v3.414h.495z"/>
        <path fill="#5E666E" d="M38.114 29.47l.495 3.414h-.495V45.39H42.959V29.47z"/>
    </g>
</svg>
